<svg width="111" height="140" viewBox="0 0 111 140" fill="none" xmlns="http://www.w3.org/2000/svg">
<g filter="url(#filter0_d)">
<path d="M62.7312 28.0329C62.9733 27.5464 63.1157 27.0165 63.1503 26.4742C63.1848 25.9319 63.1107 25.3882 62.9323 24.8749C62.7539 24.3617 62.4748 23.8892 62.1114 23.4852C61.748 23.0813 61.3076 22.7539 60.816 22.5224L47.0795 16.0451C46.3783 15.7148 45.7858 15.1915 45.3712 14.5365C44.9567 13.8815 44.7374 13.122 44.7391 12.3469V7.28021C44.7391 6.5595 44.4531 5.86823 43.944 5.35812C43.4349 4.84801 42.7442 4.56073 42.0235 4.55933H25.397C24.6754 4.55933 23.9833 4.84599 23.4731 5.35625C22.9628 5.86652 22.6761 6.55858 22.6761 7.28021V12.3548C22.6778 13.1299 22.4585 13.8895 22.044 14.5444C21.6295 15.1994 21.0369 15.7227 20.3357 16.0531L6.60446 22.5224C6.11285 22.7539 5.67245 23.0812 5.30911 23.4853C4.94577 23.8893 4.66683 24.3619 4.48867 24.8752C4.3105 25.3885 4.2367 25.9323 4.27161 26.4745C4.30651 27.0168 4.44941 27.5466 4.69192 28.0329L7.09581 32.8618C9.50388 37.704 10.9263 42.9762 11.2804 48.3725C11.6346 53.7689 10.9135 59.1818 9.15892 64.2972C8.90708 65.0316 8.63412 65.7589 8.34001 66.4792L6.50672 70.9699C6.25375 71.59 6.15715 72.2627 6.2254 72.9289C6.29366 73.5951 6.52468 74.2343 6.89813 74.7901C7.27158 75.346 7.776 75.8015 8.36694 76.1165C8.95789 76.4315 9.61723 76.5964 10.2869 76.5966H57.1415C57.811 76.5962 58.47 76.4311 59.0606 76.1159C59.6512 75.8007 60.1552 75.345 60.5282 74.7891C60.9012 74.2332 61.1317 73.594 61.1994 72.928C61.2671 72.262 61.1699 71.5896 60.9164 70.9699L59.0831 66.4792C58.789 65.7589 58.516 65.0316 58.2642 64.2972C56.5086 59.1819 55.7872 53.7687 56.1418 48.3721C56.4964 42.9756 57.9201 37.7033 60.33 32.8618L62.7312 28.0329Z" fill="white"/>
</g>
<path d="M39.1986 45.7213H34.0527V50.8672H39.1986V45.7213Z" fill="#E3E3E3"/>
<path d="M39.1986 35.4321H34.0527V40.578H39.1986V35.4321Z" fill="#E3E3E3"/>
<path d="M44.3456 50.8672H39.1997V56.0131H44.3456V50.8672Z" fill="#E3E3E3"/>
<path d="M44.3456 40.5753H39.1997V45.7212H44.3456V40.5753Z" fill="#E3E3E3"/>
<path d="M34.0531 40.5753H28.9072V45.7212H34.0531V40.5753Z" fill="#E3E3E3"/>
<path d="M34.0531 50.8672H28.9072V56.0131H34.0531V50.8672Z" fill="#E3E3E3"/>
<path d="M39.1986 25.1403H34.0527V30.2862H39.1986V25.1403Z" fill="#E3E3E3"/>
<path d="M39.1986 4.55933H34.9456H34.0527V9.70522H39.1986V4.55933Z" fill="#E3E3E3"/>
<path d="M10.001 40.5753C10.4488 42.2672 10.7876 43.986 11.0154 45.7212H13.4721V40.5753H10.001Z" fill="#E3E3E3"/>
<path d="M8.32653 35.5885V35.4321H8.26025C8.28146 35.4851 8.30532 35.5355 8.32653 35.5885Z" fill="#E3E3E3"/>
<path d="M11.3643 50.8672C11.3727 52.5872 11.2712 54.306 11.0605 56.0131H13.4724V50.8672H11.3643Z" fill="#E3E3E3"/>
<path d="M18.6186 16.8562L13.4727 19.2839V19.9945H18.6186V16.8562Z" fill="#E3E3E3"/>
<path d="M10.0936 61.1589C9.82412 62.2156 9.51241 63.2608 9.15843 64.2946C8.92596 64.9682 8.67501 65.6391 8.4082 66.3022H13.4722V61.1589H10.0936Z" fill="#E3E3E3"/>
<path d="M4.41437 25.1403C4.1429 26.1097 4.24177 27.1455 4.69174 28.0461L5.81179 30.2994H8.32662V25.1403H4.41437Z" fill="#E3E3E3"/>
<path d="M6.50391 70.9674C6.43957 71.1239 6.38574 71.2845 6.34277 71.4482H8.32664V66.5031L6.50391 70.9674Z" fill="#E3E3E3"/>
<path d="M22.6784 9.70532V12.347C22.6819 13.2568 22.3816 14.1419 21.8252 14.8618H23.7642V9.70532H22.6784Z" fill="#E3E3E3"/>
<path d="M44.3456 71.4481H39.1997V76.594H44.3456V71.4481Z" fill="#E3E3E3"/>
<path d="M34.0531 71.4481H28.9072V76.594H34.0531V71.4481Z" fill="#E3E3E3"/>
<path d="M23.7641 71.4481H18.6182V76.594H23.7641V71.4481Z" fill="#E3E3E3"/>
<path d="M8.32617 76.1C8.92691 76.4262 9.60004 76.5961 10.2836 76.594H13.4721V71.4481H8.32617V76.1Z" fill="#E3E3E3"/>
<path d="M54.6338 19.6086V19.9943H55.458L54.6338 19.6086Z" fill="#E3E3E3"/>
<path d="M56.0576 50.8672C56.0655 49.1463 56.1819 47.4276 56.4063 45.7213H54.6338V50.8672H56.0576Z" fill="#E3E3E3"/>
<path d="M57.4207 40.5754C57.8856 38.8241 58.4672 37.1058 59.1616 35.4321H54.6338V40.5754H57.4207Z" fill="#E3E3E3"/>
<path d="M59.7797 25.1403H54.6338V30.2862H59.7797V25.1403Z" fill="#E3E3E3"/>
<path d="M57.3283 61.159C56.8965 59.466 56.5736 57.7472 56.3614 56.0131H54.6338V61.159H57.3283Z" fill="#E3E3E3"/>
<path d="M61.08 71.4481H59.7803V75.6193C60.3696 75.1184 60.8047 74.4605 61.0348 73.7221C61.2649 72.9837 61.2805 72.1951 61.08 71.4481Z" fill="#E3E3E3"/>
<path d="M59.7797 71.448V68.183L59.0823 66.4765C59.0585 66.4184 59.0374 66.3602 59.0163 66.3021H54.6338V71.448H59.7797Z" fill="#E3E3E3"/>
<path d="M28.9071 4.55933H25.3964C24.8055 4.55851 24.2307 4.75256 23.7612 5.11143V9.70523H28.9071V4.55933Z" fill="#E3E3E3"/>
<path d="M44.7441 7.28019C44.7413 6.78586 44.6034 6.30171 44.3452 5.88013V9.70521H44.7441V7.28019Z" fill="#E3E3E3"/>
<path d="M44.3456 30.2861H39.1997V35.432H44.3456V30.2861Z" fill="#E3E3E3"/>
<path d="M60.3297 32.8644L61.6109 30.2861H59.7803V34.0188C59.9573 33.6304 60.1395 33.2474 60.3297 32.8644Z" fill="#E3E3E3"/>
<path d="M18.6186 25.1403H13.4727V30.2862H18.6186V25.1403Z" fill="#E3E3E3"/>
<path d="M60.8158 22.5224L59.7803 22.0337V25.1403H63.011C62.8565 24.571 62.5801 24.0421 62.2011 23.5901C61.8221 23.1381 61.3494 22.7738 60.8158 22.5224Z" fill="#E3E3E3"/>
<path d="M13.4721 19.9944H11.9663L8.32617 21.7114V25.1403H13.4721V19.9944Z" fill="#E3E3E3"/>
<path d="M44.3456 9.70532H39.1997V14.8512H44.3456V9.70532Z" fill="#E3E3E3"/>
<path d="M54.6342 61.1589H49.4883V66.3048H54.6342V61.1589Z" fill="#E3E3E3"/>
<path d="M49.4885 19.9944V17.181L47.0846 16.0451C46.5033 15.7733 45.9946 15.3677 45.6 14.8617H44.3452V19.9944H49.4885Z" fill="#E3E3E3"/>
<path d="M28.9105 14.8511H23.7646V19.997H28.9105V14.8511Z" fill="#E3E3E3"/>
<path d="M34.0531 9.70532H28.9072V14.8512H34.0531V9.70532Z" fill="#E3E3E3"/>
<path d="M54.6342 19.9944H49.4883V25.1403H54.6342V19.9944Z" fill="#E3E3E3"/>
<path d="M54.6342 40.5753H49.4883V45.7212H54.6342V40.5753Z" fill="#E3E3E3"/>
<path d="M54.6342 50.8672H49.4883V56.0131H54.6342V50.8672Z" fill="#E3E3E3"/>
<path d="M54.6342 30.2861H49.4883V35.432H54.6342V30.2861Z" fill="#E3E3E3"/>
<path d="M23.7641 19.9944H18.6182V25.1403H23.7641V19.9944Z" fill="#E3E3E3"/>
<path d="M49.4911 66.3021H44.3452V71.448H49.4911V66.3021Z" fill="#E3E3E3"/>
<path d="M28.9105 66.3021H23.7646V71.448H28.9105V66.3021Z" fill="#E3E3E3"/>
<path d="M39.1986 66.3021H34.0527V71.448H39.1986V66.3021Z" fill="#E3E3E3"/>
<path d="M49.4907 71.4481V76.594H49.5198H54.634V71.4481H49.4907Z" fill="#E3E3E3"/>
<path d="M18.6186 45.7213H13.4727V50.8672H18.6186V45.7213Z" fill="#E3E3E3"/>
<path d="M13.4721 30.2861H8.32617V35.432H13.4721V30.2861Z" fill="#E3E3E3"/>
<path d="M18.6186 35.4321H13.4727V40.578H18.6186V35.4321Z" fill="#E3E3E3"/>
<path d="M18.6186 56.0131H13.4727V61.159H18.6186V56.0131Z" fill="#E3E3E3"/>
<path d="M18.6186 66.3021H13.4727V71.448H18.6186V66.3021Z" fill="#E3E3E3"/>
<path d="M49.4911 25.1403H44.3452V30.2862H49.4911V25.1403Z" fill="#E3E3E3"/>
<path d="M49.4911 45.7213H44.3452V50.8672H49.4911V45.7213Z" fill="#E3E3E3"/>
<path d="M49.4911 35.4321H44.3452V40.578H49.4911V35.4321Z" fill="#E3E3E3"/>
<path d="M34.0531 30.2861H28.9072V35.432H34.0531V30.2861Z" fill="#E3E3E3"/>
<path d="M49.4911 56.0131H44.3452V61.159H49.4911V56.0131Z" fill="#E3E3E3"/>
<path d="M28.9105 35.4321H23.7646V40.578H28.9105V35.4321Z" fill="#E3E3E3"/>
<path d="M39.1986 56.0131H34.0527V61.159H39.1986V56.0131Z" fill="#E3E3E3"/>
<path d="M28.9105 45.7213H23.7646V50.8672H28.9105V45.7213Z" fill="#E3E3E3"/>
<path d="M44.3456 19.9944H39.1997V25.1403H44.3456V19.9944Z" fill="#E3E3E3"/>
<path d="M28.9105 56.0131H23.7646V61.159H28.9105V56.0131Z" fill="#E3E3E3"/>
<path d="M34.0531 19.9944H28.9072V25.1403H34.0531V19.9944Z" fill="#E3E3E3"/>
<path d="M23.7641 40.5753H18.6182V45.7212H23.7641V40.5753Z" fill="#E3E3E3"/>
<path d="M23.7641 50.8672H18.6182V56.0131H23.7641V50.8672Z" fill="#E3E3E3"/>
<path d="M23.7641 61.1589H18.6182V66.3048H23.7641V61.1589Z" fill="#E3E3E3"/>
<path d="M34.0531 61.1589H28.9072V66.3048H34.0531V61.1589Z" fill="#E3E3E3"/>
<path d="M23.7641 30.2861H18.6182V35.432H23.7641V30.2861Z" fill="#E3E3E3"/>
<path d="M44.3456 61.1589H39.1997V66.3048H44.3456V61.1589Z" fill="#E3E3E3"/>
<path d="M39.1986 14.8511H34.0527V19.997H39.1986V14.8511Z" fill="#E3E3E3"/>
<path d="M28.9105 25.1403H23.7646V30.2862H28.9105V25.1403Z" fill="#E3E3E3"/>
<path d="M28.9443 123.483L33.6993 128.309L38.4542 123.483V84.7592L33.8498 81.613L28.9443 84.7592V123.483Z" fill="#6E6E6E"/>
<path d="M24.8687 131.648L33.7128 135.73L34.9386 131.648V126.204C34.9386 125.482 34.6519 124.79 34.1416 124.28C33.6314 123.77 32.9393 123.483 32.2177 123.483H27.5842C26.8635 123.484 26.1728 123.772 25.6637 124.282C25.1546 124.792 24.8687 125.483 24.8687 126.204V131.648Z" fill="#EE8E58"/>
<path d="M42.5518 126.204V131.648L38.098 135.73L34.3786 131.648V126.204C34.3786 125.482 34.0919 124.79 33.5817 124.28C33.0714 123.77 32.3793 123.483 31.6577 123.483H39.8204C40.1786 123.482 40.5335 123.551 40.8648 123.687C41.1962 123.823 41.4974 124.023 41.7511 124.276C42.0049 124.529 42.2063 124.829 42.3437 125.16C42.4811 125.491 42.5518 125.846 42.5518 126.204Z" fill="#EE7E3B"/>
<path d="M25.1991 76.5281L25.001 76.5941V82.0359C25.001 82.7575 25.2876 83.4496 25.7979 83.9598C26.3082 84.4701 27.0002 84.7568 27.7219 84.7568H39.6964C40.418 84.7568 41.1101 84.4701 41.6203 83.9598C42.1306 83.4496 42.4173 82.7575 42.4173 82.0359V76.5941L42.2244 76.5281H25.1991Z" fill="#EE8E58"/>
<path d="M34.341 76.5281L34.2512 76.5941V82.0359C34.2512 82.7575 33.9645 83.4496 33.4542 83.9598C32.944 84.4701 32.2519 84.7568 31.5303 84.7568H39.6956C40.4172 84.7568 41.1092 84.4701 41.6195 83.9598C42.1298 83.4496 42.4164 82.7575 42.4164 82.0359V76.5941L42.3213 76.5281H34.341Z" fill="#EE7E3B"/>
<path opacity="0.2" d="M52.1624 32.8644C49.753 37.7062 48.3297 42.9784 47.9751 48.3748C47.6205 53.7713 48.3416 59.1844 50.0966 64.2998H58.2566C56.5003 59.1847 55.7784 53.7713 56.1331 48.3747C56.4877 42.978 57.9118 37.7057 60.3224 32.8644L62.721 28.0329C62.9633 27.5469 63.1062 27.0174 63.1413 26.4755C63.1764 25.9335 63.1029 25.39 62.9253 24.8769C62.7477 24.3637 62.4694 23.8911 62.1068 23.4868C61.7443 23.0825 61.3046 22.7546 60.8137 22.5224L47.0772 16.0451C46.376 15.7148 45.7834 15.1915 45.3689 14.5365C44.9544 13.8815 44.7351 13.122 44.7368 12.3469V7.28021C44.7361 6.55926 44.4495 5.86799 43.94 5.35796C43.4304 4.84792 42.7395 4.56072 42.0185 4.55933H33.8506C34.5722 4.55933 35.2643 4.84599 35.7745 5.35625C36.2848 5.86652 36.5715 6.55858 36.5715 7.28021V12.3548C36.5698 13.1299 36.7891 13.8895 37.2036 14.5444C37.6182 15.1994 38.2107 15.7227 38.912 16.0531L52.6484 22.5303C53.14 22.7618 53.5804 23.0892 53.9439 23.4932C54.3073 23.8971 54.5863 24.3696 54.7647 24.8829C54.9431 25.3961 55.0172 25.9398 54.9827 26.4821C54.9481 27.0244 54.8057 27.5543 54.5636 28.0408L52.1624 32.8644Z" fill="#9C9C9C" fill-opacity="0.48"/>
<path opacity="0.2" d="M49.039 76.5942H10.2335C9.56726 76.5882 8.91265 76.4191 8.32688 76.1017C7.74111 75.7842 7.24202 75.3282 6.87323 74.7733C6.50445 74.2184 6.27721 73.5817 6.21137 72.9187C6.14553 72.2557 6.24311 71.5867 6.49557 70.9701L8.31037 66.4793C8.60095 65.7591 8.87127 65.0317 9.12135 64.2974H50.1512C50.4012 65.0317 50.6716 65.7591 50.9622 66.4793L52.7743 70.9701C53.0274 71.5864 53.1255 72.2554 53.0601 72.9184C52.9947 73.5815 52.7677 74.2184 52.3991 74.7734C52.0305 75.3284 51.5315 75.7845 50.9457 76.102C50.3599 76.4194 49.7053 76.5884 49.039 76.5942Z" fill="#9C9C9C" fill-opacity="0.44"/>
<path opacity="0.5" d="M57.1363 76.5942H48.9736C49.643 76.594 50.302 76.4292 50.8927 76.1143C51.4833 75.7994 51.9874 75.3441 52.3607 74.7885C52.7339 74.2328 52.9647 73.5939 53.0328 72.9281C53.1009 72.2622 53.0042 71.5898 52.7512 70.9701L50.902 66.4793C50.6097 65.7591 50.3367 65.0317 50.0831 64.2974H58.2484C58.5002 65.0317 58.7732 65.7591 59.0673 66.4793L60.9006 70.9701C61.1536 71.5898 61.2503 72.2622 61.1822 72.9281C61.1141 73.5939 60.8833 74.2328 60.5101 74.7885C60.1369 75.3441 59.6327 75.7994 59.0421 76.1143C58.4514 76.4292 57.7924 76.594 57.1231 76.5942H57.1363Z" fill="#9C9C9C" fill-opacity="0.54"/>
<path d="M15.3375 139.811H44.7283C45.0891 139.811 45.4351 139.667 45.6903 139.412C45.9454 139.157 46.0887 138.811 46.0887 138.45V135.729C46.0891 135.193 45.9838 134.662 45.7788 134.167C45.5739 133.671 45.2733 133.221 44.8943 132.842C44.5152 132.463 44.0652 132.162 43.5699 131.956C43.0745 131.751 42.5436 131.646 42.0074 131.646H18.061C16.9779 131.646 15.9391 132.076 15.1732 132.842C14.4073 133.608 13.9771 134.646 13.9771 135.729V138.45C13.9777 138.811 14.1213 139.157 14.3763 139.412C14.6313 139.667 14.9769 139.81 15.3375 139.811Z" fill="#6E6E6E"/>
<path d="M53.438 135.729V138.45C53.4373 138.811 53.2938 139.157 53.0388 139.412C52.7838 139.667 52.4382 139.81 52.0776 139.811H43.9149C44.2755 139.81 44.6212 139.667 44.8761 139.412C45.1311 139.157 45.2747 138.811 45.2754 138.45V135.729C45.2747 134.647 44.8442 133.608 44.0784 132.842C43.3127 132.077 42.2743 131.646 41.1914 131.646H49.3567C50.4392 131.647 51.4768 132.078 52.242 132.843C53.0072 133.609 53.4373 134.647 53.438 135.729Z" fill="#585858"/>
<path d="M50.2813 36.9429H36.7007C36.4869 36.9431 36.2763 36.9935 36.0856 37.0902C35.895 37.1868 35.7298 37.3269 35.6033 37.4992C35.4768 37.6714 35.3926 37.871 35.3574 38.0818C35.3223 38.2927 35.3372 38.5088 35.401 38.7128L39.7544 52.5893C39.8415 52.8658 40.0144 53.1073 40.2482 53.2788C40.4819 53.4503 40.7642 53.5428 41.0541 53.5429H55.9265L50.2813 36.9429Z" fill="#5DA8D9"/>
<path d="M95.7193 36.9429H109.384C109.598 36.9431 109.809 36.9935 109.999 37.0902C110.19 37.1868 110.355 37.3269 110.482 37.4992C110.608 37.6714 110.693 37.871 110.728 38.0818C110.763 38.2927 110.748 38.5088 110.684 38.7128L106.331 52.5893C106.244 52.8658 106.071 53.1073 105.837 53.2788C105.603 53.4503 105.321 53.5428 105.031 53.5429H89.6699L95.7193 36.9429Z" fill="#5DA8D9"/>
<path d="M64.6358 36.9429H81.2359L85.3621 45.832L77.313 57.5634H64.8287L61.2202 44.6485L64.6358 36.9429Z" fill="#5DA8D9"/>
<path d="M56.4017 62.0225L50.1489 36.9429H64.6356V39.3652C64.6413 40.571 64.9102 41.7611 65.4234 42.8522C65.9367 43.9433 66.6819 44.9093 67.6071 45.6826C68.5324 46.4558 69.6152 47.0178 70.7801 47.3292C71.945 47.6407 73.1639 47.694 74.3516 47.4856C78.3563 46.8279 81.2357 43.259 81.2357 39.2015V36.9429H87.4276L84.0252 62.0199C82.9956 66.1515 82.783 70.4443 83.3992 74.6574L87.8318 119.734C87.8656 119.964 87.8495 120.198 87.7847 120.42C87.7199 120.643 87.6078 120.849 87.4561 121.025C87.3045 121.2 87.1168 121.341 86.9058 121.437C86.6948 121.534 86.4656 121.584 86.2336 121.583H52.0218C51.791 121.582 51.5632 121.531 51.3539 121.433C51.1445 121.336 50.9584 121.195 50.8082 121.02C50.658 120.845 50.5471 120.639 50.483 120.417C50.419 120.196 50.4032 119.963 50.4369 119.734L57.0409 74.6601C57.6571 70.4487 57.4445 66.1576 56.4149 62.0278L56.4017 62.0225Z" fill="#89C3E8"/>
<path d="M95.4497 119.735C95.4835 119.964 95.4674 120.198 95.4026 120.421C95.3378 120.644 95.2257 120.85 95.0741 121.025C94.9224 121.201 94.7347 121.341 94.5237 121.438C94.3127 121.534 94.0835 121.584 93.8515 121.584H85.6889C85.9208 121.584 86.1501 121.534 86.3611 121.438C86.572 121.341 86.7597 121.201 86.9114 121.025C87.0631 120.85 87.1751 120.644 87.24 120.421C87.3048 120.198 87.3209 119.964 87.2871 119.735L80.683 74.6631C80.066 70.4501 80.2778 66.1572 81.3064 62.0255L87.5618 36.9485H95.7245L89.4717 62.0255C88.4418 66.1571 88.23 70.4502 88.8483 74.6631L95.4497 119.735Z" fill="#6DB8E8"/>
<defs>
<filter id="filter0_d" x="0.546078" y="0.842221" width="66.3295" height="79.4715" filterUnits="userSpaceOnUse" color-interpolation-filters="sRGB">
<feFlood flood-opacity="0" result="BackgroundImageFix"/>
<feColorMatrix in="SourceAlpha" type="matrix" values="0 0 0 0 0 0 0 0 0 0 0 0 0 0 0 0 0 0 127 0" result="hardAlpha"/>
<feOffset/>
<feGaussianBlur stdDeviation="1.85855"/>
<feColorMatrix type="matrix" values="0 0 0 0 0.352188 0 0 0 0 0.518788 0 0 0 0 0.6125 0 0 0 0.15 0"/>
<feBlend mode="normal" in2="BackgroundImageFix" result="effect1_dropShadow"/>
<feBlend mode="normal" in="SourceGraphic" in2="effect1_dropShadow" result="shape"/>
</filter>
</defs>
</svg>
