<svg width="132" height="130" viewBox="0 0 132 130" fill="none" xmlns="http://www.w3.org/2000/svg">
<path d="M12.7656 46.083H131.645V124.086C131.645 124.78 131.507 125.467 131.239 126.107C130.971 126.748 130.579 127.328 130.085 127.815C129.59 128.303 129.004 128.687 128.36 128.946C127.716 129.205 127.027 129.333 126.333 129.323H17.9814C16.5895 129.32 15.2545 128.771 14.2634 127.793C13.7755 127.307 13.3883 126.729 13.1239 126.093C12.8596 125.457 12.7234 124.775 12.7231 124.086L12.7656 46.083Z" fill="#E8F0F9"/>
<path d="M123.763 46.083V124.086C123.763 124.78 123.625 125.467 123.357 126.107C123.09 126.748 122.697 127.328 122.203 127.815C121.709 128.303 121.123 128.687 120.479 128.946C119.835 129.205 119.146 129.333 118.452 129.323H126.344C127.038 129.333 127.727 129.205 128.371 128.946C129.015 128.687 129.601 128.303 130.096 127.815C130.59 127.328 130.982 126.748 131.25 126.107C131.518 125.467 131.656 124.78 131.656 124.086V46.083H123.763Z" fill="#D4DEED"/>
<path d="M131.645 46.0836H12.7656V29.8732C12.765 29.1858 12.9008 28.5051 13.1652 27.8705C13.4296 27.2359 13.8173 26.6601 14.3059 26.1765C15.2952 25.1953 16.6305 24.6421 18.0239 24.6362H126.376C127.772 24.6361 129.112 25.1855 130.106 26.1655C131.099 27.1456 131.668 28.4775 131.687 29.8732L131.645 46.0836Z" fill="#4DA6DD"/>
<path d="M126.386 24.6147H118.493C119.889 24.6146 121.229 25.164 122.223 26.144C123.217 27.1241 123.785 28.456 123.805 29.8518V46.0833H131.687V29.873C131.667 28.4773 131.099 27.1453 130.105 26.1653C129.111 25.1852 127.771 24.6359 126.375 24.636L126.386 24.6147Z" fill="#418CBA"/>
<path d="M27.5 117.277V4.19782C27.5 3.71565 27.5951 3.23822 27.78 2.79288C27.9648 2.34755 28.2357 1.94307 28.5772 1.60262C28.9186 1.26217 29.3239 0.992438 29.7697 0.808888C30.2156 0.625338 30.6933 0.531577 31.1755 0.532974H113.236C114.21 0.532958 115.144 0.918396 115.835 1.60508C116.526 2.29177 116.917 3.2239 116.922 4.19782V117.277C116.922 117.758 116.828 118.234 116.646 118.679C116.264 119.576 115.548 120.288 114.649 120.666C114.2 120.848 113.721 120.942 113.236 120.942H31.1755C30.6947 120.94 30.2186 120.847 29.7733 120.666C29.3241 120.483 28.916 120.212 28.5729 119.869C28.2338 119.527 27.9633 119.123 27.7762 118.679C27.5941 118.234 27.5003 117.758 27.5 117.277Z" fill="white"/>
<path d="M113.236 0.53309H107.978C108.46 0.528992 108.939 0.620785 109.385 0.803141C109.832 0.985496 110.238 1.25478 110.58 1.59536C110.923 1.93462 111.194 2.3392 111.377 2.78511C111.566 3.22826 111.664 3.70531 111.664 4.18731V117.277C111.665 117.759 111.567 118.236 111.377 118.679C111.003 119.578 110.289 120.292 109.39 120.666C108.942 120.848 108.462 120.942 107.978 120.942H113.236C113.72 120.942 114.2 120.848 114.649 120.666C115.547 120.288 116.263 119.576 116.646 118.679C116.828 118.234 116.922 117.758 116.922 117.277V4.19794C116.916 3.22401 116.525 2.29189 115.835 1.6052C115.144 0.918512 114.21 0.533074 113.236 0.53309Z" fill="#F2F2F2"/>
<path d="M70.3411 104.869C85.3894 104.869 97.5884 92.6704 97.5884 77.6221C97.5884 62.5738 85.3894 50.3748 70.3411 50.3748C55.2928 50.3748 43.0938 62.5738 43.0938 77.6221C43.0938 92.6704 55.2928 104.869 70.3411 104.869Z" fill="#EE8E58"/>
<path d="M89.0579 70.3352C88.9652 70.1058 88.8239 69.8992 88.6436 69.7297L80.2835 61.4015C80.1087 61.2283 79.9014 61.0912 79.6736 60.9983C79.4457 60.9053 79.2017 60.8582 78.9557 60.8597C78.8781 60.8491 78.7995 60.8491 78.722 60.8597C78.6444 60.8491 78.5658 60.8491 78.4882 60.8597H76.1619C75.8505 60.8591 75.5439 60.9357 75.2696 61.0828C74.9943 61.2359 74.758 61.4504 74.5791 61.7096C74.0405 62.301 73.3844 62.7735 72.6527 63.0968C71.921 63.4201 71.1299 63.5871 70.33 63.5871C69.5301 63.5871 68.7389 63.4201 68.0073 63.0968C67.2756 62.7735 66.6195 62.301 66.0809 61.7096C65.9086 61.4485 65.6753 61.2333 65.401 61.0828C65.1266 60.9357 64.82 60.8591 64.5087 60.8597H61.9593C61.6733 60.8189 61.3817 60.848 61.1094 60.9447C60.8402 61.0414 60.5941 61.1934 60.3871 61.3909L52.027 69.7085C51.8586 69.8856 51.7221 70.0904 51.6233 70.314C51.5273 70.5428 51.4768 70.7882 51.4746 71.0363C51.4757 71.2812 51.5263 71.5233 51.6233 71.7481C51.7185 71.9767 51.8554 72.1856 52.027 72.3642L56.5948 76.9001C56.953 77.2487 57.4334 77.4431 57.9332 77.4419C58.1793 77.4434 58.4233 77.3963 58.6512 77.3034C58.879 77.2104 59.0863 77.0733 59.2611 76.9001L60.3234 75.8378V92.5474C60.3231 93.0407 60.5178 93.5142 60.8651 93.8646C61.2222 94.2161 61.7025 94.4143 62.2036 94.417H78.4882C78.7352 94.4133 78.9797 94.3666 79.2106 94.2789C79.4419 94.1839 79.6515 94.043 79.8267 93.8646C80.1741 93.5134 80.372 93.0413 80.3791 92.5474V75.8697L81.4414 76.932C81.7976 77.277 82.2733 77.4711 82.7692 77.4737C83.2675 77.4728 83.7451 77.2742 84.0971 76.9213L88.6542 72.3854C88.8323 72.2141 88.9733 72.008 89.0685 71.7799C89.1611 71.5504 89.208 71.3051 89.2066 71.0576C89.2072 70.8091 89.1566 70.5632 89.0579 70.3352Z" fill="white"/>
<path d="M70.3414 50.3857C68.847 50.3873 67.3551 50.5081 65.8799 50.7469C72.2406 51.8086 78.0187 55.0919 82.1864 60.0129C86.3541 64.934 88.6414 71.1737 88.6414 77.6225C88.6414 84.0712 86.3541 90.311 82.1864 95.232C78.0187 100.153 72.2406 103.436 65.8799 104.498C67.3542 104.746 68.8465 104.87 70.3414 104.87C77.4733 104.729 84.2656 101.797 89.2595 96.7034C94.2535 91.6099 97.0508 84.761 97.0508 77.6278C97.0508 70.4945 94.2535 63.6457 89.2595 58.5521C84.2656 53.4586 77.4733 50.5266 70.3414 50.3857Z" fill="#EE7E3B"/>
<path d="M93.3814 27.8231H47.2893C46.7991 27.8231 46.3289 27.6283 45.9823 27.2817C45.6357 26.9351 45.4409 26.4649 45.4409 25.9747V22.5011C45.4409 22.0099 45.6353 21.5386 45.9816 21.1903C46.328 20.842 46.7981 20.6449 47.2893 20.6421H93.3814C93.8744 20.6421 94.3472 20.8379 94.6959 21.1866C95.0445 21.5352 95.2403 22.008 95.2403 22.5011V25.9747C95.2403 26.2183 95.1922 26.4596 95.0986 26.6845C95.0051 26.9095 94.868 27.1137 94.6952 27.2855C94.5225 27.4572 94.3174 27.5932 94.092 27.6854C93.8665 27.7777 93.625 27.8245 93.3814 27.8231Z" fill="#6E6E6E"/>
<path d="M93.0527 20.6421H88.623C89.834 20.6421 90.8113 21.3538 90.8113 22.2249V26.2509C90.8113 27.122 89.834 27.8231 88.623 27.8231H93.0527C94.2637 27.8231 95.241 27.122 95.241 26.2509V22.2249C95.241 21.3751 94.2637 20.6421 93.0527 20.6421Z" fill="#585858"/>
<path d="M88.2717 50.428C87.9789 50.4298 87.6917 50.3488 87.4431 50.1943C87.2636 50.0864 87.1072 49.9439 86.9832 49.7751C86.8592 49.6064 86.7698 49.4146 86.7204 49.2111C86.671 49.0075 86.6625 48.7962 86.6954 48.5894C86.7283 48.3825 86.8019 48.1842 86.9119 48.006L88.8984 44.7448C89.0397 44.5108 89.2392 44.3173 89.4775 44.1832C89.7158 44.0492 89.9847 43.9792 90.2581 43.98H104.854C105.276 43.98 105.682 44.1479 105.98 44.4467C106.279 44.7455 106.447 45.1508 106.447 45.5734C106.447 45.996 106.279 46.4013 105.98 46.7001C105.682 46.9989 105.276 47.1668 104.854 47.1668H91.161L89.6314 49.6738C89.4893 49.9071 89.2896 50.1 89.0515 50.234C88.8134 50.3679 88.5448 50.4384 88.2717 50.4386V50.428Z" fill="#C3D3ED"/>
<path d="M50.4124 111.286H35.8274C35.6027 111.312 35.375 111.29 35.1594 111.222C34.9437 111.154 34.7449 111.041 34.576 110.89C34.4071 110.74 34.272 110.555 34.1794 110.349C34.0869 110.142 34.0391 109.919 34.0391 109.692C34.0391 109.466 34.0869 109.243 34.1794 109.036C34.272 108.83 34.4071 108.645 34.576 108.495C34.7449 108.344 34.9437 108.231 35.1594 108.163C35.375 108.095 35.6027 108.073 35.8274 108.099H49.5201L51.0392 105.603C51.2589 105.241 51.6135 104.981 52.0249 104.88C52.4362 104.78 52.8707 104.847 53.2328 105.066C53.5948 105.286 53.8547 105.641 53.9553 106.052C54.0559 106.463 53.989 106.898 53.7692 107.26L51.7721 110.532C51.6316 110.766 51.4323 110.961 51.1938 111.095C50.9554 111.229 50.686 111.298 50.4124 111.297V111.286Z" fill="#EE8E58"/>
<path d="M52.4099 50.4281C52.1351 50.4287 51.8648 50.3587 51.6248 50.2248C51.3849 50.0908 51.1833 49.8975 51.0396 49.6633L49.5205 47.1563H35.8278C35.4052 47.1563 34.9999 46.9885 34.7011 46.6896C34.4023 46.3908 34.2344 45.9855 34.2344 45.5629C34.2344 45.1403 34.4023 44.735 34.7011 44.4362C34.9999 44.1374 35.4052 43.9695 35.8278 43.9695H50.4128C50.6864 43.9677 50.9558 44.0373 51.1942 44.1714C51.4327 44.3055 51.632 44.4996 51.7725 44.7344L53.7696 48.0062C53.9166 48.2477 53.9967 48.5239 54.0017 48.8066C54.0067 49.0893 53.9364 49.3682 53.798 49.6148C53.6596 49.8613 53.4581 50.0666 53.2141 50.2095C52.9702 50.3525 52.6926 50.4279 52.4099 50.4281Z" fill="#4A94C1"/>
<path d="M104.855 111.286H90.2591C89.9857 111.287 89.7167 111.217 89.4785 111.083C89.2402 110.949 89.0407 110.755 88.8994 110.521L86.9129 107.249C86.7946 107.071 86.7135 106.87 86.6745 106.659C86.6355 106.449 86.6395 106.232 86.6861 106.023C86.7327 105.814 86.821 105.616 86.9458 105.442C87.0706 105.268 87.2292 105.12 87.4122 105.009C87.5952 104.897 87.7988 104.824 88.0109 104.793C88.2229 104.762 88.4391 104.774 88.6463 104.828C88.8536 104.883 89.0478 104.979 89.2172 105.11C89.3866 105.241 89.5278 105.405 89.6323 105.592L91.162 108.089H104.855C105.246 108.134 105.606 108.321 105.868 108.615C106.13 108.909 106.274 109.289 106.274 109.682C106.274 110.076 106.13 110.455 105.868 110.749C105.606 111.043 105.246 111.23 104.855 111.275V111.286Z" fill="#4DA6DD"/>
<path d="M104.854 53.679H97.9276C97.5367 53.6338 97.176 53.4465 96.9142 53.1527C96.6525 52.8589 96.5078 52.4791 96.5078 52.0856C96.5078 51.6921 96.6525 51.3123 96.9142 51.0185C97.176 50.7247 97.5367 50.5374 97.9276 50.4922H104.854C105.244 50.5374 105.605 50.7247 105.867 51.0185C106.129 51.3123 106.273 51.6921 106.273 52.0856C106.273 52.4791 106.129 52.8589 105.867 53.1527C105.605 53.4465 105.244 53.6338 104.854 53.679Z" fill="#C3D3ED"/>
<path d="M42.7853 53.6786H35.8274C35.6027 53.7046 35.375 53.6828 35.1594 53.6146C34.9437 53.5464 34.7449 53.4333 34.576 53.2828C34.4071 53.1324 34.272 52.9479 34.1794 52.7415C34.0869 52.5351 34.0391 52.3114 34.0391 52.0852C34.0391 51.859 34.0869 51.6354 34.1794 51.429C34.272 51.2226 34.4071 51.0381 34.576 50.8876C34.7449 50.7371 34.9437 50.6241 35.1594 50.5559C35.375 50.4877 35.6027 50.4658 35.8274 50.4918H42.7853C43.1762 50.537 43.5368 50.7244 43.7986 51.0182C44.0604 51.312 44.205 51.6917 44.205 52.0852C44.205 52.4787 44.0604 52.8585 43.7986 53.1523C43.5368 53.4461 43.1762 53.6334 42.7853 53.6786Z" fill="#4A94C1"/>
<path d="M104.854 104.764H97.9284C97.5058 104.764 97.1005 104.596 96.8017 104.297C96.5028 103.998 96.335 103.593 96.335 103.17C96.335 102.748 96.5028 102.342 96.8017 102.044C97.1005 101.745 97.5058 101.577 97.9284 101.577H104.854C105.277 101.577 105.682 101.745 105.981 102.044C106.28 102.342 106.448 102.748 106.448 103.17C106.448 103.593 106.28 103.998 105.981 104.297C105.682 104.596 105.277 104.764 104.854 104.764Z" fill="#4DA6DD"/>
<path d="M42.7857 104.764H35.8278C35.4052 104.764 34.9999 104.596 34.7011 104.297C34.4023 103.998 34.2344 103.593 34.2344 103.17C34.2344 102.748 34.4023 102.342 34.7011 102.044C34.9999 101.745 35.4052 101.577 35.8278 101.577H42.7857C43.2083 101.577 43.6136 101.745 43.9124 102.044C44.2112 102.342 44.3791 102.748 44.3791 103.17C44.3791 103.593 44.2112 103.998 43.9124 104.297C43.6136 104.596 43.2083 104.764 42.7857 104.764Z" fill="#EE8E58"/>
<path d="M86.881 35.928H53.7912C53.3686 35.928 52.9633 35.7602 52.6645 35.4613C52.3656 35.1625 52.1978 34.7572 52.1978 34.3346C52.1978 33.912 52.3656 33.5067 52.6645 33.2079C52.9633 32.9091 53.3686 32.7412 53.7912 32.7412H86.881C87.3036 32.7412 87.7089 32.9091 88.0077 33.2079C88.3066 33.5067 88.4744 33.912 88.4744 34.3346C88.4744 34.7572 88.3066 35.1625 88.0077 35.4613C87.7089 35.7602 87.3036 35.928 86.881 35.928Z" fill="#585858"/>
<path d="M78.3713 42.6946H62.3097C61.8871 42.6946 61.4818 42.5268 61.183 42.2279C60.8842 41.9291 60.7163 41.5238 60.7163 41.1012C60.7163 40.6786 60.8842 40.2733 61.183 39.9745C61.4818 39.6757 61.8871 39.5078 62.3097 39.5078H78.3713C78.7939 39.5078 79.1992 39.6757 79.498 39.9745C79.7968 40.2733 79.9647 40.6786 79.9647 41.1012C79.9647 41.5238 79.7968 41.9291 79.498 42.2279C79.1992 42.5268 78.7939 42.6946 78.3713 42.6946Z" fill="#585858"/>
<path d="M88.6437 69.7297L86.9229 68.0088C87.5057 69.5591 87.9466 71.159 88.2401 72.789L88.6437 72.3747C88.8218 72.2034 88.9628 71.9973 89.058 71.7692C89.1506 71.5397 89.1975 71.2944 89.1961 71.0469C89.1987 70.8028 89.1517 70.5606 89.058 70.3352C88.9653 70.1057 88.824 69.8992 88.6437 69.7297Z" fill="#E6C8B6"/>
<path d="M56.1485 12.165L55.8935 10.7521L56.9558 9.68987C57.0213 9.62525 57.0689 9.54472 57.0939 9.45617C57.1205 9.36602 57.1205 9.27013 57.0939 9.17998C57.0608 9.09319 57.0059 9.01637 56.9346 8.9569C56.868 8.89413 56.7816 8.85656 56.6902 8.85067L55.2137 8.6276L54.5444 7.29975C54.505 7.21647 54.4423 7.14639 54.3639 7.09792C54.2847 7.04597 54.1929 7.01659 54.0983 7.01294C54.0032 7.01359 53.9105 7.04324 53.8327 7.09792C53.7487 7.1425 53.6815 7.21339 53.6415 7.29975L52.9935 8.6276L51.5276 8.85067C51.4337 8.85893 51.3446 8.89604 51.2726 8.9569C51.2078 9.01988 51.1571 9.09592 51.1239 9.17998C51.0974 9.27013 51.0974 9.36602 51.1239 9.45617C51.1503 9.54929 51.2062 9.63132 51.2833 9.68987L52.3455 10.7521L52.0906 12.2075C52.069 12.2947 52.069 12.3858 52.0906 12.473C52.1248 12.5621 52.1838 12.6395 52.2606 12.6961C52.3345 12.7506 52.4237 12.7803 52.5155 12.7811C52.6021 12.8074 52.6945 12.8074 52.7811 12.7811L54.0983 12.1012L55.4049 12.7811C55.4869 12.8333 55.5844 12.8558 55.6811 12.8448C55.776 12.8429 55.8683 12.8134 55.9466 12.7598C56.0258 12.7057 56.0854 12.6275 56.1166 12.5368C56.1432 12.4466 56.1432 12.3507 56.1166 12.2606L56.1485 12.165Z" fill="#EC7425"/>
<path d="M64.6685 8.84005L63.2026 8.6276L62.5333 7.29975C62.5007 7.21217 62.4362 7.1401 62.3528 7.09792C62.2749 7.04324 62.1823 7.01359 62.0872 7.01294C61.9923 7.01487 61.9 7.0444 61.8216 7.09792C61.7432 7.14639 61.6805 7.21647 61.641 7.29975L60.9824 8.6276L59.5165 8.85067C59.4263 8.86102 59.3412 8.898 59.2722 8.9569C59.2004 9.01378 59.1483 9.09183 59.1234 9.17998C59.0969 9.27013 59.0969 9.36602 59.1234 9.45617C59.1441 9.54652 59.1923 9.62821 59.2615 9.68987L60.3238 10.7521L60.0795 12.2075C60.0525 12.2939 60.0525 12.3866 60.0795 12.473C60.1176 12.5599 60.1758 12.6364 60.2495 12.6961C60.3273 12.7508 60.4199 12.7804 60.515 12.7811C60.6018 12.8062 60.6938 12.8062 60.7806 12.7811L62.0872 12.1012L63.4044 12.7811C63.4909 12.808 63.5835 12.808 63.67 12.7811C63.7616 12.779 63.8504 12.7494 63.9249 12.6961C63.9985 12.6364 64.0568 12.5599 64.0949 12.473C64.1165 12.3858 64.1165 12.2947 64.0949 12.2075L63.8718 10.7521L64.9341 9.68987C64.9996 9.62525 65.0472 9.54472 65.0722 9.45617C65.0987 9.36602 65.0987 9.27013 65.0722 9.17998C65.0391 9.09319 64.9842 9.01637 64.9128 8.9569C64.8449 8.89622 64.7592 8.85898 64.6685 8.85067V8.84005Z" fill="#EC7425"/>
<path d="M72.6673 8.84018L71.2014 8.62773L70.5321 7.29989C70.4917 7.21619 70.4283 7.14574 70.3493 7.09682C70.2702 7.0479 70.1789 7.02254 70.086 7.0237C69.9919 7.02053 69.8991 7.0465 69.8204 7.09806C69.742 7.14652 69.6793 7.21661 69.6398 7.29989L68.9706 8.62773L67.5046 8.85081C67.4107 8.85906 67.3217 8.89617 67.2497 8.95704C67.1849 9.02001 67.1342 9.09605 67.101 9.18011C67.0744 9.27026 67.0744 9.36615 67.101 9.4563C67.1199 9.54272 67.16 9.62305 67.2178 9.69L68.2801 10.7523L68.0252 12.2076C67.9934 12.2933 67.9934 12.3875 68.0252 12.4732C68.0557 12.5642 68.1154 12.6427 68.1951 12.6962C68.269 12.7507 68.3583 12.7805 68.4501 12.7812C68.5366 12.8075 68.6291 12.8075 68.7156 12.7812L70.0222 12.1014L71.3394 12.7812C71.4259 12.8082 71.5185 12.8082 71.605 12.7812C71.6968 12.7805 71.7861 12.7507 71.86 12.6962C71.9368 12.6396 71.9957 12.5622 72.0299 12.4732C72.0515 12.386 72.0515 12.2948 72.0299 12.2076L71.86 10.7523L72.9222 9.69C72.9914 9.62834 73.0397 9.54665 73.0603 9.4563C73.0869 9.36615 73.0869 9.27026 73.0603 9.18011C73.0271 9.09605 72.9764 9.02001 72.9116 8.95704C72.8396 8.89617 72.7506 8.85906 72.6567 8.85081L72.6673 8.84018Z" fill="#EC7425"/>
<path d="M80.6553 8.84014L79.1894 8.62768L78.5414 7.29984C78.4999 7.21712 78.4361 7.14758 78.3573 7.09898C78.2786 7.05039 78.1878 7.02466 78.0952 7.02466C78.0027 7.02466 77.9119 7.05039 77.8331 7.09898C77.7544 7.14758 77.6906 7.21712 77.6491 7.29984L76.9799 8.62768L75.5139 8.85076C75.42 8.85901 75.331 8.89612 75.259 8.95699C75.1941 9.01996 75.1434 9.096 75.1103 9.18006C75.0837 9.27021 75.0837 9.36611 75.1103 9.45625C75.1353 9.5448 75.1828 9.62533 75.2483 9.68996L76.3106 10.7522L76.0557 12.2075C76.0341 12.2948 76.0341 12.3859 76.0557 12.4731C76.093 12.5604 76.1514 12.637 76.2256 12.6962C76.2995 12.7507 76.3888 12.7804 76.4806 12.7812C76.5671 12.8081 76.6597 12.8081 76.7462 12.7812L78.0527 12.1013L79.37 12.7812C79.4565 12.8075 79.549 12.8075 79.6355 12.7812C79.7274 12.7804 79.8166 12.7507 79.8905 12.6962C79.9673 12.6396 80.0263 12.5622 80.0604 12.4731C80.082 12.3859 80.082 12.2948 80.0604 12.2075L79.8692 10.7522L80.9315 9.68996C81.0007 9.62829 81.049 9.54661 81.0696 9.45625C81.0962 9.36611 81.0962 9.27021 81.0696 9.18006C81.0364 9.096 80.9857 9.01996 80.9209 8.95699C80.8489 8.89612 80.7599 8.85901 80.666 8.85076L80.6553 8.84014Z" fill="#EC7425"/>
<path d="M88.6548 8.84018L87.1889 8.62773L86.5409 7.29989C86.5009 7.21353 86.4338 7.14264 86.3497 7.09806C86.271 7.0465 86.1782 7.02053 86.0841 7.0237C85.9936 7.02203 85.9046 7.04796 85.8292 7.09806C85.7451 7.14264 85.6779 7.21353 85.638 7.29989L84.9687 8.62773L83.5134 8.85081C83.4195 8.85906 83.3305 8.89617 83.2585 8.95704C83.1867 9.01391 83.1346 9.09196 83.1098 9.18011C83.0832 9.27026 83.0832 9.36615 83.1098 9.4563C83.1308 9.54411 83.1748 9.62476 83.2372 9.69L84.2995 10.7523L84.0446 12.2076C84.023 12.2948 84.023 12.386 84.0446 12.4732C84.0854 12.5584 84.1432 12.6343 84.2145 12.6962C84.2929 12.7498 84.3852 12.7793 84.4801 12.7812C84.5668 12.8063 84.6589 12.8063 84.7457 12.7812L86.0523 12.1014L87.3589 12.7812C87.4491 12.8072 87.5448 12.8072 87.6351 12.7812C87.7266 12.7791 87.8155 12.7495 87.89 12.6962C87.9636 12.6365 88.0219 12.56 88.06 12.4732C88.0816 12.386 88.0816 12.2948 88.06 12.2076L87.8581 10.7523L88.9204 9.69C88.9859 9.62538 89.0335 9.54485 89.0585 9.4563C89.0798 9.36547 89.0798 9.27095 89.0585 9.18011C89.0254 9.09332 88.9705 9.0165 88.8992 8.95704C88.8301 8.89813 88.745 8.86115 88.6548 8.85081V8.84018Z" fill="#EC7425"/>
<path d="M0.953231 42.8965C4.69244 51.3947 16.3987 78.1003 18.757 87.1933C18.8892 88.2214 19.3048 89.1924 19.9573 89.9977C23.2209 93.704 27.3577 96.5373 31.9929 98.241C32.2641 98.3272 32.5499 98.3581 32.8333 98.3317C33.1166 98.3054 33.3918 98.2224 33.6425 98.0876C33.8932 97.9529 34.1142 97.7691 34.2925 97.5473C34.4708 97.3255 34.6028 97.0701 34.6805 96.7963C35.8927 92.0066 35.8927 86.9904 34.6805 82.2006C34.4976 81.4853 34.1315 80.8299 33.6182 80.2992C27.8288 74.2017 10.9917 47.135 6.4983 39.9328C6.04007 39.3368 5.3859 38.922 4.65143 38.7618C3.91696 38.6015 3.14947 38.706 2.48462 39.0569C1.81976 39.4077 1.30035 39.9823 1.01817 40.6791C0.735997 41.3759 0.709234 42.15 0.94261 42.8646L0.953231 42.8965Z" fill="#585858"/>
<path d="M7.2419 47.6235C10.5243 55.155 19.7449 76.613 21.6995 84.0489C21.7503 84.2439 21.741 84.4497 21.6728 84.6393C21.6045 84.8289 21.4805 84.9934 21.317 85.1112C20.4233 85.7692 19.5685 86.4786 18.757 87.2357C16.7174 79.3324 7.87926 58.6818 3.48145 48.6008C4.23566 48.0803 5.03237 47.5916 5.8397 47.1455C5.96172 47.0777 6.0966 47.0362 6.23565 47.0238C6.37469 47.0113 6.51479 47.0281 6.64693 47.0732C6.77906 47.1182 6.90027 47.1905 7.00275 47.2853C7.10523 47.3801 7.1867 47.4953 7.2419 47.6235Z" fill="#6E6E6E"/>
<path d="M34.1493 95.3621C34.3753 95.462 34.5595 95.6376 34.67 95.8587C34.7805 96.0797 34.8105 96.3324 34.7548 96.5731C34.7251 96.6566 34.7003 96.7417 34.6804 96.8281C34.5994 97.099 34.465 97.351 34.2852 97.5693C34.1055 97.7877 33.884 97.9679 33.6337 98.0995C33.3833 98.2311 33.1093 98.3114 32.8275 98.3357C32.5458 98.3599 32.262 98.3277 31.9929 98.2409C30.3304 97.6764 28.7346 96.9319 27.2339 96.0208C27.6154 95.0629 28.2114 94.2053 28.976 93.5138C29.1363 93.3595 29.3436 93.2631 29.5649 93.24C29.7862 93.2169 30.0089 93.2684 30.1976 93.3863C31.4555 94.1574 32.7777 94.8185 34.1493 95.3621Z" fill="#6E6E6E"/>
<path d="M22.262 75.4659C22.1594 75.6049 22.0244 75.7168 21.8687 75.7918C21.7131 75.8669 21.5415 75.9028 21.3688 75.8965C21.1961 75.8903 21.0276 75.842 20.8778 75.7558C20.728 75.6697 20.6015 75.5483 20.5092 75.4022L17.673 70.0271C17.5523 69.9105 17.4609 69.7671 17.4064 69.6084C17.3518 69.4497 17.3356 69.2804 17.3591 69.1143C17.3826 68.9482 17.4451 68.79 17.5414 68.6527C17.6378 68.5153 17.7654 68.4028 17.9136 68.3243C18.0619 68.2457 18.2266 68.2034 18.3944 68.2008C18.5621 68.1982 18.7281 68.2354 18.8787 68.3093C19.0294 68.3831 19.1604 68.4917 19.261 68.6259C19.3616 68.7602 19.429 68.9163 19.4576 69.0817L22.3045 74.4886C22.3977 74.6501 22.4468 74.8333 22.4468 75.0198C22.4468 75.2062 22.3977 75.3894 22.3045 75.5509L22.262 75.4659Z" fill="white"/>
<path d="M17.2909 65.9905C17.1882 66.1295 17.0533 66.2414 16.8976 66.3165C16.742 66.3915 16.5704 66.4274 16.3977 66.4212C16.225 66.4149 16.0565 66.3666 15.9067 66.2804C15.7569 66.1943 15.6304 66.0729 15.5381 65.9268L14.922 64.7477C14.9047 64.5363 14.951 64.3246 15.055 64.1398C15.1591 63.9551 15.316 63.8056 15.5057 63.7108C15.6953 63.6159 15.909 63.58 16.1193 63.6077C16.3295 63.6354 16.5267 63.7253 16.6854 63.866L17.3015 65.0451C17.4039 65.2033 17.4584 65.3878 17.4584 65.5763C17.4584 65.7647 17.4039 65.9492 17.3015 66.1074L17.2909 65.9905Z" fill="white"/>
<path d="M33.0227 79.6726C33.8006 80.3529 34.3681 81.241 34.6586 82.2327C35.4091 85.3102 35.7026 88.4814 35.5297 91.6444C33.8545 91.31 32.1152 91.5625 30.6043 92.3596C29.0935 93.1566 27.9031 94.4496 27.2333 96.021C24.5237 94.3836 22.0715 92.3539 19.9567 89.9979C19.4679 89.4483 19.1279 88.7827 18.9688 88.0646C18.9688 87.799 18.8413 87.5122 18.7563 87.1935C22.7981 83.5188 27.707 80.9309 33.0227 79.6726Z" fill="#418CBA"/>
<path d="M20.6366 85.6001C20.7655 85.5098 20.9129 85.4494 21.068 85.4231C21.2232 85.3968 21.3822 85.4054 21.5337 85.4481C21.6852 85.4907 21.8252 85.5665 21.9438 85.67C22.0624 85.7734 22.1565 85.9019 22.2194 86.0462C22.3943 86.5665 22.6766 87.0442 23.0479 87.4484C24.681 89.2552 26.5085 90.8762 28.4974 92.2818C28.6096 92.3696 28.703 92.4791 28.7721 92.6038C28.8411 92.7285 28.8843 92.8658 28.8992 93.0075C28.9141 93.1492 28.9003 93.2925 28.8586 93.4288C28.817 93.5651 28.7483 93.6916 28.6567 93.8008C28.0417 94.4407 27.5581 95.195 27.2333 96.021C24.5237 94.3836 22.0715 92.3538 19.9567 89.9979C19.4679 89.4482 19.1279 88.7827 18.9688 88.0645C18.9688 87.799 18.8413 87.5121 18.7563 87.1935C19.3512 86.6517 19.978 86.1312 20.6366 85.6001Z" fill="#4DA6DD"/>
<path d="M0.952862 42.8966C0.719486 42.182 0.746254 41.4079 1.02843 40.7111C1.3106 40.0143 1.83002 39.4397 2.49487 39.0888C3.15973 38.738 3.92721 38.6335 4.66168 38.7937C5.39615 38.954 6.05032 39.3688 6.50856 39.9647C6.50856 39.9647 7.77266 42.0893 9.79098 45.2761C7.57144 46.1482 5.45525 47.2633 3.48108 48.601L0.952862 42.8966Z" fill="#418CBA"/>
<path d="M1.11215 40.0602C1.27639 39.8043 1.50789 39.5985 1.78129 39.4653C2.05469 39.3322 2.35945 39.2769 2.6622 39.3054C2.96495 39.3339 3.25401 39.4452 3.49774 39.627C3.74147 39.8089 3.93046 40.0543 4.04402 40.3364C4.04402 40.3364 5.60557 43.81 6.43414 45.8071C6.52477 46.041 6.5297 46.2994 6.44804 46.5367C6.36638 46.7739 6.20341 46.9745 5.98799 47.1031C5.11692 47.5811 4.27773 48.1016 3.4704 48.654L0.952805 42.9496C0.730203 42.4945 0.627969 41.9899 0.655864 41.4841C0.68376 40.9783 0.840855 40.488 1.11215 40.0602Z" fill="#4DA6DD"/>
</svg>
