<svg width="133" height="129" viewBox="0 0 133 129" fill="none" xmlns="http://www.w3.org/2000/svg">
<path d="M88.0181 9.00122H29.6263C28.7613 9.00122 28.0601 9.70246 28.0601 10.5675V37.8233C28.0601 38.6883 28.7613 39.3896 29.6263 39.3896H88.0181C88.8832 39.3896 89.5844 38.6883 89.5844 37.8233V10.5675C89.5844 9.70246 88.8832 9.00122 88.0181 9.00122Z" fill="#C3D3ED"/>
<g opacity="0.5">
<path opacity="0.5" d="M89.5847 10.5675C89.5847 10.1521 89.4197 9.7537 89.126 9.45997C88.8322 9.16624 88.4338 9.00122 88.0184 9.00122H80.8163L80.0619 15.2562L79.6086 19.1093L77.5789 36.4059C77.5789 36.5074 77.5789 36.6089 77.5586 36.7103C77.5577 37.0609 77.6259 37.4081 77.7592 37.7323C77.8925 38.0564 78.0884 38.3512 78.3356 38.5997C78.5828 38.8481 78.8765 39.0455 79.2 39.1804C79.5235 39.3154 79.8704 39.3853 80.2209 39.3862H88.0015C88.4161 39.3844 88.8131 39.2187 89.1059 38.9253C89.3987 38.6318 89.5635 38.2345 89.5644 37.8199V10.5675H89.5847Z" fill="#A5B3C9"/>
</g>
<path d="M85.0648 12.8982H32.5761C32.2342 12.8982 31.957 13.1754 31.957 13.5173V34.8734C31.957 35.2153 32.2342 35.4924 32.5761 35.4924H85.0648C85.4067 35.4924 85.6838 35.2153 85.6838 34.8734V13.5173C85.6838 13.1754 85.4067 12.8982 85.0648 12.8982Z" fill="#E0EBFC"/>
<path d="M85.6976 13.5007C85.6954 13.419 85.677 13.3385 85.6434 13.2639C85.6098 13.1894 85.5616 13.1223 85.5018 13.0666C85.442 13.0108 85.3716 12.9676 85.2949 12.9393C85.2181 12.911 85.1365 12.8983 85.0548 12.902H80.3391L80.0617 15.27L79.6084 19.1095L77.6802 35.4996H85.0548C85.1386 35.5023 85.222 35.4881 85.3001 35.4578C85.3782 35.4276 85.4494 35.3819 85.5094 35.3234C85.5694 35.265 85.617 35.195 85.6493 35.1178C85.6817 35.0405 85.6981 34.9575 85.6976 34.8737V13.5007Z" fill="#CED8E8"/>
<path d="M118.826 113.288C118.495 113.249 118.175 113.145 117.883 112.981C117.592 112.818 117.336 112.599 117.13 112.337C116.923 112.074 116.771 111.774 116.681 111.452C116.59 111.131 116.564 110.795 116.604 110.464L118.542 93.9755L118.962 90.3017L119.662 84.3445H128.945L129.652 90.3051L130.071 93.9823L132.016 110.467C132.027 110.564 132.033 110.661 132.033 110.758C132.034 111.092 131.969 111.423 131.842 111.732C131.715 112.041 131.529 112.322 131.293 112.559C131.057 112.796 130.777 112.984 130.469 113.112C130.161 113.241 129.83 113.308 129.496 113.309H119.114C119.018 113.307 118.922 113.3 118.826 113.288Z" fill="#E0EBFC"/>
<g opacity="0.5">
<path opacity="0.5" d="M129.302 110.755C129.302 111.43 129.034 112.077 128.557 112.555C128.08 113.032 127.433 113.301 126.758 113.302H129.492C129.589 113.301 129.686 113.296 129.783 113.285C130.114 113.246 130.435 113.142 130.726 112.979C131.017 112.816 131.273 112.597 131.48 112.335C131.687 112.073 131.84 111.773 131.931 111.452C132.021 111.131 132.048 110.795 132.009 110.464L130.067 93.9755L129.647 90.3017L128.944 84.3445H126.207L126.924 90.3051L127.344 93.9823L129.285 110.467C129.298 110.562 129.303 110.658 129.302 110.755Z" fill="#D1DBEB"/>
</g>
<path d="M124.997 80.9145C124.659 79.6561 124.737 76.9633 127.301 75.8808C128.438 75.397 129.263 74.3348 129.199 73.5365C129.135 72.7381 128.214 72.0886 126.621 71.7131C124.158 71.138 122.738 69.7747 122.819 68.063C122.907 66.2125 124.984 64.0576 129.392 63.4487C129.494 63.4316 129.598 63.435 129.699 63.4587C129.8 63.4825 129.895 63.526 129.978 63.5869C130.062 63.6478 130.133 63.7248 130.186 63.8134C130.24 63.902 130.275 64.0003 130.29 64.1027C130.305 64.2051 130.3 64.3095 130.274 64.4097C130.248 64.5099 130.203 64.604 130.14 64.6865C130.078 64.7689 129.999 64.838 129.91 64.8898C129.82 64.9416 129.721 64.9749 129.618 64.9879C126.235 65.4446 124.422 66.9297 124.361 68.1543C124.317 69.0575 125.288 69.8457 126.97 70.2246C130.078 70.9553 130.67 72.5351 130.745 73.4181C130.89 75.1298 129.425 76.6791 127.903 77.3253C125.965 78.1406 126.435 80.3022 126.499 80.5492C126.548 80.7473 126.516 80.9566 126.412 81.1319C126.307 81.3071 126.138 81.4344 125.941 81.4862C125.878 81.5024 125.813 81.5104 125.748 81.5099C125.574 81.5099 125.405 81.4511 125.269 81.343C125.133 81.2349 125.037 81.0839 124.997 80.9145Z" fill="#585858"/>
<path d="M122.233 80.9447L119.946 72.6804C119.912 72.5809 119.899 72.4756 119.907 72.3709C119.915 72.2662 119.945 72.1642 119.993 72.0712C120.042 71.9782 120.11 71.8961 120.191 71.8299C120.273 71.7636 120.367 71.7147 120.468 71.686C120.569 71.6573 120.675 71.6494 120.779 71.6629C120.883 71.6764 120.983 71.7109 121.074 71.7643C121.164 71.8178 121.243 71.8891 121.305 71.9739C121.367 72.0586 121.411 72.1552 121.434 72.2575L123.725 80.5286C123.752 80.6264 123.76 80.7285 123.747 80.8292C123.735 80.93 123.703 81.0272 123.653 81.1155C123.603 81.2038 123.536 81.2814 123.456 81.3438C123.376 81.4062 123.285 81.4523 123.187 81.4792C123.119 81.4984 123.048 81.5075 122.977 81.5063C122.809 81.5067 122.645 81.4521 122.51 81.3507C122.376 81.2493 122.279 81.1067 122.233 80.9447Z" fill="#585858"/>
<path d="M130.351 82.5447C130.35 83.0233 130.16 83.4819 129.821 83.8199C129.482 84.158 129.023 84.3478 128.545 84.3478H119.935C119.457 84.3478 118.998 84.158 118.659 83.8199C118.321 83.4819 118.13 83.0233 118.129 82.5447C118.129 82.0656 118.319 81.6062 118.658 81.2674C118.997 80.9286 119.456 80.7383 119.935 80.7383H128.552C129.029 80.7401 129.487 80.9312 129.825 81.2698C130.162 81.6083 130.351 82.0668 130.351 82.5447Z" fill="#E0EBFC"/>
<path d="M118.961 90.3054H129.647L130.08 93.9826H118.524L118.961 90.3054Z" fill="#EE8E58"/>
<path d="M127.343 93.9826H130.08L129.647 90.3054H126.91L127.343 93.9826Z" fill="#EE7E3B"/>
<g opacity="0.5">
<path opacity="0.5" d="M118.136 82.6637C118.164 83.1214 118.365 83.5513 118.699 83.8657C119.033 84.18 119.474 84.3551 119.933 84.3551H128.562C128.799 84.3533 129.033 84.3049 129.251 84.2127C129.469 84.1204 129.667 83.9861 129.833 83.8174C129.999 83.6488 130.131 83.449 130.22 83.2295C130.309 83.0101 130.354 82.7753 130.352 82.5385C130.35 82.0609 130.159 81.6035 129.82 81.2667C129.481 80.9299 129.023 80.7413 128.545 80.7422H128.403V82.6535L118.136 82.6637Z" fill="#D1DBEB"/>
</g>
<path d="M30.51 108.079V115.376C30.5141 115.526 30.488 115.676 30.4332 115.817C30.3785 115.957 30.2962 116.085 30.1912 116.193C30.0863 116.301 29.9607 116.387 29.822 116.446C29.6833 116.505 29.5342 116.536 29.3835 116.536H18.105C17.9562 116.535 17.809 116.505 17.6719 116.447C17.5347 116.389 17.4103 116.305 17.3057 116.199C17.2011 116.093 17.1183 115.968 17.0622 115.83C17.0061 115.692 16.9776 115.545 16.9785 115.396V108.079C16.9776 107.93 17.0061 107.782 17.0622 107.645C17.1183 107.507 17.2011 107.381 17.3057 107.275C17.4103 107.17 17.5347 107.085 17.6719 107.028C17.809 106.97 17.9562 106.94 18.105 106.939H29.3835C29.5324 106.94 29.6796 106.97 29.8167 107.028C29.9539 107.085 30.0783 107.17 30.1829 107.275C30.2875 107.381 30.3702 107.507 30.4264 107.645C30.4825 107.782 30.5109 107.93 30.51 108.079ZM103.81 106.939H92.535C92.3862 106.94 92.239 106.97 92.1019 107.028C91.9647 107.085 91.8403 107.17 91.7357 107.275C91.6311 107.381 91.5483 107.507 91.4922 107.645C91.4361 107.782 91.4077 107.93 91.4085 108.079V115.376C91.4072 115.525 91.4353 115.672 91.4913 115.81C91.5473 115.948 91.63 116.074 91.7347 116.18C91.8394 116.286 91.964 116.37 92.1013 116.428C92.2387 116.485 92.3861 116.515 92.535 116.516H103.81C103.959 116.515 104.107 116.485 104.244 116.428C104.382 116.37 104.507 116.286 104.612 116.18C104.717 116.074 104.8 115.949 104.856 115.811C104.912 115.673 104.941 115.525 104.94 115.376V108.079C104.94 107.93 104.912 107.782 104.855 107.645C104.799 107.507 104.715 107.382 104.611 107.276C104.506 107.171 104.381 107.087 104.244 107.03C104.106 106.972 103.959 106.943 103.81 106.942V106.939Z" fill="#6DB8E8"/>
<path d="M108.549 60.1878V85.2752C108.552 85.8766 108.316 86.4545 107.893 86.882C107.47 87.3095 106.894 87.5516 106.293 87.5552H63.4384C63.1408 87.5534 62.8464 87.4931 62.5721 87.3775C62.2978 87.262 62.0489 87.0935 61.8397 86.8818C61.6305 86.6701 61.4651 86.4192 61.3528 86.1436C61.2405 85.8679 61.1837 85.5728 61.1855 85.2752C61.1881 85.8766 60.952 86.4545 60.529 86.882C60.1059 87.3095 59.5305 87.5516 58.9291 87.5552H16.0748C15.4734 87.5516 14.898 87.3095 14.4749 86.882C14.0518 86.4545 13.8157 85.8766 13.8184 85.2752V60.1878C13.8149 59.5917 13.9288 59.0009 14.1537 58.4489C14.3786 57.8969 14.7101 57.3947 15.1292 56.9709C15.5483 56.5471 16.0468 56.21 16.5962 55.9789C17.1456 55.7479 17.7352 55.6274 18.3312 55.6243H56.6727C57.2687 55.6274 57.8583 55.7479 58.4077 55.9789C58.9571 56.21 59.4556 56.5471 59.8747 56.9709C60.2938 57.3947 60.6253 57.8969 60.8502 58.4489C61.0751 59.0009 61.189 59.5917 61.1855 60.1878C61.1819 59.592 61.2957 59.0014 61.5204 58.4497C61.7451 57.8979 62.0762 57.3958 62.495 56.9721C62.9137 56.5483 63.4118 56.2112 63.9609 55.9799C64.5099 55.7487 65.0991 55.6278 65.6948 55.6243H104.036C104.632 55.6274 105.222 55.7479 105.771 55.9789C106.321 56.21 106.819 56.5471 107.238 56.9709C107.657 57.3947 107.989 57.8969 108.214 58.4489C108.439 59.0009 108.553 59.5917 108.549 60.1878Z" fill="#6E6E6E"/>
<path d="M108.549 60.1878V85.2752C108.549 85.7171 108.422 86.1496 108.181 86.5205C107.941 86.8915 107.599 87.185 107.196 87.3658V91.5031H64.5716V91.564H57.8059V91.5031H14.7216V87.1054C14.4406 86.8925 14.2128 86.6173 14.056 86.3015C13.8993 85.9857 13.818 85.6379 13.8184 85.2854V82.0311H37.6609C47.6268 82.0311 55.7051 73.8614 55.7051 63.7838V55.6311H56.6625C57.2585 55.6342 57.8481 55.7547 58.3975 55.9858C58.9469 56.2168 59.4454 56.5539 59.8645 56.9777C60.2836 57.4015 60.6151 57.9038 60.84 58.4557C61.0649 59.0077 61.1788 59.5986 61.1752 60.1946V77.4642C61.1708 78.0612 61.2843 78.6532 61.5092 79.2062C61.7342 79.7592 62.0662 80.2623 62.4861 80.6866C62.9061 81.111 63.4057 81.4482 63.9563 81.6789C64.507 81.9096 65.0977 82.0293 65.6947 82.0311H85.0211C94.9871 82.0311 103.065 73.8614 103.065 63.7838V55.6311H104.023C104.619 55.6324 105.21 55.7514 105.76 55.9813C106.311 56.2111 106.811 56.5473 107.231 56.9705C107.652 57.3938 107.984 57.8959 108.21 58.4479C108.437 59 108.552 59.5912 108.549 60.1878Z" fill="#585858"/>
<path d="M118.92 77.295V106.946C118.922 107.243 118.865 107.539 118.753 107.814C118.641 108.09 118.475 108.341 118.266 108.553C118.057 108.764 117.808 108.933 117.534 109.048C117.259 109.164 116.965 109.224 116.667 109.226H5.70909C5.41144 109.224 5.11706 109.164 4.84275 109.048C4.56844 108.933 4.31958 108.764 4.11037 108.553C3.90115 108.341 3.7357 108.09 3.62344 107.814C3.51118 107.539 3.45431 107.243 3.4561 106.946V77.295C3.45431 76.9973 3.51118 76.7022 3.62344 76.4266C3.7357 76.1509 3.90115 75.9 4.11037 75.6883C4.31958 75.4766 4.56844 75.3081 4.84275 75.1926C5.11706 75.077 5.41144 75.0167 5.70909 75.0149H14.7211C15.3225 75.0185 15.8979 75.2606 16.321 75.6881C16.744 76.1156 16.9801 76.6935 16.9774 77.295V93.1471H105.389V77.295C105.386 76.6935 105.622 76.1156 106.045 75.6881C106.468 75.2606 107.044 75.0185 107.645 75.0149H116.667C116.965 75.0167 117.259 75.077 117.534 75.1926C117.808 75.3081 118.057 75.4766 118.266 75.6883C118.475 75.9 118.641 76.1509 118.753 76.4266C118.865 76.7022 118.922 76.9973 118.92 77.295Z" fill="#8C8C8C"/>
<path d="M118.92 77.295V106.946C118.922 107.243 118.865 107.539 118.753 107.814C118.641 108.09 118.475 108.341 118.266 108.553C118.057 108.764 117.808 108.933 117.534 109.048C117.259 109.164 116.965 109.224 116.667 109.226H111.705C112.306 109.222 112.881 108.98 113.305 108.553C113.728 108.125 113.964 107.547 113.961 106.946V77.295C113.964 76.6935 113.728 76.1156 113.305 75.6881C112.881 75.2606 112.306 75.0185 111.705 75.0149H116.667C116.965 75.0167 117.259 75.077 117.534 75.1926C117.808 75.3081 118.057 75.4766 118.266 75.6883C118.475 75.9 118.641 76.1509 118.753 76.4266C118.865 76.7022 118.922 76.9973 118.92 77.295Z" fill="#858585"/>
<path d="M108.549 89.8352V96.6788C108.552 97.2802 108.316 97.8582 107.893 98.2857C107.47 98.7132 106.894 98.9553 106.293 98.9589H63.4384C63.1407 98.9571 62.8464 98.8967 62.5721 98.7812C62.2977 98.6656 62.0489 98.4972 61.8397 98.2854C61.6305 98.0737 61.465 97.8229 61.3527 97.5472C61.2405 97.2715 61.1836 96.9764 61.1854 96.6788C61.1881 97.2802 60.952 97.8582 60.5289 98.2857C60.1059 98.7132 59.5304 98.9553 58.929 98.9589H16.0748C15.4733 98.9553 14.8979 98.7132 14.4748 98.2857C14.0518 97.8582 13.8157 97.2802 13.8184 96.6788V89.8352C13.8157 89.2338 14.0518 88.6559 14.4748 88.2284C14.8979 87.8009 15.4733 87.5588 16.0748 87.5552H58.929C59.5304 87.5588 60.1059 87.8009 60.5289 88.2284C60.952 88.6559 61.1881 89.2338 61.1854 89.8352C61.1836 89.5376 61.2405 89.2425 61.3527 88.9668C61.465 88.6912 61.6305 88.4403 61.8397 88.2286C62.0489 88.0169 62.2977 87.8484 62.5721 87.7329C62.8464 87.6173 63.1407 87.5569 63.4384 87.5552H106.293C106.894 87.5588 107.47 87.8009 107.893 88.2284C108.316 88.6559 108.552 89.2338 108.549 89.8352Z" fill="#585858"/>
<path d="M55.3195 89.8352V96.6788C55.3213 96.9767 55.2643 97.2721 55.1518 97.548C55.0394 97.8239 54.8736 98.0749 54.664 98.2866C54.4545 98.4984 54.2052 98.6668 53.9305 98.7821C53.6558 98.8975 53.361 98.9575 53.0631 98.9589H16.0748C15.4733 98.9553 14.8979 98.7132 14.4748 98.2857C14.0518 97.8582 13.8157 97.2802 13.8184 96.6788V89.8352C13.8157 89.2338 14.0518 88.6559 14.4748 88.2284C14.8979 87.8009 15.4733 87.5588 16.0748 87.5552H53.0631C53.361 87.5565 53.6558 87.6166 53.9305 87.7319C54.2052 87.8473 54.4545 88.0156 54.664 88.2274C54.8736 88.4392 55.0394 88.6902 55.1518 88.9661C55.2643 89.242 55.3213 89.5373 55.3195 89.8352ZM100.427 87.5552H63.4384C63.1407 87.5569 62.8464 87.6173 62.5721 87.7329C62.2977 87.8484 62.0489 88.0169 61.8397 88.2286C61.6305 88.4403 61.465 88.6912 61.3527 88.9668C61.2405 89.2425 61.1836 89.5376 61.1854 89.8352V96.6788C61.1854 97.2776 61.4223 97.852 61.8445 98.2767C62.2666 98.7014 62.8396 98.9417 63.4384 98.9453H100.427C100.725 98.944 101.019 98.8839 101.294 98.7686C101.569 98.6532 101.818 98.4849 102.028 98.2731C102.237 98.0613 102.403 97.8103 102.515 97.5344C102.628 97.2586 102.685 96.9632 102.683 96.6653V89.8352C102.685 89.5373 102.628 89.242 102.515 88.9661C102.403 88.6902 102.237 88.4392 102.028 88.2274C101.818 88.0156 101.569 87.8473 101.294 87.7319C101.019 87.6166 100.725 87.5565 100.427 87.5552Z" fill="#6E6E6E"/>
<path d="M21.2471 24.9514C21.2464 25.0651 21.2577 25.1785 21.2809 25.2897L23.1956 34.7042C23.2176 34.8202 23.2516 34.9336 23.2971 35.0425L16.8054 36.3619L14.7554 26.2707L21.2471 24.9514Z" fill="#585858"/>
<path d="M16.2639 44.8936L7.50566 46.6764C7.21799 46.7351 6.92155 46.7365 6.63332 46.6806C6.3451 46.6246 6.07074 46.5123 5.82595 46.3502C5.58117 46.1881 5.37078 45.9792 5.20681 45.7357C5.04284 45.4921 4.92852 45.2186 4.8704 44.9308L0.49296 23.4394C0.434178 23.1515 0.432708 22.8549 0.488635 22.5664C0.544562 22.278 0.656789 22.0034 0.818901 21.7583C0.981013 21.5133 1.18983 21.3026 1.43342 21.1383C1.67701 20.974 1.95059 20.8593 2.23852 20.8008L10.9968 19.018C11.2854 18.9578 11.5831 18.9553 11.8727 19.0108C12.1623 19.0663 12.438 19.1786 12.684 19.3412C12.9299 19.5038 13.1412 19.7135 13.3057 19.9582C13.4701 20.2029 13.5845 20.4778 13.6422 20.7669L18.0061 42.2583C18.1239 42.8388 18.0066 43.4422 17.68 43.9363C17.3534 44.4303 16.8441 44.7746 16.2639 44.8936Z" fill="#6E6E6E"/>
<path d="M22.6754 23.1689L30.818 21.5147C31.0484 21.4674 31.2859 21.4661 31.5167 21.511C31.7476 21.5559 31.9674 21.646 32.1633 21.7762C32.3592 21.9064 32.5274 22.0741 32.6582 22.2696C32.789 22.465 32.8799 22.6845 32.9255 22.9152L34.8436 32.3298C34.9374 32.7949 34.8431 33.2782 34.5812 33.6739C34.3193 34.0696 33.9113 34.3453 33.4464 34.4407L25.3073 36.0983C24.8421 36.1921 24.3588 36.0978 23.9631 35.8359C23.5674 35.574 23.2917 35.166 23.1963 34.7012L21.2816 25.2866C21.2337 25.056 21.2317 24.8182 21.2758 24.5869C21.32 24.3555 21.4094 24.1352 21.5388 23.9384C21.6683 23.7417 21.8354 23.5724 22.0304 23.4404C22.2254 23.3083 22.4446 23.2161 22.6754 23.1689Z" fill="#6E6E6E"/>
<path d="M10.0225 19.2209L3.22965 20.6045L2.72222 18.1181C2.67928 17.8882 2.72821 17.6506 2.85852 17.4565C2.98882 17.2623 3.19009 17.1269 3.41909 17.0795L8.45619 16.0647C8.68572 16.0162 8.9251 16.06 9.12259 16.1866C9.32009 16.3132 9.45984 16.5124 9.51165 16.7412L10.0225 19.2209Z" fill="#EE8E58"/>
<path d="M14.7554 26.2706L18.1619 25.594L20.2119 35.6682L16.8054 36.3448L14.7554 26.2706Z" fill="#585858"/>
<path d="M15.2662 18.2499V18.277C15.2558 18.4695 15.3205 18.6586 15.4467 18.8043C15.5729 18.9501 15.7508 19.0412 15.9428 19.0585L18.2262 19.1972C18.4182 19.2067 18.6064 19.1415 18.7514 19.0154C18.8964 18.8893 18.9871 18.712 19.0043 18.5206V18.4935C19.0147 18.301 18.95 18.1119 18.8238 17.9662C18.6976 17.8204 18.5198 17.7293 18.3277 17.7121L16.0443 17.57C15.8518 17.5605 15.6631 17.6261 15.518 17.7529C15.3729 17.8798 15.2826 18.0579 15.2662 18.2499Z" fill="#E0EBFC"/>
<path d="M14.166 14.803V14.7793C14.0375 14.6323 13.9718 14.4408 13.9832 14.2459C13.9946 14.051 14.0821 13.8683 14.2269 13.7374L15.9454 12.2185C16.0922 12.0934 16.2818 12.0302 16.4743 12.0422C16.6667 12.0542 16.847 12.1404 16.9772 12.2827C17.0473 12.3549 17.102 12.4406 17.1381 12.5345C17.1741 12.6285 17.1908 12.7287 17.187 12.8293C17.1832 12.9298 17.159 13.0286 17.116 13.1195C17.073 13.2105 17.0119 13.2918 16.9366 13.3585L15.2181 14.8808C15.0681 15.0096 14.8732 15.0737 14.676 15.0591C14.4788 15.0445 14.2954 14.9524 14.166 14.803Z" fill="#E0EBFC"/>
<path d="M10.9023 13.3176H10.8718C10.6801 13.2995 10.5028 13.2082 10.3767 13.0626C10.2507 12.9171 10.1857 12.7285 10.1953 12.5362L10.334 10.2561C10.3512 10.0647 10.4418 9.88736 10.5868 9.76124C10.7319 9.63513 10.9201 9.57002 11.112 9.57953H11.1425C11.3342 9.59759 11.5115 9.68892 11.6376 9.83449C11.7636 9.98006 11.8286 10.1687 11.819 10.361L11.677 12.6309C11.6622 12.8235 11.5731 13.0029 11.4286 13.131C11.284 13.2592 11.0953 13.3261 10.9023 13.3176Z" fill="#E0EBFC"/>
<path d="M84.6081 81.2389L82.5784 74.9705C82.5168 74.786 82.4837 74.5932 82.4803 74.3988L81.6176 41.2466V44.6125C81.6164 45.8357 81.4059 47.0496 80.9952 48.2018L76.7192 60.3801L77.9506 62.2103C80.9983 66.7133 82.6267 72.0262 82.6257 77.4636C82.6259 78.7644 82.4967 80.0619 82.2401 81.337L81.0223 87.3653H82.9437C83.4246 87.3653 83.8858 87.1743 84.2259 86.8342C84.5659 86.4942 84.7569 86.033 84.7569 85.5521V82.1692C84.7565 81.8532 84.7063 81.5393 84.6081 81.2389Z" fill="#E6B8B8"/>
<path d="M88.7219 42.3497C88.1739 38.1752 84.9399 38.5744 84.3919 34.4033C83.8438 30.2322 87.0779 29.8398 86.5298 25.6687C85.9818 21.4976 82.7478 21.8934 82.1998 17.7224V15.1987H51.9163V17.7224C51.3716 21.9002 48.1477 21.501 47.5896 25.6687C47.0314 29.8364 50.2722 30.2322 49.7242 34.4033C49.1761 38.5744 45.9455 38.182 45.3975 42.3497V43.3645C45.417 44.316 45.8122 45.221 46.4967 45.882C47.1812 46.5431 48.0995 46.9065 49.051 46.8929H84.5712C85.6521 46.9128 86.6967 46.5029 87.4756 45.7532C88.2545 45.0034 88.704 43.9752 88.7253 42.8943V42.3734L88.7219 42.3497Z" fill="#6E6E6E"/>
<path d="M81.1106 28.9366C82.4164 26.0341 74.7407 17.3739 72.7583 15.1987H71.0669L62.8127 18.5816L52.4746 21.2879C52.4746 21.2879 56.4089 30.5232 55.9691 33.0062C55.5293 35.4892 51.4158 39.6772 54.5754 44.6467C55.0963 45.4755 56.1586 46.2129 57.5523 46.8726H82.9645C85.6403 42.0249 84.3684 39.6637 82.6262 37.5223C80.4205 34.8093 79.6087 32.2755 81.1106 28.9366Z" fill="#585858"/>
<path d="M66.2638 86.0903H77.089L74.8733 102.26L73.1818 111.313L73.3679 113.089L72.5391 117.977C71.9534 117.699 71.3133 117.555 70.665 117.554H68.1752C67.6923 117.555 67.2131 117.638 66.7577 117.798L66.2334 113.082L66.619 111.124L66.2503 102.176V86.0903H66.2638Z" fill="#F9CFCF"/>
<path d="M64.7237 118.606L64.8556 118.346L66.273 113.079L66.794 117.815L67.1898 119.746H72.2066L72.5753 117.96L73.4008 113.068L74.3209 118.332L74.4292 118.593C74.562 118.897 74.631 119.225 74.6321 119.557C74.6587 120.166 74.4426 120.761 74.031 121.212C73.6194 121.662 73.046 121.93 72.4366 121.959H66.7534C66.3569 121.957 65.9676 121.853 65.623 121.656C65.2785 121.46 64.9903 121.178 64.7863 120.838C64.5823 120.498 64.4694 120.112 64.4584 119.715C64.4474 119.319 64.5388 118.926 64.7237 118.576V118.606Z" fill="#F9A7A7"/>
<path d="M64.4557 119.634C64.6214 118.765 66.0761 114.07 66.2621 113.078L66.7865 117.814C68.4779 117.429 70.9373 117.331 72.5678 117.994L73.3966 113.102L74.3134 118.369C74.5665 118.854 74.669 119.403 74.6077 119.946C74.5378 120.5 74.2704 121.01 73.8547 121.383C73.439 121.755 72.9028 121.966 72.3445 121.975C70.3486 121.654 64.2933 123.22 64.4523 119.634H64.4557Z" fill="#6E6E6E"/>
<path d="M69.0369 92.3386H58.188L60.4173 108.526L62.0918 117.578L61.9058 119.354L62.7346 124.243C63.3202 123.964 63.9604 123.82 64.6087 123.82H67.0917C67.5744 123.822 68.0533 123.904 68.5091 124.063L69.0335 119.347L68.6681 117.382L69.0335 108.434V92.3386H69.0369Z" fill="#F9CFCF"/>
<path d="M76.9629 37.3022H72.5246V34.0547C70.9498 34.7244 69.2562 35.0696 67.545 35.0696C65.8337 35.0696 64.1401 34.7244 62.5654 34.0547V37.3022H58.127C55.5561 37.3022 53.4756 39.0715 53.4756 41.2568V44.6228C53.4778 45.842 53.686 47.052 54.0913 48.2019L58.3706 60.3802H76.7024L80.9987 48.2019C81.4041 47.0533 81.6111 45.8442 81.611 44.6262V41.2433C81.611 39.0681 79.5305 37.3022 76.9629 37.3022Z" fill="#F9CFCF"/>
<path d="M80.313 17.7221H80.2318V16.5381C80.2318 13.1736 78.8953 9.94692 76.5162 7.56787C74.1372 5.18883 70.9105 3.85229 67.546 3.85229C64.1816 3.85229 60.9549 5.18883 58.5758 7.56787C56.1968 9.94692 54.8603 13.1736 54.8603 16.5381V17.7255H54.7825C53.7741 17.7124 52.8011 18.0969 52.0741 18.7958C51.3471 19.4947 50.9245 20.4517 50.8978 21.4598C50.8711 22.4679 51.2425 23.446 51.9315 24.1824C52.6206 24.9187 53.5718 25.3542 54.5795 25.3944C54.6471 25.3944 54.7148 25.3944 54.7825 25.3944C54.9203 25.3979 55.0583 25.3911 55.1952 25.3741C55.8671 28.1423 57.4498 30.6043 59.689 32.365C61.9282 34.1257 64.6941 35.0829 67.5427 35.0829C70.3912 35.0829 73.1571 34.1257 75.3963 32.365C77.6356 30.6043 79.2182 28.1423 79.8901 25.3741C80.0255 25.3741 80.154 25.3944 80.3062 25.3944C80.8142 25.4149 81.3212 25.3343 81.7977 25.1571C82.2743 24.9799 82.7108 24.7098 83.082 24.3625C83.4533 24.0151 83.7517 23.5974 83.9601 23.1337C84.1685 22.6699 84.2826 22.1694 84.2958 21.6612C84.309 21.153 84.2211 20.6472 84.0371 20.1732C83.8532 19.6993 83.5768 19.2666 83.2242 18.9004C82.8716 18.5342 82.4496 18.2418 81.983 18.0401C81.5163 17.8384 81.0142 17.7314 80.5058 17.7255H80.3062L80.313 17.7221Z" fill="#F9CFCF"/>
<path d="M67.5516 35.0695C70.4008 35.0775 73.1693 34.1241 75.4095 32.3634C77.6496 30.6027 79.2302 28.1379 79.8957 25.3674C80.031 25.3674 80.1595 25.3911 80.3118 25.3911C80.8197 25.4116 81.3267 25.3309 81.8033 25.1538C82.2798 24.9766 82.7163 24.7065 83.0876 24.3591C83.4588 24.0118 83.7572 23.5941 83.9656 23.1303C84.174 22.6666 84.2881 22.1661 84.3013 21.6579C84.3146 21.1496 84.2266 20.6439 84.0427 20.1699C83.8587 19.696 83.5824 19.2633 83.2297 18.8971C82.8771 18.5309 82.4552 18.2385 81.9885 18.0367C81.5218 17.835 81.0197 17.7281 80.5114 17.7221H80.2306V16.5381C80.2064 14.424 79.655 12.3494 78.6263 10.5023C77.5975 8.65523 76.124 7.09414 74.3393 5.96058C72.5547 4.82702 70.5153 4.15684 68.4061 4.01081C66.2969 3.86478 64.1846 4.24751 62.2607 5.12432L63.4955 17.032C70.1631 17.3263 71.7226 14.5727 71.7226 14.5727C71.7226 14.5727 77.9471 15.6857 78.1839 20.5773C78.4207 25.4689 75.2273 35.0695 67.5516 35.0695Z" fill="#E6B8B8"/>
<g opacity="0.6">
<path opacity="0.6" d="M66.7742 117.804C67.23 117.645 67.709 117.563 68.1916 117.56H66.7539L66.7742 117.804Z" fill="#E6B8B8"/>
<path opacity="0.6" d="M77.1061 86.0889H75.4519L73.2226 102.276L71.5311 111.328L71.7138 113.104L70.9561 117.59C71.5046 117.627 72.0414 117.766 72.5392 118L73.368 113.108L73.182 111.332L74.8734 102.279L77.1061 86.0889Z" fill="#E6B8B8"/>
</g>
<path d="M54.0575 39.1768L44.0171 50.8274C43.4129 51.4934 43.0781 52.3604 43.0781 53.2597C43.0781 54.1589 43.4129 55.026 44.0171 55.692L51.9939 64.4198C52.1102 64.5461 52.1879 64.703 52.2179 64.8721C52.2478 65.0411 52.2288 65.2152 52.1631 65.3737L50.9453 68.327C50.4979 69.4187 50.4488 70.633 50.8066 71.7572L52.3762 76.6793H52.4675C52.6168 71.5118 54.2336 66.4934 57.1291 62.2108L57.1562 62.1702L52.2104 54.9883C52.0844 54.8063 52.0299 54.5842 52.0574 54.3645C52.0849 54.1448 52.1923 53.943 52.3593 53.7975L55.1772 51.3348L54.1049 48.2023C53.6983 47.0539 53.4901 45.8448 53.4892 44.6266V41.2437C53.4913 40.9909 53.5208 40.7391 53.5771 40.4927" fill="#F9CFCF"/>
<path d="M78.346 37.4782C77.8966 37.3602 77.4338 37.3011 76.9692 37.3022H72.5309V34.0547C71.1026 34.6663 69.5741 35.0103 68.0215 35.0695C68.0215 38.5641 71.719 39.2034 72.9842 39.2203C77.7912 39.288 77.7202 40.9118 77.7202 40.9118C78.1497 39.8187 78.3623 38.6525 78.346 37.4782Z" fill="#E6B8B8"/>
<g opacity="0.6">
<path opacity="0.6" d="M69.0372 92.3386H67.0447V108.444L66.6692 117.385L67.0379 119.351L66.5508 123.823H67.092C67.5749 123.824 68.0541 123.906 68.5095 124.067L69.0338 119.351L68.6685 117.385L69.0338 108.438L69.0372 92.3386Z" fill="#E6B8B8"/>
<path opacity="0.6" d="M62.7351 124.246C63.3207 123.968 63.9609 123.823 64.6092 123.823H62.6641L62.7351 124.246Z" fill="#E6B8B8"/>
</g>
<path d="M77.9506 62.2105L76.7193 60.3837L80.9952 48.2054C81.4001 47.0566 81.6083 45.8477 81.6109 44.6297V41.2468C81.6076 40.9939 81.577 40.7421 81.5196 40.4958C81.4076 39.7064 81.0342 38.9774 80.4589 38.4254C79.8836 37.8734 79.1397 37.5304 78.3464 37.4512C78.3801 39.6514 77.6074 41.7879 76.174 43.4574C74.7407 45.127 72.7458 46.2142 70.5658 46.5139C69.7254 46.6195 68.8791 46.6715 68.032 46.6695C66.0101 46.7109 63.9978 46.3806 62.0951 45.6953C60.456 45.0531 59.0636 43.9063 58.1192 42.4207C57.1748 40.9351 56.7273 39.1876 56.8415 37.4309C53.5635 37.8166 53.5094 40.9762 53.5094 41.2299V44.5958C53.5022 45.8235 53.7058 47.0433 54.1115 48.202L58.3875 60.3803L57.1595 62.2071C54.1111 66.7112 52.4816 72.0251 52.481 77.4638C52.4852 78.7708 52.6201 80.074 52.8835 81.3542L53.7191 85.5016C54.2755 88.2497 54.9767 90.9666 55.8199 93.6408C64.5713 91.9493 69.7573 99.3105 77.4939 97.3213L80.2239 96.6177L82.2536 81.3542C82.5103 80.079 82.6394 78.7815 82.6393 77.4808C82.6376 72.0365 81.0044 66.7176 77.9506 62.2105Z" fill="#89C3E8"/>
<path d="M61.8419 17.1775H52.4442C52.3071 17.178 52.1713 17.1513 52.0445 17.0992C51.9177 17.047 51.8024 16.9703 51.7053 16.8735C51.6082 16.7767 51.5311 16.6617 51.4786 16.5351C51.426 16.4085 51.3989 16.2727 51.3989 16.1356V10.2122C51.3989 7.54751 52.4575 4.99198 54.3417 3.10778C56.2259 1.22357 58.7814 0.165039 61.4461 0.165039L66.4155 0.165039C67.6205 0.166831 68.7755 0.646527 69.6273 1.49889C70.479 2.35124 70.9578 3.50665 70.9587 4.71162V8.05052C70.9587 10.4729 69.9964 12.7962 68.2835 14.5091C66.5706 16.222 64.2474 17.1843 61.8249 17.1843L61.8419 17.1775Z" fill="#6E6E6E"/>
<path d="M81.6382 15.8277H79.7878C78.628 15.8282 77.4795 15.6001 76.4079 15.1566C75.3363 14.7131 74.3626 14.0628 73.5423 13.2429C72.7221 12.4229 72.0714 11.4495 71.6275 10.378C71.1836 9.30658 70.9551 8.15818 70.9551 6.99842V4.08238C70.9551 3.35534 71.2437 2.65803 71.7574 2.14362C72.2712 1.62921 72.9682 1.33976 73.6952 1.33887H74.2432C76.4862 1.33887 78.6373 2.22989 80.2234 3.81592C81.8094 5.40195 82.7004 7.55307 82.7004 9.79605V14.7858C82.7004 14.9229 82.6734 15.0587 82.6208 15.1853C82.5682 15.3119 82.4912 15.4269 82.3941 15.5237C82.2969 15.6205 82.1817 15.6972 82.0549 15.7494C81.9281 15.8015 81.7922 15.8282 81.6551 15.8277H81.6382Z" fill="#6E6E6E"/>
<path d="M70.5757 124.871L70.4438 124.611L69.0365 119.354L68.5155 124.09L68.1062 126.035H63.0995L62.7342 124.246L61.9054 119.357L61.0022 124.618L60.8905 124.882C60.759 125.185 60.6899 125.512 60.6875 125.842C60.6735 126.145 60.7193 126.447 60.8223 126.731C60.9253 127.016 61.0835 127.277 61.2878 127.5C61.4921 127.723 61.7386 127.904 62.0129 128.032C62.2872 128.159 62.5841 128.232 62.8864 128.244H68.5392C68.9361 128.243 69.326 128.14 69.6711 127.944C70.0162 127.748 70.3048 127.466 70.509 127.126C70.7132 126.785 70.826 126.398 70.8365 126.001C70.847 125.605 70.7548 125.212 70.5689 124.861L70.5757 124.871Z" fill="#F9A7A7"/>
<path d="M70.8373 125.9C70.828 125.546 70.7377 125.199 70.5735 124.885L70.4415 124.625L69.0377 119.368L68.5167 124.083C68.0608 123.925 67.5819 123.843 67.0993 123.84H64.5993C63.9506 123.84 63.3101 123.985 62.7252 124.266L61.8998 119.371L60.9796 124.638L60.868 124.899C60.7367 125.203 60.6677 125.531 60.665 125.863C60.665 125.976 60.6729 126.089 60.6887 126.201V126.242C60.7004 126.326 60.7174 126.41 60.7395 126.492C60.7564 126.553 60.7699 126.614 60.7902 126.675C60.8105 126.736 60.8477 126.827 60.8815 126.901C60.9154 126.976 60.9357 127.016 60.9695 127.074C61.0033 127.131 61.0507 127.206 61.0947 127.27L61.2198 127.432C61.2638 127.483 61.3179 127.541 61.3687 127.591L61.5378 127.737C61.5895 127.781 61.6437 127.821 61.7002 127.859C61.77 127.903 61.8422 127.944 61.9167 127.98C61.9911 128.014 62.025 128.038 62.0825 128.062C62.1732 128.097 62.2658 128.128 62.3599 128.153C62.4072 128.153 62.4546 128.183 62.5087 128.194C62.6577 128.226 62.8096 128.243 62.962 128.244H68.5167C68.9761 128.244 69.4249 128.106 69.8056 127.849C70.0506 127.684 70.261 127.472 70.4246 127.226C70.6825 126.847 70.8203 126.399 70.8204 125.941V125.9H70.8373Z" fill="#6E6E6E"/>
<path d="M80.2102 96.611C80.995 90.7146 82.2399 81.3407 82.2399 81.3407C82.4951 80.0642 82.6243 78.7657 82.6256 77.4639C82.6245 72.0268 80.9962 66.7144 77.9504 62.2105L76.7191 60.3838L80.995 48.2054C81.4 47.0566 81.6081 45.8478 81.6107 44.6297V43.1785C81.6107 43.1785 82.6256 38.05 78.3462 37.4817C78.0418 40.4113 77.7238 40.895 77.7238 40.895C75.075 54.0679 72.1657 60.7187 72.1657 60.7187C72.1657 60.7187 77.487 74.9606 77.1047 80.3393C76.1338 93.9182 72.707 94.4561 62.5347 93.9486C69.4865 95.701 72.0676 99.439 80.2102 96.611Z" fill="#6DB8E8"/>
<path d="M57.1807 62.1696L52.2349 54.9878C52.1089 54.8057 52.0544 54.5836 52.0819 54.3639C52.1093 54.1442 52.2168 53.9424 52.3838 53.797L55.2017 51.3343L54.3797 48.9832C52.5123 50.0285 49.1294 52.0447 49.2343 53.4113C49.3798 55.2618 55.2829 62.3387 54.789 64.3143C54.2951 66.2899 51.5448 68.888 52.6646 74.3074C53.166 69.9679 54.7046 65.8128 57.1502 62.1933L57.1807 62.1696Z" fill="#E6B8B8"/>
<path d="M67.2575 128.244H68.5362C68.9946 128.244 69.4423 128.106 69.8217 127.849C70.1342 127.638 70.3902 127.354 70.5672 127.021C70.7441 126.688 70.8366 126.317 70.8366 125.941V125.9C70.83 125.546 70.7408 125.199 70.5761 124.885L70.4442 124.625L69.0369 119.368L68.5159 124.083C68.06 123.925 67.5812 123.843 67.0985 123.84H67.041C67.5045 124.892 68.2318 127.043 67.2575 128.244Z" fill="#585858"/>
<path d="M72.7639 121.929C72.8152 121.92 72.8652 121.905 72.9128 121.885C73.0012 121.86 73.0882 121.831 73.1733 121.797C73.2308 121.773 73.2849 121.742 73.339 121.715C73.3931 121.688 73.4879 121.638 73.5589 121.594L73.7179 121.472L73.8904 121.326C73.9412 121.276 73.9885 121.221 74.0359 121.164C74.0833 121.106 74.1238 121.059 74.1644 121.005C74.205 120.951 74.249 120.876 74.2896 120.809C74.3302 120.741 74.3471 120.694 74.3776 120.636C74.408 120.579 74.4418 120.484 74.4689 120.41C74.496 120.335 74.5027 120.288 74.5196 120.227C74.5366 120.166 74.5569 120.061 74.5704 119.977V119.936C74.5865 119.824 74.5933 119.711 74.5907 119.598C74.5896 119.266 74.5205 118.938 74.3877 118.634L74.2795 118.373L73.3593 113.106L72.5305 117.998C72.1459 117.817 71.7367 117.693 71.3161 117.632C71.3211 117.648 71.3299 117.662 71.3418 117.673C71.3536 117.684 71.368 117.692 71.3837 117.697C72.111 117.818 71.9588 121.756 70.812 121.989H72.2836C72.4455 121.988 72.6067 121.967 72.7639 121.929Z" fill="#585858"/>
<path d="M69.9136 61.2193C70.2146 62.4913 70.5901 64.9405 70.9589 68.117C70.9788 68.3024 71.0665 68.474 71.2051 68.5988C71.3436 68.7236 71.5234 68.793 71.7099 68.7936H71.7978C71.8976 68.7834 71.9943 68.7537 72.0824 68.7059C72.1706 68.6581 72.2483 68.5934 72.3113 68.5153C72.3742 68.4373 72.421 68.3476 72.449 68.2513C72.477 68.1551 72.4856 68.0542 72.4744 67.9546C72.109 64.8593 71.7437 62.4236 71.4358 61.0603H69.9068C69.9034 61.1134 69.9057 61.1667 69.9136 61.2193Z" fill="#6DB8E8"/>
<path d="M63.3133 68.7799H63.4047C63.5908 68.7792 63.7701 68.7097 63.9081 68.5848C64.0461 68.46 64.1331 68.2884 64.1523 68.1033C64.5142 65.0587 64.8728 62.6467 65.1671 61.3376C65.1828 61.2631 65.1885 61.1869 65.1841 61.1109V61.0229H63.6719V61.1177C63.3708 62.4877 62.9953 64.893 62.657 67.9172C62.6423 68.0171 62.6477 68.119 62.6728 68.2168C62.698 68.3146 62.7425 68.4063 62.8036 68.4867C62.8648 68.5671 62.9413 68.6344 63.0289 68.6848C63.1164 68.7351 63.2131 68.7674 63.3133 68.7799Z" fill="#6DB8E8"/>
<path d="M76.5405 59.7678H58.5538C58.2193 59.7678 57.9482 60.0389 57.9482 60.3734V61.0296C57.9482 61.3641 58.2193 61.6352 58.5538 61.6352H76.5405C76.8749 61.6352 77.1461 61.3641 77.1461 61.0296V60.3734C77.1461 60.0389 76.8749 59.7678 76.5405 59.7678Z" fill="#E0EBFC"/>
<path d="M67.5446 62.7751C69.2765 62.7751 70.6805 61.8467 70.6805 60.7014C70.6805 59.5561 69.2765 58.6277 67.5446 58.6277C65.8127 58.6277 64.4087 59.5561 64.4087 60.7014C64.4087 61.8467 65.8127 62.7751 67.5446 62.7751Z" fill="#FFF9EB"/>
<g opacity="0.7">
<path opacity="0.7" d="M64.5098 61.256C64.8751 62.1288 66.0659 62.7682 67.5307 62.7682C69.2593 62.7682 70.6632 61.8413 70.6632 60.7012C70.6413 60.3732 70.5322 60.057 70.3473 59.7853C70.1623 59.5135 69.9082 59.296 69.6111 59.1553C69.686 59.332 69.7262 59.5215 69.7295 59.7134C69.7295 60.8535 68.3223 61.7804 66.5936 61.7804C65.8653 61.7892 65.1472 61.6085 64.5098 61.256Z" fill="#D3CDBF"/>
</g>
<path d="M67.5003 8.96057C73.8161 8.96057 79.0596 11.7988 80.2301 17.7155C80.3113 17.7155 80.4161 17.7155 80.5108 17.7155C80.6259 16.9306 80.4905 15.4557 80.4905 14.7521C80.4355 11.3436 79.0429 8.09331 76.6131 5.70237C74.1832 3.31143 70.9109 1.97144 67.502 1.97144C64.0931 1.97144 60.8208 3.31143 58.3909 5.70237C55.9611 8.09331 54.5685 11.3436 54.5135 14.7521C54.5135 15.4557 54.3308 16.934 54.4695 17.7222C54.6014 17.7222 54.7063 17.7222 54.8687 17.7222C56.0391 11.8123 61.1879 8.96057 67.5003 8.96057Z" fill="#EE8E58"/>
<path d="M76.4863 5.47632C77.1629 6.25438 78.0255 10.8889 76.8246 11.9038C78.6011 13.3897 79.7985 15.4529 80.2075 17.7325C80.2887 17.7325 80.3935 17.7325 80.4883 17.7325C80.6033 16.9476 80.468 15.4727 80.468 14.7691C80.4721 13.0306 80.1211 11.3096 79.4364 9.71167C78.7518 8.11371 77.7479 6.67246 76.4863 5.47632Z" fill="#EC7425"/>
<path d="M52.9815 23.1992C52.8948 23.2036 52.813 23.2411 52.7532 23.3041C52.6934 23.3671 52.66 23.4506 52.6602 23.5375V25.7973C52.6816 25.8662 52.7245 25.9265 52.7826 25.9693C52.8407 26.0121 52.911 26.0352 52.9832 26.0352C53.0554 26.0352 53.1257 26.0121 53.1838 25.9693C53.242 25.9265 53.2849 25.8662 53.3063 25.7973V23.524C53.3029 23.4389 53.2677 23.3582 53.2075 23.298C53.1473 23.2378 53.0666 23.2026 52.9815 23.1992Z" fill="#D8E2F2"/>
<path d="M81.1104 23.1992C81.0237 23.2036 80.9419 23.2411 80.8821 23.3041C80.8223 23.3671 80.789 23.4506 80.7891 23.5375V25.7973C80.8105 25.8662 80.8534 25.9265 80.9115 25.9693C80.9696 26.0121 81.0399 26.0352 81.1121 26.0352C81.1843 26.0352 81.2546 26.0121 81.3127 25.9693C81.3709 25.9265 81.4138 25.8662 81.4352 25.7973V23.524C81.4318 23.4389 81.3966 23.3582 81.3364 23.298C81.2762 23.2378 81.1955 23.2026 81.1104 23.1992Z" fill="#D8E2F2"/>
<path d="M54.5948 27.6711C54.613 27.89 54.5844 28.1103 54.5109 28.3174C54.4374 28.5244 54.3207 28.7135 54.1686 28.872C53.9418 29.1173 53.6447 29.2863 53.318 29.3558C52.9913 29.4254 52.6511 29.392 52.3441 29.2604C52.0371 29.1288 51.7784 28.9053 51.6035 28.6208C51.4287 28.3362 51.3462 28.0044 51.3676 27.6711C51.3676 26.8423 52.2877 25.9424 52.7207 25.55C52.7871 25.4851 52.8756 25.4477 52.9684 25.4452C53.0612 25.4427 53.1515 25.4753 53.2214 25.5365C53.6781 25.9424 54.5948 26.8423 54.5948 27.6711Z" fill="#E0EBFC"/>
<path d="M82.7244 27.6717C82.7448 27.8894 82.7188 28.109 82.6483 28.316C82.5777 28.523 82.4642 28.7127 82.3151 28.8726C82.0883 29.1179 81.7912 29.2869 81.4645 29.3564C81.1378 29.426 80.7976 29.3927 80.4906 29.261C80.1836 29.1294 79.9249 28.906 79.75 28.6214C79.5752 28.3368 79.4927 28.005 79.514 27.6717C79.514 26.8429 80.4342 25.9431 80.8841 25.5506C80.9514 25.4914 81.038 25.4587 81.1277 25.4587C81.2173 25.4587 81.3039 25.4914 81.3712 25.5506C81.8042 25.9431 82.7244 26.8429 82.7244 27.6717Z" fill="#E0EBFC"/>
<path d="M52.7279 26.9408L52.6907 26.9882C52.5741 27.1037 52.4835 27.2429 52.4252 27.3964C52.3668 27.5498 52.342 27.714 52.3524 27.8779C52.3681 27.9514 52.408 28.0176 52.4655 28.066C52.5231 28.1144 52.5952 28.1423 52.6704 28.1451H52.7245C52.8064 28.1265 52.8784 28.078 52.9265 28.0093C52.9746 27.9405 52.9955 27.8563 52.985 27.773C52.985 27.6817 53.1135 27.5024 53.1981 27.3941L53.2387 27.3434C53.2829 27.3135 53.3194 27.2735 53.3453 27.2268C53.3711 27.1801 53.3855 27.128 53.3873 27.0746C53.3891 27.0213 53.3783 26.9683 53.3557 26.9199C53.3331 26.8715 53.2994 26.8292 53.2573 26.7964C53.2152 26.7636 53.1659 26.7412 53.1135 26.731C53.0611 26.7209 53.0071 26.7233 52.9558 26.738C52.9045 26.7528 52.8574 26.7794 52.8184 26.8159C52.7794 26.8523 52.7495 26.8974 52.7313 26.9476L52.7279 26.9408Z" fill="#E0EBFC"/>
<path d="M81.2999 26.8902C81.2308 26.8413 81.1459 26.8202 81.062 26.8308C80.9781 26.8415 80.9012 26.8832 80.8465 26.9477L80.8093 26.995C80.6927 27.1106 80.6022 27.2498 80.5438 27.4032C80.4855 27.5567 80.4607 27.7209 80.4711 27.8847C80.4868 27.9583 80.5266 28.0245 80.5842 28.0729C80.6418 28.1213 80.7139 28.1491 80.789 28.152H80.8432C80.925 28.1333 80.997 28.0849 81.0451 28.0161C81.0933 27.9474 81.1141 27.8631 81.1036 27.7799C81.0867 27.6885 81.2322 27.5092 81.3168 27.401L81.3574 27.3502C81.4082 27.2806 81.4305 27.1943 81.4198 27.1088C81.4091 27.0233 81.3662 26.9451 81.2999 26.8902Z" fill="#E0EBFC"/>
<path d="M121.401 16.4942C120.491 18.9434 117.68 25.2727 112.636 26.8864C112.559 26.9101 112.492 26.9578 112.445 27.0223C112.397 27.0868 112.372 27.1648 112.372 27.245C112.372 27.3251 112.397 27.4031 112.445 27.4676C112.492 27.5321 112.559 27.5798 112.636 27.6035C117.744 29.0683 120.501 34.8429 121.397 37.0756C121.426 37.1439 121.475 37.2021 121.537 37.243C121.599 37.2839 121.672 37.3057 121.746 37.3057C121.82 37.3057 121.893 37.2839 121.955 37.243C122.016 37.2021 122.065 37.1439 122.094 37.0756C123.109 34.8057 126.242 28.862 131.644 27.6475C131.724 27.6272 131.794 27.5816 131.846 27.5177C131.897 27.4537 131.926 27.3748 131.929 27.2928C131.932 27.2107 131.908 27.1301 131.86 27.0629C131.813 26.9957 131.746 26.9456 131.668 26.9202C126.11 25.0224 123.085 18.8554 122.094 16.457C122.061 16.3911 122.01 16.3363 121.946 16.2993C121.882 16.2623 121.809 16.2446 121.735 16.2486C121.662 16.2525 121.591 16.2779 121.531 16.3215C121.472 16.3651 121.427 16.4251 121.401 16.4942Z" fill="#EE8E58"/>
<path d="M111.576 13.7274C109.884 12.6753 106.454 10.0333 105.324 5.51379C105.196 5.00297 104.736 5.0165 104.621 5.53408C103.606 10.0908 100.453 12.699 98.9204 13.7342C98.7756 13.8805 98.6943 14.078 98.6943 14.2839C98.6943 14.4898 98.7756 14.6873 98.9204 14.8336C100.47 15.9973 103.697 18.937 104.607 23.7678C104.708 24.3023 105.182 24.3496 105.314 23.8287C106.278 20.1814 108.507 16.9955 111.603 14.8404C111.675 14.7661 111.732 14.6781 111.77 14.5816C111.808 14.485 111.826 14.3819 111.824 14.2782C111.821 14.1745 111.798 14.0724 111.755 13.9778C111.713 13.8832 111.652 13.7981 111.576 13.7274Z" fill="#EE7228"/>
<path d="M108.83 38.0806C107.88 37.4683 105.934 35.9325 105.292 33.304C105.221 33.0063 104.953 33.0131 104.896 33.304C104.456 35.2421 103.304 36.9443 101.669 38.0738C101.587 38.1604 101.542 38.2747 101.542 38.3935C101.542 38.5123 101.587 38.6266 101.669 38.7132C103.337 39.9963 104.481 41.8436 104.886 43.9093C104.943 44.2205 105.224 44.2476 105.285 43.9465C105.821 41.8453 107.078 39.9991 108.837 38.7301C108.879 38.6872 108.913 38.6363 108.936 38.5803C108.958 38.5243 108.97 38.4644 108.969 38.404C108.969 38.3435 108.956 38.2839 108.932 38.2284C108.908 38.1729 108.874 38.1226 108.83 38.0806Z" fill="#EE7228"/>
</svg>
