<svg width="488" height="475" viewBox="0 0 488 475" fill="none" xmlns="http://www.w3.org/2000/svg">
<path d="M324.706 32.7715H108.192C104.985 32.7715 102.385 35.3717 102.385 38.5791V139.642C102.385 142.85 104.985 145.45 108.192 145.45H324.706C327.914 145.45 330.514 142.85 330.514 139.642V38.5791C330.514 35.3717 327.914 32.7715 324.706 32.7715Z" fill="#C3D3ED"/>
<g opacity="0.5">
<path opacity="0.5" d="M330.516 38.5772C330.516 37.0369 329.904 35.5597 328.815 34.4706C327.726 33.3814 326.249 32.7695 324.708 32.7695H298.003L295.206 55.9625L293.525 70.2496L285.999 134.385C285.999 134.761 285.999 135.137 285.924 135.513C285.921 136.813 286.173 138.101 286.668 139.303C287.162 140.505 287.888 141.598 288.805 142.519C289.721 143.44 290.811 144.172 292.01 144.672C293.21 145.173 294.496 145.432 295.796 145.435H324.646C326.183 145.429 327.655 144.814 328.741 143.726C329.826 142.638 330.437 141.165 330.441 139.628V38.5772H330.516Z" fill="#A5B3C9"/>
</g>
<path d="M313.755 47.2188H119.129C117.862 47.2188 116.834 48.2465 116.834 49.5142V128.701C116.834 129.969 117.862 130.997 119.129 130.997H313.755C315.022 130.997 316.05 129.969 316.05 128.701V49.5142C316.05 48.2465 315.022 47.2188 313.755 47.2188Z" fill="#E0EBFC"/>
<path d="M316.103 49.449C316.095 49.1459 316.027 48.8474 315.902 48.571C315.777 48.2946 315.599 48.0458 315.377 47.8391C315.155 47.6324 314.894 47.472 314.61 47.3672C314.325 47.2624 314.023 47.2154 313.72 47.2288H296.234L295.206 56.0093L293.525 70.2462L286.375 131.019H313.72C314.03 131.03 314.34 130.977 314.629 130.865C314.919 130.753 315.183 130.583 315.405 130.366C315.628 130.15 315.804 129.89 315.924 129.604C316.044 129.317 316.105 129.01 316.103 128.699V49.449Z" fill="#CED8E8"/>
<path d="M438.943 419.449C437.714 419.303 436.525 418.916 435.446 418.311C434.367 417.705 433.417 416.893 432.652 415.92C431.886 414.947 431.32 413.833 430.986 412.642C430.651 411.45 430.554 410.204 430.702 408.975L437.889 347.838L439.444 334.216L442.041 312.127H476.46L479.082 334.229L480.637 347.863L487.85 408.988C487.89 409.346 487.911 409.706 487.913 410.067C487.916 411.306 487.675 412.533 487.204 413.678C486.733 414.824 486.041 415.866 485.167 416.744C484.294 417.622 483.256 418.32 482.113 418.797C480.97 419.274 479.744 419.521 478.505 419.525H440.009C439.652 419.519 439.296 419.494 438.943 419.449V419.449Z" fill="#E0EBFC"/>
<g opacity="0.5">
<path opacity="0.5" d="M477.786 410.058C477.786 412.561 476.793 414.962 475.024 416.732C473.255 418.503 470.856 419.5 468.353 419.503H478.488C478.849 419.502 479.209 419.481 479.567 419.441C480.796 419.296 481.984 418.911 483.064 418.306C484.144 417.702 485.095 416.891 485.861 415.92C486.628 414.948 487.195 413.835 487.531 412.645C487.868 411.454 487.966 410.208 487.821 408.979L480.621 347.842L479.065 334.22L476.456 312.131H466.309L468.968 334.233L470.523 347.867L477.723 408.992C477.769 409.345 477.79 409.702 477.786 410.058V410.058Z" fill="#D1DBEB"/>
</g>
<path d="M461.821 299.417C460.566 294.751 460.855 284.766 470.363 280.752C474.577 278.959 477.638 275.02 477.4 272.06C477.161 269.1 473.75 266.691 467.842 265.299C458.71 263.166 453.442 258.111 453.743 251.764C454.069 244.903 461.771 236.913 478.115 234.655C478.493 234.592 478.881 234.604 479.254 234.692C479.628 234.78 479.98 234.942 480.29 235.168C480.6 235.393 480.863 235.679 481.061 236.007C481.26 236.336 481.391 236.7 481.447 237.08C481.503 237.46 481.482 237.847 481.387 238.218C481.291 238.59 481.122 238.939 480.89 239.245C480.658 239.55 480.368 239.807 480.035 239.998C479.703 240.19 479.336 240.314 478.955 240.362C466.412 242.056 459.688 247.562 459.463 252.103C459.299 255.452 462.899 258.375 469.134 259.78C480.661 262.489 482.856 268.347 483.132 271.621C483.672 277.968 478.24 283.713 472.596 286.109C465.408 289.132 467.152 297.147 467.39 298.063C467.569 298.797 467.453 299.573 467.066 300.223C466.679 300.873 466.052 301.345 465.32 301.537C465.087 301.597 464.847 301.627 464.605 301.625C463.96 301.625 463.334 301.407 462.829 301.006C462.323 300.605 461.968 300.045 461.821 299.417Z" fill="#585858"/>
<path d="M451.57 299.53L443.09 268.886C442.965 268.518 442.916 268.127 442.946 267.739C442.977 267.351 443.085 266.972 443.266 266.628C443.447 266.283 443.697 265.978 443.999 265.733C444.301 265.487 444.65 265.306 445.025 265.199C445.4 265.093 445.792 265.064 446.178 265.114C446.565 265.163 446.937 265.291 447.272 265.49C447.607 265.688 447.899 265.952 448.129 266.267C448.358 266.581 448.522 266.939 448.609 267.318L457.101 297.987C457.202 298.35 457.231 298.728 457.185 299.102C457.14 299.475 457.021 299.836 456.835 300.164C456.65 300.491 456.402 300.779 456.106 301.01C455.809 301.241 455.47 301.412 455.107 301.512C454.854 301.583 454.592 301.617 454.329 301.612C453.705 301.614 453.097 301.411 452.599 301.035C452.101 300.659 451.739 300.131 451.57 299.53V299.53Z" fill="#585858"/>
<path d="M481.675 305.458C481.672 307.232 480.965 308.933 479.709 310.186C478.453 311.44 476.751 312.144 474.977 312.144H443.054C441.279 312.144 439.578 311.44 438.322 310.186C437.066 308.933 436.359 307.232 436.355 305.458V305.458C436.355 303.682 437.061 301.978 438.317 300.722C439.574 299.465 441.277 298.76 443.054 298.76H475.002C476.774 298.766 478.471 299.475 479.722 300.73C480.973 301.986 481.675 303.686 481.675 305.458V305.458Z" fill="#E0EBFC"/>
<path d="M439.442 334.234H479.067L480.673 347.869H437.824L439.442 334.234Z" fill="#EE8E58"/>
<path d="M470.52 347.869H480.667L479.062 334.234H468.914L470.52 347.869Z" fill="#EE7E3B"/>
<g opacity="0.5">
<path opacity="0.5" d="M436.383 305.906C436.485 307.603 437.231 309.197 438.469 310.363C439.707 311.528 441.343 312.178 443.043 312.178H475.042C475.92 312.171 476.788 311.992 477.597 311.65C478.405 311.308 479.139 310.81 479.755 310.184C480.371 309.559 480.858 308.818 481.188 308.004C481.518 307.191 481.684 306.32 481.677 305.442V305.442C481.671 303.671 480.962 301.975 479.706 300.726C478.45 299.477 476.75 298.778 474.979 298.781H474.452V305.868L436.383 305.906Z" fill="#D1DBEB"/>
</g>
<path d="M111.471 400.137V427.194C111.486 427.752 111.389 428.308 111.186 428.829C110.983 429.349 110.678 429.824 110.289 430.225C109.9 430.626 109.434 430.945 108.92 431.163C108.406 431.381 107.853 431.495 107.294 431.496H65.4739C64.9221 431.493 64.3763 431.381 63.8678 431.167C63.3592 430.952 62.8978 430.64 62.51 430.248C62.1221 429.855 61.8153 429.39 61.6072 428.879C61.3991 428.368 61.2936 427.821 61.297 427.269V400.137C61.2936 399.585 61.3991 399.038 61.6072 398.527C61.8153 398.016 62.1221 397.551 62.51 397.159C62.8978 396.766 63.3592 396.454 63.8678 396.24C64.3763 396.025 64.9221 395.913 65.4739 395.91H107.294C107.846 395.913 108.392 396.025 108.9 396.24C109.409 396.454 109.87 396.766 110.258 397.159C110.646 397.551 110.953 398.016 111.161 398.527C111.369 399.038 111.474 399.585 111.471 400.137V400.137ZM383.264 395.91H341.456C340.905 395.913 340.359 396.025 339.85 396.24C339.342 396.454 338.88 396.766 338.492 397.159C338.105 397.551 337.798 398.016 337.59 398.527C337.382 399.038 337.276 399.585 337.279 400.137V427.194C337.274 427.746 337.379 428.294 337.586 428.806C337.794 429.317 338.101 429.783 338.489 430.176C338.877 430.569 339.339 430.881 339.848 431.095C340.358 431.308 340.904 431.419 341.456 431.421H383.264C383.817 431.419 384.364 431.308 384.874 431.095C385.384 430.882 385.847 430.569 386.236 430.177C386.625 429.784 386.933 429.318 387.142 428.807C387.351 428.295 387.457 427.747 387.454 427.194V400.137C387.455 399.585 387.348 399.039 387.138 398.528C386.929 398.018 386.621 397.554 386.232 397.162C385.843 396.771 385.38 396.46 384.871 396.247C384.362 396.035 383.816 395.924 383.264 395.923V395.91Z" fill="#6DB8E8"/>
<path d="M400.831 222.56V315.583C400.841 317.813 399.965 319.956 398.397 321.541C396.828 323.126 394.694 324.024 392.464 324.037H233.563C232.459 324.03 231.368 323.806 230.351 323.378C229.333 322.95 228.411 322.325 227.635 321.54C226.859 320.755 226.246 319.825 225.829 318.803C225.413 317.78 225.202 316.686 225.209 315.583C225.219 317.813 224.343 319.956 222.775 321.541C221.206 323.126 219.072 324.024 216.842 324.037H57.941C55.711 324.024 53.5773 323.126 52.0086 321.541C50.44 319.956 49.5645 317.813 49.5745 315.583V222.56C49.5613 220.35 49.9837 218.159 50.8177 216.112C51.6516 214.066 52.8806 212.203 54.4346 210.632C55.9886 209.06 57.837 207.811 59.8742 206.954C61.9115 206.097 64.0976 205.65 66.3076 205.639H208.476C210.686 205.65 212.872 206.097 214.909 206.954C216.946 207.811 218.795 209.06 220.349 210.632C221.903 212.203 223.132 214.066 223.966 216.112C224.8 218.159 225.222 220.35 225.209 222.56C225.196 220.351 225.618 218.161 226.451 216.115C227.284 214.069 228.512 212.208 230.065 210.636C231.617 209.065 233.464 207.815 235.5 206.957C237.536 206.1 239.72 205.652 241.929 205.639H384.098C386.308 205.65 388.494 206.097 390.531 206.954C392.568 207.811 394.417 209.06 395.971 210.632C397.525 212.203 398.754 214.066 399.587 216.112C400.421 218.159 400.844 220.35 400.831 222.56Z" fill="#6E6E6E"/>
<path d="M400.83 222.564V315.587C400.831 317.225 400.358 318.829 399.467 320.204C398.577 321.58 397.308 322.668 395.813 323.339V338.679H237.765V338.905H212.678V338.679H52.9233V322.373C51.8814 321.583 51.0367 320.563 50.4555 319.392C49.8744 318.221 49.5728 316.932 49.5742 315.624V303.558H137.981C174.934 303.558 204.888 273.265 204.888 235.898V205.668H208.438C210.648 205.679 212.834 206.126 214.871 206.983C216.908 207.84 218.757 209.09 220.311 210.661C221.865 212.233 223.094 214.095 223.928 216.142C224.762 218.188 225.184 220.379 225.171 222.589V286.624C225.154 288.837 225.575 291.033 226.409 293.083C227.244 295.134 228.475 296.999 230.032 298.572C231.589 300.146 233.441 301.396 235.483 302.252C237.525 303.107 239.715 303.551 241.929 303.558H313.59C350.543 303.558 380.497 273.265 380.497 235.898V205.668H384.047C386.259 205.673 388.449 206.114 390.49 206.966C392.531 207.819 394.385 209.065 395.944 210.635C397.503 212.204 398.737 214.066 399.575 216.113C400.414 218.16 400.84 220.352 400.83 222.564Z" fill="#585858"/>
<path d="M439.292 285.999V395.943C439.298 397.047 439.088 398.141 438.671 399.163C438.255 400.185 437.642 401.115 436.866 401.901C436.09 402.686 435.167 403.31 434.15 403.739C433.133 404.167 432.041 404.391 430.938 404.398H19.5104C18.4067 404.391 17.3152 404.167 16.298 403.739C15.2809 403.31 14.3581 402.686 13.5824 401.901C12.8067 401.115 12.1931 400.185 11.7769 399.163C11.3606 398.141 11.1498 397.047 11.1564 395.943V285.999C11.1498 284.896 11.3606 283.801 11.7769 282.779C12.1931 281.757 12.8067 280.827 13.5824 280.042C14.3581 279.257 15.2809 278.632 16.298 278.204C17.3152 277.775 18.4067 277.551 19.5104 277.545H52.9263C55.1564 277.558 57.29 278.456 58.8587 280.041C60.4274 281.626 61.3029 283.769 61.2928 285.999V344.778H389.118V285.999C389.108 283.769 389.983 281.626 391.552 280.041C393.12 278.456 395.254 277.558 397.484 277.545H430.938C432.041 277.551 433.133 277.775 434.15 278.204C435.167 278.632 436.09 279.257 436.866 280.042C437.642 280.827 438.255 281.757 438.671 282.779C439.088 283.801 439.298 284.896 439.292 285.999V285.999Z" fill="#8C8C8C"/>
<path d="M439.289 285.999V395.943C439.295 397.047 439.084 398.141 438.668 399.163C438.252 400.185 437.638 401.115 436.863 401.901C436.087 402.686 435.164 403.31 434.147 403.739C433.13 404.167 432.038 404.391 430.935 404.398H412.533C414.763 404.384 416.897 403.486 418.466 401.901C420.034 400.316 420.91 398.173 420.9 395.943V285.999C420.91 283.769 420.034 281.626 418.466 280.041C416.897 278.456 414.763 277.558 412.533 277.545H430.935C432.038 277.551 433.13 277.775 434.147 278.204C435.164 278.632 436.087 279.257 436.863 280.042C437.638 280.827 438.252 281.757 438.668 282.779C439.084 283.801 439.295 284.896 439.289 285.999V285.999Z" fill="#858585"/>
<path d="M400.83 332.488V357.863C400.84 360.093 399.965 362.236 398.396 363.821C396.828 365.406 394.694 366.304 392.464 366.317H233.563C232.459 366.311 231.367 366.087 230.35 365.659C229.333 365.23 228.41 364.606 227.635 363.82C226.859 363.035 226.245 362.105 225.829 361.083C225.413 360.061 225.202 358.967 225.209 357.863C225.219 360.093 224.343 362.236 222.775 363.821C221.206 365.406 219.072 366.304 216.842 366.317H57.9408C55.7108 366.304 53.5771 365.406 52.0084 363.821C50.4398 362.236 49.5643 360.093 49.5743 357.863V332.488C49.5643 330.257 50.4398 328.115 52.0084 326.529C53.5771 324.944 55.7108 324.046 57.9408 324.033H216.842C219.072 324.046 221.206 324.944 222.775 326.529C224.343 328.115 225.219 330.257 225.209 332.488C225.202 331.384 225.413 330.29 225.829 329.268C226.245 328.245 226.859 327.315 227.635 326.53C228.41 325.745 229.333 325.121 230.35 324.692C231.367 324.264 232.459 324.04 233.563 324.033H392.464C394.694 324.046 396.828 324.944 398.396 326.529C399.965 328.115 400.84 330.257 400.83 332.488V332.488Z" fill="#585858"/>
<path d="M203.458 332.488V357.863C203.465 358.968 203.254 360.063 202.836 361.086C202.419 362.109 201.805 363.04 201.028 363.825C200.251 364.61 199.326 365.234 198.308 365.662C197.289 366.09 196.196 366.313 195.092 366.317H57.9408C55.7108 366.304 53.5771 365.406 52.0084 363.821C50.4398 362.236 49.5643 360.093 49.5743 357.863V332.488C49.5643 330.257 50.4398 328.115 52.0084 326.529C53.5771 324.944 55.7108 324.046 57.9408 324.033H195.092C196.196 324.038 197.289 324.261 198.308 324.689C199.326 325.116 200.251 325.741 201.028 326.526C201.805 327.311 202.419 328.242 202.836 329.265C203.254 330.288 203.465 331.383 203.458 332.488V332.488ZM370.713 324.033H233.563C232.459 324.04 231.367 324.264 230.35 324.692C229.333 325.121 228.41 325.745 227.635 326.53C226.859 327.315 226.245 328.245 225.829 329.268C225.413 330.29 225.202 331.384 225.209 332.488V357.863C225.209 360.083 226.087 362.213 227.652 363.788C229.218 365.363 231.342 366.254 233.563 366.267H370.713C371.818 366.262 372.911 366.04 373.93 365.612C374.948 365.184 375.872 364.56 376.65 363.775C377.427 362.989 378.041 362.059 378.458 361.036C378.875 360.013 379.087 358.918 379.08 357.813V332.488C379.087 331.383 378.875 330.288 378.458 329.265C378.041 328.242 377.427 327.311 376.65 326.526C375.872 325.741 374.948 325.116 373.93 324.689C372.911 324.261 371.818 324.038 370.713 324.033V324.033Z" fill="#6E6E6E"/>
<path d="M77.1257 91.9023C77.123 92.3237 77.1651 92.7442 77.2511 93.1567L84.3508 128.065C84.4321 128.495 84.5582 128.916 84.7271 129.32L60.6561 134.212L53.0547 96.7943L77.1257 91.9023Z" fill="#585858"/>
<path d="M58.6455 165.85L26.1703 172.461C25.1037 172.679 24.0045 172.684 22.9358 172.476C21.867 172.269 20.8497 171.852 19.9421 171.251C19.0344 170.65 18.2543 169.876 17.6463 168.973C17.0383 168.07 16.6145 167.055 16.3989 165.988L0.167621 86.2992C-0.0503406 85.2318 -0.0557898 84.1318 0.151585 83.0623C0.358959 81.9927 0.775091 80.9745 1.37619 80.0659C1.97729 79.1572 2.75158 78.376 3.65479 77.7667C4.558 77.1575 5.57242 76.7322 6.64008 76.5153L39.1153 69.9048C40.1855 69.6816 41.2893 69.6726 42.3631 69.8783C43.4368 70.084 44.4592 70.5003 45.3712 71.1033C46.2831 71.7062 47.0667 72.4838 47.6765 73.3912C48.2863 74.2985 48.7104 75.3177 48.9243 76.3898L65.1054 156.079C65.5422 158.231 65.1074 160.469 63.8963 162.3C62.6852 164.132 60.7968 165.409 58.6455 165.85V165.85Z" fill="#6E6E6E"/>
<path d="M82.4183 85.3002L112.611 79.1664C113.465 78.9909 114.345 78.9863 115.202 79.1527C116.058 79.3191 116.872 79.6533 117.599 80.136C118.325 80.6188 118.949 81.2404 119.434 81.9653C119.919 82.6901 120.256 83.5038 120.425 84.3594L127.537 119.268C127.885 120.993 127.535 122.785 126.564 124.252C125.593 125.719 124.08 126.742 122.357 127.095V127.095L92.1771 133.241C90.4525 133.589 88.6603 133.24 87.1931 132.269C85.726 131.297 84.7036 129.784 84.35 128.061V128.061L77.2503 93.1524C77.0725 92.2974 77.0652 91.4156 77.2289 90.5578C77.3925 89.6999 77.7239 88.8828 78.2041 88.1533C78.6842 87.4238 79.3036 86.7963 80.0268 86.3067C80.7499 85.8171 81.5626 85.475 82.4183 85.3002V85.3002Z" fill="#6E6E6E"/>
<path d="M35.5022 70.6593L10.3148 75.7896L8.43328 66.5701C8.27404 65.7177 8.4555 64.8369 8.93865 64.1168C9.42181 63.3968 10.1681 62.895 11.0172 62.7192L29.6945 58.9562C30.5456 58.7765 31.4332 58.939 32.1655 59.4084C32.8978 59.8778 33.416 60.6165 33.6081 61.4649L35.5022 70.6593Z" fill="#EE8E58"/>
<path d="M53.0547 96.7958L65.686 94.2871L73.2874 131.642L60.6561 134.15L53.0547 96.7958Z" fill="#585858"/>
<path d="M54.9454 67.0558V67.1562C54.9068 67.87 55.1468 68.571 55.6147 69.1115C56.0827 69.652 56.7421 69.9898 57.4541 70.0537L65.921 70.568C66.6328 70.6033 67.3306 70.3618 67.8683 69.8942C68.4061 69.4266 68.7421 68.7691 68.806 68.0593V67.959C68.8446 67.2451 68.6047 66.5441 68.1368 66.0036C67.6688 65.4631 67.0094 65.1254 66.2973 65.0614L57.8304 64.5346C57.1167 64.4995 56.4172 64.7427 55.8791 65.2129C55.341 65.6832 55.0063 66.3438 54.9454 67.0558Z" fill="#E0EBFC"/>
<path d="M50.8661 54.2772V54.1894C50.3895 53.6446 50.1461 52.9342 50.1883 52.2115C50.2305 51.4888 50.5551 50.8117 51.0919 50.326L57.464 44.694C58.0084 44.2303 58.7114 43.996 59.425 44.0405C60.1387 44.085 60.8072 44.4047 61.2898 44.9323C61.5497 45.2 61.7527 45.5176 61.8864 45.8659C62.0201 46.2142 62.0818 46.5861 62.0678 46.9589C62.0537 47.3318 61.9642 47.6979 61.8046 48.0352C61.645 48.3724 61.4187 48.6738 61.1393 48.9212L54.7672 54.5657C54.2109 55.0432 53.4882 55.281 52.7571 55.2269C52.026 55.1728 51.3461 54.8314 50.8661 54.2772Z" fill="#E0EBFC"/>
<path d="M38.7676 48.7702H38.6547C37.9439 48.7033 37.2863 48.3646 36.8189 47.8248C36.3516 47.2851 36.1105 46.5858 36.146 45.8727L36.6603 37.4183C36.7242 36.7086 37.0602 36.0511 37.598 35.5834C38.1357 35.1158 38.8335 34.8744 39.5453 34.9096H39.6582C40.369 34.9766 41.0266 35.3152 41.494 35.855C41.9613 36.3948 42.2023 37.0941 42.1669 37.8072L41.6401 46.2239C41.5854 46.9381 41.2551 47.6031 40.7191 48.0783C40.1831 48.5535 39.4832 48.8016 38.7676 48.7702Z" fill="#E0EBFC"/>
<path d="M312.062 300.622L304.536 277.378C304.308 276.694 304.185 275.98 304.172 275.259L300.974 152.332V164.813C300.969 169.348 300.188 173.849 298.666 178.122L282.811 223.278L287.376 230.064C298.677 246.761 304.715 266.461 304.712 286.623C304.712 291.446 304.233 296.257 303.282 300.985L298.766 323.338H305.891C307.674 323.338 309.384 322.629 310.645 321.369C311.906 320.108 312.614 318.398 312.614 316.615V304.071C312.612 302.899 312.426 301.735 312.062 300.622Z" fill="#E6B8B8"/>
<path d="M327.315 156.415C325.283 140.936 313.291 142.416 311.259 126.95C309.227 111.484 321.219 110.029 319.187 94.5624C317.155 79.0963 305.163 80.5639 303.131 65.0977V55.7402H190.841V65.0977C188.822 80.5889 176.868 79.1088 174.798 94.5624C172.728 110.016 184.745 111.484 182.713 126.95C180.681 142.416 168.702 140.961 166.67 156.415V160.178C166.742 163.705 168.208 167.061 170.746 169.512C173.284 171.963 176.689 173.311 180.217 173.26H311.924C315.932 173.334 319.805 171.814 322.693 169.034C325.582 166.255 327.248 162.442 327.327 158.434V156.502L327.315 156.415Z" fill="#6E6E6E"/>
<path d="M299.091 106.679C303.933 95.9171 275.472 63.8057 268.121 55.7402H261.849L231.243 68.2838L192.91 78.3186C192.91 78.3186 207.498 112.562 205.868 121.769C204.237 130.976 188.984 146.505 200.7 164.932C202.631 168.005 206.57 170.739 211.738 173.185H305.965C315.887 155.21 311.17 146.455 304.711 138.515C296.532 128.455 293.522 119.06 299.091 106.679Z" fill="#585858"/>
<path d="M244.043 318.607H284.182L275.966 378.565L269.694 412.132L270.384 418.717L267.311 436.843C265.139 435.811 262.766 435.276 260.362 435.275H251.13C249.339 435.278 247.563 435.583 245.874 436.178L243.93 418.692L245.36 411.429L243.992 378.252V318.607H244.043Z" fill="#F9CFCF"/>
<path d="M238.331 439.176L238.82 438.21L244.076 418.68L246.007 436.241L247.475 443.403H266.077L267.444 436.78L270.505 418.643L273.917 438.16L274.318 439.126C274.811 440.254 275.067 441.47 275.071 442.701C275.169 444.961 274.368 447.168 272.842 448.837C271.316 450.507 269.189 451.503 266.93 451.607H245.857C244.387 451.6 242.943 451.214 241.665 450.486C240.388 449.759 239.319 448.714 238.563 447.454C237.806 446.193 237.388 444.759 237.347 443.289C237.306 441.819 237.645 440.364 238.331 439.063V439.176Z" fill="#F9A7A7"/>
<path d="M237.34 442.991C237.955 439.767 243.349 422.357 244.039 418.682L245.983 436.243C252.255 434.813 261.374 434.449 267.42 436.907L270.493 418.769L273.892 438.3C274.831 440.096 275.211 442.131 274.983 444.145C274.724 446.199 273.733 448.091 272.192 449.473C270.65 450.856 268.662 451.636 266.592 451.671C259.191 450.479 236.738 456.287 237.328 442.991H237.34Z" fill="#6E6E6E"/>
<path d="M254.325 341.775H214.098L222.364 401.796L228.573 435.363L227.883 441.948L230.956 460.073C233.128 459.042 235.501 458.507 237.905 458.505H247.112C248.902 458.515 250.678 458.82 252.368 459.409L254.312 441.923L252.957 434.635L254.312 401.457V341.775H254.325Z" fill="#F9CFCF"/>
<path d="M283.715 137.702H267.258V125.66C261.419 128.144 255.139 129.424 248.793 129.424C242.448 129.424 236.168 128.144 230.329 125.66V137.702H213.872C204.339 137.702 196.625 144.262 196.625 152.365V164.846C196.633 169.367 197.405 173.854 198.908 178.117L214.775 223.274H282.749L298.679 178.117C300.182 173.858 300.95 169.375 300.949 164.859V152.315C300.949 144.25 293.235 137.702 283.715 137.702Z" fill="#F9CFCF"/>
<path d="M296.132 65.0983H295.83V60.7081C295.83 48.2328 290.875 36.2685 282.053 27.4471C273.232 18.6257 261.268 13.6699 248.792 13.6699C236.317 13.6699 224.353 18.6257 215.531 27.4471C206.71 36.2685 201.754 48.2328 201.754 60.7081V65.1109H201.466C197.727 65.0624 194.119 66.4881 191.423 69.0795C188.727 71.671 187.161 75.2197 187.062 78.9577C186.963 82.6957 188.34 86.3223 190.895 89.0527C193.449 91.7831 196.977 93.3977 200.713 93.547C200.964 93.547 201.215 93.547 201.466 93.547C201.977 93.5598 202.488 93.5347 202.996 93.4718C205.487 103.736 211.356 112.865 219.659 119.394C227.962 125.922 238.218 129.471 248.78 129.471C259.342 129.471 269.598 125.922 277.901 119.394C286.204 112.865 292.072 103.736 294.564 93.4718C295.065 93.4718 295.542 93.547 296.106 93.547C297.99 93.6231 299.87 93.3239 301.637 92.667C303.404 92.0101 305.023 91.0085 306.399 89.7205C307.775 88.4325 308.882 86.8837 309.655 85.1642C310.427 83.4447 310.851 81.5888 310.9 79.7043C310.949 77.8199 310.623 75.9444 309.94 74.1871C309.258 72.4297 308.234 70.8255 306.926 69.4676C305.618 68.1098 304.054 67.0253 302.324 66.2774C300.593 65.5295 298.731 65.133 296.846 65.1109H296.106L296.132 65.0983Z" fill="#F9CFCF"/>
<path d="M248.817 129.429C259.382 129.459 269.648 125.923 277.954 119.395C286.26 112.866 292.121 103.727 294.589 93.4541C295.09 93.4541 295.567 93.5419 296.131 93.5419C298.015 93.6179 299.895 93.3188 301.662 92.6619C303.429 92.005 305.048 91.0034 306.424 89.7153C307.8 88.4273 308.907 86.8786 309.68 85.1591C310.452 83.4396 310.875 81.5836 310.925 79.6992C310.974 77.8147 310.648 75.9393 309.965 74.1819C309.283 72.4246 308.259 70.8203 306.951 69.4625C305.643 68.1046 304.079 67.0202 302.349 66.2723C300.618 65.5243 298.756 65.1278 296.871 65.1057H295.83V60.7155C295.741 52.8765 293.696 45.1839 289.882 38.335C286.067 31.4861 280.603 25.6977 273.986 21.4945C267.369 17.2913 259.807 14.8063 251.986 14.2648C244.165 13.7234 236.333 15.1425 229.199 18.3937L233.778 62.5469C258.501 63.6381 264.283 53.4277 264.283 53.4277C264.283 53.4277 287.364 57.5545 288.242 75.6925C289.12 93.8304 277.279 129.429 248.817 129.429Z" fill="#E6B8B8"/>
<g opacity="0.6">
<path opacity="0.6" d="M245.933 436.194C247.623 435.605 249.399 435.3 251.188 435.291H245.857L245.933 436.194Z" fill="#E6B8B8"/>
<path opacity="0.6" d="M284.242 318.602H278.108L269.842 378.622L263.57 412.189L264.247 418.774L261.438 435.407C263.471 435.544 265.462 436.059 267.308 436.925L270.381 418.787L269.691 412.201L275.963 378.635L284.242 318.602Z" fill="#E6B8B8"/>
</g>
<path d="M198.785 144.648L161.556 187.848C159.315 190.318 158.074 193.533 158.074 196.867C158.074 200.201 159.315 203.416 161.556 205.886L191.134 238.248C191.565 238.717 191.853 239.298 191.964 239.925C192.075 240.552 192.005 241.197 191.761 241.785L187.245 252.736C185.586 256.784 185.404 261.286 186.731 265.455L192.551 283.706H192.89C193.443 264.545 199.438 245.937 210.175 230.057L210.275 229.907L191.936 203.277C191.469 202.602 191.267 201.778 191.369 200.964C191.471 200.149 191.869 199.401 192.488 198.862L202.937 189.73L198.961 178.115C197.453 173.856 196.681 169.373 196.678 164.856V152.313C196.686 151.375 196.795 150.442 197.004 149.528" fill="#F9CFCF"/>
<path d="M288.843 138.354C287.177 137.917 285.461 137.698 283.738 137.702H267.281V125.66C261.985 127.928 256.317 129.203 250.561 129.423C250.561 142.381 264.271 144.751 268.962 144.814C286.786 145.065 286.523 151.086 286.523 151.086C288.115 147.033 288.904 142.708 288.843 138.354Z" fill="#E6B8B8"/>
<g opacity="0.6">
<path opacity="0.6" d="M254.327 341.777H246.939V401.497L245.546 434.65L246.914 441.937L245.107 458.52H247.114C248.905 458.523 250.682 458.828 252.37 459.423L254.314 441.937L252.96 434.65L254.314 401.472L254.327 341.777Z" fill="#E6B8B8"/>
<path opacity="0.6" d="M230.959 460.086C233.13 459.054 235.504 458.519 237.908 458.518H230.695L230.959 460.086Z" fill="#E6B8B8"/>
</g>
<path d="M287.376 230.065L282.81 223.291L298.665 178.135C300.166 173.875 300.938 169.393 300.948 164.876V152.333C300.936 151.395 300.822 150.461 300.609 149.548C300.194 146.621 298.809 143.918 296.676 141.871C294.543 139.824 291.785 138.552 288.843 138.259C288.968 146.417 286.103 154.339 280.788 160.53C275.473 166.72 268.076 170.752 259.993 171.863C256.877 172.254 253.739 172.447 250.598 172.44C243.101 172.593 235.639 171.369 228.584 168.827C222.507 166.446 217.344 162.194 213.842 156.685C210.34 151.177 208.681 144.697 209.104 138.184C196.949 139.614 196.749 151.329 196.749 152.27V164.751C196.722 169.303 197.477 173.826 198.982 178.122L214.837 223.279L210.283 230.052C198.98 246.753 192.938 266.457 192.936 286.624C192.951 291.47 193.451 296.302 194.428 301.049L197.526 316.427C199.59 326.617 202.19 336.691 205.316 346.607C237.766 340.335 256.995 367.63 285.682 360.254L295.805 357.645L303.331 301.049C304.283 296.32 304.762 291.509 304.761 286.686C304.755 266.499 298.699 246.777 287.376 230.065Z" fill="#89C3E8"/>
<path d="M227.646 63.0814H192.8C192.291 63.083 191.788 62.9843 191.317 62.7909C190.847 62.5975 190.42 62.3132 190.06 61.9542C189.7 61.5953 189.414 61.1689 189.219 60.6993C189.024 60.2298 188.924 59.7264 188.924 59.2179V37.2542C188.924 27.3738 192.849 17.898 199.835 10.9115C206.822 3.92499 216.298 0 226.178 0L244.605 0C249.072 0.00664258 253.355 1.78533 256.513 4.94583C259.672 8.10633 261.447 12.3905 261.45 16.8585V29.2389C261.45 38.2212 257.882 46.8355 251.531 53.1869C245.18 59.5383 236.565 63.1064 227.583 63.1064L227.646 63.0814Z" fill="#6E6E6E"/>
<path d="M301.05 58.0754H294.189C289.888 58.0771 285.63 57.2315 281.656 55.587C277.683 53.9424 274.072 51.5312 271.031 48.491C267.989 45.4507 265.577 41.8411 263.931 37.8683C262.285 33.8954 261.437 29.6372 261.438 25.3369V14.5244C261.437 11.8285 262.508 9.24294 264.413 7.33554C266.318 5.42813 268.902 4.35489 271.598 4.35156H273.63C281.947 4.35156 289.923 7.65543 295.804 13.5363C301.685 19.4173 304.989 27.3935 304.989 35.7104V54.212C304.989 54.7204 304.888 55.2239 304.693 55.6934C304.498 56.1629 304.213 56.5894 303.853 56.9483C303.493 57.3072 303.065 57.5915 302.595 57.785C302.125 57.9784 301.621 58.0771 301.113 58.0754H301.05Z" fill="#6E6E6E"/>
<path d="M260.031 462.41L259.542 461.444L254.324 441.951L252.392 459.512L250.875 466.725H232.31L230.955 460.089L227.882 441.964L224.533 461.469L224.119 462.447C223.631 463.572 223.375 464.784 223.367 466.01C223.314 467.13 223.484 468.25 223.866 469.305C224.248 470.36 224.835 471.329 225.592 472.157C226.35 472.985 227.264 473.654 228.281 474.128C229.298 474.601 230.399 474.869 231.52 474.916H252.48C253.952 474.912 255.397 474.528 256.677 473.802C257.957 473.075 259.027 472.03 259.784 470.768C260.541 469.506 260.96 468.07 260.998 466.599C261.037 465.128 260.696 463.672 260.006 462.372L260.031 462.41Z" fill="#F9A7A7"/>
<path d="M261 466.223C260.965 464.911 260.63 463.624 260.021 462.46L259.532 461.495L254.326 442.002L252.395 459.488C250.704 458.9 248.929 458.595 247.139 458.584H237.869C235.464 458.584 233.089 459.124 230.92 460.165L227.86 442.015L224.448 461.545L224.034 462.511C223.547 463.64 223.291 464.856 223.281 466.086C223.281 466.505 223.311 466.924 223.369 467.34V467.49C223.412 467.803 223.475 468.113 223.557 468.419C223.62 468.644 223.67 468.87 223.745 469.096C223.821 469.322 223.959 469.66 224.084 469.936C224.209 470.212 224.285 470.363 224.41 470.576C224.536 470.789 224.711 471.065 224.874 471.304L225.338 471.906C225.501 472.094 225.702 472.307 225.89 472.495L226.517 473.035C226.709 473.197 226.91 473.348 227.12 473.486C227.378 473.652 227.646 473.803 227.922 473.938C228.198 474.063 228.324 474.151 228.537 474.239C228.873 474.37 229.217 474.484 229.566 474.577C229.741 474.577 229.917 474.69 230.117 474.728C230.67 474.847 231.233 474.91 231.798 474.916H252.395C254.098 474.914 255.762 474.403 257.174 473.449C258.083 472.837 258.862 472.053 259.469 471.141C260.425 469.735 260.937 468.074 260.937 466.374V466.223H261Z" fill="#6E6E6E"/>
<path d="M295.755 357.619C298.665 335.756 303.281 300.998 303.281 300.998C304.227 296.265 304.706 291.45 304.711 286.623C304.707 266.462 298.669 246.764 287.376 230.064L282.81 223.291L298.665 178.134C300.166 173.874 300.938 169.392 300.948 164.876V159.494C300.948 159.494 304.711 140.478 288.843 138.371C287.714 149.234 286.535 151.028 286.535 151.028C276.714 199.872 265.926 224.533 265.926 224.533C265.926 224.533 285.657 277.341 284.24 297.285C280.64 347.635 267.933 349.629 230.215 347.747C255.992 354.245 265.562 368.106 295.755 357.619Z" fill="#6DB8E8"/>
<path d="M210.362 229.906L192.024 203.276C191.556 202.602 191.354 201.778 191.456 200.963C191.558 200.149 191.956 199.4 192.576 198.861L203.024 189.729L199.976 181.012C193.052 184.888 180.509 192.364 180.898 197.431C181.437 204.292 203.325 230.534 201.494 237.859C199.663 245.184 189.465 254.818 193.617 274.913C195.476 258.822 201.181 243.415 210.249 229.994L210.362 229.906Z" fill="#E6B8B8"/>
<path d="M247.727 474.916H252.468C254.168 474.914 255.828 474.402 257.235 473.449C258.393 472.668 259.342 471.614 259.999 470.381C260.655 469.147 260.998 467.771 260.998 466.374V466.223C260.973 464.911 260.642 463.622 260.032 462.46L259.543 461.495L254.324 442.002L252.393 459.488C250.702 458.9 248.927 458.595 247.137 458.584H246.924C248.642 462.486 251.339 470.463 247.727 474.916Z" fill="#585858"/>
<path d="M268.146 451.493C268.336 451.462 268.521 451.407 268.698 451.33C269.026 451.24 269.348 451.131 269.664 451.004C269.877 450.916 270.078 450.803 270.278 450.703C270.479 450.602 270.83 450.414 271.094 450.251L271.683 449.799L272.323 449.26C272.511 449.072 272.687 448.871 272.862 448.658C273.038 448.445 273.188 448.269 273.339 448.068C273.489 447.868 273.652 447.592 273.803 447.341C273.953 447.09 274.016 446.914 274.129 446.701C274.242 446.488 274.367 446.137 274.468 445.861C274.568 445.585 274.593 445.409 274.656 445.183C274.719 444.958 274.794 444.569 274.844 444.255V444.105C274.904 443.689 274.929 443.27 274.919 442.85C274.915 441.62 274.659 440.403 274.167 439.275L273.765 438.31L270.353 418.779L267.28 436.917C265.854 436.246 264.337 435.79 262.777 435.563C262.796 435.62 262.829 435.672 262.872 435.713C262.916 435.755 262.97 435.785 263.028 435.801C265.725 436.252 265.16 450.853 260.908 451.719H266.365C266.965 451.713 267.563 451.637 268.146 451.493Z" fill="#585858"/>
<path d="M257.576 226.384C258.692 231.101 260.084 240.182 261.452 251.961C261.526 252.648 261.851 253.284 262.364 253.747C262.878 254.21 263.545 254.467 264.236 254.469H264.562C264.932 254.432 265.291 254.321 265.618 254.144C265.944 253.967 266.233 253.727 266.466 253.438C266.7 253.148 266.873 252.816 266.977 252.459C267.081 252.102 267.113 251.728 267.071 251.359C265.716 239.881 264.362 230.85 263.22 225.795H257.551C257.538 225.992 257.546 226.189 257.576 226.384Z" fill="#6DB8E8"/>
<path d="M233.104 254.417H233.443C234.133 254.414 234.798 254.157 235.31 253.693C235.821 253.23 236.144 252.594 236.215 251.908C237.557 240.619 238.887 231.675 239.978 226.821C240.036 226.545 240.057 226.262 240.041 225.98V225.654H234.434V226.006C233.317 231.086 231.925 240.004 230.671 251.218C230.616 251.588 230.636 251.966 230.729 252.329C230.823 252.691 230.987 253.031 231.214 253.329C231.441 253.627 231.725 253.877 232.049 254.064C232.374 254.251 232.733 254.37 233.104 254.417Z" fill="#6DB8E8"/>
<path d="M282.146 221.004H215.452C214.212 221.004 213.207 222.009 213.207 223.249V225.683C213.207 226.923 214.212 227.928 215.452 227.928H282.146C283.386 227.928 284.392 226.923 284.392 225.683V223.249C284.392 222.009 283.386 221.004 282.146 221.004Z" fill="#E0EBFC"/>
<path d="M248.794 232.154C255.216 232.154 260.422 228.711 260.422 224.465C260.422 220.218 255.216 216.775 248.794 216.775C242.372 216.775 237.166 220.218 237.166 224.465C237.166 228.711 242.372 232.154 248.794 232.154Z" fill="#FFF9EB"/>
<g opacity="0.7">
<path opacity="0.7" d="M237.541 226.524C238.896 229.76 243.311 232.131 248.742 232.131C255.152 232.131 260.358 228.694 260.358 224.467C260.276 223.251 259.872 222.078 259.186 221.07C258.5 220.063 257.558 219.256 256.457 218.734C256.734 219.39 256.883 220.092 256.896 220.804C256.896 225.031 251.678 228.468 245.268 228.468C242.567 228.501 239.905 227.831 237.541 226.524Z" fill="#D3CDBF"/>
</g>
<path d="M248.628 32.6126C272.046 32.6126 291.489 43.1366 295.829 65.0752C296.13 65.0752 296.519 65.0752 296.87 65.0752C297.296 62.1651 296.795 56.6962 296.795 54.0871C296.591 41.4487 291.427 29.3969 282.417 20.5314C273.408 11.6659 261.274 6.69727 248.634 6.69727C235.994 6.69727 223.86 11.6659 214.851 20.5314C205.841 29.3969 200.677 41.4487 200.473 54.0871C200.473 56.6962 199.796 62.1777 200.31 65.1003C200.799 65.1003 201.188 65.1003 201.79 65.1003C206.13 43.1868 225.221 32.6126 248.628 32.6126Z" fill="#EE8E58"/>
<path d="M281.945 19.6953C284.454 22.5803 287.653 39.7649 283.2 43.528C289.787 49.0376 294.227 56.6879 295.743 65.1405C296.044 65.1405 296.433 65.1405 296.784 65.1405C297.211 62.2304 296.709 56.7614 296.709 54.1523C296.724 47.7062 295.423 41.3249 292.884 35.3998C290.345 29.4746 286.623 24.1305 281.945 19.6953Z" fill="#EC7425"/>
<path d="M194.793 85.4043C194.472 85.4204 194.168 85.5596 193.947 85.7932C193.725 86.0267 193.601 86.3366 193.602 86.6586V95.0377C193.681 95.2934 193.84 95.5169 194.056 95.6756C194.271 95.8344 194.532 95.92 194.799 95.92C195.067 95.92 195.328 95.8344 195.543 95.6756C195.759 95.5169 195.918 95.2934 195.997 95.0377V86.6085C195.985 86.2931 195.854 85.9939 195.631 85.7707C195.408 85.5475 195.109 85.4167 194.793 85.4043Z" fill="#D8E2F2"/>
<path d="M299.092 85.4043C298.77 85.4204 298.467 85.5596 298.245 85.7932C298.023 86.0267 297.9 86.3366 297.9 86.6586V95.0377C297.98 95.2934 298.139 95.5169 298.354 95.6756C298.57 95.8344 298.831 95.92 299.098 95.92C299.366 95.92 299.627 95.8344 299.842 95.6756C300.058 95.5169 300.217 95.2934 300.296 95.0377V86.6085C300.284 86.2931 300.153 85.9939 299.93 85.7707C299.707 85.5475 299.407 85.4167 299.092 85.4043Z" fill="#D8E2F2"/>
<path d="M200.776 101.994C200.843 102.806 200.737 103.623 200.464 104.391C200.192 105.158 199.759 105.859 199.195 106.447C198.354 107.356 197.253 107.983 196.041 108.241C194.83 108.499 193.568 108.375 192.43 107.887C191.292 107.399 190.332 106.571 189.684 105.516C189.036 104.46 188.73 103.23 188.809 101.994C188.809 98.921 192.221 95.5844 193.827 94.1294C194.073 93.8888 194.401 93.75 194.745 93.7407C195.089 93.7314 195.424 93.8523 195.683 94.0792C197.376 95.5844 200.776 98.921 200.776 101.994Z" fill="#E0EBFC"/>
<path d="M305.076 101.993C305.152 102.8 305.056 103.614 304.794 104.382C304.532 105.149 304.111 105.853 303.558 106.446C302.718 107.355 301.616 107.982 300.404 108.24C299.193 108.497 297.932 108.374 296.793 107.886C295.655 107.398 294.696 106.569 294.047 105.514C293.399 104.459 293.093 103.229 293.172 101.993C293.172 98.9195 296.584 95.5829 298.253 94.1279C298.502 93.9083 298.823 93.7871 299.156 93.7871C299.488 93.7871 299.809 93.9083 300.059 94.1279C301.664 95.5829 305.076 98.9195 305.076 101.993Z" fill="#E0EBFC"/>
<path d="M193.852 99.2812L193.714 99.4568C193.282 99.8853 192.946 100.401 192.73 100.97C192.513 101.539 192.421 102.148 192.46 102.756C192.518 103.029 192.666 103.274 192.879 103.454C193.093 103.633 193.36 103.736 193.639 103.747H193.839C194.143 103.678 194.41 103.498 194.588 103.243C194.767 102.988 194.844 102.676 194.805 102.367C194.805 102.028 195.282 101.363 195.596 100.962L195.746 100.774C195.91 100.663 196.045 100.515 196.141 100.342C196.237 100.169 196.29 99.9752 196.297 99.7774C196.304 99.5796 196.264 99.383 196.18 99.2037C196.096 99.0244 195.971 98.8675 195.815 98.7458C195.659 98.624 195.476 98.541 195.282 98.5033C195.088 98.4657 194.887 98.4746 194.697 98.5293C194.507 98.5839 194.332 98.6828 194.188 98.8179C194.043 98.9529 193.932 99.1203 193.865 99.3063L193.852 99.2812Z" fill="#E0EBFC"/>
<path d="M299.795 99.0972C299.538 98.9162 299.224 98.8377 298.913 98.8772C298.602 98.9166 298.317 99.0712 298.114 99.3105L297.976 99.4861C297.543 99.9146 297.208 100.431 296.991 101C296.775 101.569 296.683 102.177 296.721 102.785C296.78 103.058 296.927 103.303 297.141 103.483C297.355 103.662 297.622 103.765 297.901 103.776H298.101C298.405 103.707 298.672 103.527 298.85 103.272C299.029 103.017 299.106 102.705 299.067 102.396C299.004 102.057 299.544 101.393 299.857 100.991L300.008 100.803C300.196 100.545 300.279 100.225 300.239 99.9079C300.2 99.5909 300.041 99.3009 299.795 99.0972Z" fill="#E0EBFC"/>
<path d="M448.489 60.5435C445.115 69.625 434.691 93.0939 415.989 99.0772C415.705 99.1654 415.457 99.342 415.281 99.5812C415.105 99.8204 415.01 100.11 415.01 100.407C415.01 100.704 415.105 100.993 415.281 101.232C415.457 101.472 415.705 101.648 415.989 101.736C434.93 107.168 445.153 128.58 448.477 136.858C448.585 137.111 448.765 137.327 448.995 137.479C449.224 137.631 449.493 137.711 449.769 137.711C450.044 137.711 450.313 137.631 450.543 137.479C450.772 137.327 450.952 137.111 451.061 136.858C454.824 128.442 466.439 106.403 486.471 101.899C486.766 101.824 487.028 101.655 487.219 101.418C487.409 101.181 487.517 100.888 487.527 100.584C487.537 100.28 487.448 99.9809 487.274 99.7317C487.099 99.4826 486.848 99.2969 486.559 99.2026C465.95 92.1657 454.736 69.2989 451.061 60.4055C450.938 60.1612 450.747 59.958 450.51 59.8208C450.274 59.6835 450.003 59.6182 449.73 59.6329C449.457 59.6475 449.194 59.7415 448.974 59.9032C448.753 60.065 448.585 60.2875 448.489 60.5435Z" fill="#EE8E58"/>
<path d="M412.056 50.2898C405.785 46.3888 393.066 36.5923 388.876 19.8341C388.399 17.9401 386.693 17.9902 386.267 19.9094C382.504 36.8055 370.813 46.4766 365.131 50.3149C364.594 50.8574 364.293 51.5899 364.293 52.3532C364.293 53.1165 364.594 53.849 365.131 54.3915C370.876 58.7065 382.843 69.6068 386.217 87.519C386.593 89.5008 388.349 89.6764 388.838 87.7447C392.411 74.2208 400.676 62.4079 412.157 54.4166C412.425 54.1413 412.636 53.815 412.777 53.457C412.917 53.0991 412.985 52.7166 412.976 52.3321C412.966 51.9476 412.88 51.5688 412.722 51.2181C412.564 50.8674 412.338 50.5517 412.056 50.2898Z" fill="#EE7228"/>
<path d="M401.876 140.587C398.351 138.316 391.139 132.621 388.755 122.875C388.492 121.771 387.501 121.796 387.288 122.875C385.655 130.061 381.385 136.373 375.321 140.561C375.019 140.882 374.852 141.306 374.852 141.747C374.852 142.187 375.019 142.611 375.321 142.932C381.508 147.69 385.749 154.54 387.25 162.199C387.463 163.353 388.504 163.453 388.73 162.337C390.719 154.546 395.38 147.7 401.901 142.995C402.058 142.836 402.183 142.647 402.267 142.439C402.351 142.232 402.393 142.01 402.391 141.786C402.389 141.562 402.342 141.34 402.254 141.134C402.165 140.929 402.037 140.742 401.876 140.587Z" fill="#EE7228"/>
</svg>
