<svg width="362" height="303" viewBox="0 0 362 303" fill="none" xmlns="http://www.w3.org/2000/svg">
<path d="M237.96 0H73.6687C71.2348 0 69.2617 1.97306 69.2617 4.40695V81.097C69.2617 83.5309 71.2348 85.504 73.6687 85.504H237.96C240.394 85.504 242.367 83.5309 242.367 81.097V4.40695C242.367 1.97306 240.394 0 237.96 0Z" fill="#C3D3ED"/>
<path d="M229.647 10.9648H81.9757C81.0097 10.9648 80.2266 11.748 80.2266 12.714V72.7834C80.2266 73.7494 81.0097 74.5325 81.9757 74.5325H229.647C230.613 74.5325 231.396 73.7494 231.396 72.7834V12.714C231.396 11.748 230.613 10.9648 229.647 10.9648Z" fill="#E0EBFC"/>
<path d="M324.639 293.425C322.755 293.2 321.038 292.235 319.866 290.744C318.693 289.254 318.16 287.358 318.384 285.474L323.844 239.088L325.017 228.752L326.994 212.018H353.11L355.132 228.759L356.313 239.103L361.75 285.467C361.862 286.467 361.763 287.48 361.459 288.44C361.155 289.4 360.652 290.285 359.984 291.039C359.316 291.792 358.497 292.396 357.58 292.813C356.663 293.229 355.669 293.448 354.662 293.455H325.449C325.178 293.464 324.908 293.454 324.639 293.425V293.425Z" fill="#E0EBFC"/>
<g opacity="0.5">
<path opacity="0.5" d="M354.124 286.3C354.124 288.202 353.368 290.025 352.023 291.37C350.679 292.715 348.855 293.471 346.953 293.471H354.654C354.926 293.471 355.199 293.471 355.472 293.418C356.405 293.307 357.307 293.013 358.127 292.554C358.947 292.094 359.668 291.478 360.249 290.739C360.831 290.001 361.261 289.155 361.516 288.251C361.771 287.346 361.845 286.4 361.734 285.467L356.267 239.08L355.085 228.744L353.109 212.018H345.408L347.43 228.79L348.611 239.133L354.071 285.467C354.105 285.743 354.122 286.021 354.124 286.3V286.3Z" fill="#D1DBEB"/>
</g>
<path d="M341.994 202.342C341.085 198.799 341.237 191.219 348.476 188.175C351.678 186.82 354.003 183.829 353.829 181.58C353.655 179.331 351.05 177.506 346.567 176.453C339.639 174.833 335.648 171.002 335.868 166.186C336.118 160.976 341.964 154.911 354.367 153.2C354.651 153.157 354.941 153.171 355.22 153.241C355.499 153.311 355.761 153.435 355.992 153.606C356.223 153.778 356.418 153.993 356.566 154.239C356.714 154.486 356.812 154.759 356.854 155.043C356.896 155.328 356.882 155.618 356.812 155.897C356.743 156.176 356.619 156.438 356.447 156.669C356.276 156.9 356.061 157.095 355.814 157.243C355.568 157.391 355.295 157.489 355.01 157.531C345.515 158.818 340.381 162.998 340.214 166.443C340.086 168.98 342.827 171.161 347.544 172.259C356.29 174.318 357.956 178.763 358.145 181.247C358.562 186.062 354.442 190.416 350.157 192.234C344.705 194.505 346.022 200.616 346.204 201.32C346.342 201.878 346.254 202.468 345.959 202.962C345.664 203.455 345.186 203.812 344.629 203.955C344.453 204.001 344.273 204.024 344.091 204.023C343.604 204.016 343.134 203.847 342.754 203.543C342.374 203.238 342.107 202.816 341.994 202.342V202.342Z" fill="#585858"/>
<path d="M334.179 202.425L327.751 179.164C327.674 178.889 327.651 178.601 327.685 178.318C327.719 178.034 327.809 177.76 327.949 177.511C328.231 177.009 328.702 176.639 329.257 176.483C329.813 176.327 330.407 176.399 330.91 176.681C331.412 176.964 331.782 177.435 331.938 177.99L338.382 201.259C338.535 201.814 338.462 202.408 338.178 202.909C337.894 203.41 337.423 203.778 336.867 203.932C336.676 203.989 336.477 204.017 336.277 204.015C335.802 204.013 335.341 203.858 334.962 203.571C334.584 203.284 334.309 202.882 334.179 202.425V202.425Z" fill="#585858"/>
<path d="M357.084 206.923C357.084 208.268 356.55 209.559 355.598 210.51C354.647 211.462 353.357 211.996 352.011 211.996H327.78C326.435 211.996 325.144 211.462 324.193 210.51C323.242 209.559 322.707 208.268 322.707 206.923V206.923C322.707 205.577 323.242 204.287 324.193 203.336C325.144 202.384 326.435 201.85 327.78 201.85H352.011C353.357 201.85 354.647 202.384 355.598 203.336C356.55 204.287 357.084 205.577 357.084 206.923V206.923Z" fill="#E0EBFC"/>
<path d="M325.023 228.76H355.085L356.304 239.103H323.789L325.023 228.76Z" fill="#EE8E58"/>
<path d="M348.604 239.103H356.305L355.086 228.76H347.393L348.604 239.103Z" fill="#EE7E3B"/>
<g opacity="0.5">
<path opacity="0.5" d="M322.691 207.262C322.78 208.544 323.351 209.744 324.29 210.621C325.228 211.498 326.465 211.986 327.75 211.987H352.033C352.698 211.985 353.357 211.852 353.971 211.596C354.584 211.339 355.142 210.964 355.611 210.493C356.08 210.021 356.451 209.461 356.704 208.846C356.957 208.23 357.086 207.571 357.084 206.906V206.906C357.083 206.241 356.951 205.583 356.695 204.969C356.44 204.355 356.066 203.798 355.594 203.329C355.123 202.86 354.564 202.488 353.949 202.235C353.334 201.983 352.675 201.854 352.011 201.855H351.609V207.224L322.691 207.262Z" fill="#D1DBEB"/>
</g>
<path d="M76.1523 278.773V299.309C76.1564 300.155 75.8246 300.968 75.2298 301.57C74.635 302.172 73.8258 302.513 72.9796 302.519H41.245C40.3988 302.513 39.5896 302.172 38.9948 301.57C38.4 300.968 38.0683 300.155 38.0723 299.309V278.773C38.0703 278.355 38.1508 277.94 38.3092 277.552C38.4675 277.165 38.7007 276.812 38.9953 276.515C39.2899 276.217 39.6402 275.981 40.0262 275.819C40.4122 275.657 40.8264 275.572 41.245 275.57H72.9796C73.3983 275.572 73.8124 275.657 74.1984 275.819C74.5844 275.981 74.9347 276.217 75.2293 276.515C75.524 276.812 75.7571 277.165 75.9155 277.552C76.0738 277.94 76.1543 278.355 76.1523 278.773V278.773ZM282.393 275.57H250.636C250.217 275.571 249.802 275.655 249.416 275.817C249.029 275.978 248.679 276.215 248.384 276.513C248.089 276.81 247.856 277.163 247.698 277.551C247.54 277.939 247.46 278.354 247.463 278.773V299.309C247.46 299.728 247.54 300.144 247.698 300.532C247.856 300.921 248.089 301.274 248.384 301.572C248.678 301.871 249.029 302.108 249.415 302.27C249.802 302.433 250.217 302.517 250.636 302.519H282.363C283.209 302.513 284.018 302.172 284.613 301.57C285.208 300.968 285.54 300.155 285.536 299.309V278.773C285.54 277.933 285.212 277.125 284.623 276.525C284.035 275.925 283.233 275.582 282.393 275.57V275.57Z" fill="#6DB8E8"/>
<path d="M295.722 144.012V214.607C295.726 215.445 295.566 216.276 295.25 217.051C294.934 217.827 294.468 218.533 293.878 219.129C293.289 219.725 292.588 220.198 291.815 220.523C291.043 220.847 290.214 221.017 289.376 221.021H168.806C167.967 221.017 167.138 220.848 166.365 220.523C165.592 220.199 164.891 219.725 164.301 219.13C163.711 218.534 163.244 217.828 162.927 217.052C162.61 216.276 162.449 215.445 162.453 214.607C162.458 215.445 162.298 216.276 161.981 217.051C161.665 217.827 161.199 218.533 160.61 219.129C160.02 219.725 159.319 220.198 158.547 220.523C157.774 220.847 156.945 221.017 156.107 221.021H35.537C34.6991 221.017 33.8702 220.847 33.0977 220.523C32.3252 220.198 31.6242 219.725 31.0349 219.129C30.4456 218.533 29.9794 217.827 29.6632 217.051C29.3469 216.276 29.1866 215.445 29.1916 214.607V144.012C29.1817 142.336 29.5021 140.675 30.1345 139.122C30.767 137.57 31.6992 136.157 32.8777 134.966C34.0563 133.774 35.4581 132.826 37.0032 132.176C38.5483 131.526 40.2063 131.187 41.8825 131.178H149.762C151.438 131.187 153.096 131.526 154.641 132.176C156.186 132.826 157.588 133.774 158.767 134.966C159.945 136.157 160.877 137.57 161.51 139.122C162.142 140.675 162.463 142.336 162.453 144.012C162.444 142.336 162.765 140.674 163.398 139.122C164.032 137.569 164.965 136.157 166.144 134.965C167.323 133.773 168.725 132.825 170.271 132.176C171.816 131.526 173.475 131.187 175.151 131.178H283.031C286.415 131.198 289.653 132.561 292.033 134.968C294.413 137.375 295.74 140.628 295.722 144.012Z" fill="#6E6E6E"/>
<path d="M295.721 144.012V214.607C295.725 215.847 295.37 217.063 294.698 218.105C294.026 219.148 293.066 219.974 291.935 220.483V232.083H171.978V232.25H152.957V232.083H31.7281V219.733C30.9387 219.132 30.2991 218.357 29.859 217.467C29.419 216.578 29.1905 215.599 29.1914 214.607V205.46H96.3028C124.32 205.46 147.036 182.479 147.036 154.121V131.178H149.731C151.408 131.187 153.066 131.526 154.611 132.176C156.156 132.826 157.558 133.774 158.736 134.966C159.915 136.157 160.847 137.57 161.479 139.122C162.112 140.675 162.432 142.336 162.422 144.012V192.625C162.413 194.302 162.735 195.964 163.368 197.516C164.001 199.068 164.934 200.481 166.113 201.673C167.292 202.864 168.695 203.812 170.24 204.462C171.786 205.112 173.444 205.451 175.121 205.46H229.534C257.55 205.46 280.267 182.479 280.267 154.121V131.178H282.97C284.651 131.18 286.315 131.514 287.867 132.16C289.418 132.807 290.827 133.754 292.012 134.946C293.196 136.139 294.134 137.554 294.771 139.109C295.407 140.665 295.73 142.331 295.721 144.012Z" fill="#585858"/>
<path d="M324.911 192.142V275.571C324.916 276.409 324.756 277.24 324.439 278.016C324.123 278.792 323.657 279.498 323.068 280.093C322.478 280.689 321.777 281.163 321.005 281.487C320.232 281.812 319.403 281.981 318.565 281.985H6.34552C5.50761 281.981 4.6787 281.812 3.90618 281.487C3.13367 281.163 2.43271 280.689 1.84338 280.093C1.25406 279.498 0.787924 278.792 0.471641 278.016C0.155358 277.24 -0.00487232 276.409 0.000112847 275.571V192.142C-0.00487232 191.304 0.155358 190.473 0.471641 189.698C0.787924 188.922 1.25406 188.216 1.84338 187.62C2.43271 187.024 3.13367 186.551 3.90618 186.226C4.6787 185.902 5.50761 185.732 6.34552 185.729H31.7272C32.5651 185.732 33.394 185.902 34.1665 186.226C34.939 186.551 35.64 187.024 36.2293 187.62C36.8186 188.216 37.2848 188.922 37.601 189.698C37.9173 190.473 38.0775 191.304 38.0726 192.142V236.742H286.838V192.142C286.833 191.304 286.994 190.473 287.31 189.698C287.626 188.922 288.092 188.216 288.682 187.62C289.271 187.024 289.972 186.551 290.744 186.226C291.517 185.902 292.346 185.732 293.184 185.729H318.565C319.403 185.732 320.232 185.902 321.005 186.226C321.777 186.551 322.478 187.024 323.068 187.62C323.657 188.216 324.123 188.922 324.439 189.698C324.756 190.473 324.916 191.304 324.911 192.142V192.142Z" fill="#8C8C8C"/>
<path d="M324.91 192.142V275.571C324.915 276.409 324.755 277.24 324.438 278.016C324.122 278.792 323.656 279.498 323.067 280.093C322.477 280.689 321.776 281.163 321.004 281.487C320.231 281.812 319.402 281.981 318.564 281.985H304.602C305.439 281.981 306.268 281.812 307.041 281.487C307.813 281.163 308.514 280.689 309.104 280.093C309.693 279.498 310.159 278.792 310.475 278.016C310.792 277.24 310.952 276.409 310.947 275.571V192.142C310.952 191.304 310.792 190.473 310.475 189.698C310.159 188.922 309.693 188.216 309.104 187.62C308.514 187.024 307.813 186.551 307.041 186.226C306.268 185.902 305.439 185.732 304.602 185.729H318.564C319.402 185.732 320.231 185.902 321.004 186.226C321.776 186.551 322.477 187.024 323.067 187.62C323.656 188.216 324.122 188.922 324.438 189.698C324.755 190.473 324.915 191.304 324.91 192.142V192.142Z" fill="#858585"/>
<path d="M295.721 227.443V246.691C295.726 247.529 295.566 248.359 295.25 249.135C294.934 249.911 294.467 250.617 293.878 251.213C293.289 251.809 292.588 252.282 291.815 252.607C291.043 252.931 290.214 253.1 289.376 253.104H168.806C167.967 253.1 167.138 252.931 166.365 252.607C165.592 252.282 164.891 251.809 164.301 251.213C163.711 250.618 163.244 249.912 162.927 249.136C162.61 248.36 162.449 247.529 162.453 246.691C162.458 247.529 162.297 248.359 161.981 249.135C161.665 249.911 161.199 250.617 160.609 251.213C160.02 251.809 159.319 252.282 158.547 252.607C157.774 252.931 156.945 253.1 156.107 253.104H35.5369C34.699 253.1 33.8701 252.931 33.0976 252.607C32.3251 252.282 31.6241 251.809 31.0348 251.213C30.4455 250.617 29.9793 249.911 29.663 249.135C29.3468 248.359 29.1865 247.529 29.1915 246.691V227.443C29.1865 226.604 29.3467 225.773 29.6629 224.997C29.9791 224.221 30.4451 223.514 31.0343 222.918C31.6236 222.322 32.3245 221.847 33.097 221.522C33.8696 221.196 34.6987 221.026 35.5369 221.021H156.107C156.946 221.026 157.775 221.196 158.547 221.522C159.32 221.847 160.021 222.322 160.61 222.918C161.199 223.514 161.665 224.221 161.981 224.997C162.297 225.773 162.458 226.604 162.453 227.443C162.445 225.749 163.109 224.121 164.3 222.917C165.492 221.713 167.112 221.031 168.806 221.021H289.376C290.214 221.026 291.043 221.196 291.816 221.522C292.588 221.847 293.289 222.322 293.879 222.918C294.468 223.514 294.934 224.221 295.25 224.997C295.566 225.773 295.726 226.604 295.721 227.443V227.443Z" fill="#585858"/>
<path d="M145.953 227.443V246.691C145.958 247.529 145.798 248.359 145.482 249.135C145.165 249.911 144.699 250.617 144.11 251.213C143.52 251.809 142.82 252.282 142.047 252.607C141.275 252.931 140.446 253.1 139.608 253.104H35.5369C34.699 253.1 33.8701 252.931 33.0976 252.607C32.3251 252.282 31.6241 251.809 31.0348 251.213C30.4455 250.617 29.9793 249.911 29.663 249.135C29.3468 248.359 29.1865 247.529 29.1915 246.691V227.443C29.1865 226.604 29.3467 225.773 29.6629 224.997C29.9791 224.221 30.4451 223.514 31.0343 222.918C31.6236 222.322 32.3245 221.847 33.097 221.522C33.8696 221.196 34.6987 221.026 35.5369 221.021H139.608C140.446 221.026 141.275 221.196 142.048 221.522C142.82 221.847 143.521 222.322 144.11 222.918C144.7 223.514 145.166 224.221 145.482 224.997C145.798 225.773 145.958 226.604 145.953 227.443V227.443ZM272.876 221.021H168.806C167.112 221.031 165.492 221.713 164.3 222.917C163.109 224.121 162.445 225.749 162.453 227.443V246.691C162.449 247.529 162.61 248.36 162.927 249.136C163.244 249.912 163.711 250.618 164.301 251.213C164.891 251.809 165.592 252.282 166.365 252.607C167.138 252.931 167.967 253.1 168.806 253.104H272.876C273.714 253.1 274.543 252.931 275.316 252.607C276.088 252.282 276.789 251.809 277.379 251.213C277.968 250.617 278.434 249.911 278.75 249.135C279.067 248.359 279.227 247.529 279.222 246.691V227.443C279.227 226.604 279.067 225.773 278.75 224.997C278.434 224.221 277.968 223.514 277.379 222.918C276.79 222.322 276.089 221.847 275.316 221.522C274.544 221.196 273.715 221.026 272.876 221.021V221.021Z" fill="#6E6E6E"/>
<g opacity="0.2">
<path opacity="0.2" d="M242.369 4.40695C242.367 3.23746 241.901 2.11655 241.073 1.29031C240.245 0.464059 239.124 -1.7204e-06 237.954 0L229.625 0C229.625 0 225.839 72.0938 216.086 85.504H237.969C239.136 85.498 240.252 85.0316 241.076 84.2062C241.9 83.3808 242.365 82.2633 242.369 81.097V4.40695Z" fill="#A5B3C9"/>
</g>
<path d="M48.1504 187.985C48.1504 186.949 48.562 185.955 49.2948 185.223C50.0275 184.49 51.0213 184.078 52.0576 184.078H117.049C118.085 184.078 119.079 184.49 119.812 185.223C120.544 185.955 120.956 186.949 120.956 187.985V221.022H48.1504V187.985Z" fill="#8AC3E8"/>
<path d="M120.949 199.902H48.1582V205.491H120.949V199.902Z" fill="#4A94C1"/>
<path d="M113.634 184.061V212.229C113.634 212.546 113.508 212.85 113.283 213.075C113.059 213.299 112.755 213.425 112.437 213.425H48.1504V220.997H120.941V187.975C120.942 187.462 120.842 186.953 120.646 186.478C120.45 186.003 120.162 185.571 119.799 185.208C119.436 184.844 119.005 184.556 118.531 184.359C118.056 184.162 117.547 184.061 117.034 184.061H113.634Z" fill="#71B3DE"/>
<path d="M120.957 199.902H113.635V205.491H120.957V199.902Z" fill="#4387B0"/>
<path d="M84.5564 208.09C89.1816 208.09 92.9311 205.612 92.9311 202.555C92.9311 199.498 89.1816 197.02 84.5564 197.02C79.9311 197.02 76.1816 199.498 76.1816 202.555C76.1816 205.612 79.9311 208.09 84.5564 208.09Z" fill="#E0EBFC"/>
<g opacity="0.7">
<path opacity="0.7" d="M76.4785 204.035C77.4553 206.368 80.6356 208.071 84.5428 208.071C89.1693 208.071 92.9175 205.595 92.9175 202.551C92.8632 201.67 92.5741 200.819 92.0802 200.086C91.5862 199.354 90.9054 198.767 90.1083 198.387C90.3091 198.867 90.4146 199.381 90.4187 199.901C90.4187 202.93 86.6327 205.429 82.044 205.429C80.0996 205.453 78.1821 204.973 76.4785 204.035V204.035Z" fill="#D1DBEB"/>
</g>
<path d="M128.301 26.2539H117.973L107.1 59.2455H116.277L117.701 54.5205H128.68L130.104 59.2758H139.228L128.301 26.2539ZM119.828 47.2286L123.107 35.9765L126.454 47.2286H119.828Z" fill="#F5F9FF"/>
<path d="M155.015 26.2532H141.598V48.1516H150.283V34.3932H155.038C156.083 34.356 157.124 34.539 158.093 34.9304C159.062 35.3217 159.938 35.9127 160.664 36.6648C162.155 38.3219 162.94 40.4953 162.853 42.7225C162.908 43.8269 162.743 44.9313 162.368 45.9714C161.992 47.0114 161.413 47.9662 160.664 48.7801C159.941 49.5361 159.066 50.1296 158.096 50.5213C157.126 50.9129 156.083 51.0938 155.038 51.0518H141.598V59.2448H155.038C157.162 59.2934 159.272 58.8984 161.235 58.0847C163.197 57.2711 164.968 56.0569 166.434 54.5198C167.941 52.9657 169.124 51.1265 169.912 49.1099C170.7 47.0933 171.077 44.9398 171.023 42.7755C171.086 40.61 170.713 38.4539 169.924 36.4361C169.136 34.4182 167.949 32.58 166.434 31.0312C164.976 29.4732 163.205 28.2418 161.237 27.4182C159.269 26.5947 157.148 26.1976 155.015 26.2532V26.2532Z" fill="#F5F9FF"/>
<path d="M188.454 26.2529H175.014V34.3929H188.545C189.59 34.3557 190.63 34.5387 191.6 34.9301C192.569 35.3214 193.445 35.9124 194.171 36.6645C195.662 38.3216 196.447 40.495 196.359 42.7222C196.415 43.8266 196.25 44.931 195.874 45.9711C195.499 47.0111 194.92 47.9659 194.171 48.7798C193.449 49.5366 192.573 50.1306 191.603 50.5224C190.633 50.9141 189.59 51.0944 188.545 51.0515H183.79V37.3384H175.067V59.2445H188.545C190.662 59.2879 192.766 58.8902 194.721 58.0767C196.676 57.2633 198.441 56.0519 199.903 54.5195C201.41 52.9654 202.593 51.1262 203.381 49.1096C204.169 47.093 204.546 44.9395 204.492 42.7752C204.559 40.6047 204.188 38.4429 203.399 36.4195C202.611 34.3962 201.422 32.553 199.903 31.0006C198.425 29.4623 196.645 28.2464 194.675 27.4294C192.705 26.6123 190.587 26.2117 188.454 26.2529V26.2529Z" fill="#F5F9FF"/>
</svg>
