<svg width="296" height="429" viewBox="0 0 296 429" fill="none" xmlns="http://www.w3.org/2000/svg">
<path d="M122.61 50.8179C124.192 51.3111 130.408 53.3768 134.921 64.5803C124.853 66.3669 115.129 74.816 106.187 89.0809C97.2442 103.346 88.2368 128.73 90.2653 138.594C92.2939 148.457 86.5433 152.124 83.4353 146.727C67.8119 118.671 88.2368 74.0065 101.608 61.7515C115.613 48.901 122.564 50.8086 122.61 50.8179Z" fill="#EE7228"/>
<path d="M108.726 87.2138C96.8993 87.5023 85.0631 87.2138 73.292 86.4043L36.704 83.8453C36.0036 83.7982 35.3395 83.5169 34.8185 83.0465C34.2975 82.5761 33.9499 81.9441 33.8317 81.2522C33.7136 80.5603 33.8316 79.8488 34.167 79.2321C34.5023 78.6155 35.0354 78.1296 35.6804 77.8528L107.089 46.8292C107.836 46.5045 108.681 46.4845 109.443 46.7734L182.256 74.3633C182.911 74.6119 183.464 75.0734 183.826 75.6739C184.187 76.2744 184.337 76.979 184.25 77.6745C184.163 78.3701 183.845 79.0162 183.346 79.5093C182.848 80.0023 182.199 80.3135 181.502 80.3931L143.128 84.8224C131.729 86.1437 120.227 86.944 108.726 87.2138ZM49.8988 78.4948L73.7294 80.1605C96.6097 81.7564 119.588 81.2393 142.374 78.6158L167.972 75.6567L108.419 53.0451L49.8988 78.4948Z" fill="#6E6E6E"/>
<path d="M108.502 52.8203C107.673 52.8378 106.871 52.5266 106.272 51.9547C105.672 51.3828 105.323 50.5967 105.301 49.7682L104.984 36.378L107.599 35.8848C108.753 35.6522 119.017 33.2235 118.7 20.2986C118.365 6.14538 106.957 6.24774 106.473 6.26635H106.278C105.031 6.26635 101.234 6.3594 98.415 9.29054C95.7816 12.0821 94.5161 16.651 94.6929 22.9785C94.7126 23.8077 94.4022 24.6108 93.8298 25.2111C93.2574 25.8114 92.47 26.1597 91.6408 26.1795C90.8116 26.1992 90.0085 25.8888 89.4082 25.3164C88.8079 24.744 88.4595 23.9566 88.4398 23.1274C88.2444 15.0691 90.0961 8.96485 93.9298 4.96362C96.9633 1.77193 101.141 0.0876899 106.166 0.00394306H106.324C112.596 -0.14494 124.572 3.87491 124.935 20.1497C125.233 32.9537 117.23 39.1509 111.331 41.3004L111.526 49.6193C111.546 50.4439 111.239 51.243 110.673 51.8425C110.107 52.4421 109.326 52.7935 108.502 52.8203V52.8203Z" fill="#6E6E6E"/>
<path d="M221.207 410.103C201.442 426.397 177.472 430.528 154.646 427.783C127.792 424.573 101.607 412.82 75.2172 404.39C55.2668 398.025 34.6465 393.559 14.5938 396.09C21.3307 320.643 42.072 241.149 55.8996 216.313C50.0094 191.189 40.7414 157.039 38.6756 141.22C36.6099 125.401 36.8611 87.4733 36.9821 75.3765C36.9915 74.4373 37.3656 73.5385 38.0254 72.87C38.6852 72.2015 39.579 71.8157 40.518 71.794L53.2569 68.0719C53.7335 68.0595 54.2079 68.1412 54.6529 68.3122C55.0979 68.4832 55.5049 68.7403 55.8506 69.0687C56.1962 69.397 56.4738 69.7903 56.6674 70.226C56.861 70.6617 56.9669 71.1313 56.979 71.6079L57.3326 86.6544C57.742 103.925 82.0379 125.197 110.102 124.527C138.697 123.745 161.141 104.586 160.639 83.4255L160.295 69.142C160.281 68.6651 160.362 68.1902 160.532 67.7446C160.703 67.299 160.96 66.8915 161.289 66.5456C161.617 66.1997 162.011 65.9222 162.447 65.729C162.883 65.5358 163.354 65.4308 163.831 65.4199L176.728 68.5372C177.669 68.5089 178.585 68.8488 179.28 69.4847C179.975 70.1207 180.394 71.0025 180.45 71.9429C181.138 84.0396 183.241 121.847 181.892 137.842C180.599 153.522 173.164 187.16 168.465 212.628C184.609 237.687 212.674 328.785 221.207 410.103Z" fill="#89C3E8"/>
<path d="M168.428 212.591C173.136 187.114 180.571 153.484 181.864 137.805C183.186 121.81 181.111 83.9932 180.413 71.9058C180.36 70.9645 179.941 70.0813 179.245 69.4449C178.55 68.8085 177.633 68.4694 176.691 68.5001L163.794 65.3828C163.317 65.3937 162.846 65.4987 162.41 65.6919C161.974 65.8851 161.58 66.1626 161.251 66.5085C160.923 66.8544 160.666 67.2619 160.495 67.7075C160.325 68.1531 160.244 68.628 160.258 69.1049L160.602 83.3884C160.602 83.9188 160.602 84.4585 160.602 84.9889C161.374 102.083 162.212 126.63 161.393 138.308C160.304 153.987 153.837 187.625 149.752 213.056C164.091 238.18 189.104 329.371 196.855 410.699C186.741 420.285 173.864 426.441 160.053 428.295C181.241 429.793 203.006 425.122 221.216 410.103C212.674 328.785 184.609 237.687 168.428 212.591Z" fill="#6DB8E8"/>
<path d="M55.6576 215.281C55.7414 215.625 55.8251 215.979 55.8996 216.314C42.072 241.149 21.3307 320.644 14.5938 396.09C34.6465 393.559 55.2668 398.026 75.2078 404.391C101.635 412.83 127.792 424.574 154.646 427.784C177.5 430.529 201.442 426.397 221.207 410.104C212.674 328.786 184.609 237.688 168.437 212.592L55.6576 215.281Z" fill="#89C3E8"/>
<path d="M168.427 212.592L149.816 213.038C164.146 238.162 189.159 329.353 196.91 410.681C186.783 420.284 173.885 426.448 160.052 428.296C182.459 429.878 203.787 424.453 221.215 410.104C215.465 355.408 190.806 247.3 168.427 212.592Z" fill="#6DB8E8"/>
<path d="M129.607 214.729C131.933 223.615 134.948 240.783 138.112 263.004C138.294 264.289 138.941 265.462 139.931 266.3C140.921 267.139 142.184 267.585 143.481 267.554C143.689 267.568 143.897 267.568 144.104 267.554C144.802 267.457 145.472 267.221 146.078 266.862C146.683 266.502 147.21 266.025 147.63 265.46C148.049 264.894 148.351 264.251 148.519 263.567C148.687 262.884 148.717 262.173 148.608 261.478C145.528 239.797 142.55 222.768 140.178 213.23L129.439 213.491C129.443 213.909 129.499 214.325 129.607 214.729V214.729Z" fill="#6DB8E8"/>
<path d="M84.5233 268.923H85.1561C86.443 268.882 87.6711 268.373 88.611 267.493C89.551 266.613 90.1388 265.421 90.2646 264.14C92.2838 242.608 94.4147 225.691 96.2758 216.525C96.3842 215.996 96.4093 215.453 96.3502 214.915L96.2944 214.311L85.6771 214.562C85.6771 214.701 85.6771 214.832 85.6771 214.971V215.222C83.8161 224.9 81.648 241.854 79.6567 263.154C79.5929 263.853 79.6686 264.558 79.8794 265.227C80.0902 265.897 80.4318 266.518 80.8846 267.055C81.3373 267.592 81.892 268.033 82.5166 268.354C83.1413 268.674 83.8233 268.868 84.5233 268.923V268.923Z" fill="#6DB8E8"/>
<path d="M171.364 206.307L52.1706 209.158C49.946 209.211 48.1857 211.057 48.2389 213.282L48.3424 217.608C48.3956 219.832 50.2421 221.592 52.4667 221.539L171.66 218.689C173.885 218.635 175.645 216.789 175.592 214.564L175.488 210.239C175.435 208.014 173.589 206.254 171.364 206.307Z" fill="#E0EBFC"/>
<path d="M144.941 57.4995C149.985 59.4257 167.404 71.7085 160.034 105.607C152.665 139.506 124.321 158.191 116.626 163.597C108.93 169.004 105.376 166.64 104.92 165.887C101.97 161.011 106.613 158.024 111.219 153.334C115.825 148.644 138.037 116.113 138.065 84.9964C138.074 73.5137 135.86 65.7625 133.068 60.6447C129.16 53.3122 123.995 51.2464 122.6 50.8184C125.149 51.1813 140.447 55.7687 144.941 57.4995Z" fill="#EE8E58"/>
<path d="M79.8054 293.416L72.0728 320.941L79.6751 340.854L79.5914 368.407C79.5864 369.218 79.2608 369.994 78.6854 370.566C78.1101 371.138 77.3318 371.459 76.5207 371.459L1.53001 371.282C-0.154232 371.282 0.00395599 369.858 0.00395599 368.174L0.0783976 340.631L7.80172 320.755L0.227281 293.183V285.535C0.228501 285.133 0.308896 284.735 0.463874 284.364C0.618853 283.993 0.845381 283.656 1.13052 283.373C1.41567 283.089 1.75384 282.865 2.12574 282.712C2.49763 282.559 2.89597 282.481 3.298 282.482L76.8091 282.687C77.6195 282.694 78.3944 283.021 78.9657 283.596C79.5371 284.171 79.8588 284.947 79.8612 285.758L79.8054 293.416Z" fill="#6E6E6E"/>
<path d="M79.6738 340.853L72.0808 320.94L7.80041 320.754L0.0957031 340.63L79.6738 340.853Z" fill="#6E6E6E"/>
<path d="M4.65625 340.639L9.82994 324.932C9.94092 324.611 10.1479 324.333 10.4226 324.135C10.6974 323.937 11.0266 323.828 11.3653 323.824L68.4993 323.982C68.8336 323.996 69.1562 324.109 69.4251 324.308C69.694 324.507 69.8967 324.783 70.0067 325.099L75.078 340.843L4.65625 340.639Z" fill="#585858"/>
<path d="M0.088105 340.629L79.6755 340.852L79.5918 368.405C79.5906 368.807 79.5102 369.205 79.3552 369.576C79.2002 369.947 78.9737 370.284 78.6885 370.567C78.4034 370.85 78.0652 371.075 77.6933 371.228C77.3214 371.38 76.9231 371.458 76.5211 371.457L1.53041 371.28C1.3264 371.279 1.12467 371.237 0.937002 371.157C0.749338 371.077 0.579504 370.961 0.437425 370.814C0.295347 370.668 0.183872 370.494 0.109515 370.304C0.0351573 370.115 -0.000591102 369.912 0.00435813 369.708L0.088105 340.629Z" fill="#585858"/>
<path d="M52.2628 293.332L79.8062 293.416V285.758C79.8037 284.947 79.482 284.171 78.9107 283.596C78.3393 283.021 77.5645 282.694 76.7541 282.687L3.28947 282.482C2.88744 282.481 2.4891 282.559 2.11721 282.712C1.74531 282.865 1.40714 283.089 1.12199 283.373C0.83685 283.656 0.610322 283.993 0.455343 284.364C0.300365 284.735 0.21997 285.133 0.21875 285.535V293.183L52.2628 293.332Z" fill="#585858"/>
<path d="M68.9544 340.827L60.4867 309.385C60.3129 308.737 59.9308 308.165 59.3994 307.756C58.8679 307.348 58.2166 307.125 57.5462 307.124L22.4284 307.021C21.7564 307.02 21.1026 307.24 20.5678 307.647C20.033 308.054 19.647 308.625 19.4693 309.273L10.7969 340.66" fill="#EE8E58"/>
<path d="M29.2697 303.979C28.8649 303.981 28.4772 304.142 28.19 304.428C27.9029 304.713 27.7392 305.1 27.7344 305.505V316.224C27.7644 316.609 27.9388 316.969 28.2225 317.232C28.5062 317.494 28.8786 317.64 29.2651 317.64C29.6516 317.64 30.0239 317.494 30.3077 317.232C30.5914 316.969 30.7657 316.609 30.7958 316.224V305.505C30.7958 305.304 30.7563 305.106 30.6796 304.921C30.6029 304.735 30.4905 304.567 30.3488 304.425C30.2071 304.284 30.0389 304.171 29.8537 304.095C29.6686 304.018 29.4701 303.979 29.2697 303.979V303.979Z" fill="#D8E2F2"/>
<path d="M50.6994 304.043C50.4982 304.042 50.2988 304.08 50.1126 304.157C49.9263 304.233 49.757 304.345 49.6143 304.487C49.4716 304.629 49.3584 304.797 49.2811 304.983C49.2038 305.169 49.1641 305.368 49.1641 305.569V316.279C49.1941 316.665 49.3684 317.025 49.6522 317.287C49.9359 317.549 50.3082 317.695 50.6948 317.695C51.0813 317.695 51.4536 317.549 51.7373 317.287C52.0211 317.025 52.1954 316.665 52.2255 316.279V305.569C52.2255 305.164 52.0647 304.776 51.7785 304.49C51.4923 304.204 51.1042 304.043 50.6994 304.043V304.043Z" fill="#D8E2F2"/>
<path d="M36.8612 325.211C36.9473 326.249 36.8091 327.292 36.4561 328.272C36.103 329.251 35.5435 330.143 34.8153 330.887C34.0871 331.631 33.2074 332.21 32.2358 332.584C31.2642 332.958 30.2236 333.119 29.1844 333.055C28.1456 333.11 27.1072 332.941 26.1392 332.56C25.1712 332.179 24.2961 331.595 23.573 330.847C22.8499 330.099 22.2955 329.205 21.9472 328.225C21.599 327.244 21.4649 326.201 21.5542 325.165C21.5542 321.228 25.9369 316.967 28.0678 315.115C28.3895 314.84 28.7987 314.689 29.2216 314.689C29.6446 314.689 30.0538 314.84 30.3755 315.115C32.5715 316.985 36.8705 321.266 36.8612 325.211Z" fill="#E0EBFC"/>
<path d="M58.2916 325.266C58.3773 326.305 58.239 327.349 57.8862 328.33C57.5333 329.31 56.974 330.203 56.2462 330.948C55.5184 331.694 54.639 332.274 53.6674 332.651C52.6959 333.027 51.6549 333.19 50.6148 333.129C49.5743 333.187 48.5336 333.02 47.5635 332.639C46.5933 332.259 45.7165 331.674 44.9925 330.925C44.2686 330.175 43.7145 329.278 43.368 328.296C43.0216 327.313 42.8907 326.267 42.9845 325.229C42.9845 321.293 47.3673 317.031 49.4982 315.179C49.8222 314.906 50.2326 314.756 50.6567 314.756C51.0807 314.756 51.4911 314.906 51.8152 315.179C53.974 317.041 58.3009 321.33 58.2916 325.266Z" fill="#E0EBFC"/>
<path d="M28.0136 321.701L27.8368 321.925C27.2764 322.47 26.8401 323.13 26.5575 323.859C26.2749 324.587 26.1526 325.369 26.1991 326.149C26.2623 326.503 26.4478 326.824 26.7233 327.055C26.9988 327.287 27.3468 327.414 27.7065 327.415H27.967C28.3681 327.344 28.7247 327.118 28.9585 326.784C29.1924 326.451 29.2842 326.039 29.2139 325.638C29.1395 325.219 29.8188 324.363 30.2189 323.851L30.4143 323.609C30.6031 323.403 30.7309 323.149 30.7835 322.874C30.836 322.6 30.8113 322.316 30.7121 322.055C30.6133 321.8 30.4479 321.576 30.233 321.407C30.0181 321.238 29.7618 321.13 29.4907 321.093C29.2197 321.057 28.9439 321.095 28.6922 321.202C28.4405 321.309 28.2222 321.481 28.0601 321.701H28.0136Z" fill="#FCFCFC"/>
<path d="M51.5927 321.506C51.2727 321.257 50.867 321.144 50.4642 321.193C50.0614 321.242 49.6944 321.448 49.4432 321.766L49.2664 321.99C48.7063 322.533 48.27 323.191 47.9874 323.919C47.7047 324.646 47.5824 325.426 47.6287 326.205C47.6902 326.56 47.8753 326.882 48.1511 327.113C48.427 327.345 48.7759 327.471 49.1361 327.471C49.2224 327.484 49.3104 327.484 49.3967 327.471C49.5946 327.437 49.7838 327.364 49.9535 327.257C50.1231 327.15 50.2697 327.01 50.3848 326.845C50.4999 326.681 50.5813 326.495 50.6241 326.299C50.6669 326.103 50.6704 325.9 50.6343 325.703C50.5598 325.275 51.2391 324.428 51.6485 323.916L51.8439 323.674C51.9708 323.516 52.065 323.334 52.1211 323.139C52.1772 322.943 52.194 322.739 52.1707 322.538C52.1473 322.336 52.0842 322.141 51.985 321.964C51.8858 321.787 51.7525 321.631 51.5927 321.506V321.506Z" fill="#FCFCFC"/>
<path d="M264.672 52.5243C262.039 59.5962 253.98 77.8344 239.39 82.487C239.169 82.5571 238.977 82.6953 238.841 82.8819C238.704 83.0684 238.631 83.2935 238.631 83.5246C238.631 83.7557 238.704 83.9808 238.841 84.1673C238.977 84.3538 239.169 84.4921 239.39 84.5621C254.129 88.7867 262.076 105.443 264.663 111.91C264.745 112.109 264.885 112.278 265.064 112.397C265.243 112.516 265.453 112.58 265.668 112.58C265.883 112.58 266.093 112.516 266.271 112.397C266.45 112.278 266.59 112.109 266.673 111.91C269.594 105.396 278.63 88.2284 294.207 84.7203C294.441 84.6669 294.65 84.5376 294.803 84.3526C294.956 84.1676 295.044 83.9373 295.052 83.6974C295.061 83.4575 294.99 83.2216 294.85 83.0263C294.711 82.8309 294.511 82.6872 294.281 82.6173C278.258 77.1552 269.529 59.3543 266.673 52.4498C266.581 52.2571 266.436 52.0953 266.254 51.9845C266.071 51.8738 265.861 51.819 265.648 51.8269C265.435 51.8349 265.229 51.9052 265.055 52.0291C264.882 52.1531 264.748 52.3253 264.672 52.5243V52.5243Z" fill="#EE8E58"/>
<path d="M236.356 44.5372C231.517 41.5037 221.588 33.8827 218.322 20.8554C217.959 19.3852 216.638 19.4224 216.294 20.9113C213.335 34.0502 204.281 41.5781 199.852 44.5651C199.431 44.9832 199.191 45.5492 199.182 46.1422C199.173 46.7351 199.397 47.308 199.805 47.7382C204.262 51.0881 213.567 59.5558 216.191 73.5136C216.48 75.0583 217.848 75.1885 218.229 73.6997C221.002 63.1729 227.427 53.9746 236.356 47.7475C236.57 47.5386 236.74 47.2889 236.856 47.0133C236.972 46.7376 237.032 46.4415 237.032 46.1423C237.032 45.8432 236.972 45.5471 236.856 45.2714C236.74 44.9957 236.57 44.7461 236.356 44.5372V44.5372Z" fill="#EE7228"/>
<path d="M228.419 114.776C225.683 113.008 220.044 108.579 218.183 101.004C217.969 100.148 217.252 100.167 217.029 101.004C215.759 106.592 212.438 111.5 207.724 114.757C207.485 115.008 207.352 115.341 207.352 115.688C207.352 116.034 207.485 116.367 207.724 116.618C212.549 120.31 215.859 125.638 217.029 131.6C217.196 132.53 217.959 132.577 218.183 131.702C219.712 125.628 223.337 120.29 228.419 116.628C228.657 116.378 228.79 116.047 228.79 115.702C228.79 115.357 228.657 115.025 228.419 114.776V114.776Z" fill="#EE7228"/>
<path d="M216.109 306.609C221.584 313.846 224.231 322.832 223.554 331.882L221.116 365.269C221.059 366.202 221.361 367.122 221.959 367.84C222.558 368.558 223.409 369.021 224.337 369.132C225.265 369.244 226.201 368.997 226.953 368.441C227.706 367.886 228.217 367.064 228.383 366.144L241.997 285.523L239.856 284.379L216.072 302.943L216.109 306.609Z" fill="#EE8E58"/>
<path d="M222.893 368.656C223.403 368.973 223.984 369.159 224.584 369.198C225.184 369.237 225.785 369.127 226.332 368.879C226.88 368.631 227.357 368.251 227.723 367.774C228.089 367.297 228.331 366.737 228.429 366.144L242.043 285.523L239.902 284.379L232.402 290.232L224.754 365.818C224.697 366.407 224.497 366.972 224.173 367.467C223.849 367.961 223.41 368.369 222.893 368.656V368.656Z" fill="#EE7228"/>
<path d="M180.467 312.902C169.794 332.611 153.417 336.268 140.455 335.384V338.771L160.592 344.81L180.802 336.854L222.769 257.499L221.392 253.219C221.392 253.219 200.194 276.482 180.449 312.865L180.467 312.902Z" fill="#585858"/>
<path d="M180.803 336.854L193.011 313.758L194.258 310.092L194.835 310.325L222.751 257.499L221.374 253.219C221.374 253.219 201.647 274.853 182.552 309.05C181.932 310.793 181.312 312.561 180.691 314.354C174.494 332.118 162.528 339.357 151.203 341.935L160.62 344.726L180.803 336.854Z" fill="#4A4A4A"/>
<path d="M231.276 249.608C235.864 254.847 243.169 265.883 243.373 283.256C243.377 283.718 243.256 284.173 243.024 284.572C242.791 284.972 242.455 285.301 242.052 285.527C235.222 289.314 203.835 308.622 192.176 349.732C190.911 354.197 188.45 358.231 185.058 361.398C181.667 364.565 177.474 366.745 172.933 367.701C163.46 369.7 153.656 369.5 144.273 367.115C133.386 364.322 122.77 360.564 112.551 355.883C111.19 355.263 110.037 354.264 109.228 353.006C108.418 351.748 107.988 350.284 107.988 348.788C107.988 347.292 108.418 345.828 109.228 344.57C110.037 343.312 111.19 342.313 112.551 341.693C118.737 338.94 125.086 336.568 131.562 334.593C132.866 334.033 134.283 333.783 135.7 333.862C137.118 333.941 138.498 334.347 139.732 335.049C168.997 351.621 181.363 334.007 195.507 299.289C206.32 272.75 218.519 256.485 224.26 249.729C224.692 249.228 225.225 248.825 225.825 248.546C226.424 248.267 227.076 248.119 227.738 248.112C228.399 248.105 229.054 248.239 229.66 248.505C230.265 248.771 230.807 249.163 231.249 249.655L231.276 249.608Z" fill="#6E6E6E"/>
<path d="M162.407 365.083C154.563 366.74 146.475 366.889 138.576 365.521C140.437 366.06 142.332 366.575 144.262 367.065C153.644 369.451 163.449 369.651 172.922 367.652C177.463 366.696 181.656 364.516 185.047 361.349C188.439 358.182 190.9 354.148 192.165 349.683C203.824 308.619 235.211 289.311 242.041 285.477C242.444 285.252 242.78 284.923 243.012 284.523C243.245 284.124 243.366 283.669 243.362 283.207C243.167 265.834 235.862 254.798 231.265 249.559C230.823 249.067 230.282 248.675 229.676 248.409C229.071 248.143 228.416 248.009 227.754 248.016C227.093 248.023 226.441 248.171 225.841 248.45C225.242 248.729 224.708 249.132 224.277 249.634L223.533 250.564C227.822 256.594 232.689 266.541 232.838 280.676C232.842 281.139 232.72 281.595 232.485 281.995C232.251 282.394 231.913 282.723 231.507 282.946C224.687 286.734 193.291 306.042 181.641 347.106C180.374 351.571 177.911 355.606 174.518 358.773C171.125 361.94 166.93 364.119 162.388 365.074L162.407 365.083Z" fill="#585858"/>
<path d="M115.421 225.632C124.797 225.239 132.187 219.896 131.927 213.699C131.667 207.501 123.856 202.796 114.48 203.189C105.105 203.582 97.7145 208.924 97.9742 215.122C98.234 221.319 106.045 226.025 115.421 225.632Z" fill="#FFF9EB"/>
<g opacity="0.7">
<path opacity="0.7" d="M98.6387 218.118C100.816 222.771 107.404 225.944 115.323 225.618C124.693 225.227 132.072 219.886 131.83 213.717C131.634 211.947 130.971 210.26 129.908 208.831C128.845 207.402 127.421 206.281 125.782 205.584C126.222 206.519 126.478 207.53 126.536 208.562C126.796 214.74 119.399 220.081 110.028 220.472C106.092 220.687 102.167 219.876 98.6387 218.118V218.118Z" fill="#D3CDBF"/>
</g>
</svg>
