<svg width="108" height="143" viewBox="0 0 108 143" fill="none" xmlns="http://www.w3.org/2000/svg">
<path d="M58.5993 63.1116H97.0617L107.421 108.969V111.933H86.7122L77.8305 91.2152L55.6449 142.991L40.8452 138.559L58.5993 63.1116Z" fill="#6E6E6E"/>
<path d="M94.0982 73.4611H99.3937L97.0618 63.1116H88.1895V67.5431C88.1895 69.1111 88.8117 70.6149 89.9195 71.7245C91.0274 72.8341 92.5302 73.4587 94.0982 73.4611Z" fill="#585858"/>
<path d="M67.4808 67.5431V63.1116H58.5991L56.165 73.4611H61.5814C63.1477 73.4562 64.6482 72.8305 65.754 71.7212C66.8599 70.6119 67.4808 69.1095 67.4808 67.5431Z" fill="#585858"/>
<path d="M77.8311 63.1116V91.2152L80.7947 86.7836V63.1116H77.8311Z" fill="#585858"/>
<path d="M107.421 111.933H77.8311V125.246L92.6307 128.2L107.421 114.887V111.933Z" fill="#585858"/>
<path d="M97.0616 57.1934H58.5991V63.1114H97.0616V57.1934Z" fill="#EE8E58"/>
<path d="M70.4358 57.1934H67.4814V63.1114H70.4358V57.1934Z" fill="#EE7E3B"/>
<path d="M91.1438 57.1934H88.1895V63.1114H91.1438V57.1934Z" fill="#EE7E3B"/>
<path d="M82.4839 57.1934H76.5659V63.1114H82.4839V57.1934Z" fill="#FFF9EB"/>
<path d="M83.8787 38.4915L71.6617 26.2374L58.9152 23.924C58.1786 23.7811 57.4152 23.9193 56.7755 24.3114C56.1357 24.7035 55.6661 25.321 55.4592 26.0423C54.0935 31.0684 48.9558 34.7381 42.8427 34.7381C36.7296 34.7381 31.6199 30.9662 30.2449 26.033C30.0324 25.3152 29.5616 24.7016 28.9234 24.3104C28.2852 23.9193 27.5248 23.7783 26.7888 23.9147L14.0237 26.2374L1.76963 38.4915C1.48647 38.7744 1.26185 39.1105 1.1086 39.4803C0.955346 39.8501 0.876465 40.2465 0.876465 40.6468C0.876465 41.0472 0.955346 41.4436 1.1086 41.8134C1.26185 42.1832 1.48647 42.5192 1.76963 42.8022L8.98831 50.0209C9.2713 50.3041 9.60731 50.5287 9.97714 50.6819C10.347 50.8352 10.7434 50.9141 11.1437 50.9141C11.544 50.9141 11.9404 50.8352 12.3103 50.6819C12.6801 50.5287 13.0161 50.3041 13.2991 50.0209L16.9038 46.4069V95.4048H57.2522L68.7817 83.9218V46.4069L72.3864 50.0209C72.6693 50.3041 73.0054 50.5287 73.3752 50.6819C73.745 50.8352 74.1414 50.9141 74.5417 50.9141C74.9421 50.9141 75.3385 50.8352 75.7083 50.6819C76.0781 50.5287 76.4141 50.3041 76.6971 50.0209L83.8787 42.8022C84.1618 42.5192 84.3864 42.1832 84.5397 41.8134C84.6929 41.4436 84.7718 41.0472 84.7718 40.6468C84.7718 40.2465 84.6929 39.8501 84.5397 39.4803C84.3864 39.1105 84.1618 38.7744 83.8787 38.4915Z" fill="#89C3E8"/>
<path d="M57.2515 95.4049L68.7809 83.9219H59.7228C59.0624 83.9219 58.4291 84.1842 57.9622 84.6511C57.4952 85.1181 57.2329 85.7514 57.2329 86.4117L57.2515 95.4049Z" fill="#6DB8E8"/>
<path d="M27.207 26.5439C28.9164 32.6385 35.2153 37.2744 42.8149 37.2744C50.4145 37.2744 56.7506 32.7407 58.4322 26.5532C58.5788 26.0349 58.8392 25.5558 59.1944 25.1508C59.5496 24.7458 59.9906 24.4251 60.4854 24.212L58.8874 23.924C58.1508 23.7811 57.3874 23.9193 56.7477 24.3114C56.1079 24.7035 55.6383 25.321 55.4314 26.0423C54.0657 31.0684 48.928 34.7381 42.8149 34.7381C36.7018 34.7381 31.6199 30.9662 30.2449 26.033C30.0325 25.3152 29.5617 24.7016 28.9235 24.3104C28.2853 23.9193 27.5249 23.7783 26.7889 23.9147L25.1816 24.212C25.6716 24.4253 26.1078 24.7453 26.4582 25.1488C26.8086 25.5522 27.0644 26.0289 27.207 26.5439Z" fill="#6E6E6E"/>
<path d="M42.8432 71.7329C49.5238 71.7329 54.9394 66.3172 54.9394 59.6367C54.9394 52.9562 49.5238 47.5405 42.8432 47.5405C36.1627 47.5405 30.7471 52.9562 30.7471 59.6367C30.7471 66.3172 36.1627 71.7329 42.8432 71.7329Z" fill="#E0EBFC"/>
<path d="M42.8428 68.2954C47.6249 68.2954 51.5015 64.4188 51.5015 59.6367C51.5015 54.8547 47.6249 50.978 42.8428 50.978C38.0607 50.978 34.1841 54.8547 34.1841 59.6367C34.1841 64.4188 38.0607 68.2954 42.8428 68.2954Z" fill="#EE8E58"/>
<path d="M39.6284 13.0544H31.3413C31.0997 13.0528 30.8607 13.1054 30.6421 13.2083C30.4234 13.3112 30.2306 13.4618 30.0778 13.649C29.923 13.837 29.8118 14.057 29.7524 14.2932C29.6929 14.5294 29.6867 14.7758 29.7341 15.0147L30.4495 18.6101C30.6027 19.3591 31.0121 20.0312 31.6072 20.511C32.2023 20.9909 32.946 21.2484 33.7104 21.2393H37.343C38.0999 21.2394 38.8335 20.9776 39.4194 20.4983C40.0053 20.0191 40.4074 19.352 40.5575 18.6101L41.2821 15.0147C41.3295 14.7732 41.322 14.5241 41.2603 14.2858C41.1985 14.0475 41.0841 13.8262 40.9253 13.638C40.7666 13.4499 40.5677 13.2998 40.3432 13.1988C40.1188 13.0978 39.8745 13.0485 39.6284 13.0544Z" fill="#595959"/>
<path d="M32.6597 12.9988L39.7762 20.1153L41.2626 13.9371L38.0574 13.0917L32.6597 12.9988Z" fill="#4F4F4F"/>
<path d="M54.3635 13.0542H46.0764C45.8337 13.0535 45.5939 13.1068 45.3744 13.2103C45.1548 13.3138 44.9611 13.4649 44.8072 13.6526C44.6533 13.8403 44.5431 14.0599 44.4847 14.2954C44.4262 14.531 44.4209 14.7766 44.4692 15.0145L45.1938 18.6099C45.342 19.351 45.7423 20.0179 46.3266 20.4973C46.9109 20.9766 47.6433 21.2387 48.399 21.2391H52.0409C52.7962 21.237 53.5276 20.9742 54.1116 20.4952C54.6956 20.0161 55.0963 19.3502 55.2461 18.6099L55.9708 15.0145C56.0173 14.7768 56.0107 14.5318 55.9516 14.297C55.8924 14.0621 55.7822 13.8433 55.6286 13.656C55.4751 13.4687 55.282 13.3177 55.0633 13.2136C54.8447 13.1096 54.6057 13.0552 54.3635 13.0542Z" fill="#595959"/>
<path d="M47.7852 12.9988L54.9016 20.1153L56.3881 13.9371L53.1829 13.0917L47.7852 12.9988Z" fill="#4F4F4F"/>
<path d="M44.078 15.8417C43.7064 15.6227 43.283 15.5072 42.8517 15.5072C42.4204 15.5072 41.9969 15.6227 41.6253 15.8417C41.5324 15.9038 41.4277 15.9462 41.3177 15.9662C41.2077 15.9863 41.0948 15.9835 40.9859 15.9582C40.877 15.9329 40.7745 15.8855 40.6847 15.819C40.5948 15.7525 40.5195 15.6683 40.4635 15.5715C40.4075 15.4748 40.372 15.3676 40.359 15.2565C40.3461 15.1455 40.356 15.033 40.3883 14.926C40.4206 14.8189 40.4744 14.7197 40.5466 14.6343C40.6187 14.5489 40.7076 14.4792 40.8078 14.4295C41.427 14.0642 42.1328 13.8716 42.8517 13.8716C43.5706 13.8716 44.2764 14.0642 44.8956 14.4295C44.9957 14.4792 45.0846 14.5489 45.1568 14.6343C45.2289 14.7197 45.2828 14.8189 45.315 14.926C45.3473 15.033 45.3573 15.1455 45.3443 15.2565C45.3314 15.3676 45.2958 15.4748 45.2398 15.5715C45.1838 15.6683 45.1085 15.7525 45.0187 15.819C44.9288 15.8855 44.8263 15.9329 44.7174 15.9582C44.6085 15.9835 44.4956 15.9863 44.3856 15.9662C44.2757 15.9462 44.171 15.9038 44.078 15.8417Z" fill="#6E6E6E"/>
<path d="M39.6287 12.2368H31.3416H31.1651L33.3297 2.94635C33.3586 2.82672 33.4142 2.71515 33.4922 2.61997C33.5702 2.52479 33.6687 2.44845 33.7804 2.39665C33.892 2.34485 34.0139 2.31892 34.1369 2.3208C34.26 2.32268 34.381 2.35232 34.4911 2.4075L35.9404 3.13216C36.1307 3.20649 36.3419 3.20689 36.5325 3.13327C36.723 3.05965 36.8791 2.91736 36.97 2.7344C37.0609 2.55144 37.08 2.34108 37.0236 2.14473C36.9671 1.94839 36.8392 1.7803 36.665 1.67356L35.2157 0.948902C34.8863 0.783281 34.5238 0.69405 34.1552 0.687847C33.7866 0.681644 33.4213 0.758627 33.0865 0.913072C32.7517 1.06752 32.4561 1.29545 32.2215 1.57992C31.987 1.86438 31.8196 2.19807 31.7318 2.55615L29.1862 13.5189C28.9075 14.0224 28.8185 14.6091 28.9354 15.1726L29.6507 18.768C29.8405 19.7022 30.3494 20.5413 31.0902 21.1414C31.8309 21.7415 32.7574 22.0651 33.7107 22.0568H37.3432C38.2901 22.0565 39.2078 21.7289 39.9409 21.1296C40.674 20.5302 41.1775 19.6959 41.366 18.768L42.0721 15.1726C42.1425 14.8136 42.132 14.4435 42.0415 14.0891C41.9509 13.7346 41.7825 13.4048 41.5485 13.1237C41.3145 12.8425 41.0207 12.617 40.6886 12.4636C40.3566 12.3102 39.9945 12.2327 39.6287 12.2368ZM40.4277 14.8474L39.7123 18.4428C39.6009 18.9995 39.3005 19.5006 38.862 19.8613C38.4235 20.2219 37.8738 20.4199 37.3061 20.4217H33.7107C33.1424 20.4216 32.5919 20.2243 32.153 19.8634C31.7141 19.5024 31.4142 19.0003 31.3044 18.4428L30.5891 14.8939L30.7563 14.1785C30.8334 14.0888 30.9289 14.0166 31.0363 13.9669C31.1436 13.9172 31.2604 13.8912 31.3788 13.8905H39.6658C39.7813 13.8967 39.8941 13.9272 39.9968 13.9802C40.0995 14.0331 40.1899 14.1073 40.2619 14.1977C40.3339 14.2881 40.3859 14.3928 40.4144 14.5048C40.443 14.6168 40.4475 14.7336 40.4277 14.8474Z" fill="#6E6E6E"/>
<path d="M56.5174 13.528L53.9625 2.55594C53.8736 2.19868 53.7054 1.86601 53.4704 1.58261C53.2354 1.29922 52.9396 1.07236 52.605 0.918873C52.2703 0.765384 51.9054 0.689201 51.5373 0.695972C51.1692 0.702742 50.8074 0.792295 50.4786 0.957987L49.0293 1.68264C48.8475 1.78648 48.7124 1.95611 48.652 2.15657C48.5915 2.35702 48.6103 2.57303 48.7044 2.76006C48.7985 2.94709 48.9608 3.09089 49.1578 3.16181C49.3548 3.23273 49.5715 3.22537 49.7632 3.14124L51.2125 2.41659C51.3216 2.36299 51.4411 2.33408 51.5626 2.33192C51.684 2.32975 51.8045 2.35438 51.9154 2.40405C52.0262 2.45372 52.1248 2.52721 52.204 2.6193C52.2833 2.71139 52.3413 2.81981 52.3738 2.93685L54.5385 12.2273H54.362H46.0749C45.5486 12.2275 45.0364 12.3975 44.6146 12.7123C44.1928 13.027 43.8838 13.4695 43.7337 13.9739C43.4293 13.9014 43.1176 13.864 42.8047 13.8624V15.4975C43.123 15.4946 43.4387 15.5546 43.7337 15.6741L44.3469 18.7585C44.5351 19.6849 45.0372 20.518 45.7684 21.1171C46.4995 21.7163 47.4151 22.0449 48.3604 22.0473H52.0022C52.9476 22.0449 53.8631 21.7163 54.5943 21.1171C55.3254 20.518 55.8275 19.6849 56.0157 18.7585L56.7311 15.1631C56.8531 14.6098 56.7775 14.0313 56.5174 13.528ZM54.4456 18.4426C54.3342 18.9993 54.0338 19.5004 53.5953 19.8611C53.1568 20.2217 52.6071 20.4197 52.0394 20.4215H48.3975C47.8298 20.4197 47.2801 20.2217 46.8416 19.8611C46.4031 19.5004 46.1027 18.9993 45.9913 18.4426L45.2945 14.9866C45.2989 14.9682 45.2989 14.9492 45.2945 14.9308V14.8472C45.2771 14.7322 45.2848 14.6148 45.317 14.503C45.3491 14.3912 45.405 14.2876 45.4809 14.1994C45.5568 14.1112 45.6508 14.0404 45.7565 13.9919C45.8622 13.9433 45.9772 13.9182 46.0935 13.9182H54.3806C54.4991 13.9176 54.6163 13.9431 54.7239 13.9929C54.8315 14.0426 54.9268 14.1155 55.003 14.2062L55.1703 14.9215L54.4456 18.4426Z" fill="#6E6E6E"/>
<path d="M25.9526 121.929C26.3108 122.526 26.7954 123.037 27.3725 123.426C27.9496 123.815 28.605 124.073 29.2925 124.181C29.98 124.289 30.6828 124.245 31.3514 124.051C32.02 123.858 32.6381 123.521 33.162 123.063C35.7667 120.701 38.4958 118.481 41.3376 116.411C42.1801 115.825 42.8684 115.044 43.344 114.135C43.8196 113.226 44.0684 112.216 44.069 111.19C44.069 109.963 44.1248 110.911 38.662 91.6796C38.6438 91.6034 38.6102 91.5318 38.5634 91.469C38.5166 91.4063 38.4574 91.3538 38.3896 91.3146C38.3218 91.2755 38.2467 91.2506 38.1689 91.2415C38.0912 91.2323 38.0124 91.2392 37.9373 91.2615L30.635 93.4262L31.5641 116.299L25.9526 121.929Z" fill="#D4DEED"/>
<path d="M32.5957 100.162L40.474 97.9227L39.8143 95.6279L31.9268 97.8576L32.5957 100.162Z" fill="#EE7E3B"/>
<path d="M29.3987 91.2429L20.6193 93.835C20.4742 93.877 20.351 93.9736 20.2755 94.1044C20.2456 94.1733 20.2302 94.2476 20.2302 94.3227C20.2302 94.3978 20.2456 94.4721 20.2755 94.541L24.2518 109.406C24.283 109.505 24.2864 109.612 24.2619 109.713C24.2374 109.815 24.1857 109.907 24.1125 109.982L18.0923 116.234C17.2869 117.065 16.8206 118.166 16.7845 119.323C16.7484 120.479 17.1452 121.607 17.8972 122.487C18.3049 122.972 18.8053 123.37 19.3692 123.659C19.933 123.948 20.5489 124.121 21.1807 124.169C21.8124 124.216 22.4473 124.137 23.0481 123.936C23.6489 123.735 24.2034 123.416 24.6792 122.998L28.8134 119.467C30.0707 118.402 31.3931 117.392 32.7805 116.439C33.8684 115.685 34.6934 114.609 35.1399 113.363C35.5864 112.117 35.632 110.763 35.2703 109.489L30.1048 91.6982C30.0866 91.622 30.0531 91.5504 30.0062 91.4876C29.9594 91.4249 29.9003 91.3723 29.8324 91.3332C29.7646 91.2941 29.6895 91.2692 29.6118 91.26C29.534 91.2509 29.4552 91.2577 29.3802 91.2801L29.3987 91.2429Z" fill="#E0EBFC"/>
<path d="M31.935 97.9227L21.9013 100.775L21.2788 98.4708L31.2753 95.6279L31.935 97.9227Z" fill="#EE8E58"/>
</svg>
