<svg width="153" height="141" viewBox="0 0 153 141" fill="none" xmlns="http://www.w3.org/2000/svg">
<path d="M81.7439 140.145H73.8897L71.2725 139.891C70.9256 139.89 70.5932 139.752 70.3479 139.507C70.1026 139.261 69.9645 138.929 69.9639 138.582V125.224H82.7908L83.0449 129.412V138.836C83.0442 139.182 82.9072 139.513 82.6636 139.758C82.4199 140.003 82.0894 140.142 81.7439 140.145Z" fill="#696969"/>
<path d="M83.052 125.224V129.412H74.6668C74.4587 129.412 74.2594 129.495 74.1123 129.642C73.9652 129.789 73.8823 129.989 73.8816 130.197V140.145H71.0103C70.6634 140.144 70.331 140.006 70.0857 139.761C69.8404 139.515 69.7023 139.183 69.7017 138.836V125.224L76.1558 124.131L83.052 125.224Z" fill="#585858"/>
<path d="M84.099 124.962H68.6549C67.7954 124.962 66.9444 124.793 66.1504 124.464C65.3564 124.135 64.6349 123.653 64.0273 123.045C63.4197 122.437 62.9378 121.716 62.6091 120.921C62.2805 120.127 62.1115 119.276 62.1118 118.417V111.874L76.5091 110.761L90.9063 111.874V118.681C90.9073 119.487 90.7582 120.285 90.4667 121.036C89.5215 123.486 86.8814 124.962 84.099 124.962Z" fill="#696969"/>
<path d="M90.4633 121.036C89.9889 122.269 89.1522 123.329 88.0636 124.076C86.975 124.824 85.6855 125.224 84.3649 125.224H68.3923C67.5328 125.224 66.6817 125.055 65.8876 124.727C65.0934 124.398 64.3718 123.916 63.764 123.309C63.1561 122.701 62.674 121.979 62.345 121.185C62.016 120.391 61.8467 119.54 61.8467 118.681V111.874L64.0065 111.048L66.0393 111.874V118.681C66.0407 119.305 66.2892 119.904 66.7307 120.345C67.1722 120.787 67.7705 121.035 68.3948 121.036H90.4633Z" fill="#585858"/>
<g filter="url(#filter0_d)">
<path d="M131.872 98.523H20.8819C20.1877 98.523 19.522 98.2473 19.0312 97.7565C18.5404 97.2656 18.2646 96.5999 18.2646 95.9058V19.2086L72.9797 18.0525L134.751 19.2086V94.3355L134.497 95.9058C134.497 96.2502 134.429 96.5911 134.297 96.9091C134.165 97.2272 133.972 97.516 133.728 97.7592C133.484 98.0023 133.195 98.1949 132.876 98.326C132.558 98.4571 132.217 98.524 131.872 98.523Z" fill="#F8F7F7"/>
</g>
<path d="M134.751 94.3355V96.1675C134.751 96.8617 134.475 97.5274 133.985 98.0182C133.494 98.509 132.828 98.7848 132.134 98.7848H20.6201C19.926 98.7848 19.2603 98.509 18.7695 98.0182C18.2787 97.5274 18.0029 96.8617 18.0029 96.1675V19.2086L19.9824 18.0525L22.4522 19.2086V93.0269C22.4529 93.3737 22.591 93.7062 22.8362 93.9515C23.0815 94.1967 23.4139 94.3348 23.7608 94.3355H134.751Z" fill="#E8E8E8"/>
<path d="M103.731 59.3895C103.728 52.5653 101.176 45.9882 96.5739 40.9491C91.972 35.9099 85.6529 32.7726 78.8569 32.1527C78.0412 32.079 77.2129 32.2391 76.3769 32.2391C61.2682 32.2391 49.6787 44.2885 49.6787 59.3972C49.6787 74.5059 61.2682 86.7433 76.3769 86.7433C79.9691 86.7436 83.5262 86.0363 86.8451 84.6618C90.164 83.2872 93.1795 81.2724 95.7196 78.7323C98.2597 76.1922 100.275 73.1766 101.649 69.8578C103.024 66.5389 103.731 62.9818 103.731 59.3895Z" fill="#EE8E58"/>
<path d="M112.893 46.9563H100.75L100.59 47.2104C98.4224 47.2104 96.9258 48.9662 96.9258 51.1362V54.8003H116.557L116.812 51.3979V50.8745C116.81 49.8359 116.396 48.8405 115.662 48.1061C114.927 47.3718 113.932 46.9583 112.893 46.9563Z" fill="#89C3E8"/>
<path d="M116.819 51.4056V54.808L107.689 55.3797L96.6641 54.808V50.8821C96.6641 49.8409 97.0777 48.8424 97.8139 48.1061C98.5501 47.3699 99.5487 46.9563 100.59 46.9563H100.75V50.6204C100.75 50.8286 100.833 51.0284 100.98 51.1756C101.127 51.3228 101.327 51.4056 101.535 51.4056H116.819Z" fill="#7EB4D6"/>
<path d="M78.9944 86.6189C78.133 86.7027 77.2589 86.7434 76.3772 86.7434C69.1225 86.7434 62.165 83.8615 57.0352 78.7316C51.9053 73.6018 49.0234 66.6443 49.0234 59.3896C49.0234 52.135 51.9053 45.1774 57.0352 40.0476C62.165 34.9178 69.1225 32.0359 76.3772 32.0359C77.2589 32.0359 78.133 32.0765 78.9944 32.1604C72.222 32.8088 65.9343 35.9577 61.3586 40.9924C56.7829 46.0271 54.2476 52.5863 54.2476 59.3896C54.2476 66.193 56.7829 72.7522 61.3586 77.7869C65.9343 82.8216 72.222 85.9705 78.9944 86.6189Z" fill="#EE7E3B"/>
<path d="M119.386 111.612H33.3682C31.98 111.612 30.6486 111.061 29.6669 110.079C28.6853 109.097 28.1338 107.766 28.1338 106.378V60.3045C28.1338 57.8651 29.539 55.5554 31.7979 54.9684C32.2255 54.859 32.6651 54.8035 33.1065 54.8032H119.647C121.036 54.8032 122.367 55.3547 123.349 56.3364C124.33 57.318 124.882 58.6494 124.882 60.0377V106.639C124.883 107.081 124.827 107.521 124.717 107.948C124.148 110.204 121.825 111.612 119.386 111.612Z" fill="#696969"/>
<path d="M124.716 107.948C124.426 109.072 123.771 110.068 122.853 110.778C121.936 111.489 120.808 111.874 119.647 111.874H33.106C31.7178 111.874 30.3864 111.322 29.4047 110.341C28.4231 109.359 27.8716 108.028 27.8716 106.639V60.0427C27.8713 58.882 28.2569 57.7542 28.9675 56.8366C29.6782 55.919 30.6736 55.2635 31.7974 54.9734V106.639C31.7981 106.986 31.9362 107.319 32.1814 107.564C32.4267 107.809 32.7592 107.947 33.106 107.948H124.716Z" fill="#585858"/>
<path d="M93.0003 103.758H37.5C37.3281 103.758 37.1578 103.724 36.9988 103.659C36.8399 103.593 36.6955 103.497 36.5739 103.375C36.4524 103.254 36.356 103.109 36.2903 102.95C36.2247 102.791 36.1911 102.621 36.1914 102.449V64.2326C36.1911 64.0607 36.2247 63.8904 36.2903 63.7314C36.356 63.5725 36.4524 63.4281 36.5739 63.3066C36.6955 63.185 36.8399 63.0886 36.9988 63.0229C37.1578 62.9573 37.3281 62.9237 37.5 62.924L39.0703 62.6699H93.262C93.6091 62.6699 93.9419 62.8078 94.1873 63.0532C94.4327 63.2986 94.5706 63.6315 94.5706 63.9785V100.879L94.3165 102.449C94.3165 102.622 94.2824 102.792 94.2162 102.952C94.1499 103.111 94.0529 103.256 93.9305 103.377C93.8082 103.499 93.663 103.595 93.5034 103.66C93.3438 103.726 93.1728 103.759 93.0003 103.758Z" fill="#F8F7F7"/>
<path d="M94.5708 100.879V102.711C94.5708 103.058 94.4329 103.391 94.1875 103.636C93.9421 103.882 93.6093 104.019 93.2622 104.019H37.2461C37.0742 104.02 36.9039 103.986 36.7449 103.921C36.586 103.855 36.4416 103.759 36.32 103.637C36.1985 103.515 36.1021 103.371 36.0364 103.212C35.9708 103.053 35.9372 102.883 35.9375 102.711V63.971C35.9372 63.799 35.9708 63.6287 36.0364 63.4698C36.1021 63.3109 36.1985 63.1665 36.32 63.0449C36.4416 62.9233 36.586 62.8269 36.7449 62.7613C36.9039 62.6956 37.0742 62.662 37.2461 62.6624H39.0782V100.094C39.0782 100.302 39.1609 100.502 39.3081 100.649C39.4554 100.796 39.6551 100.879 39.8633 100.879H94.5708Z" fill="#E8E8E8"/>
<path d="M43.7864 80.33C43.2661 80.33 42.7671 80.1233 42.3993 79.7555C42.0314 79.3876 41.8247 78.8886 41.8247 78.3684V73.1314C41.8247 71.9184 42.3066 70.755 43.1643 69.8972C44.0221 69.0395 45.1854 68.5576 46.3985 68.5576H51.6355C52.1438 68.5759 52.6253 68.7907 52.9785 69.1568C53.3316 69.523 53.529 70.0118 53.529 70.5205C53.529 71.0292 53.3316 71.5181 52.9785 71.8842C52.6253 72.2503 52.1438 72.4651 51.6355 72.4834H46.3934C46.2202 72.4834 46.0541 72.5522 45.9316 72.6747C45.8092 72.7972 45.7404 72.9633 45.7404 73.1365V78.3735C45.7384 78.8913 45.5319 79.3874 45.166 79.7538C44.8 80.1203 44.3042 80.3273 43.7864 80.33Z" fill="#E8E8E8"/>
<path d="M51.6398 98.1321H46.3926C45.1796 98.1321 44.0162 97.6502 43.1585 96.7924C42.3007 95.9347 41.8188 94.7713 41.8188 93.5583V88.3086C41.8371 87.8002 42.052 87.3188 42.4181 86.9656C42.7842 86.6124 43.2731 86.415 43.7818 86.415C44.2905 86.415 44.7793 86.6124 45.1454 86.9656C45.5116 87.3188 45.7264 87.8002 45.7447 88.3086V93.5456C45.744 93.6313 45.7602 93.7164 45.7924 93.7959C45.8246 93.8753 45.8722 93.9477 45.9323 94.0088C45.9925 94.0699 46.0641 94.1186 46.1431 94.152C46.2221 94.1855 46.3069 94.203 46.3926 94.2037H51.6296C52.1505 94.2037 52.6501 94.4106 53.0185 94.779C53.3868 95.1473 53.5938 95.6469 53.5938 96.1679C53.5938 96.6888 53.3868 97.1884 53.0185 97.5568C52.6501 97.9251 52.1505 98.1321 51.6296 98.1321H51.6398Z" fill="#E8E8E8"/>
<path d="M84.099 98.1321H78.8646C78.3436 98.1321 77.844 97.9251 77.4757 97.5568C77.1073 97.1884 76.9004 96.6888 76.9004 96.1679C76.9004 95.6469 77.1073 95.1473 77.4757 94.779C77.844 94.4106 78.3436 94.2037 78.8646 94.2037H84.099C84.2724 94.2037 84.4388 94.135 84.5617 94.0126C84.6845 93.8902 84.7539 93.7241 84.7546 93.5507V88.3086C84.7729 87.8002 84.9877 87.3188 85.3538 86.9656C85.7199 86.6124 86.2088 86.415 86.7175 86.415C87.2262 86.415 87.7151 86.6124 88.0812 86.9656C88.4473 87.3188 88.6621 87.8002 88.6804 88.3086V93.5456C88.6804 94.7611 88.1979 95.9269 87.3389 96.7869C86.4798 97.6469 85.3145 98.1307 84.099 98.1321Z" fill="#E8E8E8"/>
<path d="M86.7161 80.3298C86.1958 80.3298 85.6969 80.1231 85.329 79.7552C84.9611 79.3873 84.7544 78.8884 84.7544 78.3681V73.1312C84.7537 72.9577 84.6844 72.7916 84.5615 72.6692C84.4386 72.5468 84.2723 72.4781 84.0988 72.4781H78.8644C78.6007 72.4876 78.3378 72.4439 78.0913 72.3495C77.8449 72.2551 77.62 72.1121 77.4301 71.9288C77.2402 71.7456 77.0891 71.526 76.9859 71.2832C76.8828 71.0403 76.8296 70.7791 76.8296 70.5152C76.8296 70.2513 76.8828 69.9901 76.9859 69.7473C77.0891 69.5044 77.2402 69.2848 77.4301 69.1016C77.62 68.9184 77.8449 68.7753 78.0913 68.6809C78.3378 68.5866 78.6007 68.5428 78.8644 68.5523H84.0988C85.3119 68.5523 86.4752 69.0342 87.333 69.8919C88.1907 70.7497 88.6726 71.913 88.6726 73.1261V78.363C88.6733 78.8831 88.4677 79.3822 88.1009 79.7509C87.7341 80.1196 87.2361 80.3278 86.7161 80.3298Z" fill="#E8E8E8"/>
<path d="M117.08 96.6937C117.081 95.1152 116.571 93.5787 115.628 92.3128C114.685 91.0469 113.359 90.1193 111.846 89.6679C111.183 89.4697 110.479 89.6272 109.752 89.6272C105.704 89.6272 102.683 92.6459 102.683 96.6937C102.683 100.742 105.704 103.76 109.752 103.76C110.479 103.76 111.183 103.918 111.846 103.72C113.359 103.268 114.685 102.341 115.628 101.075C116.571 99.8088 117.081 98.2723 117.08 96.6937Z" fill="#89C3E8"/>
<path d="M111.846 103.715C110.752 104.042 109.596 104.109 108.471 103.91C107.346 103.712 106.283 103.253 105.367 102.571C104.451 101.889 103.707 101.002 103.194 99.981C102.682 98.9602 102.415 97.8337 102.415 96.6913C102.415 95.549 102.682 94.4225 103.194 93.4017C103.707 92.3809 104.451 91.494 105.367 90.8117C106.283 90.1295 107.346 89.6708 108.471 89.4722C109.596 89.2736 110.752 89.3407 111.846 89.6681C110.333 90.1186 109.006 91.0457 108.063 92.3111C107.119 93.5766 106.61 95.1129 106.61 96.6913C106.61 98.2698 107.119 99.8061 108.063 101.072C109.006 102.337 110.333 103.264 111.846 103.715Z" fill="#A2CDE8"/>
<path d="M117.081 81.3768H102.422C101.913 81.3585 101.432 81.1437 101.079 80.7776C100.726 80.4115 100.528 79.9226 100.528 79.4139C100.528 78.9052 100.726 78.4163 101.079 78.0502C101.432 77.6841 101.913 77.4693 102.422 77.451H117.081C117.345 77.4415 117.607 77.4852 117.854 77.5796C118.1 77.674 118.325 77.817 118.515 78.0003C118.705 78.1835 118.856 78.4031 118.959 78.6459C119.062 78.8888 119.116 79.15 119.116 79.4139C119.116 79.6778 119.062 79.939 118.959 80.1818C118.856 80.4247 118.705 80.6443 118.515 80.8275C118.325 81.0107 118.1 81.1538 117.854 81.2482C117.607 81.3425 117.345 81.3863 117.081 81.3768Z" fill="#89C3E8"/>
<path d="M117.081 73.5252H102.422C101.913 73.507 101.432 73.2921 101.079 72.926C100.726 72.5599 100.528 72.071 100.528 71.5623C100.528 71.0536 100.726 70.5648 101.079 70.1986C101.432 69.8325 101.913 69.6177 102.422 69.5994H117.081C117.345 69.5899 117.607 69.6337 117.854 69.728C118.1 69.8224 118.325 69.9655 118.515 70.1487C118.705 70.3319 118.856 70.5515 118.959 70.7944C119.062 71.0373 119.116 71.2984 119.116 71.5623C119.116 71.8262 119.062 72.0874 118.959 72.3303C118.856 72.5732 118.705 72.7928 118.515 72.976C118.325 73.1592 118.1 73.3022 117.854 73.3966C117.607 73.491 117.345 73.5347 117.081 73.5252Z" fill="#89C3E8"/>
<path d="M65.3827 94.0512C70.7351 94.0512 75.0741 93.4756 75.0741 92.7655C75.0741 92.0554 70.7351 91.4797 65.3827 91.4797C60.0304 91.4797 55.6914 92.0554 55.6914 92.7655C55.6914 93.4756 60.0304 94.0512 65.3827 94.0512Z" fill="#E8E8E8"/>
<path d="M74.6746 83.3411C74.6742 81.2057 73.9491 79.1337 72.6178 77.4641C71.2866 75.7945 69.4281 74.6262 67.3464 74.1503C66.6731 73.9979 65.9717 74.1783 65.2526 74.1783C60.0487 74.1783 56.0898 78.1371 56.0898 83.3411C56.0898 88.545 60.0487 92.5039 65.2526 92.5039C65.9031 92.5039 66.5384 92.6995 67.1508 92.5725C69.2758 92.1349 71.1848 90.9776 72.5556 89.2958C73.9263 87.6139 74.6748 85.5107 74.6746 83.3411Z" fill="#EE8E58"/>
<path d="M67.3465 92.5318C65.9667 92.845 64.5341 92.8435 63.155 92.5274C61.7759 92.2113 60.4856 91.5887 59.3799 90.7059C58.2743 89.823 57.3815 88.7026 56.768 87.4276C56.1545 86.1527 55.8359 84.7559 55.8359 83.341C55.8359 81.9261 56.1545 80.5294 56.768 79.2544C57.3815 77.9795 58.2743 76.859 59.3799 75.9762C60.4856 75.0933 61.7759 74.4708 63.155 74.1547C64.5341 73.8386 65.9667 73.8371 67.3465 74.1503C65.2644 74.6255 63.4053 75.7936 62.0737 77.4633C60.7422 79.133 60.017 81.2054 60.017 83.341C60.017 85.4767 60.7422 87.5491 62.0737 89.2188C63.4053 90.8885 65.2644 92.0566 67.3465 92.5318Z" fill="#EE7E3B"/>
<path d="M136.583 18.9396H16.1711C13.6402 18.9396 11.582 17.1609 11.582 14.6199C11.582 12.333 13.0355 10.4095 15.2538 10.0919C15.4684 10.0615 15.6849 10.0462 15.9017 10.0461H136.853C137.532 10.0469 138.203 10.1985 138.816 10.49C139.43 10.7815 139.971 11.2056 140.4 11.7318C140.83 12.2579 141.137 12.8729 141.3 13.5323C141.463 14.1918 141.478 14.8792 141.343 15.5448C140.918 17.6335 138.799 18.9396 136.583 18.9396Z" fill="#696969"/>
<path d="M141.332 15.5433C141.123 16.5774 140.562 17.5073 139.746 18.1756C138.929 18.8438 137.907 19.2093 136.852 19.21H15.901C14.7253 19.2384 13.584 18.8128 12.7138 18.0218C11.8437 17.2307 11.3117 16.1349 11.2283 14.9619C11.1449 13.7889 11.5166 12.6288 12.266 11.7226C13.0155 10.8164 14.0852 10.2337 15.253 10.0955V10.9645C15.253 12.1775 15.7349 13.3409 16.5926 14.1986C17.4504 15.0564 18.6138 15.5383 19.8268 15.5383L141.332 15.5433Z" fill="#585858"/>
<defs>
<filter id="filter0_d" x="0.422543" y="0.210384" width="152.171" height="116.155" filterUnits="userSpaceOnUse" color-interpolation-filters="sRGB">
<feFlood flood-opacity="0" result="BackgroundImageFix"/>
<feColorMatrix in="SourceAlpha" type="matrix" values="0 0 0 0 0 0 0 0 0 0 0 0 0 0 0 0 0 0 127 0" result="hardAlpha"/>
<feOffset/>
<feGaussianBlur stdDeviation="8.92105"/>
<feColorMatrix type="matrix" values="0 0 0 0 0.816667 0 0 0 0 0.816667 0 0 0 0 0.816667 0 0 0 0.25 0"/>
<feBlend mode="normal" in2="BackgroundImageFix" result="effect1_dropShadow"/>
<feBlend mode="normal" in="SourceGraphic" in2="effect1_dropShadow" result="shape"/>
</filter>
</defs>
</svg>
