<svg width="137" height="155" viewBox="0 0 137 155" fill="none" xmlns="http://www.w3.org/2000/svg">
<path fill-rule="evenodd" clip-rule="evenodd" d="M29.6804 91.5156C12.0738 95.0897 0.552734 101.031 0.552734 107.762C0.552734 111.228 1.96672 118.824 8.9611 117.309C17.4856 112.807 31.8562 109.371 49.091 107.886C48.145 103.092 45.15 99.6612 41.5165 96.317C38.8627 93.8746 36.7443 92.0406 29.6804 91.5156Z" fill="#4994C1"/>
<path fill-rule="evenodd" clip-rule="evenodd" d="M107.169 91.5156C102.361 98.6023 88.7258 94.7564 87.7578 107.886C104.993 109.372 119.363 112.807 127.888 117.309C135.177 117.786 136.304 111.228 136.304 107.762C136.304 101.031 124.775 95.0897 107.169 91.5156V91.5156Z" fill="#4994C1"/>
<path fill-rule="evenodd" clip-rule="evenodd" d="M127.887 117.31C123.443 119.662 117.419 121.712 110.226 123.352C108.887 123.661 108.732 124.42 108.732 125.704V141.672C108.732 142.276 108.848 142.662 109.545 142.508C125.805 138.895 136.304 133.185 136.304 126.764V107.762C136.304 111.229 133.253 114.478 127.887 117.31V117.31Z" fill="#89C3E8"/>
<path fill-rule="evenodd" clip-rule="evenodd" d="M68.4245 127.553C42.8197 127.553 20.5209 123.414 8.9611 117.309C3.60343 114.478 0.552734 111.229 0.552734 107.762V126.764C0.552734 137.695 30.9425 146.554 68.4245 146.554V153.896C68.4245 154.012 68.4322 154.113 68.4478 154.205H69.6014L92.024 138.02C92.9607 137.548 92.9607 136.551 92.024 136.079L69.3305 119.708C68.6724 119.375 68.4245 119.445 68.4245 120.211V127.553Z" fill="#89C3E8"/>
<g filter="url(#filter0_d)">
<path fill-rule="evenodd" clip-rule="evenodd" d="M68.4245 18.5593C42.5875 18.5593 21.6436 39.4868 21.6436 65.3039C21.6436 75.0134 24.6089 84.0342 29.6805 91.5156C34.4965 98.6023 41.2093 104.304 49.0913 107.886C54.9835 110.563 61.5338 112.049 68.4248 112.049C75.3234 112.049 81.866 110.564 87.7582 107.886C95.6403 104.304 102.361 98.6025 107.169 91.5156C112.248 84.0345 115.206 75.0134 115.206 65.3039C115.205 39.4868 94.2618 18.5593 68.4245 18.5593V18.5593Z" fill="white"/>
</g>
<path fill-rule="evenodd" clip-rule="evenodd" d="M129.754 116.257V131.599C129.754 133.247 129.057 134.848 127.756 136.38C133.199 133.533 136.304 130.253 136.304 126.764V107.762C136.304 110.803 133.951 113.681 129.754 116.257Z" fill="#78B8E1"/>
<path fill-rule="evenodd" clip-rule="evenodd" d="M68.4241 18.5593C66.3335 18.5593 64.2662 18.6985 62.2456 18.9615C85.3419 21.824 103.212 41.4984 103.212 65.3503C103.212 89.0785 85.5275 108.675 62.6094 111.692C64.5141 111.932 66.4573 112.048 68.4241 112.048C75.3228 112.048 81.8654 110.563 87.7576 107.886C95.6397 104.304 102.36 98.602 107.168 91.5151C112.248 84.0339 115.205 75.0128 115.205 65.3034C115.205 39.4868 94.2615 18.5593 68.4241 18.5593V18.5593Z" fill="#F5FAFF"/>
<path d="M47.9202 63.4132C49.9041 63.7367 51.4244 64.4807 52.4811 65.6452C53.5378 66.7881 54.0661 68.2114 54.0661 69.915C54.0661 71.2304 53.7211 72.4488 53.031 73.5702C52.3409 74.67 51.2843 75.5541 49.861 76.2226C48.4593 76.8911 46.7341 77.2254 44.6855 77.2254C43.0897 77.2254 41.5155 77.0205 39.9628 76.6108C38.4317 76.1795 37.1271 75.5757 36.0488 74.7994L38.0867 70.7883C38.9493 71.4353 39.9413 71.942 41.0626 72.3086C42.2055 72.6537 43.37 72.8262 44.5561 72.8262C45.8715 72.8262 46.9066 72.5782 47.6614 72.0822C48.4162 71.5647 48.7936 70.8422 48.7936 69.915C48.7936 68.0604 47.3811 67.1331 44.5561 67.1331H42.1624V63.672L46.8204 58.3994H37.181V54.1943H53.031V57.5908L47.9202 63.4132Z" fill="#585858"/>
<path d="M67.3865 62.6369C68.8313 62.6369 70.1468 62.928 71.3328 63.5103C72.5189 64.0925 73.457 64.9227 74.147 66.001C74.8371 67.0576 75.1821 68.2868 75.1821 69.6885C75.1821 71.1981 74.8048 72.5243 74.05 73.6672C73.2952 74.8101 72.2601 75.6943 70.9447 76.3197C69.6508 76.9235 68.206 77.2254 66.6102 77.2254C63.4402 77.2254 60.9602 76.255 59.1704 74.3142C57.3805 72.3733 56.4856 69.6023 56.4856 66.001C56.4856 63.4348 56.9708 61.2352 57.9412 59.4022C58.9116 57.5692 60.2594 56.1783 61.9846 55.2294C63.7313 54.2806 65.7476 53.8062 68.0335 53.8062C69.2411 53.8062 70.3948 53.9463 71.4946 54.2267C72.6159 54.4854 73.5648 54.8628 74.3411 55.3588L72.4003 59.2081C71.2789 58.4533 69.8665 58.076 68.1628 58.076C66.2436 58.076 64.7233 58.6366 63.6019 59.758C62.4806 60.8794 61.8767 62.5075 61.7905 64.6424C63.1275 63.3054 64.9928 62.6369 67.3865 62.6369ZM66.3191 73.3114C67.4404 73.3114 68.3461 73.0095 69.0362 72.4057C69.7478 71.8019 70.1037 70.9824 70.1037 69.9473C70.1037 68.9122 69.7478 68.0927 69.0362 67.4889C68.3461 66.8636 67.4189 66.5509 66.2544 66.5509C65.1114 66.5509 64.1734 66.8743 63.4402 67.5213C62.707 68.1467 62.3404 68.9553 62.3404 69.9473C62.3404 70.9393 62.6962 71.748 63.4078 72.3733C64.1195 72.9987 65.0899 73.3114 66.3191 73.3114Z" fill="#585858"/>
<path d="M86.7856 77.2254C84.9095 77.2254 83.2382 76.7618 81.7718 75.8345C80.3054 74.9072 79.1517 73.5702 78.3107 71.8234C77.4912 70.0551 77.0815 67.9526 77.0815 65.5158C77.0815 63.079 77.4912 60.9872 78.3107 59.2405C79.1517 57.4721 80.3054 56.1244 81.7718 55.1971C83.2382 54.2698 84.9095 53.8062 86.7856 53.8062C88.6618 53.8062 90.333 54.2698 91.7994 55.1971C93.2658 56.1244 94.4087 57.4721 95.2282 59.2405C96.0692 60.9872 96.4897 63.079 96.4897 65.5158C96.4897 67.9526 96.0692 70.0551 95.2282 71.8234C94.4087 73.5702 93.2658 74.9072 91.7994 75.8345C90.333 76.7618 88.6618 77.2254 86.7856 77.2254ZM86.7856 72.7938C88.1658 72.7938 89.244 72.2008 90.0203 71.0148C90.8182 69.8287 91.2172 67.9957 91.2172 65.5158C91.2172 63.0358 90.8182 61.2028 90.0203 60.0168C89.244 58.8307 88.1658 58.2377 86.7856 58.2377C85.427 58.2377 84.3488 58.8307 83.5509 60.0168C82.7746 61.2028 82.3864 63.0358 82.3864 65.5158C82.3864 67.9957 82.7746 69.8287 83.5509 71.0148C84.3488 72.2008 85.427 72.7938 86.7856 72.7938Z" fill="#585858"/>
<path d="M97.3228 50.5612C96.5213 51.3627 96.5213 52.6624 97.3228 53.4642C97.7237 53.8651 98.2492 54.0656 98.7745 54.0656C99.2997 54.0656 99.8252 53.8651 100.226 53.4642L100.234 53.4565C101.035 52.655 101.031 51.359 100.23 50.5575C99.428 49.7554 98.1249 49.7597 97.3228 50.5612V50.5612Z" fill="#585858"/>
<defs>
<filter id="filter0_d" x="3.80145" y="0.71722" width="129.247" height="129.174" filterUnits="userSpaceOnUse" color-interpolation-filters="sRGB">
<feFlood flood-opacity="0" result="BackgroundImageFix"/>
<feColorMatrix in="SourceAlpha" type="matrix" values="0 0 0 0 0 0 0 0 0 0 0 0 0 0 0 0 0 0 127 0" result="hardAlpha"/>
<feOffset/>
<feGaussianBlur stdDeviation="8.92105"/>
<feColorMatrix type="matrix" values="0 0 0 0 0.702778 0 0 0 0 0.839667 0 0 0 0 0.916667 0 0 0 0.25 0"/>
<feBlend mode="normal" in2="BackgroundImageFix" result="effect1_dropShadow"/>
<feBlend mode="normal" in="SourceGraphic" in2="effect1_dropShadow" result="shape"/>
</filter>
</defs>
</svg>
