<svg width="132" height="136" viewBox="0 0 132 136" fill="none" xmlns="http://www.w3.org/2000/svg">
<path d="M85.0506 86.1671L82.9007 79.5522C82.8456 79.3592 82.7905 79.1663 82.7905 78.9458L81.8809 43.9419V47.4974C81.8809 48.7653 81.6604 50.0607 81.2194 51.2734L76.6992 64.1449L77.9946 66.0743C81.2194 70.8425 82.9283 76.4377 82.9283 82.1706C82.9283 83.5487 82.7905 84.9268 82.5148 86.2498L81.2194 92.6166H83.259C84.3064 92.6166 85.1608 91.7622 85.1608 90.7149V87.1318C85.2159 86.801 85.1608 86.4703 85.0506 86.1671Z" fill="#E6B8B8"/>
<path d="M89.405 45.0994C88.8262 40.6895 85.4085 41.1029 84.8297 36.7206C84.2509 32.3106 87.6686 31.8972 87.0898 27.4872C86.511 23.0773 83.0933 23.4907 82.5145 19.1083V16.4348H50.5424V19.1083C49.9636 23.5183 46.5459 23.1049 45.9671 27.4872C45.3883 31.8972 48.806 32.3106 48.2272 36.7206C47.6484 41.1305 44.2307 40.7171 43.6519 45.0994V46.1468C43.6519 48.214 45.3883 49.8677 47.5106 49.8677H84.9951C87.4205 49.8677 89.3775 47.9659 89.3775 45.6507L89.405 45.0994Z" fill="#6E6E6E"/>
<path d="M81.3846 30.9325C82.7627 27.8731 74.6594 18.7225 72.5647 16.4348H70.7732L62.0635 20.0179L51.1489 22.8844C51.1489 22.8844 55.3108 32.6414 54.8423 35.2598C54.3737 37.8782 50.0189 42.2881 53.3539 47.5249C53.9051 48.4069 55.0352 49.1786 56.496 49.8677H83.3139C86.1253 44.7411 84.8023 42.2605 82.9556 40.0004C80.6404 37.134 79.786 34.4605 81.3846 30.9325Z" fill="#585858"/>
<path d="M65.7017 91.2659H67.2727H77.1675L74.8247 108.354L73.0608 117.918L73.2537 119.793L72.3717 124.947C71.7653 124.671 71.1038 124.506 70.3872 124.506H67.7688C67.2451 124.506 66.749 124.589 66.2805 124.754L65.7292 119.765L66.1151 117.698L65.7292 108.244L65.7017 91.2659Z" fill="#F9CFCF"/>
<path d="M64.0486 125.609L64.1864 125.333L65.6747 119.765L66.226 124.782L66.6394 126.821H71.9313L72.3172 124.919L73.1992 119.765L74.1639 125.333L74.2741 125.609C74.4119 125.939 74.4946 126.27 74.4946 126.628C74.5497 128.006 73.4473 129.164 72.0692 129.164H66.1984C64.8479 129.164 63.7729 128.089 63.7729 126.739C63.7729 126.353 63.8832 125.967 64.0486 125.609Z" fill="#F9A7A7"/>
<path d="M63.7722 126.683C63.7722 126.298 63.8824 125.939 64.0478 125.609L64.1856 125.333L65.674 119.765L66.2252 124.754C66.6938 124.589 67.1899 124.506 67.7136 124.506H70.332C71.0486 124.506 71.7101 124.671 72.3165 124.947L73.1984 119.793L74.1631 125.36L74.2734 125.636C74.4112 125.967 74.4939 126.298 74.4939 126.656C74.4939 126.794 74.4939 126.904 74.4663 127.042C74.4663 127.069 74.4663 127.069 74.4663 127.097C74.4663 127.18 74.4387 127.262 74.4112 127.373C74.3836 127.428 74.3836 127.51 74.3561 127.565C74.3285 127.648 74.3009 127.731 74.2458 127.814C74.2182 127.869 74.1907 127.924 74.1631 128.006C74.1356 128.089 74.0804 128.144 74.0253 128.199C73.9702 128.255 73.9426 128.31 73.8875 128.365C73.8324 128.42 73.7772 128.475 73.7221 128.53C73.667 128.585 73.6119 128.64 73.5292 128.696C73.4741 128.751 73.4189 128.778 73.3638 128.833C73.2811 128.888 73.226 128.916 73.1433 128.971C73.0882 128.999 73.0331 129.026 72.9779 129.054C72.8953 129.081 72.785 129.109 72.6748 129.137C72.6196 129.164 72.5645 129.164 72.5094 129.192C72.344 129.219 72.2062 129.247 72.0408 129.247H66.1701C65.674 129.247 65.2054 129.081 64.8196 128.833C64.5715 128.668 64.351 128.447 64.1581 128.172C63.8824 127.786 63.7446 127.317 63.7446 126.821C63.7722 126.711 63.7722 126.711 63.7722 126.683Z" fill="#6E6E6E"/>
<path d="M68.6231 97.8811H67.052H57.1572L59.5 114.97L61.264 124.534L61.0711 126.408L61.953 131.562C62.5594 131.286 63.2209 131.121 63.9375 131.121H66.5559C67.0796 131.121 67.5757 131.204 68.0443 131.369L68.5955 126.38L68.2096 124.313L68.5955 114.859L68.6231 97.8811Z" fill="#F9CFCF"/>
<path d="M77.0017 39.78H72.3162V36.3623C70.69 37.0514 68.926 37.4372 67.0518 37.4372C65.1776 37.4372 63.4136 37.0514 61.7874 36.3623V39.78H57.1019C54.4008 39.78 52.1958 41.6542 52.1958 43.9695V47.4974C52.1958 48.7653 52.4163 50.0607 52.8573 51.2734L57.3775 64.1449H67.0518H76.7261L81.2463 51.2734C81.6873 50.0607 81.9078 48.7653 81.9078 47.4974V43.9419C81.9078 41.6267 79.7028 39.78 77.0017 39.78Z" fill="#F9CFCF"/>
<path d="M80.5301 19.1083C80.5025 19.1083 80.475 19.1083 80.4474 19.1083V17.868C80.4474 10.5365 74.4664 4.6106 67.0522 4.6106C59.638 4.6106 53.657 10.564 53.657 17.868V19.1083C53.6294 19.1083 53.6019 19.1083 53.5743 19.1083C51.3142 19.1083 49.4951 20.9274 49.4951 23.1599C49.4951 25.3924 51.3142 27.2116 53.5743 27.2116C53.7121 27.2116 53.8775 27.2116 54.0153 27.184C55.3934 33.0547 60.7129 37.4371 67.0522 37.4371C73.3915 37.4371 78.711 33.0547 80.0891 27.184C80.2269 27.2116 80.3923 27.2116 80.5301 27.2116C82.7902 27.2116 84.6093 25.3924 84.6093 23.1599C84.6093 20.8998 82.7902 19.1083 80.5301 19.1083Z" fill="#F9CFCF"/>
<path d="M67.0521 37.4095C73.3914 37.4095 78.7109 33.0271 80.089 27.1564C80.2269 27.184 80.3922 27.184 80.53 27.184C82.7901 27.184 84.6092 25.3649 84.6092 23.1323C84.6092 20.8998 82.7901 19.0807 80.53 19.0807C80.5025 19.0807 80.4749 19.0807 80.4473 19.0807V17.8404C80.4473 10.5089 74.4664 4.58301 67.0521 4.58301C65.0677 4.58301 63.1659 5.024 61.457 5.79574L62.7525 18.3641C69.7808 18.6673 71.4345 15.7732 71.4345 15.7732C71.4345 15.7732 77.9943 16.9584 78.2699 22.1125C78.5456 27.2667 75.1554 37.4095 67.0521 37.4095Z" fill="#E6B8B8"/>
<g opacity="0.6">
<path opacity="0.6" d="M66.2253 124.754C66.6939 124.589 67.19 124.506 67.7137 124.506H66.1978L66.2253 124.754Z" fill="#E6B8B8"/>
<path opacity="0.6" d="M77.14 91.2661H75.4036L73.0608 108.355L71.2968 117.919L71.4897 119.793L70.6904 124.534C71.2968 124.561 71.848 124.727 72.3717 124.975L73.2537 119.82L73.0608 117.946L74.8248 108.382L77.14 91.2661Z" fill="#E6B8B8"/>
</g>
<path d="M78.0221 66.0743L76.7266 64.1449L81.2468 51.2734C81.6878 50.0607 81.9083 48.7653 81.9083 47.4974V43.9419C81.9083 43.6663 81.8808 43.4182 81.8256 43.1426H52.3341C52.279 43.3906 52.2515 43.6663 52.2515 43.9419V47.4974C52.2515 48.7653 52.472 50.0607 52.913 51.2734L57.4331 64.1449L56.1377 66.0743C52.913 70.8425 51.2041 76.4376 51.2041 82.1706C51.2041 83.5487 51.3419 84.9268 51.6175 86.2498L53.9603 97.8534H67.135H80.3097L82.6525 86.2498C82.9281 84.8992 83.0659 83.5211 83.0659 82.1706C82.9833 76.4376 81.2468 70.815 78.0221 66.0743Z" fill="#89C3E8"/>
<path d="M61.0166 18.5296H51.0942C50.4878 18.5296 49.9917 18.0335 49.9917 17.4271V11.1705C49.9917 5.29977 54.7324 0.559082 60.6031 0.559082H65.8399C68.4859 0.559082 70.6357 2.70893 70.6357 5.3549V8.88285C70.6633 14.2023 66.3361 18.5296 61.0166 18.5296Z" fill="#6E6E6E"/>
<path d="M81.9355 17.0963H79.9786C74.8245 17.0963 70.6626 12.9344 70.6626 7.7803V4.69334C70.6626 3.09474 71.958 1.79932 73.5566 1.79932H74.1354C79.0691 1.79932 83.038 5.79583 83.038 10.7019V15.9938C83.038 16.6002 82.5419 17.0963 81.9355 17.0963Z" fill="#6E6E6E"/>
<path d="M70.2493 132.224L70.1115 131.948L68.6231 126.38L68.0719 131.397L67.6585 133.436H62.3665L61.9807 131.534L61.0987 126.38L60.134 131.948L60.0237 132.224C59.8859 132.554 59.8033 132.885 59.8033 133.243C59.7481 134.621 60.8506 135.779 62.2287 135.779H68.0995C69.45 135.779 70.5249 134.704 70.5249 133.354C70.5249 132.968 70.4422 132.582 70.2493 132.224Z" fill="#F9A7A7"/>
<path d="M70.5251 133.298C70.5251 132.913 70.4149 132.554 70.2495 132.224L70.1117 131.948L68.6233 126.38L68.0721 131.369C67.6035 131.204 67.1074 131.121 66.5837 131.121H63.9378C63.2211 131.121 62.5597 131.286 61.9533 131.562L61.0713 126.408L60.1066 131.975L59.9964 132.251C59.8586 132.582 59.7759 132.913 59.7759 133.271C59.7759 133.409 59.7759 133.519 59.8034 133.657C59.8034 133.684 59.8034 133.684 59.8034 133.712C59.8034 133.795 59.831 133.877 59.8586 133.988C59.8861 134.043 59.8861 134.125 59.9137 134.18C59.9413 134.263 59.9688 134.346 60.0239 134.429C60.0515 134.484 60.0791 134.539 60.1066 134.621C60.1342 134.704 60.1893 134.759 60.2444 134.814C60.2996 134.87 60.3271 134.925 60.3822 134.98C60.4374 135.035 60.4925 135.09 60.5476 135.145C60.6027 135.2 60.6579 135.255 60.7406 135.311C60.7957 135.366 60.8508 135.393 60.9059 135.448C60.9886 135.503 61.0437 135.531 61.1264 135.586C61.1816 135.614 61.2367 135.641 61.2918 135.669C61.3745 135.696 61.4847 135.724 61.595 135.752C61.6501 135.779 61.7052 135.779 61.7604 135.807C61.9257 135.834 62.0635 135.862 62.2289 135.862H68.0996C68.5958 135.862 69.0643 135.696 69.4502 135.448C69.6983 135.283 69.9187 135.062 70.1117 134.787C70.3873 134.401 70.5251 133.932 70.5251 133.436C70.5251 133.326 70.5251 133.326 70.5251 133.298Z" fill="#6E6E6E"/>
<path d="M56.0826 66.0742L56.1101 66.0191L50.9009 58.4395C50.6253 58.0536 50.6804 57.5024 51.0662 57.1716L54.043 54.5808L52.8853 51.2733C52.4444 50.0606 52.2239 48.7652 52.2239 47.4973V43.9418C52.2239 43.6662 52.2514 43.4181 52.3065 43.1425H52.968L52.5822 42.5361L42.2188 54.0295C40.8958 55.4903 40.8958 57.7229 42.2464 59.1561L50.6528 68.3619C50.9009 68.6375 50.9836 69.0234 50.8182 69.3817L49.5228 72.4962C49.0542 73.6538 48.9991 74.9216 49.385 76.1068L51.0387 81.2885H51.1489C51.3143 75.8863 53.0232 70.5944 56.0826 66.0742Z" fill="#F9CFCF"/>
<path d="M109.223 22.1125C109.25 22.2228 109.25 22.3606 109.25 22.4709V33.1374C109.25 33.2752 109.223 33.3855 109.223 33.5233H116.582V22.1125H109.223Z" fill="#585858"/>
<path d="M119.062 42.7016H128.985C130.363 42.7016 131.465 41.5991 131.465 40.221V15.8561C131.465 14.478 130.363 13.3755 128.985 13.3755H119.062C117.684 13.3755 116.582 14.478 116.582 15.8561V40.1935C116.582 41.5716 117.684 42.7016 119.062 42.7016Z" fill="#6E6E6E"/>
<path d="M107.292 20.4866H98.0592C96.9567 20.4866 96.0747 21.3686 96.0747 22.471V33.1376C96.0747 34.2401 96.9567 35.1221 98.0592 35.1221H107.292C108.395 35.1221 109.277 34.2401 109.277 33.1376V22.471C109.277 21.3686 108.367 20.4866 107.292 20.4866Z" fill="#6E6E6E"/>
<path d="M120.165 13.3756H127.854V10.5643C127.854 10.013 127.413 9.57202 126.862 9.57202H121.157C120.606 9.57202 120.165 10.013 120.165 10.5643V13.3756Z" fill="#EE8E58"/>
<path d="M116.581 33.5233H112.723V22.1125H116.581V33.5233Z" fill="#585858"/>
<path d="M22.5114 66.543C22.4839 66.6532 22.4839 66.791 22.4839 66.9288V77.5954C22.4839 77.7332 22.5114 77.8434 22.5114 77.9813H15.1523V66.5705L22.5114 66.543Z" fill="#585858"/>
<path d="M12.672 87.1318H2.74964C1.37153 87.1318 0.269043 86.0293 0.269043 84.6512V60.3138C0.269043 58.9357 1.37153 57.8333 2.74964 57.8333H12.672C14.0501 57.8333 15.1526 58.9357 15.1526 60.3138V84.6512C15.1526 86.0018 14.0501 87.1318 12.672 87.1318Z" fill="#6E6E6E"/>
<path d="M24.4685 64.9165H33.7018C34.8043 64.9165 35.6863 65.7985 35.6863 66.901V77.5675C35.6863 78.67 34.8043 79.552 33.7018 79.552H24.4685C23.366 79.552 22.484 78.67 22.484 77.5675V66.901C22.4564 65.7985 23.366 64.9165 24.4685 64.9165Z" fill="#6E6E6E"/>
<path d="M11.5692 57.8058H3.87939V54.9944C3.87939 54.4432 4.32039 54.0022 4.87163 54.0022H10.577C11.1282 54.0022 11.5692 54.4432 11.5692 54.9944V57.8058Z" fill="#EE8E58"/>
<path d="M15.1523 66.543H19.011V77.9537H15.1523V66.543Z" fill="#585858"/>
<path d="M17.4953 57.9159V57.9435C17.3851 58.3845 17.6331 58.8255 18.0741 58.9357L20.5272 59.5972C20.9681 59.7075 21.4091 59.4594 21.5194 59.0184V58.9908C21.6296 58.5498 21.3816 58.1089 20.9406 57.9986L18.4876 57.3371C18.0466 57.2269 17.6056 57.4749 17.4953 57.9159Z" fill="#E0EBFC"/>
<path d="M17.0548 53.9194C16.8067 53.5059 16.9446 53.0098 17.3304 52.7618L19.5354 51.4939C19.9213 51.2734 20.4174 51.4112 20.6654 51.7971L20.693 51.8246C20.9135 52.2105 20.7757 52.7066 20.3898 52.9547L18.1848 54.2226C17.7714 54.4431 17.2753 54.3328 17.0548 53.9194Z" fill="#E0EBFC"/>
<path d="M13.8297 51.6041H13.8021C13.3612 51.4939 13.1131 51.0253 13.2233 50.6119L13.8848 48.1588C13.9951 47.7178 14.4636 47.4698 14.8771 47.58H14.9046C15.3456 47.6903 15.5937 48.1588 15.4834 48.5723L14.8219 51.0253C14.7117 51.4387 14.2707 51.7144 13.8297 51.6041Z" fill="#E0EBFC"/>
<path d="M114.239 13.4858V13.5134C114.349 13.9544 114.101 14.3954 113.66 14.5056L111.207 15.1671C110.766 15.2774 110.325 15.0293 110.215 14.5883V14.5608C110.104 14.1198 110.352 13.6788 110.793 13.5685L113.246 12.907C113.687 12.7692 114.128 13.0448 114.239 13.4858Z" fill="#E0EBFC"/>
<path d="M114.68 9.4892C114.928 9.07576 114.79 8.57965 114.404 8.33159L112.199 7.06373C111.813 6.84323 111.317 6.98104 111.069 7.36691L111.042 7.39447C110.821 7.78034 110.959 8.27646 111.345 8.52452L113.55 9.79238C113.963 10.0129 114.459 9.87507 114.68 9.4892Z" fill="#E0EBFC"/>
<path d="M117.905 7.14634H117.932C118.373 7.03609 118.622 6.5951 118.511 6.15411L117.85 3.70108C117.74 3.26008 117.299 3.01202 116.858 3.12227H116.83C116.389 3.23252 116.141 3.67351 116.251 4.11451L116.913 6.56754C117.023 7.00853 117.464 7.25659 117.905 7.14634Z" fill="#E0EBFC"/>
<path d="M80.227 97.881L82.5698 86.2774C82.8454 84.9268 82.9832 83.5487 82.9832 82.1982C82.9832 76.4653 81.2744 70.8426 78.0496 66.1019L76.7542 64.1725L81.2744 51.301C81.7154 50.0883 81.9359 48.7929 81.9359 47.525V45.9815L73.9428 43.9695C70.6905 56.1244 69.1746 64.1725 69.1746 64.1725C69.1746 64.1725 74.9626 76.6857 74.5492 82.3636C74.1358 88.0138 73.364 97.9086 57.2126 97.9086H57.1851H67.1074H80.227V97.881Z" fill="#6DB8E8"/>
<path d="M70.0565 47.3045L81.9082 46.8635V43.9419C81.9082 41.6267 79.7032 39.7524 77.0022 39.7524H72.3166V36.3347C70.8558 36.9686 69.2296 37.327 67.5483 37.3821C67.5483 41.0754 71.4622 41.7645 72.7851 41.7645C74.1357 41.7645 73.9152 43.5009 73.9152 43.5009L70.0565 47.3045Z" fill="#E6B8B8"/>
<path d="M50.2111 43.1426H82.7345C83.2581 43.1426 83.7267 43.556 83.8921 44.1624L85.4355 50.7497C85.656 51.742 84.9394 52.6515 84.085 52.4861L50.1009 45.7885C49.8253 45.7334 49.6323 45.4578 49.6323 45.1546V43.8041C49.6323 43.4458 49.8804 43.1426 50.2111 43.1426Z" fill="#E0EBFC"/>
<g opacity="0.6">
<path opacity="0.6" d="M68.623 97.8811H67.052H66.5007V114.887L66.1149 124.341L66.5007 126.408L65.9771 131.121H66.5559C67.0795 131.121 67.5757 131.204 68.0442 131.369L68.5955 126.38L68.2096 124.313L68.5955 114.859V97.8811H68.623Z" fill="#E6B8B8"/>
<path opacity="0.6" d="M61.9801 131.562C62.5865 131.286 63.248 131.121 63.9646 131.121H61.8975L61.9801 131.562Z" fill="#E6B8B8"/>
</g>
<path d="M85.436 50.7497L83.8925 44.1624C83.7547 43.556 83.2861 43.1426 82.7349 43.1426H76.7539C77.2776 43.1426 77.7461 43.556 77.9115 44.1624L79.455 50.7497C79.5101 51.0254 79.5101 51.3285 79.4274 51.5766L84.0854 52.4861C84.9399 52.6791 85.6565 51.742 85.436 50.7497Z" fill="#C3D3ED"/>
<path d="M56.1099 66.019L50.9006 58.4394C50.625 58.0259 50.6802 57.5023 51.066 57.1715L54.0427 54.5531L53.1607 52.0725C51.2038 53.175 47.6208 55.2973 47.731 56.7305C47.8688 58.6874 54.1254 66.1568 53.6017 68.2515C53.0781 70.3462 50.1565 73.0749 51.3692 78.8078C51.8929 74.2325 53.5191 69.8501 56.1099 66.019Z" fill="#E6B8B8"/>
<path d="M66.7488 135.779H68.0994C68.5955 135.779 69.064 135.614 69.4499 135.366C69.698 135.2 69.9185 134.98 70.1114 134.704C70.387 134.318 70.5248 133.85 70.5248 133.354C70.5248 133.326 70.5248 133.326 70.5248 133.298C70.5248 132.913 70.4146 132.554 70.2492 132.224L70.1114 131.948L68.623 126.38L68.0718 131.369C67.6032 131.204 67.1071 131.121 66.5834 131.121H66.5283C66.9969 132.251 67.7686 134.511 66.7488 135.779Z" fill="#585858"/>
<path d="M72.5648 129.109C72.6199 129.109 72.675 129.081 72.7301 129.054C72.8404 129.026 72.9231 128.998 73.0333 128.971C73.0885 128.943 73.1436 128.916 73.1987 128.888C73.2814 128.861 73.3641 128.805 73.4192 128.75C73.4743 128.723 73.5294 128.668 73.5846 128.613C73.6397 128.557 73.6948 128.502 73.7775 128.447C73.8326 128.392 73.8878 128.337 73.9429 128.282C73.998 128.227 74.0256 128.172 74.0807 128.116C74.1358 128.061 74.1634 127.979 74.2185 127.923C74.2461 127.868 74.2736 127.813 74.3012 127.731C74.3287 127.648 74.3839 127.565 74.4114 127.482C74.439 127.427 74.439 127.345 74.4666 127.29C74.4941 127.207 74.5217 127.124 74.5217 127.014C74.5217 126.986 74.5217 126.986 74.5217 126.959C74.5217 126.849 74.5492 126.711 74.5492 126.573C74.5492 126.215 74.4666 125.884 74.3288 125.553L74.2185 125.278L73.2538 119.71L72.3718 124.864C71.9584 124.671 71.545 124.533 71.0764 124.478C71.104 124.506 71.104 124.533 71.1591 124.561C71.9308 124.699 71.7655 128.833 70.5527 129.081H72.0962C72.234 129.164 72.3994 129.136 72.5648 129.109Z" fill="#585858"/>
</svg>
