<svg width="374" height="364" viewBox="0 0 374 364" fill="none" xmlns="http://www.w3.org/2000/svg">
<path d="M248.38 25.0684H82.7628C80.3093 25.0684 78.3203 27.0573 78.3203 29.5108V106.817C78.3203 109.27 80.3093 111.259 82.7628 111.259H248.38C250.834 111.259 252.823 109.27 252.823 106.817V29.5108C252.823 27.0573 250.834 25.0684 248.38 25.0684Z" fill="#C3D3ED"/>
<g opacity="0.5">
<path opacity="0.5" d="M252.821 29.503C252.821 28.3248 252.353 27.1948 251.52 26.3617C250.687 25.5286 249.557 25.0605 248.378 25.0605H227.951L225.811 42.8015L224.525 53.7301L218.769 102.789C218.769 103.077 218.769 103.365 218.711 103.652C218.708 104.647 218.902 105.631 219.28 106.551C219.658 107.47 220.213 108.306 220.915 109.011C221.616 109.716 222.449 110.276 223.367 110.658C224.284 111.041 225.268 111.239 226.262 111.242H248.33C249.506 111.237 250.632 110.767 251.463 109.935C252.293 109.102 252.761 107.975 252.763 106.8V29.503H252.821Z" fill="#A5B3C9"/>
</g>
<path d="M240 36.1172H91.125C90.1553 36.1172 89.3691 36.9033 89.3691 37.8731V98.4457C89.3691 99.4154 90.1553 100.202 91.125 100.202H240C240.969 100.202 241.755 99.4154 241.755 98.4457V37.8731C241.755 36.9033 240.969 36.1172 240 36.1172Z" fill="#E0EBFC"/>
<path d="M241.799 37.827C241.792 37.5951 241.74 37.3668 241.645 37.1553C241.549 36.9439 241.413 36.7536 241.243 36.5955C241.073 36.4374 240.874 36.3147 240.656 36.2345C240.439 36.1544 240.207 36.1184 239.975 36.1287H226.6L225.813 42.8451L224.528 53.7353L219.059 100.223H239.975C240.213 100.23 240.45 100.19 240.671 100.104C240.893 100.018 241.094 99.8887 241.265 99.723C241.435 99.5573 241.57 99.3589 241.662 99.1397C241.753 98.9206 241.8 98.6851 241.799 98.4476V37.827Z" fill="#CED8E8"/>
<path d="M335.759 320.846C334.819 320.734 333.91 320.438 333.085 319.975C332.259 319.512 331.533 318.89 330.947 318.146C330.362 317.402 329.929 316.55 329.673 315.639C329.417 314.727 329.343 313.774 329.455 312.834L334.953 266.069L336.143 255.649L338.129 238.752H364.458L366.463 255.658L367.653 266.088L373.17 312.844C373.2 313.118 373.216 313.393 373.218 313.669C373.22 314.617 373.036 315.555 372.676 316.432C372.316 317.308 371.786 318.105 371.118 318.777C370.45 319.448 369.656 319.982 368.781 320.347C367.907 320.712 366.969 320.901 366.022 320.904H336.575C336.302 320.899 336.03 320.88 335.759 320.846V320.846Z" fill="#E0EBFC"/>
<g opacity="0.5">
<path opacity="0.5" d="M365.471 313.669C365.471 315.584 364.711 317.42 363.358 318.775C362.005 320.129 360.17 320.892 358.255 320.894H366.008C366.284 320.893 366.559 320.877 366.833 320.846C367.773 320.735 368.682 320.441 369.508 319.979C370.335 319.516 371.061 318.896 371.648 318.153C372.234 317.41 372.668 316.559 372.925 315.648C373.183 314.737 373.258 313.784 373.147 312.844L367.639 266.078L366.449 255.658L364.454 238.762H356.691L358.726 255.668L359.915 266.098L365.423 312.854C365.458 313.124 365.474 313.396 365.471 313.669V313.669Z" fill="#D1DBEB"/>
</g>
<path d="M353.261 229.028C352.301 225.459 352.522 217.821 359.795 214.751C363.019 213.379 365.36 210.366 365.178 208.101C364.995 205.837 362.385 203.995 357.866 202.93C350.881 201.299 346.851 197.432 347.082 192.577C347.331 187.328 353.222 181.217 365.725 179.489C366.014 179.441 366.31 179.45 366.596 179.518C366.882 179.585 367.151 179.709 367.389 179.881C367.626 180.054 367.826 180.273 367.978 180.524C368.13 180.775 368.23 181.054 368.273 181.344C368.316 181.635 368.3 181.931 368.227 182.215C368.154 182.499 368.025 182.766 367.848 183C367.67 183.234 367.448 183.43 367.194 183.577C366.94 183.724 366.659 183.818 366.367 183.855C356.772 185.15 351.63 189.363 351.457 192.836C351.332 195.398 354.086 197.633 358.855 198.708C367.672 200.781 369.351 205.261 369.562 207.766C369.975 212.621 365.82 217.015 361.503 218.848C356.005 221.16 357.339 227.291 357.521 227.992C357.658 228.554 357.569 229.147 357.273 229.644C356.977 230.142 356.497 230.502 355.938 230.649C355.759 230.695 355.575 230.718 355.391 230.717C354.897 230.717 354.418 230.55 354.032 230.243C353.645 229.937 353.373 229.508 353.261 229.028Z" fill="#585858"/>
<path d="M345.417 229.114L338.931 205.674C338.835 205.392 338.798 205.093 338.821 204.796C338.844 204.499 338.928 204.21 339.066 203.946C339.204 203.682 339.395 203.449 339.626 203.261C339.858 203.073 340.125 202.935 340.411 202.853C340.698 202.772 340.998 202.749 341.293 202.788C341.589 202.826 341.874 202.924 342.13 203.075C342.386 203.227 342.609 203.429 342.785 203.67C342.961 203.91 343.086 204.184 343.153 204.474L349.649 227.934C349.726 228.211 349.748 228.501 349.713 228.786C349.678 229.072 349.587 229.348 349.445 229.598C349.304 229.849 349.114 230.069 348.887 230.246C348.66 230.423 348.401 230.553 348.123 230.63C347.93 230.684 347.729 230.71 347.528 230.707C347.051 230.708 346.586 230.553 346.205 230.265C345.824 229.978 345.547 229.573 345.417 229.114V229.114Z" fill="#585858"/>
<path d="M368.448 233.659C368.445 235.016 367.904 236.317 366.944 237.276C365.983 238.234 364.681 238.773 363.324 238.773H338.905C337.548 238.773 336.246 238.234 335.285 237.276C334.325 236.317 333.784 235.016 333.781 233.659V233.659C333.781 232.3 334.321 230.997 335.282 230.036C336.243 229.075 337.546 228.535 338.905 228.535H363.343C364.699 228.54 365.997 229.082 366.954 230.043C367.91 231.003 368.448 232.303 368.448 233.659V233.659Z" fill="#E0EBFC"/>
<path d="M336.142 255.666H366.452L367.68 266.096H334.904L336.142 255.666Z" fill="#EE8E58"/>
<path d="M359.914 266.096H367.676L366.448 255.666H358.686L359.914 266.096Z" fill="#EE7E3B"/>
<g opacity="0.5">
<path opacity="0.5" d="M333.799 233.999C333.877 235.297 334.448 236.516 335.395 237.408C336.342 238.3 337.593 238.796 338.894 238.796H363.37C364.042 238.791 364.706 238.654 365.324 238.392C365.943 238.131 366.504 237.75 366.975 237.271C367.447 236.793 367.819 236.226 368.071 235.604C368.324 234.981 368.451 234.315 368.446 233.644V233.644C368.441 232.289 367.899 230.992 366.938 230.037C365.977 229.081 364.677 228.546 363.322 228.549H362.919V233.97L333.799 233.999Z" fill="#D1DBEB"/>
</g>
<path d="M85.2683 306.073V326.77C85.2799 327.197 85.2058 327.622 85.0505 328.02C84.8952 328.418 84.6619 328.782 84.3641 329.088C84.0664 329.395 83.7104 329.639 83.3169 329.806C82.9235 329.973 82.5006 330.059 82.0732 330.061H50.0838C49.6617 330.058 49.2442 329.972 48.8552 329.809C48.4662 329.645 48.1133 329.406 47.8166 329.106C47.5199 328.805 47.2852 328.45 47.126 328.059C46.9668 327.668 46.8862 327.249 46.8887 326.827V306.073C46.8862 305.651 46.9668 305.233 47.126 304.842C47.2852 304.451 47.5199 304.095 47.8166 303.795C48.1133 303.495 48.4662 303.256 48.8552 303.092C49.2442 302.928 49.6617 302.842 50.0838 302.84H82.0732C82.4953 302.842 82.9128 302.928 83.3018 303.092C83.6909 303.256 84.0438 303.495 84.3405 303.795C84.6372 304.095 84.8718 304.451 85.031 304.842C85.1902 305.233 85.2709 305.651 85.2683 306.073V306.073ZM293.171 302.84H261.191C260.769 302.842 260.351 302.928 259.962 303.092C259.573 303.256 259.22 303.495 258.924 303.795C258.627 304.095 258.392 304.451 258.233 304.842C258.074 305.233 257.993 305.651 257.996 306.073V326.77C257.992 327.192 258.072 327.611 258.231 328.003C258.389 328.394 258.624 328.75 258.921 329.051C259.218 329.351 259.571 329.59 259.961 329.754C260.35 329.917 260.768 330.002 261.191 330.003H293.171C293.594 330.002 294.012 329.917 294.402 329.754C294.792 329.59 295.146 329.352 295.444 329.051C295.742 328.751 295.977 328.395 296.137 328.003C296.297 327.612 296.378 327.192 296.375 326.77V306.073C296.377 305.651 296.295 305.233 296.134 304.843C295.974 304.452 295.738 304.097 295.441 303.798C295.143 303.498 294.79 303.26 294.4 303.098C294.011 302.935 293.593 302.851 293.171 302.849V302.84Z" fill="#6DB8E8"/>
<path d="M306.604 170.248V241.404C306.612 243.11 305.942 244.749 304.742 245.962C303.542 247.174 301.91 247.861 300.204 247.871H178.656C177.812 247.866 176.977 247.695 176.199 247.367C175.421 247.039 174.715 246.561 174.122 245.961C173.528 245.36 173.059 244.649 172.741 243.867C172.422 243.085 172.261 242.248 172.266 241.404C172.274 243.11 171.604 244.749 170.404 245.962C169.204 247.174 167.572 247.861 165.866 247.871H44.318C42.6121 247.861 40.9801 247.174 39.7801 245.962C38.5802 244.749 37.9105 243.11 37.9182 241.404V170.248C37.9081 168.558 38.2312 166.882 38.8691 165.316C39.507 163.751 40.4471 162.326 41.6358 161.124C42.8245 159.922 44.2384 158.966 45.7968 158.311C47.3551 157.655 49.0273 157.313 50.7178 157.305H159.466C161.157 157.313 162.829 157.655 164.387 158.311C165.946 158.966 167.36 159.922 168.548 161.124C169.737 162.326 170.677 163.751 171.315 165.316C171.953 166.882 172.276 168.558 172.266 170.248C172.256 168.559 172.579 166.883 173.216 165.318C173.853 163.753 174.793 162.329 175.98 161.127C177.168 159.926 178.581 158.969 180.138 158.313C181.695 157.658 183.366 157.315 185.056 157.305H293.805C295.495 157.313 297.167 157.655 298.726 158.311C300.284 158.966 301.698 159.922 302.887 161.124C304.075 162.326 305.015 163.751 305.653 165.316C306.291 166.882 306.614 168.558 306.604 170.248Z" fill="#6E6E6E"/>
<path d="M306.604 170.249V241.404C306.605 242.658 306.242 243.884 305.561 244.936C304.88 245.989 303.91 246.821 302.766 247.334V259.069H181.87V259.241H162.681V259.069H40.4798V246.595C39.6828 245.991 39.0366 245.211 38.5921 244.315C38.1476 243.42 37.9168 242.433 37.918 241.433V232.203H105.543C133.809 232.203 156.722 209.031 156.722 180.448V157.324H159.437C161.128 157.333 162.8 157.675 164.358 158.33C165.917 158.986 167.331 159.942 168.519 161.144C169.708 162.346 170.648 163.77 171.286 165.336C171.924 166.901 172.247 168.577 172.237 170.268V219.25C172.224 220.943 172.546 222.622 173.184 224.191C173.822 225.759 174.764 227.186 175.955 228.39C177.146 229.593 178.563 230.55 180.125 231.204C181.687 231.858 183.363 232.198 185.056 232.203H239.871C268.138 232.203 291.051 209.031 291.051 180.448V157.324H293.766C295.458 157.328 297.133 157.665 298.694 158.317C300.256 158.969 301.674 159.923 302.866 161.123C304.059 162.324 305.003 163.748 305.644 165.314C306.285 166.879 306.612 168.556 306.604 170.249Z" fill="#585858"/>
<path d="M336.026 218.772V302.871C336.032 303.715 335.87 304.552 335.552 305.334C335.233 306.116 334.764 306.827 334.171 307.428C333.577 308.028 332.872 308.506 332.094 308.834C331.315 309.162 330.48 309.333 329.636 309.338H14.9235C14.0793 309.333 13.2443 309.162 12.4663 308.834C11.6883 308.506 10.9824 308.028 10.389 307.428C9.79565 306.827 9.32635 306.116 9.00795 305.334C8.68954 304.552 8.52826 303.715 8.53332 302.871V218.772C8.52826 217.927 8.68954 217.09 9.00795 216.309C9.32635 215.527 9.79565 214.815 10.389 214.215C10.9824 213.614 11.6883 213.136 12.4663 212.809C13.2443 212.481 14.0793 212.31 14.9235 212.305H40.4843C42.1902 212.315 43.8223 213.002 45.0222 214.214C46.2221 215.427 46.8918 217.066 46.8841 218.772V263.733H297.647V218.772C297.639 217.066 298.309 215.427 299.509 214.214C300.709 213.002 302.341 212.315 304.047 212.305H329.636C330.48 212.31 331.315 212.481 332.094 212.809C332.872 213.136 333.577 213.614 334.171 214.215C334.764 214.815 335.233 215.527 335.552 216.309C335.87 217.09 336.032 217.927 336.026 218.772V218.772Z" fill="#8C8C8C"/>
<path d="M336.023 218.772V302.871C336.028 303.715 335.866 304.552 335.548 305.334C335.23 306.116 334.76 306.827 334.167 307.428C333.573 308.028 332.868 308.506 332.09 308.834C331.312 309.162 330.477 309.333 329.632 309.338H315.557C317.262 309.328 318.895 308.641 320.095 307.429C321.294 306.216 321.964 304.577 321.956 302.871V218.772C321.964 217.066 321.294 215.427 320.095 214.214C318.895 213.002 317.262 212.315 315.557 212.305H329.632C330.477 212.31 331.312 212.481 332.09 212.809C332.868 213.136 333.573 213.614 334.167 214.215C334.76 214.815 335.23 215.527 335.548 216.309C335.866 217.09 336.028 217.927 336.023 218.772V218.772Z" fill="#858585"/>
<path d="M306.604 254.328V273.739C306.612 275.445 305.942 277.084 304.742 278.296C303.542 279.509 301.91 280.196 300.204 280.206H178.656C177.812 280.201 176.977 280.029 176.199 279.702C175.421 279.374 174.715 278.896 174.122 278.296C173.528 277.695 173.059 276.984 172.74 276.202C172.422 275.42 172.261 274.583 172.266 273.739C172.274 275.445 171.604 277.084 170.404 278.296C169.204 279.509 167.572 280.196 165.866 280.206H44.3178C42.612 280.196 40.9799 279.509 39.78 278.296C38.58 277.084 37.9104 275.445 37.918 273.739V254.328C37.9104 252.622 38.58 250.983 39.78 249.771C40.9799 248.558 42.612 247.871 44.3178 247.861H165.866C167.572 247.871 169.204 248.558 170.404 249.771C171.604 250.983 172.274 252.622 172.266 254.328C172.261 253.484 172.422 252.647 172.74 251.865C173.059 251.083 173.528 250.372 174.122 249.771C174.715 249.171 175.421 248.693 176.199 248.365C176.977 248.038 177.812 247.866 178.656 247.861H300.204C301.91 247.871 303.542 248.558 304.742 249.771C305.942 250.983 306.612 252.622 306.604 254.328V254.328Z" fill="#585858"/>
<path d="M155.628 254.328V273.739C155.633 274.584 155.472 275.422 155.153 276.204C154.834 276.987 154.364 277.699 153.769 278.299C153.175 278.9 152.468 279.377 151.689 279.705C150.91 280.032 150.074 280.202 149.229 280.206H44.3178C42.612 280.196 40.9799 279.509 39.78 278.296C38.58 277.084 37.9104 275.445 37.918 273.739V254.328C37.9104 252.622 38.58 250.983 39.78 249.771C40.9799 248.558 42.612 247.871 44.3178 247.861H149.229C150.074 247.865 150.91 248.035 151.689 248.363C152.468 248.69 153.175 249.167 153.769 249.768C154.364 250.369 154.834 251.081 155.153 251.863C155.472 252.646 155.633 253.483 155.628 254.328V254.328ZM283.567 247.861H178.656C177.812 247.866 176.977 248.038 176.199 248.365C175.421 248.693 174.715 249.171 174.122 249.771C173.528 250.372 173.059 251.083 172.741 251.865C172.422 252.647 172.261 253.484 172.266 254.328V273.739C172.266 275.437 172.938 277.066 174.135 278.271C175.332 279.475 176.958 280.157 178.656 280.167H283.567C284.412 280.164 285.248 279.993 286.027 279.666C286.806 279.339 287.513 278.861 288.107 278.261C288.702 277.66 289.172 276.948 289.491 276.166C289.81 275.383 289.972 274.545 289.967 273.7V254.328C289.972 253.483 289.81 252.646 289.491 251.863C289.172 251.081 288.702 250.369 288.107 249.768C287.513 249.167 286.806 248.69 286.027 248.363C285.248 248.035 284.412 247.865 283.567 247.861V247.861Z" fill="#6E6E6E"/>
<path d="M58.9946 70.3027C58.9926 70.6251 59.0248 70.9467 59.0906 71.2622L64.5213 97.9648C64.5835 98.2938 64.68 98.6154 64.8092 98.9243L46.3965 102.666L40.582 74.0447L58.9946 70.3027Z" fill="#585858"/>
<path d="M44.8597 126.863L20.0185 131.919C19.2025 132.086 18.3617 132.09 17.5442 131.931C16.7267 131.772 15.9486 131.454 15.2543 130.994C14.56 130.534 13.9632 129.942 13.4982 129.251C13.0331 128.56 12.7089 127.785 12.544 126.968L0.128218 66.0118C-0.038507 65.1953 -0.0426752 64.3539 0.115951 63.5358C0.274578 62.7176 0.592889 61.9388 1.05269 61.2437C1.51249 60.5487 2.10476 59.9511 2.79566 59.4851C3.48655 59.019 4.26251 58.6938 5.07919 58.5278L29.9204 53.4713C30.7391 53.3005 31.5834 53.2936 32.4048 53.451C33.2261 53.6083 34.0081 53.9268 34.7057 54.388C35.4033 54.8492 36.0027 55.444 36.4691 56.1381C36.9356 56.8321 37.26 57.6117 37.4236 58.4318L49.801 119.388C50.1352 121.035 49.8025 122.746 48.8761 124.147C47.9497 125.549 46.5052 126.525 44.8597 126.863V126.863Z" fill="#6E6E6E"/>
<path d="M63.0399 65.2503L86.1348 60.5584C86.7883 60.4242 87.4619 60.4207 88.1168 60.548C88.7717 60.6753 89.3949 60.9309 89.9506 61.3002C90.5062 61.6694 90.9833 62.145 91.3544 62.6994C91.7254 63.2539 91.983 63.8763 92.1125 64.5307L97.5528 91.2333C97.8189 92.5526 97.5513 93.9235 96.8085 95.0457C96.0657 96.168 94.9084 96.9501 93.5901 97.2206V97.2206L70.5047 101.922C69.1855 102.188 67.8146 101.921 66.6923 101.178C65.5701 100.435 64.788 99.2777 64.5175 97.9594V97.9594L59.0868 71.2568C58.9508 70.6027 58.9452 69.9283 59.0704 69.2721C59.1956 68.6159 59.4491 67.9908 59.8163 67.4328C60.1836 66.8748 60.6574 66.3948 61.2106 66.0203C61.7637 65.6457 62.3854 65.3841 63.0399 65.2503V65.2503Z" fill="#6E6E6E"/>
<path d="M27.161 54.0516L7.89443 57.9759L6.4552 50.9236C6.33339 50.2716 6.47219 49.5979 6.84177 49.0471C7.21135 48.4963 7.78222 48.1124 8.43175 47.978L22.7186 45.0995C23.3696 44.9621 24.0485 45.0864 24.6087 45.4455C25.1688 45.8045 25.5652 46.3696 25.7122 47.0185V47.0185L27.161 54.0516Z" fill="#EE8E58"/>
<path d="M40.582 74.0401L50.2441 72.1211L56.0586 100.695L46.3965 102.614L40.582 74.0401Z" fill="#585858"/>
<path d="M42.0285 51.2924V51.3692C41.9989 51.9153 42.1825 52.4515 42.5404 52.8649C42.8984 53.2783 43.4028 53.5367 43.9475 53.5856L50.424 53.979C50.9685 54.006 51.5022 53.8213 51.9136 53.4636C52.3249 53.1059 52.582 52.603 52.6308 52.06V51.9833C52.6604 51.4372 52.4768 50.901 52.1189 50.4876C51.7609 50.0742 51.2565 49.8158 50.7119 49.7669L44.2353 49.3639C43.6893 49.337 43.1542 49.5231 42.7426 49.8828C42.331 50.2425 42.075 50.7478 42.0285 51.2924V51.2924Z" fill="#E0EBFC"/>
<path d="M38.9147 41.52V41.4528C38.5501 41.0361 38.3639 40.4927 38.3962 39.9399C38.4285 39.3871 38.6767 38.8691 39.0874 38.4976L43.9616 34.1895C44.378 33.8348 44.9157 33.6556 45.4616 33.6896C46.0075 33.7236 46.5189 33.9682 46.888 34.3718C47.0869 34.5766 47.2421 34.8195 47.3444 35.0859C47.4467 35.3524 47.4939 35.6368 47.4831 35.922C47.4724 36.2072 47.4039 36.4873 47.2818 36.7453C47.1597 37.0033 46.9866 37.2338 46.7729 37.423L41.8987 41.7407C41.4732 42.1059 40.9204 42.2878 40.3611 42.2464C39.8019 42.2051 39.2818 41.9439 38.9147 41.52V41.52Z" fill="#E0EBFC"/>
<path d="M29.6525 37.31H29.5661C29.0224 37.2588 28.5194 36.9998 28.1619 36.5869C27.8044 36.174 27.62 35.6391 27.6471 35.0936L28.0405 28.6266C28.0894 28.0837 28.3465 27.5808 28.7578 27.2231C29.1691 26.8654 29.7029 26.6807 30.2474 26.7077H30.3337C30.8775 26.7589 31.3805 27.0179 31.738 27.4308C32.0954 27.8437 32.2798 28.3786 32.2527 28.9241L31.8497 35.3623C31.8079 35.9086 31.5553 36.4173 31.1452 36.7808C30.7352 37.1443 30.1999 37.3341 29.6525 37.31V37.31Z" fill="#E0EBFC"/>
<path d="M238.703 229.962L232.946 212.183C232.772 211.66 232.678 211.113 232.668 210.561L230.222 116.531V126.078C230.218 129.547 229.621 132.99 228.456 136.258L216.328 170.8L219.821 175.991C228.465 188.763 233.084 203.832 233.081 219.254C233.081 222.944 232.715 226.624 231.987 230.24L228.533 247.339H233.983C235.347 247.339 236.655 246.797 237.619 245.832C238.584 244.868 239.126 243.56 239.126 242.196V232.601C239.124 231.705 238.982 230.814 238.703 229.962V229.962Z" fill="#E6B8B8"/>
<path d="M250.374 119.649C248.82 107.809 239.647 108.941 238.093 97.1109C236.538 85.2804 245.711 84.1674 244.157 72.3369C242.602 60.5063 233.43 61.6289 231.875 49.7984V42.6406H145.982V49.7984C144.437 61.6481 135.293 60.5159 133.71 72.3369C132.127 84.1578 141.318 85.2804 139.764 97.1109C138.21 108.941 129.047 107.828 127.492 119.649V122.528C127.548 125.226 128.669 127.793 130.61 129.668C132.551 131.543 135.156 132.574 137.855 132.535H238.601C241.667 132.592 244.63 131.429 246.839 129.303C249.048 127.176 250.323 124.26 250.384 121.194V119.716L250.374 119.649Z" fill="#6E6E6E"/>
<path d="M228.783 81.6055C232.487 73.3731 210.716 48.8101 205.094 42.6406H200.296L176.885 52.2355L147.562 59.9114C147.562 59.9114 158.721 86.1055 157.474 93.1482C156.227 100.191 144.559 112.069 153.521 126.164C154.999 128.515 158.011 130.607 161.964 132.478H234.041C241.631 118.728 238.023 112.031 233.082 105.957C226.826 98.2623 224.523 91.0757 228.783 81.6055Z" fill="#585858"/>
<path d="M186.674 243.713H217.378L211.093 289.577L206.296 315.252L206.824 320.29L204.473 334.154C202.812 333.366 200.996 332.956 199.157 332.955H192.095C190.726 332.957 189.367 333.191 188.075 333.646L186.588 320.271L187.682 314.715L186.636 289.337V243.713H186.674Z" fill="#F9CFCF"/>
<path d="M182.31 335.941L182.684 335.202L186.704 320.263L188.182 333.696L189.304 339.175H203.534L204.579 334.109L206.921 320.234L209.53 335.164L209.837 335.903C210.214 336.765 210.41 337.696 210.413 338.637C210.489 340.366 209.875 342.054 208.708 343.331C207.541 344.608 205.914 345.37 204.186 345.45H188.067C186.942 345.444 185.838 345.149 184.86 344.593C183.883 344.036 183.066 343.237 182.487 342.273C181.909 341.308 181.588 340.211 181.557 339.087C181.526 337.963 181.785 336.85 182.31 335.855V335.941Z" fill="#F9A7A7"/>
<path d="M181.552 338.855C182.022 336.389 186.147 323.071 186.675 320.26L188.162 333.693C192.96 332.599 199.935 332.321 204.56 334.201L206.911 320.327L209.511 335.266C210.229 336.64 210.52 338.197 210.346 339.737V339.737C210.147 341.309 209.389 342.756 208.21 343.813C207.031 344.871 205.51 345.468 203.927 345.494C198.266 344.583 181.091 349.025 181.542 338.855H181.552Z" fill="#6E6E6E"/>
<path d="M194.546 261.438H163.775L170.098 307.349L174.848 333.025L174.32 338.062L176.671 351.927C178.332 351.138 180.148 350.729 181.987 350.728H189.029C190.398 350.735 191.757 350.968 193.049 351.419L194.537 338.043L193.5 332.469L194.537 307.09V261.438H194.546Z" fill="#F9CFCF"/>
<path d="M217.022 105.336H204.433V96.125C199.967 98.0246 195.163 99.0037 190.309 99.0037C185.456 99.0037 180.652 98.0246 176.186 96.125V105.336H163.597C156.305 105.336 150.404 110.354 150.404 116.553V126.099C150.411 129.557 151.001 132.99 152.151 136.251L164.288 170.793H216.283L228.468 136.251C229.618 132.993 230.206 129.564 230.205 126.109V116.514C230.205 110.345 224.304 105.336 217.022 105.336Z" fill="#F9CFCF"/>
<path d="M226.513 49.802H226.282V46.4438C226.282 36.9011 222.492 27.7492 215.744 21.0014C208.996 14.2537 199.844 10.4629 190.302 10.4629C180.759 10.4629 171.607 14.2537 164.859 21.0014C158.111 27.7492 154.321 36.9011 154.321 46.4438V49.8116H154.1C151.24 49.7745 148.48 50.865 146.418 52.8473C144.356 54.8296 143.158 57.5441 143.082 60.4034C143.006 63.2627 144.06 66.0368 146.014 68.1254C147.968 70.214 150.666 71.449 153.524 71.5632C153.716 71.5632 153.908 71.5632 154.1 71.5632C154.491 71.573 154.882 71.5538 155.271 71.5057C157.176 79.357 161.665 86.3402 168.016 91.3341C174.368 96.3279 182.213 99.0428 190.292 99.0428C198.371 99.0428 206.216 96.3279 212.567 91.3341C218.919 86.3402 223.407 79.357 225.313 71.5057C225.697 71.5057 226.062 71.5632 226.493 71.5632C227.934 71.6214 229.372 71.3925 230.724 70.8901C232.075 70.3876 233.314 69.6214 234.367 68.6362C235.419 67.651 236.266 66.4662 236.857 65.151C237.448 63.8357 237.772 62.416 237.809 60.9745C237.847 59.5331 237.597 58.0985 237.076 56.7542C236.554 55.41 235.77 54.1829 234.77 53.1442C233.77 52.1055 232.573 51.276 231.249 50.7039C229.926 50.1318 228.501 49.8285 227.06 49.8116H226.493L226.513 49.802Z" fill="#F9CFCF"/>
<path d="M190.327 98.9968C198.408 99.0194 206.261 96.3151 212.614 91.3214C218.968 86.3276 223.451 79.3363 225.339 71.4786C225.722 71.4786 226.087 71.5457 226.519 71.5457C227.96 71.6039 229.397 71.3751 230.749 70.8726C232.101 70.3701 233.339 69.6039 234.392 68.6187C235.445 67.6335 236.291 66.4488 236.882 65.1335C237.473 63.8182 237.797 62.3985 237.834 60.957C237.872 59.5156 237.623 58.081 237.101 56.7368C236.579 55.3925 235.795 54.1654 234.795 53.1267C233.795 52.088 232.598 51.2585 231.274 50.6864C229.951 50.1143 228.527 49.811 227.085 49.7941H226.288V46.4359C226.22 40.4396 224.656 34.5553 221.738 29.3164C218.82 24.0775 214.641 19.6497 209.579 16.4346C204.517 13.2194 198.733 11.3186 192.75 10.9044C186.768 10.4902 180.777 11.5758 175.32 14.0627L178.822 47.8367C197.734 48.6715 202.157 40.8612 202.157 40.8612C202.157 40.8612 219.812 44.018 220.484 57.8922C221.155 71.7664 212.098 98.9968 190.327 98.9968Z" fill="#E6B8B8"/>
<g opacity="0.6">
<path opacity="0.6" d="M188.12 333.665C189.413 333.215 190.771 332.982 192.14 332.975H188.062L188.12 333.665Z" fill="#E6B8B8"/>
<path opacity="0.6" d="M217.426 243.713H212.734L206.411 289.625L201.614 315.3L202.132 320.338L199.982 333.061C201.538 333.166 203.061 333.56 204.473 334.222V334.222L206.824 320.347L206.296 315.31L211.093 289.634L217.426 243.713Z" fill="#E6B8B8"/>
</g>
<path d="M152.051 110.645L123.573 143.689C121.86 145.578 120.91 148.038 120.91 150.588C120.91 153.139 121.86 155.598 123.573 157.487L146.198 182.242C146.528 182.6 146.748 183.045 146.833 183.524C146.918 184.004 146.864 184.498 146.678 184.947L143.224 193.324C141.955 196.42 141.816 199.864 142.83 203.053L147.282 217.014H147.542C147.965 202.357 152.551 188.123 160.763 175.976V175.976L160.84 175.861L146.812 155.491C146.455 154.975 146.3 154.345 146.378 153.722C146.456 153.099 146.761 152.526 147.234 152.114L155.227 145.129L152.185 136.244C151.032 132.987 150.442 129.557 150.439 126.102V116.507C150.445 115.79 150.529 115.076 150.689 114.377" fill="#F9CFCF"/>
<path d="M220.948 105.835C219.673 105.5 218.36 105.333 217.043 105.336H204.454V96.125C200.403 97.8596 196.068 98.8353 191.664 99.0035V99.0035C191.664 108.915 202.151 110.728 205.74 110.776C219.374 110.968 219.173 115.574 219.173 115.574C220.391 112.474 220.994 109.166 220.948 105.835V105.835Z" fill="#E6B8B8"/>
<g opacity="0.6">
<path opacity="0.6" d="M194.539 261.438H188.887V307.119L187.822 332.478L188.868 338.053L187.486 350.737H189.022C190.391 350.74 191.75 350.973 193.042 351.428L194.529 338.053L193.493 332.478L194.529 307.1L194.539 261.438Z" fill="#E6B8B8"/>
<path opacity="0.6" d="M176.664 351.938C178.325 351.149 180.141 350.739 181.98 350.738H176.463L176.664 351.938Z" fill="#E6B8B8"/>
</g>
<path d="M219.822 175.978L216.33 170.797L228.457 136.255C229.606 132.997 230.196 129.568 230.204 126.113V116.518C230.194 115.801 230.108 115.087 229.945 114.388C229.627 112.149 228.568 110.082 226.936 108.516C225.305 106.95 223.195 105.977 220.945 105.753V105.753C221.04 111.993 218.849 118.053 214.783 122.788C210.718 127.524 205.059 130.608 198.876 131.458C196.493 131.757 194.092 131.905 191.69 131.899C185.955 132.016 180.247 131.08 174.851 129.136C170.202 127.314 166.253 124.062 163.574 119.848C160.895 115.634 159.626 110.678 159.95 105.695V105.695C150.652 106.789 150.499 115.751 150.499 116.47V126.017C150.479 129.499 151.056 132.959 152.207 136.245L164.335 170.787L160.852 175.968C152.206 188.743 147.584 203.815 147.582 219.241C147.594 222.948 147.977 226.645 148.724 230.276L151.094 242.039C152.672 249.834 154.661 257.539 157.052 265.124V265.124C181.874 260.327 196.583 281.205 218.527 275.563L226.27 273.568L232.027 230.276C232.755 226.659 233.121 222.979 233.121 219.289C233.116 203.848 228.484 188.762 219.822 175.978V175.978Z" fill="#89C3E8"/>
<path d="M174.131 48.2528H147.477C147.088 48.254 146.702 48.1785 146.343 48.0306C145.983 47.8826 145.656 47.6651 145.381 47.3906C145.105 47.1161 144.887 46.7898 144.738 46.4307C144.588 46.0715 144.512 45.6864 144.512 45.2975V28.4969C144.512 20.939 147.514 13.6907 152.858 8.34654C158.202 3.00234 165.451 0 173.009 0L187.103 0C190.521 0.0050811 193.797 1.36565 196.213 3.78321C198.629 6.20077 199.987 9.47788 199.989 12.8955V22.3657C199.989 29.2365 197.26 35.8258 192.402 40.6842C187.543 45.5426 180.954 48.272 174.083 48.272V48.272L174.131 48.2528Z" fill="#6E6E6E"/>
<path d="M230.279 44.425H225.031C221.741 44.4263 218.484 43.7795 215.444 42.5215C212.405 41.2636 209.643 39.4192 207.317 37.0936C204.99 34.768 203.145 32.0069 201.886 28.968C200.627 25.929 199.979 22.6718 199.979 19.3823V19.3823V11.1115C199.979 9.04943 200.797 7.07164 202.254 5.61261C203.711 4.15357 205.688 3.33262 207.75 3.33008H209.305C215.667 3.33008 221.768 5.8573 226.266 10.3558C230.765 14.8543 233.292 20.9555 233.292 27.3173V41.4698C233.292 41.8587 233.215 42.2438 233.066 42.6029C232.917 42.9621 232.699 43.2883 232.423 43.5629C232.148 43.8374 231.821 44.0549 231.461 44.2028C231.101 44.3508 230.716 44.4263 230.327 44.425H230.279Z" fill="#6E6E6E"/>
<path d="M198.906 353.716L198.532 352.977L194.541 338.066L193.063 351.499L191.902 357.016H177.702L176.665 351.941L174.315 338.076L171.753 352.996L171.436 353.745C171.063 354.605 170.867 355.532 170.861 356.469C170.821 357.327 170.95 358.184 171.243 358.99C171.535 359.797 171.984 360.539 172.563 361.172C173.143 361.805 173.842 362.317 174.62 362.679C175.398 363.041 176.24 363.246 177.097 363.282H193.13C194.256 363.279 195.362 362.986 196.341 362.43C197.32 361.874 198.138 361.075 198.717 360.109C199.296 359.144 199.616 358.046 199.646 356.921C199.676 355.795 199.415 354.681 198.887 353.687L198.906 353.716Z" fill="#F9A7A7"/>
<path d="M199.645 356.629C199.618 355.625 199.362 354.641 198.896 353.751L198.522 353.012L194.54 338.102L193.063 351.477C191.77 351.028 190.411 350.794 189.042 350.786H181.952C180.112 350.786 178.295 351.199 176.636 351.995V351.995L174.295 338.111L171.685 353.05L171.369 353.789C170.996 354.653 170.801 355.583 170.793 356.524C170.793 356.845 170.815 357.165 170.86 357.483V357.483V357.598C170.893 357.838 170.941 358.075 171.004 358.308C171.052 358.481 171.09 358.654 171.148 358.827C171.206 358.999 171.311 359.258 171.407 359.469C171.503 359.681 171.561 359.796 171.657 359.959C171.752 360.122 171.887 360.333 172.012 360.515L172.367 360.976C172.491 361.12 172.645 361.283 172.789 361.427L173.268 361.839C173.415 361.964 173.569 362.079 173.729 362.185C173.927 362.312 174.132 362.427 174.343 362.53C174.554 362.626 174.65 362.693 174.813 362.76C175.071 362.861 175.333 362.948 175.6 363.02C175.734 363.02 175.869 363.106 176.022 363.135C176.445 363.226 176.876 363.274 177.308 363.279H193.063C194.366 363.277 195.639 362.886 196.718 362.156C197.413 361.688 198.01 361.088 198.474 360.391C199.206 359.315 199.597 358.045 199.597 356.744V356.629H199.645Z" fill="#6E6E6E"/>
<path d="M226.225 273.551C228.451 256.827 231.982 230.24 231.982 230.24C232.706 226.619 233.072 222.936 233.076 219.244C233.073 203.823 228.455 188.755 219.816 175.981L216.323 170.799L228.451 136.258C229.6 132.999 230.19 129.571 230.197 126.116V122C230.197 122 233.076 107.454 220.938 105.842C220.075 114.151 219.173 115.523 219.173 115.523C211.66 152.886 203.408 171.749 203.408 171.749C203.408 171.749 218.501 212.144 217.417 227.4C214.663 265.914 204.944 267.439 176.092 266C195.809 270.97 203.13 281.572 226.225 273.551Z" fill="#6DB8E8"/>
<path d="M160.91 175.86L146.883 155.49C146.525 154.974 146.371 154.344 146.449 153.721C146.526 153.097 146.831 152.525 147.305 152.113L155.297 145.127L152.966 138.459C147.669 141.424 138.075 147.142 138.372 151.019C138.785 156.267 155.528 176.34 154.127 181.943C152.726 187.547 144.925 194.915 148.101 210.286C149.524 197.978 153.887 186.193 160.824 175.927L160.91 175.86Z" fill="#E6B8B8"/>
<path d="M189.493 363.279H193.12C194.42 363.277 195.69 362.886 196.766 362.156C197.652 361.559 198.378 360.753 198.88 359.809C199.382 358.866 199.645 357.813 199.644 356.744V356.629C199.626 355.625 199.373 354.64 198.906 353.751L198.531 353.012L194.54 338.102L193.062 351.477C191.769 351.028 190.411 350.794 189.042 350.786H188.879C190.193 353.77 192.256 359.872 189.493 363.279Z" fill="#585858"/>
<path d="M205.11 345.359C205.256 345.336 205.398 345.294 205.533 345.235C205.784 345.166 206.03 345.083 206.271 344.985C206.435 344.918 206.588 344.832 206.742 344.755C206.895 344.678 207.164 344.534 207.365 344.41L207.816 344.064L208.306 343.652C208.45 343.508 208.584 343.354 208.718 343.191C208.852 343.028 208.968 342.894 209.083 342.74C209.198 342.587 209.323 342.375 209.438 342.184C209.553 341.992 209.601 341.857 209.687 341.694C209.774 341.531 209.87 341.262 209.946 341.051C210.023 340.84 210.042 340.706 210.09 340.533C210.138 340.361 210.196 340.063 210.234 339.823V339.708C210.28 339.39 210.299 339.069 210.292 338.749C210.289 337.807 210.093 336.877 209.716 336.014L209.409 335.275L206.799 320.336L204.448 334.21C203.358 333.697 202.197 333.348 201.004 333.174C201.018 333.218 201.043 333.258 201.077 333.289C201.11 333.321 201.151 333.344 201.196 333.356C203.259 333.702 202.827 344.87 199.574 345.532H203.748C204.207 345.528 204.665 345.47 205.11 345.359V345.359Z" fill="#585858"/>
<path d="M197.022 173.164C197.875 176.772 198.941 183.718 199.986 192.728C200.043 193.254 200.292 193.74 200.685 194.094C201.078 194.448 201.587 194.645 202.116 194.647H202.366C202.649 194.618 202.923 194.534 203.173 194.398C203.423 194.263 203.644 194.079 203.822 193.858C204.001 193.636 204.133 193.382 204.213 193.109C204.292 192.836 204.317 192.55 204.285 192.267C203.249 183.488 202.212 176.58 201.339 172.713H197.002C196.993 172.863 196.999 173.015 197.022 173.164V173.164Z" fill="#6DB8E8"/>
<path d="M178.306 194.609H178.565C179.093 194.607 179.602 194.41 179.993 194.055C180.385 193.701 180.631 193.215 180.686 192.69C181.713 184.054 182.73 177.213 183.564 173.5C183.609 173.289 183.625 173.072 183.612 172.857V172.607H179.323V172.876C178.469 176.762 177.404 183.584 176.445 192.162C176.403 192.445 176.418 192.734 176.49 193.011C176.561 193.289 176.687 193.549 176.861 193.777C177.034 194.005 177.251 194.196 177.5 194.339C177.748 194.482 178.022 194.573 178.306 194.609V194.609Z" fill="#6DB8E8"/>
<path d="M215.825 169.049H164.809C163.861 169.049 163.092 169.818 163.092 170.766V172.628C163.092 173.576 163.861 174.345 164.809 174.345H215.825C216.774 174.345 217.543 173.576 217.543 172.628V170.766C217.543 169.818 216.774 169.049 215.825 169.049Z" fill="#E0EBFC"/>
<path d="M190.307 177.582C195.219 177.582 199.201 174.948 199.201 171.7C199.201 168.452 195.219 165.818 190.307 165.818C185.394 165.818 181.412 168.452 181.412 171.7C181.412 174.948 185.394 177.582 190.307 177.582Z" fill="#FFF9EB"/>
<g opacity="0.7">
<path opacity="0.7" d="M181.703 173.277C182.739 175.752 186.117 177.566 190.271 177.566C195.174 177.566 199.156 174.937 199.156 171.703C199.094 170.773 198.785 169.876 198.26 169.105C197.736 168.334 197.015 167.718 196.172 167.318C196.385 167.82 196.499 168.357 196.508 168.902C196.508 172.135 192.517 174.764 187.614 174.764C185.548 174.789 183.511 174.276 181.703 173.277V173.277Z" fill="#D3CDBF"/>
</g>
<path d="M190.181 24.9523C208.095 24.9523 222.967 33.0024 226.287 49.7839C226.517 49.7839 226.815 49.7839 227.083 49.7839C227.409 47.5579 227.026 43.3745 227.026 41.3788C226.87 31.7113 222.92 22.4925 216.028 15.711C209.136 8.92956 199.855 5.12891 190.186 5.12891C180.517 5.12891 171.236 8.92956 164.344 15.711C157.452 22.4925 153.502 31.7113 153.346 41.3788C153.346 43.3745 152.828 47.5675 153.222 49.8031C153.596 49.8031 153.893 49.8031 154.354 49.8031C157.674 33.0408 172.277 24.9523 190.181 24.9523Z" fill="#EE8E58"/>
<path d="M215.668 15.0684C217.587 17.2752 220.034 30.4202 216.627 33.2987C221.666 37.5131 225.062 43.3651 226.222 49.8307C226.453 49.8307 226.75 49.8307 227.019 49.8307C227.345 47.6047 226.961 43.4213 226.961 41.4255C226.973 36.4947 225.977 31.6135 224.035 27.0811C222.093 22.5488 219.246 18.461 215.668 15.0684V15.0684Z" fill="#EC7425"/>
<path d="M149.001 65.3281C148.755 65.3404 148.523 65.447 148.354 65.6256C148.184 65.8042 148.09 66.0412 148.09 66.2876V72.697C148.151 72.8926 148.272 73.0635 148.437 73.185C148.602 73.3064 148.801 73.3719 149.006 73.3719C149.211 73.3719 149.41 73.3064 149.575 73.185C149.74 73.0635 149.862 72.8926 149.922 72.697V66.2492C149.913 66.008 149.813 65.7792 149.642 65.6084C149.471 65.4377 149.243 65.3376 149.001 65.3281V65.3281Z" fill="#D8E2F2"/>
<path d="M228.783 65.3281C228.537 65.3404 228.305 65.447 228.135 65.6256C227.965 65.8042 227.871 66.0412 227.871 66.2876V72.697C227.932 72.8926 228.054 73.0635 228.218 73.185C228.383 73.3064 228.583 73.3719 228.787 73.3719C228.992 73.3719 229.192 73.3064 229.356 73.185C229.521 73.0635 229.643 72.8926 229.704 72.697V66.2492C229.694 66.008 229.594 65.7792 229.423 65.6084C229.253 65.4377 229.024 65.3376 228.783 65.3281V65.3281Z" fill="#D8E2F2"/>
<path d="M153.575 78.0187C153.626 78.6398 153.545 79.2646 153.337 79.8519C153.128 80.4391 152.798 80.9754 152.366 81.4249C151.723 82.1206 150.88 82.5999 149.953 82.7972C149.027 82.9945 148.062 82.9 147.191 82.5266C146.32 82.1533 145.587 81.5195 145.091 80.7123C144.595 79.9052 144.361 78.9642 144.421 78.0187C144.421 75.668 147.031 73.1157 148.259 72.0027C148.448 71.8187 148.699 71.7126 148.962 71.7055C149.225 71.6983 149.481 71.7908 149.679 71.9644C150.975 73.1157 153.575 75.668 153.575 78.0187Z" fill="#E0EBFC"/>
<path d="M233.363 78.0188C233.421 78.6364 233.347 79.2592 233.147 79.8462C232.947 80.4333 232.625 80.9714 232.202 81.425C231.559 82.1206 230.716 82.6 229.789 82.7973C228.863 82.9946 227.898 82.9001 227.027 82.5267C226.156 82.1534 225.423 81.5196 224.927 80.7124C224.431 79.9053 224.197 78.9643 224.257 78.0188C224.257 75.6681 226.867 73.1158 228.143 72.0028C228.334 71.8349 228.58 71.7422 228.834 71.7422C229.088 71.7422 229.334 71.8349 229.525 72.0028C230.753 73.1158 233.363 75.6681 233.363 78.0188Z" fill="#E0EBFC"/>
<path d="M148.282 75.9446L148.177 76.0789C147.846 76.4067 147.589 76.8014 147.424 77.2367C147.258 77.672 147.188 78.1376 147.217 78.6023C147.262 78.811 147.375 78.9988 147.538 79.1361C147.702 79.2734 147.906 79.3523 148.119 79.3603H148.273C148.505 79.3074 148.709 79.1701 148.846 78.9751C148.982 78.78 149.041 78.5411 149.012 78.3049C149.012 78.0458 149.376 77.5373 149.616 77.2303L149.731 77.0863C149.857 77.0015 149.96 76.8883 150.034 76.7558C150.107 76.6233 150.148 76.4754 150.153 76.3241C150.158 76.1728 150.127 76.0224 150.063 75.8852C149.999 75.7481 149.903 75.6281 149.784 75.535C149.665 75.4419 149.525 75.3783 149.376 75.3495C149.228 75.3208 149.074 75.3275 148.929 75.3694C148.783 75.4112 148.65 75.4868 148.539 75.5901C148.428 75.6934 148.344 75.8215 148.292 75.9637L148.282 75.9446Z" fill="#E0EBFC"/>
<path d="M229.322 75.8029C229.126 75.6644 228.886 75.6044 228.648 75.6346C228.41 75.6648 228.192 75.783 228.036 75.966L227.931 76.1003C227.6 76.4281 227.343 76.8229 227.178 77.2582C227.012 77.6934 226.942 78.1591 226.971 78.6238C227.016 78.8325 227.129 79.0203 227.292 79.1575C227.456 79.2948 227.66 79.3737 227.873 79.3818H228.027C228.259 79.3289 228.463 79.1916 228.6 78.9965C228.736 78.8015 228.795 78.5626 228.766 78.3264C228.718 78.0673 229.13 77.5588 229.37 77.2517L229.485 77.1078C229.629 76.9104 229.693 76.6655 229.662 76.423C229.632 76.1805 229.51 75.9587 229.322 75.8029V75.8029Z" fill="#E0EBFC"/>
<path d="M343.059 46.3134C340.478 53.2601 332.504 71.2121 318.198 75.7889C317.981 75.8563 317.791 75.9914 317.657 76.1744C317.522 76.3574 317.449 76.5787 317.449 76.806C317.449 77.0332 317.522 77.2545 317.657 77.4375C317.791 77.6205 317.981 77.7556 318.198 77.823C332.687 81.9776 340.506 98.3561 343.049 104.689C343.132 104.882 343.269 105.047 343.445 105.163C343.621 105.279 343.827 105.341 344.037 105.341C344.248 105.341 344.454 105.279 344.629 105.163C344.805 105.047 344.943 104.882 345.026 104.689C347.904 98.2506 356.789 81.3923 372.112 77.9477C372.337 77.8902 372.538 77.7609 372.684 77.5795C372.83 77.398 372.912 77.1741 372.92 76.9415C372.928 76.7089 372.859 76.4801 372.726 76.2896C372.592 76.099 372.4 75.957 372.179 75.8848C356.415 70.5021 347.837 53.0106 345.026 46.2078C344.932 46.0209 344.785 45.8655 344.605 45.7605C344.424 45.6555 344.216 45.6056 344.008 45.6168C343.799 45.628 343.598 45.6999 343.429 45.8236C343.261 45.9473 343.132 46.1175 343.059 46.3134V46.3134Z" fill="#EE8E58"/>
<path d="M315.194 38.4633C310.396 35.4793 300.667 27.9857 297.462 15.1669C297.098 13.7181 295.793 13.7564 295.467 15.2245C292.588 28.1488 283.646 35.5465 279.299 38.4825C278.889 38.8975 278.658 39.4578 278.658 40.0417C278.658 40.6256 278.889 41.1859 279.299 41.6009C283.694 44.9015 292.847 53.2395 295.428 66.941C295.716 68.457 297.06 68.5913 297.434 67.1137C300.167 56.7689 306.489 47.7328 315.271 41.62C315.476 41.4094 315.637 41.1599 315.745 40.886C315.852 40.6122 315.904 40.3196 315.897 40.0255C315.89 39.7314 315.824 39.4417 315.703 39.1734C315.582 38.9051 315.409 38.6637 315.194 38.4633V38.4633Z" fill="#EE7228"/>
<path d="M307.412 107.539C304.716 105.803 299.199 101.447 297.376 93.9913C297.174 93.147 296.416 93.1662 296.253 93.9913C295.004 99.4884 291.738 104.316 287.099 107.52C286.869 107.766 286.74 108.09 286.74 108.427C286.74 108.764 286.869 109.088 287.099 109.334C291.832 112.973 295.076 118.212 296.224 124.071C296.387 124.954 297.184 125.031 297.356 124.177C298.878 118.217 302.443 112.981 307.431 109.382C307.552 109.26 307.647 109.115 307.711 108.957C307.776 108.798 307.808 108.628 307.806 108.456C307.804 108.285 307.769 108.116 307.701 107.958C307.633 107.801 307.535 107.659 307.412 107.539V107.539Z" fill="#EE7228"/>
</svg>
