<svg width="150" height="130" viewBox="0 0 150 130" fill="none" xmlns="http://www.w3.org/2000/svg">
<path d="M0.526367 46.0845H119.405V124.087C119.406 124.775 119.27 125.455 119.006 126.09C118.741 126.724 118.354 127.3 117.865 127.784C116.876 128.765 115.54 129.318 114.147 129.324H5.83773C4.44435 129.318 3.10907 128.765 2.11978 127.784C1.62158 127.305 1.22403 126.731 0.95042 126.096C0.676809 125.461 0.532643 124.778 0.526367 124.087L0.526367 46.0845Z" fill="#E8F0F9"/>
<path d="M111.513 46.0845V124.087C111.493 125.483 110.925 126.815 109.931 127.795C108.937 128.775 107.598 129.324 106.202 129.324H114.19C115.583 129.318 116.919 128.765 117.908 127.784C118.396 127.3 118.784 126.724 119.049 126.09C119.313 125.455 119.449 124.775 119.448 124.087V46.0845H111.513Z" fill="#D4DEED"/>
<path d="M119.405 46.0842H0.526367V29.8526C0.526655 29.1638 0.662856 28.4817 0.927166 27.8455C1.19148 27.2094 1.5787 26.6316 2.06666 26.1453C2.56383 25.655 3.1528 25.2675 3.79988 25.005C4.44697 24.7425 5.13946 24.6102 5.83773 24.6156H114.19C115.581 24.6187 116.916 25.168 117.907 26.1453C118.395 26.6316 118.783 27.2094 119.047 27.8455C119.311 28.4817 119.447 29.1638 119.448 29.8526L119.405 46.0842Z" fill="#4DA6DD"/>
<path d="M114.19 24.616H106.255C106.949 24.6062 107.638 24.7343 108.282 24.9931C108.926 25.2519 109.512 25.6361 110.006 26.1233C110.5 26.6106 110.893 27.1913 111.161 27.8316C111.428 28.4718 111.566 29.159 111.566 29.853V46.0845H119.459V29.853C119.459 29.1641 119.322 28.4821 119.058 27.8459C118.794 27.2097 118.407 26.632 117.919 26.1457C116.925 25.1657 115.586 24.6163 114.19 24.616Z" fill="#418CBA"/>
<path d="M15.2603 117.278V4.19903C15.2603 3.71687 15.3554 3.23944 15.5402 2.7941C15.7251 2.34877 15.996 1.94429 16.3374 1.60384C16.6789 1.26339 17.0841 0.993659 17.53 0.81011C17.9758 0.62656 18.4535 0.532797 18.9357 0.534195H100.996C101.97 0.534179 102.905 0.919616 103.595 1.6063C104.286 2.29299 104.677 3.22511 104.682 4.19903V117.278C104.684 117.76 104.586 118.237 104.396 118.68C104.022 119.579 103.307 120.293 102.409 120.667C101.96 120.849 101.481 120.943 100.996 120.943H18.9357C18.4549 120.941 17.9789 120.848 17.5335 120.667C17.0844 120.484 16.6763 120.213 16.3331 119.87C15.9906 119.531 15.7197 119.126 15.5364 118.68C15.3543 118.235 15.2605 117.759 15.2603 117.278Z" fill="white"/>
<path d="M100.996 0.534201H95.6846C96.1671 0.530102 96.6456 0.621895 97.0924 0.80425C97.5392 0.986605 97.9453 1.25589 98.2871 1.59647C98.6297 1.93573 98.9006 2.3403 99.0838 2.78622C99.2701 3.23005 99.364 3.70712 99.36 4.18842V117.278C99.3649 117.759 99.2709 118.237 99.0838 118.68C98.7325 119.561 98.0553 120.272 97.193 120.667C96.7442 120.849 96.2645 120.943 95.7802 120.943H101.092C101.576 120.943 102.056 120.849 102.504 120.667C103.403 120.293 104.117 119.579 104.491 118.68C104.681 118.237 104.779 117.76 104.778 117.278V4.19904C104.775 3.70862 104.674 3.22365 104.482 2.77256C104.29 2.32147 104.009 1.91332 103.657 1.57201C103.305 1.23071 102.888 0.963119 102.431 0.784914C101.974 0.606709 101.486 0.521473 100.996 0.534201Z" fill="#F2F2F2"/>
<path d="M56.6891 46.977H24.3217C23.6327 46.9722 22.973 46.6976 22.484 46.2121C22.0176 45.7192 21.7622 45.0636 21.7723 44.385V9.56375C21.7748 8.88343 22.0426 8.23093 22.5187 7.74494C22.9947 7.25894 23.6416 6.97777 24.3217 6.96118H56.6891C57.3785 6.96398 58.0389 7.23907 58.5263 7.72655C59.0138 8.21402 59.2889 8.87437 59.2917 9.56375V44.385C59.2875 45.0711 59.0127 45.7277 58.5269 46.2121C58.0362 46.6937 57.3767 46.9644 56.6891 46.9664V46.977Z" fill="#6E6E6E"/>
<path d="M46.2039 12.9946L45.8852 13.3027V12.9946H44.3768C43.9273 13.587 43.3404 14.061 42.6667 14.3756C41.993 14.6903 41.2528 14.8361 40.5101 14.8005C39.7674 14.8361 39.0272 14.6903 38.3535 14.3756C37.6798 14.061 37.0928 13.587 36.6434 12.9946H35.0925V13.2814L34.7738 12.9734L29.2075 18.5291L32.235 21.5459L35.0713 18.7309V32.8166H45.9064V18.7309L48.7427 21.5459L51.7702 18.5291L46.2039 12.9946Z" fill="white"/>
<path d="M45.9173 34.0702H35.0927C34.7584 34.066 34.4387 33.9328 34.2004 33.6984C34.0852 33.5824 33.9939 33.4449 33.932 33.2936C33.87 33.1423 33.8385 32.9802 33.8392 32.8167V21.7797L33.1381 22.4596C33.0221 22.5748 32.8846 22.666 32.7333 22.728C32.582 22.79 32.4199 22.8215 32.2564 22.8208C32.0827 22.8218 31.9107 22.7864 31.7516 22.7169C31.5924 22.6474 31.4495 22.5452 31.3323 22.4171L28.2835 19.4002C28.1699 19.284 28.0797 19.147 28.018 18.9966C27.9549 18.8451 27.9224 18.6827 27.9224 18.5186C27.9224 18.3545 27.9549 18.192 28.018 18.0405C28.0797 17.8902 28.1699 17.7531 28.2835 17.6369L33.8498 12.1024C33.9855 11.9695 34.1487 11.8679 34.3279 11.805C34.5137 11.7678 34.705 11.7678 34.8909 11.805H36.6436C36.8509 11.8063 37.055 11.8573 37.2385 11.9537C37.4192 12.0568 37.5751 12.1982 37.6953 12.368C38.0535 12.7593 38.4893 13.0717 38.9748 13.2854C39.4604 13.4992 39.9851 13.6095 40.5156 13.6095C41.0461 13.6095 41.5708 13.4992 42.0564 13.2854C42.5419 13.0717 42.9777 12.7593 43.3359 12.368C43.4533 12.1957 43.6098 12.0537 43.7927 11.9537C43.9758 11.8561 44.1801 11.805 44.3876 11.805H46.2041C46.3676 11.8043 46.5296 11.8358 46.6809 11.8977C46.8322 11.9597 46.9698 12.0509 47.0858 12.1662L52.6414 17.7006C52.7583 17.8164 52.852 17.9534 52.9176 18.1043C52.9807 18.2557 53.0132 18.4182 53.0132 18.5823C53.0132 18.7464 52.9807 18.9089 52.9176 19.0603C52.852 19.2112 52.7583 19.3482 52.6414 19.464L49.614 22.4808C49.498 22.5961 49.3604 22.6873 49.2091 22.7493C49.0578 22.8112 48.8958 22.8428 48.7323 22.842C48.5688 22.8428 48.4067 22.8112 48.2554 22.7493C48.1042 22.6873 47.9666 22.5961 47.8506 22.4808L47.1814 21.7797V32.8167C47.1825 32.9809 47.15 33.1436 47.0858 33.2948C47.0263 33.449 46.9318 33.5872 46.8096 33.6984C46.6939 33.8179 46.5552 33.9124 46.4017 33.9763C46.2483 34.0403 46.0835 34.0722 45.9173 34.0702ZM36.3568 31.5845H44.6956V18.731C44.6959 18.4848 44.7699 18.2443 44.9081 18.0405C45.0467 17.8361 45.2425 17.6772 45.4711 17.5838C45.705 17.4951 45.9598 17.4766 46.2041 17.5306C46.4463 17.5825 46.6679 17.7044 46.8414 17.8812L48.7854 19.8145L50.0176 18.5929L46.0235 14.5988C45.8236 14.6229 45.621 14.5898 45.4392 14.5032C45.313 14.4491 45.195 14.3776 45.0887 14.2907H44.9825C43.7774 15.4488 42.171 16.0957 40.4997 16.0957C38.8284 16.0957 37.2219 15.4488 36.0169 14.2907H35.9107C35.807 14.3813 35.6884 14.4532 35.5601 14.5032C35.3746 14.5769 35.1752 14.6095 34.9759 14.5988L30.9817 18.5717L32.2458 19.8358L34.2004 17.8493C34.3702 17.6697 34.594 17.5504 34.8378 17.5094C35.0816 17.4376 35.342 17.445 35.5813 17.5306C35.808 17.6272 36.0031 17.7855 36.1443 17.9874C36.2794 18.1921 36.3497 18.4327 36.3462 18.6779V31.5314L36.3568 31.5845Z" fill="white"/>
<path d="M96.2694 10.8491H71.0085C70.5064 10.8269 70.0315 10.6142 69.6807 10.2542C69.3265 9.89453 69.1279 9.40996 69.1279 8.90514C69.1279 8.40032 69.3265 7.91575 69.6807 7.55605C70.0315 7.19608 70.5064 6.98335 71.0085 6.96118H96.2694C96.7715 6.98335 97.2464 7.19608 97.5972 7.55605C97.9514 7.91575 98.15 8.40032 98.15 8.90514C98.15 9.40996 97.9514 9.89453 97.5972 10.2542C97.2464 10.6142 96.7715 10.8269 96.2694 10.8491Z" fill="#4DA6DD"/>
<path d="M96.2688 19.8891H65.7498C65.4892 19.8939 65.2299 19.8507 64.9849 19.7616C64.7383 19.6673 64.514 19.5225 64.3263 19.3367C64.1357 19.1569 63.9839 18.94 63.8802 18.6993C63.783 18.4597 63.7325 18.2037 63.7314 17.9451C63.7334 17.6832 63.7839 17.4239 63.8802 17.1803C64.0796 16.6995 64.4616 16.3175 64.9424 16.118C65.1859 16.0234 65.4463 15.9801 65.7073 15.9905H96.2688C96.7715 16.0123 97.2467 16.226 97.5965 16.5877C97.9463 16.9493 98.1441 17.4314 98.1491 17.9345C98.1458 18.4386 97.9479 18.922 97.5967 19.2836C97.2476 19.6475 96.7725 19.8641 96.2688 19.8891Z" fill="#4DA6DD"/>
<path d="M96.2688 28.9181H65.7498C65.4892 28.9229 65.2299 28.8797 64.9849 28.7907C64.7407 28.6964 64.5171 28.5557 64.3263 28.3764C64.1354 28.1927 63.9837 27.9723 63.8802 27.7284C63.783 27.4888 63.7325 27.2328 63.7314 26.9742C63.7334 26.7122 63.7839 26.4529 63.8802 26.2093C64.0796 25.7285 64.4616 25.3465 64.9424 25.1471C65.1859 25.0525 65.4463 25.0091 65.7073 25.0196H96.2688C96.771 25.0418 97.2459 25.2545 97.5967 25.6145C97.9509 25.9742 98.1494 26.4587 98.1494 26.9636C98.1494 27.4684 97.9509 27.953 97.5967 28.3126C97.2459 28.6726 96.771 28.8853 96.2688 28.9075V28.9181Z" fill="#4DA6DD"/>
<path d="M96.2694 37.9476H65.7504C65.4894 37.9581 65.229 37.9147 64.9855 37.8201C64.5047 37.6207 64.1227 37.2386 63.9233 36.7578C63.7248 36.2672 63.7248 35.7187 63.9233 35.2281C64.1227 34.7473 64.5047 34.3653 64.9855 34.1659C65.229 34.0713 65.4894 34.0279 65.7504 34.0384H96.2694C96.7716 34.0606 97.2464 34.2733 97.5973 34.6333C97.9515 34.993 98.15 35.4775 98.15 35.9824C98.15 36.4872 97.9515 36.9717 97.5973 37.3314C97.2464 37.6914 96.7716 37.9041 96.2694 37.9263V37.9476Z" fill="#EC7425"/>
<path d="M96.2687 55.8681H23.673C23.412 55.8795 23.1514 55.8361 22.9082 55.7406C22.6596 55.6553 22.4341 55.5135 22.2496 55.3263C22.0498 55.1558 21.8871 54.9461 21.7716 54.7102C21.6665 54.4708 21.6123 54.2122 21.6123 53.9507C21.6123 53.6892 21.6665 53.4306 21.7716 53.1912C21.8753 52.9505 22.0271 52.7336 22.2177 52.5538C22.4023 52.3666 22.6277 52.2248 22.8763 52.1395C23.1196 52.044 23.3801 52.0006 23.6412 52.012H96.2687C96.7709 52.0248 97.2479 52.2347 97.5965 52.5963C97.9514 52.9578 98.1503 53.4441 98.1503 53.9507C98.1503 54.4573 97.9514 54.9436 97.5965 55.3051C97.2444 55.6589 96.7678 55.8609 96.2687 55.8681Z" fill="#4DA6DD"/>
<path d="M96.269 64.9078H23.6733C23.4122 64.9192 23.1517 64.8758 22.9084 64.7803C22.6617 64.6911 22.4371 64.5498 22.2498 64.366C22.0616 64.1842 21.9101 63.9678 21.8037 63.7287C21.6984 63.4874 21.644 63.227 21.644 62.9638C21.644 62.7006 21.6984 62.4402 21.8037 62.199C21.9101 61.9599 22.0616 61.7435 22.2498 61.5616C22.4371 61.3778 22.6617 61.2365 22.9084 61.1473C23.1517 61.0519 23.4122 61.0084 23.6733 61.0199H96.269C96.7711 61.042 97.246 61.2548 97.5968 61.6147C97.951 61.9744 98.1496 62.459 98.1496 62.9638C98.1496 63.4686 97.951 63.9532 97.5968 64.3129C97.246 64.6729 96.7711 64.8856 96.269 64.9078Z" fill="#4DA6DD"/>
<path d="M96.2688 73.9479H23.6731C23.4125 73.9527 23.1532 73.9095 22.9083 73.8205C22.659 73.7314 22.4336 73.586 22.2497 73.3955C22.0488 73.2219 21.886 73.0085 21.7716 72.7688C21.6661 72.5314 21.6118 72.2744 21.6123 72.0146C21.6119 71.7514 21.6662 71.4909 21.7716 71.2498C21.8781 71.0106 22.0296 70.7943 22.2178 70.6124C22.4024 70.4252 22.6278 70.2834 22.8764 70.1981C23.1196 70.1026 23.3802 70.0592 23.6412 70.0706H96.2688C96.7715 70.0924 97.2467 70.3061 97.5965 70.6678C97.9463 71.0294 98.1441 71.5115 98.149 72.0146C98.1458 72.5187 97.9479 73.002 97.5966 73.3637C97.2458 73.7237 96.771 73.9364 96.2688 73.9586V73.9479Z" fill="#4DA6DD"/>
<path d="M96.2687 82.9773H23.673C23.4119 82.9887 23.1514 82.9453 22.9082 82.8498C22.6614 82.7606 22.4368 82.6193 22.2495 82.4355C22.0589 82.2557 21.9071 82.0388 21.8034 81.7982C21.6979 81.557 21.6436 81.2966 21.644 81.0333C21.6436 80.7735 21.6979 80.5165 21.8034 80.2791C21.9071 80.0385 22.0589 79.8216 22.2495 79.6418C22.4362 79.4547 22.6608 79.3098 22.9082 79.2168C23.1541 79.1317 23.4127 79.0886 23.673 79.0894H96.2687C96.7708 79.1115 97.2457 79.3243 97.5965 79.6842C97.9507 80.0439 98.1493 80.5285 98.1493 81.0333C98.1493 81.5381 97.9507 82.0227 97.5965 82.3824C97.4258 82.5648 97.2205 82.7114 96.9925 82.8135C96.7645 82.9156 96.5184 82.9713 96.2687 82.9773Z" fill="#4DA6DD"/>
<path d="M83.1072 92.0066H23.6731C23.4121 92.018 23.1515 91.9746 22.9083 91.8791C22.6597 91.7938 22.4342 91.652 22.2497 91.4648C22.0476 91.2881 21.8847 91.071 21.7716 90.8275C21.6662 90.5863 21.6119 90.3258 21.6123 90.0626C21.6118 89.8028 21.6661 89.5458 21.7716 89.3084C21.8754 89.0678 22.0272 88.8509 22.2178 88.671C22.4044 88.484 22.629 88.3391 22.8764 88.2461C23.1224 88.161 23.381 88.1179 23.6412 88.1187H83.1285C83.3923 88.1179 83.6543 88.161 83.904 88.2461C84.1486 88.3443 84.3722 88.4886 84.5626 88.671C84.7533 88.8485 84.9021 89.0662 84.9981 89.3084C85.1036 89.5458 85.1579 89.8028 85.1574 90.0626C85.1578 90.3258 85.1036 90.5863 84.9981 90.8275C84.9021 91.0696 84.7533 91.2874 84.5626 91.4648C84.3745 91.6476 84.1501 91.7887 83.904 91.8791C83.657 91.9745 83.393 92.0179 83.1285 92.0066H83.1072Z" fill="#4DA6DD"/>
<path d="M96.2688 92.0171H23.6731C23.4121 92.0286 23.1515 91.9851 22.9083 91.8897C22.6616 91.8005 22.4369 91.6592 22.2497 91.4754C22.0473 91.2947 21.8846 91.0741 21.7717 90.8274C21.6652 90.5903 21.6109 90.3331 21.6123 90.0732C21.6119 89.81 21.6662 89.5495 21.7717 89.3084C21.8781 89.0692 22.0296 88.8528 22.2178 88.671C22.4051 88.4872 22.6297 88.3459 22.8764 88.2567C23.1197 88.1612 23.3802 88.1178 23.6413 88.1292H96.2688C96.771 88.1514 97.2458 88.3641 97.5967 88.7241C97.9509 89.0838 98.1494 89.5684 98.1494 90.0732C98.1494 90.578 97.9509 91.0626 97.5967 91.4223C97.2458 91.7822 96.771 91.995 96.2688 92.0171Z" fill="#4DA6DD"/>
<path d="M83.1074 101.046H23.6733C23.4122 101.058 23.1517 101.014 22.9084 100.919C22.6617 100.83 22.4371 100.688 22.2498 100.505C22.0616 100.323 21.9101 100.106 21.8037 99.8673C21.6984 99.6261 21.644 99.3657 21.644 99.1025C21.644 98.8393 21.6984 98.5789 21.8037 98.3376C21.9101 98.0985 22.0616 97.8821 22.2498 97.7003C22.4371 97.5165 22.6617 97.3752 22.9084 97.286C23.1517 97.1905 23.4122 97.1471 23.6733 97.1585H83.1605C83.425 97.1472 83.689 97.1906 83.936 97.286C84.1802 97.3803 84.4038 97.521 84.5946 97.7003C84.783 97.8797 84.9314 98.0969 85.0301 98.3376C85.1354 98.5789 85.1897 98.8393 85.1897 99.1025C85.1897 99.3657 85.1354 99.6261 85.0301 99.8673C84.9314 100.108 84.783 100.325 84.5946 100.505C84.4038 100.684 84.1802 100.825 83.936 100.919C83.689 101.014 83.425 101.058 83.1605 101.046H83.1074Z" fill="#4DA6DD"/>
<path d="M96.2692 46.9768H65.7501C65.4948 46.9768 65.242 46.9265 65.0062 46.8288C64.7703 46.7311 64.556 46.5879 64.3755 46.4074C64.195 46.2269 64.0518 46.0126 63.9541 45.7767C63.8564 45.5409 63.8062 45.2881 63.8062 45.0328C63.8062 44.7775 63.8564 44.5248 63.9541 44.2889C64.0518 44.0531 64.195 43.8387 64.3755 43.6582C64.556 43.4777 64.7703 43.3345 65.0062 43.2368C65.242 43.1391 65.4948 43.0889 65.7501 43.0889H96.2692C96.5245 43.0889 96.7773 43.1391 97.0131 43.2368C97.249 43.3345 97.4633 43.4777 97.6438 43.6582C97.8243 43.8387 97.9675 44.0531 98.0652 44.2889C98.1629 44.5248 98.2132 44.7775 98.2132 45.0328C98.2132 45.2881 98.1629 45.5409 98.0652 45.7767C97.9675 46.0126 97.8243 46.2269 97.6438 46.4074C97.4633 46.5879 97.249 46.7311 97.0131 46.8288C96.7773 46.9265 96.5245 46.9768 96.2692 46.9768Z" fill="#EC7425"/>
<path d="M30.0472 42.4834L29.856 41.4211L30.6527 40.6456C30.7019 40.5947 30.7383 40.5328 30.7589 40.4651C30.7745 40.3974 30.7709 40.3266 30.7483 40.2609C30.7258 40.1952 30.6853 40.1371 30.6314 40.0933C30.5819 40.0463 30.5186 40.0165 30.4509 40.0083L29.3886 39.8489L28.8362 38.776C28.8055 38.7113 28.7578 38.6562 28.6981 38.6167C28.6364 38.5823 28.5669 38.5642 28.4963 38.5642C28.4256 38.5642 28.3561 38.5823 28.2944 38.6167C28.2337 38.6582 28.183 38.7126 28.1457 38.776L27.6571 39.7852L26.5948 39.9445C26.5233 39.9505 26.456 39.9805 26.4036 40.0295C26.3475 40.0722 26.3065 40.1318 26.2868 40.1995C26.271 40.2658 26.271 40.335 26.2868 40.4013C26.3073 40.4691 26.3437 40.531 26.393 40.5819L27.2003 41.3574L27.0091 42.4196C26.988 42.4853 26.988 42.5558 27.0091 42.6215C27.0297 42.6889 27.0753 42.7459 27.1366 42.7808C27.1899 42.8267 27.2574 42.853 27.3278 42.8552C27.3934 42.8763 27.464 42.8763 27.5296 42.8552L28.5175 42.3347L29.5054 42.8552C29.5714 42.8743 29.6414 42.8743 29.7073 42.8552C29.7808 42.8529 29.8516 42.8268 29.9091 42.7808C29.9688 42.7413 30.0165 42.6862 30.0472 42.6215C30.0635 42.5516 30.0635 42.4789 30.0472 42.409V42.4834Z" fill="#EC7425"/>
<path d="M36.4736 39.9763L35.4113 39.817L34.8589 38.7759C34.8316 38.7091 34.7831 38.6531 34.7208 38.6166C34.6627 38.5828 34.5968 38.5645 34.5296 38.5635C34.4588 38.5632 34.3892 38.5815 34.3278 38.6166C34.2681 38.6561 34.2203 38.7112 34.1897 38.7759L33.6904 39.7851L32.6281 39.9444C32.5604 39.9527 32.4971 39.9825 32.4475 40.0294C32.3914 40.0721 32.3504 40.1317 32.3307 40.1994C32.3149 40.2657 32.3149 40.3349 32.3307 40.4012C32.3513 40.469 32.3877 40.5309 32.4369 40.5818L33.2336 41.3573L33.0424 42.4195C33.0266 42.4859 33.0266 42.555 33.0424 42.6214C33.0697 42.685 33.1138 42.7401 33.1699 42.7807C33.2281 42.8254 33.2985 42.8513 33.3717 42.8551C33.4375 42.8748 33.5077 42.8748 33.5736 42.8551L34.5615 42.3345L35.5494 42.8551C35.6149 42.8769 35.6857 42.8769 35.7512 42.8551C35.8212 42.8513 35.8882 42.8252 35.9424 42.7807C35.9986 42.7401 36.0426 42.685 36.0699 42.6214C36.0857 42.555 36.0857 42.4859 36.0699 42.4195L35.8787 41.3573L36.6754 40.5818C36.7284 40.5338 36.7655 40.4708 36.7816 40.4012C36.8082 40.3366 36.8082 40.264 36.7816 40.1994C36.7661 40.1325 36.7288 40.0726 36.6754 40.0294C36.6208 39.9839 36.5546 39.9544 36.4842 39.9444L36.4736 39.9763Z" fill="#EC7425"/>
<path d="M42.4964 39.9765L41.4341 39.8172L40.8924 38.7761C40.861 38.7147 40.8132 38.6632 40.7543 38.6274C40.6952 38.5858 40.6247 38.5635 40.5525 38.5635C40.4802 38.5635 40.4097 38.5858 40.3506 38.6274C40.2917 38.6632 40.2439 38.7147 40.2125 38.7761L39.7133 39.7853L38.651 39.9446C38.5795 39.9506 38.5121 39.9806 38.4598 40.0296C38.4045 40.0721 38.3637 40.1306 38.3428 40.1971C38.3219 40.2636 38.3219 40.3349 38.3429 40.4014C38.3596 40.4685 38.3925 40.5305 38.4385 40.582L39.2352 41.3574L39.0547 42.4197C39.0422 42.4878 39.0496 42.5581 39.076 42.6221C39.1023 42.6862 39.1466 42.7413 39.2034 42.7809C39.2567 42.8268 39.3242 42.853 39.3946 42.8553C39.4602 42.8764 39.5308 42.8764 39.5964 42.8553L40.5843 42.3347L41.5722 42.8553C41.6381 42.875 41.7083 42.875 41.7741 42.8553C41.8444 42.853 41.9119 42.8268 41.9653 42.7809C42.0221 42.7413 42.0663 42.6862 42.0927 42.6221C42.119 42.5581 42.1264 42.4878 42.114 42.4197L41.9334 41.3574L42.7301 40.582C42.7794 40.5311 42.8158 40.4692 42.8363 40.4014C42.8522 40.3351 42.8522 40.2659 42.8363 40.1996C42.8166 40.1319 42.7756 40.0723 42.7195 40.0296C42.6671 39.9806 42.5998 39.9506 42.5283 39.9446L42.4964 39.9765Z" fill="#EC7425"/>
<path d="M48.5307 39.9763L47.4684 39.817L46.9267 38.7759C46.9021 38.71 46.8525 38.6565 46.7886 38.6272C46.7334 38.5858 46.6663 38.5635 46.5974 38.5635C46.5251 38.5634 46.4546 38.5857 46.3955 38.6272C46.3366 38.663 46.2888 38.7145 46.2574 38.7759L45.7475 39.7851L44.6853 39.9444C44.6175 39.9527 44.5542 39.9825 44.5047 40.0294C44.4485 40.0721 44.4076 40.1317 44.3878 40.1994C44.372 40.2657 44.372 40.3349 44.3878 40.4012C44.4084 40.469 44.4448 40.5309 44.4941 40.5818L45.2908 41.3573L45.0995 42.4195C45.0837 42.4859 45.0837 42.555 45.0995 42.6214C45.1275 42.6878 45.1759 42.7436 45.2376 42.7807C45.2934 42.8224 45.3595 42.8481 45.4289 42.8551C45.4953 42.8701 45.5643 42.8701 45.6307 42.8551L46.6186 42.3345L47.6065 42.8551C47.665 42.893 47.7333 42.9132 47.803 42.9132C47.8728 42.9132 47.941 42.893 47.9996 42.8551C48.0584 42.8174 48.1032 42.7614 48.127 42.6957C48.1428 42.6294 48.1428 42.5602 48.127 42.4939L47.9464 41.4316L48.7431 40.6562C48.7892 40.6046 48.822 40.5426 48.8387 40.4756C48.8597 40.4091 48.8598 40.3378 48.8389 40.2713C48.818 40.2048 48.7771 40.1463 48.7219 40.1038C48.6683 40.0566 48.6016 40.027 48.5307 40.0188V39.9763Z" fill="#EC7425"/>
<path d="M54.5537 39.9763L53.4915 39.817L52.9603 38.7759C52.9324 38.7122 52.8837 38.6598 52.8222 38.6272C52.7631 38.5857 52.6926 38.5634 52.6204 38.5635C52.5514 38.5635 52.4843 38.5858 52.4292 38.6272C52.3653 38.6565 52.3156 38.71 52.2911 38.7759L51.7812 39.7851L50.7189 39.9444C50.648 39.9526 50.5813 39.9823 50.5277 40.0294C50.4747 40.075 50.4344 40.1336 50.4109 40.1994C50.3897 40.265 50.3897 40.3356 50.4109 40.4012C50.4276 40.4683 50.4604 40.5303 50.5065 40.5818L51.3138 41.3573L51.1226 42.4195C51.1015 42.4851 51.1015 42.5557 51.1226 42.6214C51.1499 42.685 51.1939 42.7401 51.2501 42.7807C51.3068 42.8207 51.3724 42.8463 51.4413 42.8551C51.5075 42.8721 51.5769 42.8721 51.6431 42.8551L52.631 42.3345L53.6189 42.8551C53.6847 42.8748 53.7549 42.8748 53.8208 42.8551C53.8911 42.8528 53.9586 42.8266 54.012 42.7807C54.0732 42.7458 54.1188 42.6888 54.1394 42.6214C54.1599 42.5556 54.1599 42.4853 54.1394 42.4195L53.9482 41.3573L54.7449 40.5818C54.7942 40.5309 54.8306 40.469 54.8512 40.4012C54.867 40.3349 54.867 40.2657 54.8512 40.1994C54.8314 40.1317 54.7905 40.0721 54.7343 40.0294C54.682 39.9804 54.6146 39.9504 54.5431 39.9444L54.5537 39.9763Z" fill="#EC7425"/>
<path d="M136.252 76.1359C136.138 76.1359 136.025 76.1134 135.919 76.0697C135.813 76.026 135.717 75.9618 135.636 75.8809C135.267 75.512 134.974 75.074 134.775 74.5919C134.575 74.1098 134.472 73.5931 134.472 73.0712C134.472 72.5494 134.575 72.0327 134.775 71.5506C134.974 71.0685 135.267 70.6305 135.636 70.2615L147.024 58.874C147.233 58.6648 147.399 58.4164 147.513 58.143C147.626 57.8696 147.684 57.5765 147.684 57.2805C147.684 56.9846 147.626 56.6915 147.513 56.4181C147.399 56.1447 147.233 55.8963 147.024 55.6871L144.782 53.4457C144.702 53.362 144.639 53.2634 144.597 53.1553C144.555 53.0473 144.535 52.9321 144.537 52.8162C144.54 52.7003 144.565 52.586 144.612 52.4798C144.658 52.3737 144.725 52.2778 144.809 52.1976C144.893 52.1174 144.991 52.0544 145.099 52.0123C145.207 51.9703 145.323 51.9499 145.439 51.9523C145.554 51.9548 145.669 51.9801 145.775 52.0267C145.881 52.0734 145.977 52.1404 146.057 52.2241L148.299 54.4655C149.045 55.2124 149.464 56.2249 149.464 57.2805C149.464 58.3362 149.045 59.3487 148.299 60.0956L136.858 71.4831C136.648 71.6923 136.482 71.9407 136.369 72.2141C136.256 72.4875 136.197 72.7806 136.197 73.0765C136.197 73.3725 136.256 73.6656 136.369 73.939C136.482 74.2124 136.648 74.4608 136.858 74.6699C136.938 74.749 137.002 74.8433 137.045 74.9472C137.089 75.0512 137.111 75.1627 137.111 75.2754C137.111 75.3881 137.089 75.4997 137.045 75.6037C137.002 75.7076 136.938 75.8019 136.858 75.8809C136.698 76.0427 136.48 76.1343 136.252 76.1359Z" fill="#6E6E6E"/>
<path d="M148.394 46.6154L144.517 42.7275C144.145 42.3438 143.642 42.1143 143.109 42.0848C142.575 42.0553 142.05 42.2279 141.638 42.5682L136.933 46.2968C136.318 46.7895 135.729 47.3143 135.169 47.8689L127.51 55.5279L126.937 56.4415L134.691 64.1854L135.605 63.6224L143.264 55.9634C143.818 55.4036 144.343 54.815 144.836 54.2001L148.564 49.4942C148.903 49.081 149.074 48.5551 149.043 48.0216C149.011 47.488 148.78 46.9859 148.394 46.6154Z" fill="#EE8E58"/>
<path d="M148.395 46.6157L146.546 44.7673C146.701 45.1377 146.754 45.5428 146.7 45.9406C146.646 46.3384 146.487 46.7145 146.238 47.03L142.382 51.8952C141.871 52.5305 141.325 53.1369 140.746 53.7117L132.641 61.8168L134.681 64.1857L135.594 63.6227L143.253 55.9637C143.808 55.4039 144.333 54.8153 144.825 54.2003L148.554 49.4944C148.893 49.0812 149.064 48.5554 149.032 48.0218C149.001 47.4883 148.769 46.9862 148.384 46.6157H148.395Z" fill="#EC7425"/>
<path d="M105.85 80.4172L101.006 85.2506C100.109 86.1596 99.0205 86.8564 97.8194 87.2901L94.9726 88.2887C94.8909 88.3189 94.817 88.3671 94.7564 88.4296C94.6957 88.4921 94.6498 88.5673 94.622 88.6498L90.8191 99.8568C90.8012 99.9173 90.8 99.9815 90.8155 100.043C90.831 100.104 90.8628 100.159 90.9074 100.204C90.9519 100.249 91.0077 100.28 91.0688 100.296C91.13 100.311 91.1941 100.31 91.2546 100.292L102.504 96.5638C102.586 96.5367 102.66 96.4909 102.721 96.43C102.782 96.3692 102.828 96.2949 102.855 96.2132L103.917 93.3663C104.351 92.1653 105.047 91.0764 105.956 90.1795L110.79 85.3356L105.85 80.4172Z" fill="#6E6E6E"/>
<path d="M108.665 83.2322L103.832 88.0761C102.923 88.973 102.226 90.0619 101.792 91.263L100.73 94.1098C100.703 94.1931 100.656 94.2686 100.593 94.3296C100.53 94.3907 100.453 94.4355 100.369 94.4604L91.5945 97.3816L90.8191 99.8567C90.8012 99.9172 90.8 99.9814 90.8155 100.042C90.831 100.104 90.8628 100.159 90.9074 100.204C90.9519 100.249 91.0077 100.28 91.0688 100.296C91.13 100.311 91.1941 100.31 91.2546 100.292L102.504 96.5637C102.586 96.5366 102.66 96.4908 102.721 96.43C102.782 96.3691 102.828 96.2948 102.855 96.2131L103.917 93.3663C104.351 92.1652 105.047 91.0763 105.956 90.1794L110.79 85.3355L108.665 83.2322Z" fill="#585858"/>
<path d="M98.5002 94.2691C99.4036 94.2691 100.136 93.5367 100.136 92.6332C100.136 91.7297 99.4036 90.9973 98.5002 90.9973C97.5967 90.9973 96.8643 91.7297 96.8643 92.6332C96.8643 93.5367 97.5967 94.2691 98.5002 94.2691Z" fill="white"/>
<path d="M118.226 80.9908L125.811 73.4168C126.289 72.9281 126.745 72.4289 127.181 71.8977L133.193 64.5468L126.586 57.897L119.235 63.9094C118.704 64.345 118.173 64.8017 117.716 65.2798L110.142 72.8644C109.603 73.3968 109.095 73.9608 108.623 74.5534L107.699 75.7113V76.8373L106.637 77.071L103.811 80.5977C103.706 80.7163 103.647 80.8694 103.647 81.028C103.647 81.1865 103.706 81.3396 103.811 81.4582L109.611 87.2476C109.729 87.3528 109.883 87.411 110.041 87.411C110.2 87.411 110.353 87.3528 110.471 87.2476L113.998 84.4219L114.359 83.5508L115.358 83.3384L116.516 82.4142C117.108 81.9418 117.672 81.4345 118.205 80.8952L118.226 80.9908Z" fill="#EE8E58"/>
<path d="M130.814 62.146L124.813 69.5182C124.387 70.0518 123.929 70.5591 123.442 71.0372L115.868 78.6112C115.332 79.1509 114.765 79.6582 114.169 80.1303L107.667 85.3248L109.643 87.29C109.762 87.3953 109.915 87.4534 110.074 87.4534C110.232 87.4534 110.385 87.3953 110.504 87.29L114.03 84.4643L114.392 83.5933L115.39 83.3808L116.548 82.4566C117.141 81.9842 117.705 81.477 118.237 80.9376L125.822 73.3636C126.3 72.8749 126.757 72.3757 127.192 71.8445L133.205 64.4936L130.814 62.146Z" fill="#EC7425"/>
<path d="M137.442 76.6675C138.792 76.6675 139.885 75.5736 139.885 74.2242C139.885 72.8749 138.792 71.781 137.442 71.781C136.093 71.781 134.999 72.8749 134.999 74.2242C134.999 75.5736 136.093 76.6675 137.442 76.6675Z" fill="#6E6E6E"/>
<path d="M139.174 72.5031C138.843 72.1748 138.425 71.9475 137.97 71.8478C137.515 71.7481 137.041 71.7801 136.603 71.9401C136.933 72.0645 137.233 72.2562 137.485 72.5031C137.939 72.9625 138.195 73.5828 138.195 74.2293C138.195 74.8757 137.939 75.496 137.485 75.9555C137.23 76.1986 136.931 76.3899 136.603 76.5185C137.125 76.7081 137.695 76.7144 138.221 76.5365C138.747 76.3586 139.196 76.007 139.495 75.5396C139.795 75.0722 139.926 74.5168 139.867 73.9649C139.809 73.413 139.564 72.8974 139.174 72.5031Z" fill="#585858"/>
<path d="M127.511 55.5281L124.229 58.8105C124.148 58.8905 124.084 58.9856 124.04 59.0905C123.997 59.1953 123.974 59.3077 123.974 59.4213C123.974 59.5349 123.997 59.6473 124.04 59.7521C124.084 59.857 124.148 59.9521 124.229 60.0321L131.091 66.905C131.172 66.986 131.268 67.0502 131.373 67.094C131.479 67.1378 131.592 67.1603 131.707 67.1603C131.821 67.1603 131.935 67.1378 132.04 67.094C132.146 67.0502 132.242 66.986 132.323 66.905L135.605 63.6226L127.511 55.5281Z" fill="#6E6E6E"/>
<path d="M133.226 61.2429L129.327 65.1415L131.091 66.9048C131.171 66.9858 131.267 67.05 131.373 67.0938C131.479 67.1376 131.592 67.1601 131.707 67.1601C131.821 67.1601 131.934 67.1376 132.04 67.0938C132.146 67.05 132.242 66.9858 132.323 66.9048L135.605 63.6224L133.226 61.2429Z" fill="#585858"/>
<path d="M106.616 77.1135L114.052 84.5494L115.411 83.4871L107.731 75.8069L106.616 77.1135Z" fill="#6E6E6E"/>
<path d="M111.651 82.1378L114.02 84.5173L115.38 83.455L113 81.0862L111.651 82.1378Z" fill="#585858"/>
</svg>
