<svg width="146" height="136" viewBox="0 0 146 136" fill="none" xmlns="http://www.w3.org/2000/svg">
<path d="M104.44 0.559326H41.4541C38.2332 0.559326 35.6221 3.17041 35.6221 6.39134V130.03C35.6221 133.251 38.2332 135.862 41.4541 135.862H104.44C107.661 135.862 110.272 133.251 110.272 130.03V6.39134C110.272 3.17041 107.661 0.559326 104.44 0.559326Z" fill="#5DA8D9"/>
<path d="M35.6221 103.203H110.272V110.201H35.6221V103.203Z" fill="#4798CC"/>
<path d="M85.7775 112.534H60.1167C56.8957 112.534 54.2847 115.145 54.2847 118.366V120.699C54.2847 123.92 56.8957 126.531 60.1167 126.531H85.7775C88.9985 126.531 91.6095 123.92 91.6095 120.699V118.366C91.6095 115.145 88.9985 112.534 85.7775 112.534Z" fill="#F2FAFF"/>
<g filter="url(#filter0_d)">
<path d="M137.683 16.8889H8.2119C6.60144 16.8889 5.2959 18.1945 5.2959 19.8049V100.287C5.2959 101.897 6.60144 103.203 8.2119 103.203H137.683C139.293 103.203 140.599 101.897 140.599 100.287V19.8049C140.599 18.1945 139.293 16.8889 137.683 16.8889Z" fill="white"/>
</g>
<path d="M5.2959 84.54V100.286C5.2959 101.06 5.60312 101.802 6.14998 102.348C6.69683 102.895 7.43853 103.202 8.2119 103.202H137.683C138.456 103.202 139.198 102.895 139.744 102.348C140.291 101.802 140.599 101.06 140.599 100.286V84.54H5.2959Z" fill="#585858"/>
<path d="M12.2944 91.5388H21.6256V96.2044H12.2944V91.5388Z" fill="#FFF5F1"/>
<path d="M26.291 91.5388H47.2863V96.2044H26.291V91.5388Z" fill="#FFF5F1"/>
<path d="M51.9521 91.5388H56.6178V96.2044H51.9521V91.5388Z" fill="#FFF5F1"/>
<path d="M61.2832 91.5388H65.9488V96.2044H61.2832V91.5388Z" fill="#FFF5F1"/>
<path d="M28.624 68.2106V30.8857L65.9489 49.5482L28.624 68.2106Z" fill="#EC7425"/>
<path d="M126.602 77.5419H84.6113V30.8859C84.6113 25.3176 86.8233 19.9774 90.7607 16.04C94.6981 12.1026 100.038 9.89063 105.607 9.89062C111.175 9.89063 116.515 12.1026 120.452 16.04C124.39 19.9774 126.602 25.3176 126.602 30.8859V77.5419Z" fill="#6E6E6E"/>
<path d="M131.189 103.203C131.241 102.452 131.267 101.675 131.267 100.87C131.267 84.1203 124.269 58.8794 105.607 58.8794C86.9442 58.8794 79.9458 84.1203 79.9458 100.87C79.9458 101.675 79.972 102.452 80.0245 103.203H131.189Z" fill="#89C3E8"/>
<path d="M111.981 59.967L112.605 61.2122L105.606 72.8762L114.938 79.8746L119.28 64.6822C117.222 62.5945 114.73 60.9847 111.981 59.967Z" fill="#FFFDFA"/>
<path d="M91.9331 64.6822L96.275 79.8746L105.606 72.8762L98.6078 61.2122L99.2319 59.967C96.4827 60.9847 93.991 62.5945 91.9331 64.6822Z" fill="#FFFDFA"/>
<path d="M86.5593 72.2932H86.4368C81.882 80.8954 79.9458 92.0579 79.9458 100.87C79.9458 101.675 79.972 102.452 80.0245 103.203H94.6046L89.4199 74.6873C89.2979 74.0168 88.945 73.4103 88.4225 72.973C87.8999 72.5357 87.2407 72.2952 86.5593 72.2932Z" fill="#6DB8E8"/>
<path d="M100.941 49.5481H110.272L112.605 61.2121L105.606 72.8761L98.6079 61.2121L100.941 49.5481Z" fill="#F9CFCF"/>
<path d="M110.272 49.5481H100.941L99.5151 56.6806L99.9059 56.9139C101.628 57.9471 103.598 58.4929 105.607 58.4929C107.615 58.4929 109.585 57.9471 111.307 56.9139L111.698 56.6806L110.272 49.5481Z" fill="#E6B8B8"/>
<path d="M96.2752 33.2187C99.1615 33.2196 101.977 32.3282 104.337 30.6667C106.697 29.0051 108.486 26.6546 109.458 23.937C111.604 24.1679 113.589 25.1839 115.031 26.7896C116.473 28.3952 117.271 30.4773 117.27 32.6355V43.9146C117.27 44.9217 117.01 45.9116 116.513 46.788C116.017 47.6644 115.303 48.3974 114.439 48.9155L108.607 52.4147C107.701 52.9586 106.663 53.2458 105.606 53.2458C104.549 53.2458 103.512 52.9586 102.606 52.4147L96.7738 48.9155C95.9102 48.3974 95.1955 47.6644 94.6994 46.788C94.2032 45.9116 93.9424 44.9217 93.9424 43.9146V33.2187H96.2752Z" fill="#F9CFCF"/>
<path d="M58.9507 65.8779H78.7795C80.3263 65.8779 81.8097 66.4924 82.9034 67.5861C83.9971 68.6798 84.6115 70.1632 84.6115 71.7099V77.5419H70.6147C67.5212 77.5419 64.5544 76.3131 62.367 74.1256C60.1796 71.9382 58.9507 68.9714 58.9507 65.8779Z" fill="#F9CFCF"/>
<path d="M84.611 77.542H75.2798V97.3708C75.2798 98.9176 75.8942 100.401 76.9879 101.495C78.0817 102.588 79.565 103.203 81.1118 103.203H89.2766L84.611 77.542Z" fill="#89C3E8"/>
<defs>
<filter id="filter0_d" x="0.835372" y="16.8889" width="144.224" height="96.7216" filterUnits="userSpaceOnUse" color-interpolation-filters="sRGB">
<feFlood flood-opacity="0" result="BackgroundImageFix"/>
<feColorMatrix in="SourceAlpha" type="matrix" values="0 0 0 0 0 0 0 0 0 0 0 0 0 0 0 0 0 0 127 0" result="hardAlpha"/>
<feOffset dy="5.94737"/>
<feGaussianBlur stdDeviation="2.23026"/>
<feComposite in2="hardAlpha" operator="out"/>
<feColorMatrix type="matrix" values="0 0 0 0 0.222083 0 0 0 0 0.291442 0 0 0 0 0.341667 0 0 0 0.15 0"/>
<feBlend mode="normal" in2="BackgroundImageFix" result="effect1_dropShadow"/>
<feBlend mode="normal" in="SourceGraphic" in2="effect1_dropShadow" result="shape"/>
</filter>
</defs>
</svg>
