<svg width="134" height="31" viewBox="0 0 134 31" fill="none" xmlns="http://www.w3.org/2000/svg">
<path d="M28.0303 0C28.1277 0 28.1763 0.0476191 28.1763 0.142857C28.1763 1.04762 28.5169 1.90476 29.1009 2.57143C29.8309 3.42857 30.9015 3.90476 32.0207 3.90476C32.1667 3.85714 32.2154 4.14286 32.0694 4.14286C31.2908 4.14286 30.5608 4.38095 29.9282 4.7619C28.9062 5.42857 28.2249 6.61905 28.1763 7.80952C28.1763 7.90476 28.1763 8 28.079 8C27.9817 8.04762 27.933 7.95238 27.933 7.85714C27.933 7 27.5924 6.14286 27.0571 5.42857C26.3271 4.57143 25.2565 4.04762 24.1372 4.04762C24.0886 4.04762 23.9912 4.04762 23.9912 4C23.9426 3.90476 23.9912 3.80952 24.0885 3.80952C24.9645 3.80952 25.7918 3.52381 26.4731 3C27.3977 2.28571 27.933 1.19048 27.933 0.047619C27.933 0.0952381 27.9817 0 28.0303 0ZM7.98086 2.80952C8.90547 2.80952 9.83011 2.80952 10.7547 2.80952C13.4312 9.61905 16.1077 16.4286 18.7842 23.2381C17.9083 23.2381 17.0323 23.2381 16.1564 23.2381C15.5238 21.619 14.8911 19.9524 14.2098 18.3333C10.998 18.3333 7.73755 18.3333 4.52575 18.3333C3.89312 19.9524 3.26048 21.619 2.62785 23.2381C1.7519 23.2381 0.875946 23.2381 0 23.2381C2.6765 16.4286 5.30435 9.61905 7.98086 2.80952ZM5.59632 15.619C8.12683 15.619 10.6573 15.619 13.1392 15.619C11.8739 12.381 10.6087 9.19048 9.34346 5.95238C8.12687 9.19048 6.86158 12.4286 5.59632 15.619ZM20.2928 2.80952C21.1687 2.80952 22.0933 2.80952 22.9693 2.80952C22.9693 9.61905 22.9693 16.4286 22.9693 23.2381C22.0933 23.2381 21.1687 23.2381 20.2928 23.2381C20.2928 16.4286 20.2928 9.61905 20.2928 2.80952ZM26.7164 8.66667C27.5923 8.66667 28.5169 8.66667 29.3929 8.66667C29.3929 13.5238 29.3929 18.381 29.3929 23.2381C28.5169 23.2381 27.5923 23.2381 26.7164 23.2381C26.7164 18.381 26.7164 13.5238 26.7164 8.66667Z" fill="white" fill-opacity="0.7"/>
<path d="M33.1888 2.80951C37.3252 2.80951 41.413 2.80951 45.5494 2.80951C45.5494 3.71427 45.5494 4.57141 45.5494 5.47618C42.3376 5.47618 39.1257 5.47618 35.9139 5.47618C35.9139 7.5238 35.9139 9.61903 35.9139 11.6667C38.7851 11.6667 41.6076 11.6667 44.4787 11.6667C44.4787 12.5238 44.4787 13.3809 44.4787 14.1905C41.6076 14.1905 38.7851 14.1905 35.9139 14.1905C35.9139 16.2857 35.9139 18.4286 35.9139 20.5238C39.3691 20.5238 42.8242 20.5238 46.2793 20.5238C46.2793 21.4286 46.2793 22.2857 46.2793 23.1905C41.8996 23.1905 37.5199 23.1905 33.1401 23.1905C33.1888 16.4286 33.1888 9.61903 33.1888 2.80951ZM130.175 6.71427C130.662 6.71427 131.149 6.71427 131.635 6.71427C131.635 6.80951 131.635 6.90475 131.635 6.99999C131.441 6.99999 131.246 6.99999 131.1 6.99999C131.1 7.52379 131.1 8.04761 131.1 8.61903C131.003 8.61903 130.905 8.61903 130.759 8.61903C130.759 8.09522 130.759 7.57141 130.759 6.99999C130.565 6.99999 130.37 6.99999 130.175 6.99999C130.175 6.90475 130.175 6.80951 130.175 6.71427ZM131.879 6.71427C132.025 6.71427 132.171 6.71427 132.317 6.71427C132.511 7.19046 132.657 7.71427 132.852 8.19046C133.047 7.71427 133.193 7.19046 133.387 6.71427C133.533 6.71427 133.679 6.71427 133.825 6.71427C133.825 7.33332 133.825 7.95237 133.825 8.57141C133.728 8.57141 133.63 8.57141 133.533 8.57141C133.533 8.0476 133.533 7.52379 133.533 6.99999C133.339 7.52379 133.144 8.0476 132.949 8.57141C132.852 8.57141 132.755 8.57141 132.657 8.57141C132.463 8.0476 132.317 7.57141 132.122 7.0476C132.122 7.57141 132.122 8.0476 132.122 8.57141C132.025 8.57141 131.927 8.57141 131.83 8.57141C131.879 7.95237 131.879 7.33332 131.879 6.71427ZM88.276 8.14284C88.568 8.09522 88.9086 8.09522 89.2006 8.09522C89.2006 8.95237 89.2006 9.85713 89.2006 10.7143C87.8867 10.7143 86.5728 11.2381 85.6481 12.0952C84.7722 12.9047 84.1396 14.0476 83.9936 15.2381C83.945 15.6667 83.9449 16.0952 83.9449 16.5238C83.9449 18.7619 83.9449 21 83.9449 23.2381C83.069 23.2381 82.1444 23.2381 81.2684 23.2381C81.2684 18.3333 81.2684 13.4286 81.2684 8.5238C82.1444 8.5238 83.069 8.5238 83.9449 8.5238C83.9449 9.0476 83.9449 9.5238 83.9449 10.0476C85.1615 8.99999 86.6701 8.33332 88.276 8.14284ZM69.7352 8.33332C71.3411 7.99999 73.093 8.14284 74.6015 8.80951C76.0128 9.42856 77.278 10.4286 78.1053 11.7143C79.0299 13.1428 79.4679 14.8571 79.3219 16.5238C79.2245 18 78.6406 19.4286 77.716 20.619C76.7914 21.7619 75.5748 22.7143 74.1635 23.1905C73.2389 23.5238 72.2656 23.7143 71.2924 23.6667C69.3458 23.5238 67.448 22.6667 66.134 21.2857C66.134 24.4762 66.134 27.7143 66.134 30.9047C65.2581 30.9047 64.3335 30.9047 63.4575 30.9047C63.4575 26.2857 63.4575 21.6667 63.4575 17.0952C63.4575 16.2381 63.4089 15.3809 63.6036 14.5714C63.8955 13 64.6742 11.5714 65.7934 10.4762C66.864 9.38094 68.2266 8.61903 69.7352 8.33332ZM70.9031 10.6667C70.0758 10.7619 69.2972 11 68.6159 11.4762C67.4479 12.1905 66.6207 13.3809 66.3287 14.7143C66.2314 15.2381 66.2314 15.7619 66.2314 16.2857C66.2314 16.9047 66.3774 17.5238 66.6207 18.0476C67.156 19.3333 68.2266 20.3809 69.5405 20.8571C71.0004 21.4286 72.7523 21.2857 74.1149 20.4762C75.3801 19.7619 76.2561 18.4762 76.5481 17.0476C76.6454 16.5238 76.6454 16 76.6454 15.4762C76.5967 14.2857 76.1101 13.1428 75.2828 12.2857C74.1636 11.0952 72.509 10.4762 70.9031 10.6667ZM92.3637 10.0952C94.1643 8.47618 96.8408 7.80951 99.2253 8.33332C100.491 8.61903 101.707 9.2857 102.632 10.1905C103.8 11.3333 104.481 12.8571 104.627 14.4286C104.676 14.9524 104.627 15.4762 104.627 16C104.627 16.3809 104.627 16.7619 104.627 17.1428C100.588 17.1428 96.5001 17.1428 92.4611 17.1428C92.753 18.3333 93.483 19.3809 94.505 20.1428C95.6729 21 97.1815 21.3809 98.5927 21.1428C99.8093 20.9524 100.929 20.2857 101.756 19.3809C102.437 19.9047 103.07 20.4286 103.751 20.9524C102.486 22.4286 100.637 23.3809 98.69 23.619C97.2788 23.8095 95.8189 23.5714 94.505 23C93.4344 22.5238 92.5098 21.8571 91.7798 21C90.9039 20 90.2712 18.8095 89.9792 17.5238C89.6386 16.0476 89.7846 14.5238 90.3199 13.1428C90.6605 11.9524 91.3905 10.9047 92.3637 10.0952ZM94.5536 11.5714C93.483 12.2857 92.7044 13.4286 92.4124 14.6667C95.5755 14.6667 98.7873 14.6667 101.95 14.6667C101.853 13.8571 101.561 13.0476 101.075 12.3809C100.393 11.4762 99.3226 10.8571 98.2034 10.7143C96.9381 10.5714 95.5755 10.9047 94.5536 11.5714ZM110.418 8.2857C111.343 8.14284 112.267 8.09522 113.192 8.2857C114.749 8.61903 116.112 9.5238 117.036 10.7619C116.355 11.1905 115.722 11.6667 115.041 12.0952C114.603 11.4762 113.97 11 113.289 10.7143C112.365 10.3333 111.245 10.3333 110.321 10.619C109.785 10.8095 109.299 11.0952 109.007 11.5714C108.763 11.9047 108.666 12.3809 108.812 12.7619C108.909 13.1905 109.299 13.4762 109.688 13.6667C110.467 14.0952 111.294 14.2857 112.17 14.4762C112.9 14.619 113.678 14.7619 114.36 15C115.041 15.1905 115.674 15.5238 116.209 15.9524C116.89 16.5238 117.377 17.2857 117.474 18.1905C117.571 19.0476 117.523 19.9524 117.231 20.7619C116.939 21.4762 116.452 22.0476 115.82 22.4762C115.187 22.9047 114.457 23.2381 113.727 23.3809C112.948 23.5714 112.17 23.6667 111.391 23.619C109.834 23.5714 108.277 23.0476 107.011 22.1428C106.525 21.8095 106.087 21.4286 105.698 20.9524C106.379 20.4286 107.06 19.9047 107.741 19.3809C108.666 20.6667 110.321 21.4286 111.927 21.2857C112.608 21.2381 113.338 21.0952 113.922 20.7143C114.311 20.4762 114.603 20.1428 114.798 19.7143C114.944 19.2381 114.944 18.7619 114.749 18.2857C114.457 17.7143 113.873 17.3333 113.24 17.0952C112.413 16.8095 111.537 16.6667 110.71 16.4762C109.883 16.2857 109.055 16.0476 108.325 15.6667C107.401 15.1905 106.622 14.3809 106.428 13.3809C106.233 12.4286 106.282 11.4286 106.768 10.5714C107.109 9.99999 107.547 9.47618 108.131 9.14284C108.715 8.76189 109.542 8.42856 110.418 8.2857ZM121.757 8.76189C122.633 8.38094 123.606 8.14284 124.53 8.14284C125.99 8.09522 127.45 8.5238 128.618 9.38094C129.153 9.76189 129.591 10.2381 129.981 10.7619C129.299 11.1905 128.618 11.619 127.986 12.0952C127.596 11.5238 127.061 11.0952 126.428 10.8095C125.455 10.3333 124.336 10.3333 123.314 10.619C122.827 10.7619 122.341 11.0476 122 11.4762C121.708 11.8571 121.562 12.3809 121.708 12.8095C121.805 13.1428 122.097 13.3809 122.389 13.619C123.022 14 123.703 14.1905 124.384 14.3809C124.92 14.5238 125.504 14.5714 126.039 14.7143C126.818 14.9047 127.645 15.0952 128.326 15.5238C128.959 15.8571 129.543 16.3809 129.883 17.0476C130.273 17.7619 130.37 18.619 130.321 19.3809C130.273 20.0952 130.078 20.7619 129.689 21.3809C129.299 21.9524 128.813 22.4286 128.229 22.7619C127.45 23.2381 126.526 23.4762 125.65 23.5714C124.871 23.6667 124.092 23.7143 123.314 23.5714C121.465 23.3333 119.713 22.3809 118.496 21C119.08 20.5238 119.713 20.0476 120.345 19.5714C120.394 19.5238 120.491 19.4762 120.54 19.4286C121.465 20.7143 123.119 21.4762 124.725 21.3333C125.455 21.2857 126.185 21.0952 126.769 20.6667C127.158 20.3809 127.499 19.9524 127.596 19.4762C127.694 19.0476 127.645 18.5714 127.45 18.1905C127.11 17.619 126.526 17.2857 125.893 17.0952C125.017 16.8095 124.141 16.6667 123.265 16.4762C122.438 16.2857 121.611 16.0476 120.929 15.619C120.248 15.2381 119.713 14.6667 119.421 14C119.129 13.3333 119.129 12.619 119.177 11.9524C119.275 11.2381 119.567 10.5238 120.053 9.99999C120.54 9.47618 121.124 9.0476 121.757 8.76189ZM47.4959 8.57141C48.5665 8.57141 49.6371 8.57141 50.659 8.57141C52.0703 10.3809 53.4815 12.1428 54.8928 13.9524C56.304 12.1428 57.7152 10.3809 59.1265 8.57141C60.1971 8.57141 61.2677 8.57141 62.2896 8.57141C60.3917 11 58.4452 13.4762 56.4987 15.9047C58.4452 18.3333 60.3431 20.8095 62.2896 23.2381C61.219 23.2381 60.1971 23.2381 59.1265 23.2381C57.7152 21.4762 56.304 19.6667 54.8928 17.8571C53.4815 19.6667 52.0703 21.4286 50.659 23.2381C49.5884 23.2381 48.5178 23.2381 47.4959 23.2381C49.4425 20.8095 51.3403 18.3333 53.2868 15.9047C51.3403 13.4286 49.4425 11 47.4959 8.57141Z" fill="white" fill-opacity="0.7"/>
</svg>
