<svg width="55" height="16" viewBox="0 0 55 16" fill="none" xmlns="http://www.w3.org/2000/svg">
<path fill-rule="evenodd" clip-rule="evenodd" d="M9.74765 3.76193H8.19043C5.02728 3.76193 2.35076 11.5715 6.04921 11.5715H8.43375C9.79634 11.5715 10.8183 12.0476 10.3803 13.381L9.74765 15.1905H7.21716H5.17327C2.54543 15.1905 0.842186 13.9048 0.209557 11.9524C-0.471736 9.85717 0.501546 5.52384 3.22672 2.71431C4.83262 1.09526 6.97383 0.142883 9.79633 0.142883H14.9547L14.1274 2.4286C13.5921 3.90479 12.5215 3.80955 11.9375 3.80955H9.74765V3.76193Z" fill="white" fill-opacity="0.7"/>
<path fill-rule="evenodd" clip-rule="evenodd" d="M38.3132 5.85712C35.9287 5.85712 32.3763 5.85712 29.9918 5.85712C28.6292 5.85712 27.9965 6.23807 27.7532 6.99997L26.9746 9.47617C29.3591 9.47617 32.9116 9.47617 35.2961 9.47617C36.7073 9.47617 37.2913 9.09521 37.5346 8.33331L38.3132 5.85712Z" fill="white" fill-opacity="0.7"/>
<path fill-rule="evenodd" clip-rule="evenodd" d="M40.2597 0.142883C37.8752 0.142883 34.3228 0.142883 31.9382 0.142883C30.5757 0.142883 29.943 0.523836 29.6997 1.28574L28.9211 3.76193C31.3056 3.76193 34.858 3.76193 37.2426 3.76193C38.6051 3.76193 39.2378 3.38098 39.4811 2.61907L40.2597 0.142883ZM36.2693 11.5715C33.8848 11.5715 30.3323 11.5715 27.9478 11.5715C26.5852 11.5715 25.9526 11.9524 25.7093 12.7143L24.9307 15.1905C27.3152 15.1905 30.8676 15.1905 33.2522 15.1905C34.6147 15.1905 35.2474 14.8096 35.4907 14.0476L36.2693 11.5715Z" fill="white" fill-opacity="0.7"/>
<path fill-rule="evenodd" clip-rule="evenodd" d="M19.2855 3.76188H21.3781C23.13 3.76188 22.7407 5.95236 21.8647 8.0476C21.0861 9.90474 19.6748 11.5714 18.0203 11.5714H14.5652C13.2026 11.5714 12.57 11.9524 12.278 12.7143L11.4507 15.1905H13.9812H16.4631C18.6529 15.1905 20.4535 15 22.546 13.1428C24.7845 11.1905 27.3637 6.0476 26.9257 3.09521C26.5851 0.761881 25.3198 0.0952148 22.254 0.0952148H16.6577L13.3972 9.42855H15.4411C16.6577 9.42855 17.2903 9.42855 17.923 7.71426L19.2855 3.76188Z" fill="white" fill-opacity="0.7"/>
<path fill-rule="evenodd" clip-rule="evenodd" d="M36.9019 15.2381H40.8436L42.5468 10.4762L44.2987 9.00002L45.71 13.2857C46.1479 14.6191 46.5859 15.1905 47.5592 15.1905H50.5763L47.4132 6.80955L54.9074 0.142883H50.0897L45.564 4.90479C45.0287 5.47622 44.4934 6.00002 43.9581 6.66669H43.9094L46.1966 0.190503H42.2548L36.9019 15.2381Z" fill="white" fill-opacity="0.7"/>
</svg>
