<svg width="70" height="27" viewBox="0 0 70 27" fill="none" xmlns="http://www.w3.org/2000/svg">
<path fill-rule="evenodd" clip-rule="evenodd" d="M41.1208 14.0477C38.1524 14.1429 36.3518 14.6667 36.3518 16.5715C36.3518 17.8096 37.3737 19.1429 39.9043 19.1429C43.3107 19.1429 45.16 17.3334 45.16 14.3334V14C43.9434 14 42.4348 14.0477 41.1208 14.0477ZM48.3718 18C48.3718 18.9048 48.4205 19.8572 48.4691 20.6667H45.452C45.3547 20 45.3546 19.3334 45.3546 18.6667C43.7 20.6191 41.7535 21.1905 39.077 21.1905C35.0866 21.1905 32.9453 19.0953 32.9453 16.7143C32.9453 13.2381 35.8652 12 40.9262 11.9048C42.2888 11.8572 43.846 11.8572 45.16 11.8572V11.5238C45.16 9.19051 43.6513 8.23813 40.9748 8.23813C39.0283 8.23813 37.5685 9.04766 37.4225 10.381H34.016C34.3567 6.95242 38.0551 6.09528 41.2669 6.09528C45.1113 6.09528 48.4204 7.42861 48.4204 11.4286V18H48.3718Z" fill="white" fill-opacity="0.7"/>
<path fill-rule="evenodd" clip-rule="evenodd" d="M12.9446 12.381C12.7986 9.38098 10.6087 8.28574 8.27284 8.28574C5.74232 8.28574 3.69852 9.52384 3.35787 12.381H12.9446ZM3.30916 14.4762C3.50381 17.381 5.49905 19.0953 8.32155 19.0953C10.2681 19.0953 11.9713 18.3334 12.5553 16.6191H15.913C15.2804 20.0476 11.5333 21.1905 8.37014 21.1905C2.57915 21.1905 0 18.0476 0 13.8572C0 9.1905 2.67653 6.14288 8.41885 6.14288C12.9932 6.14288 16.3997 8.47622 16.3997 13.6191V14.4762H3.30916Z" fill="white" fill-opacity="0.7"/>
<path fill-rule="evenodd" clip-rule="evenodd" d="M24.7209 19.0476C27.738 19.0476 29.8306 16.9047 29.8306 13.7143C29.8306 10.4762 27.738 8.38093 24.7209 8.38093C21.7037 8.38093 19.6112 10.5238 19.6112 13.7143C19.6598 16.9047 21.7524 19.0476 24.7209 19.0476ZM16.3993 0.571411H19.6599V8.57141C21.2658 6.71427 23.4556 6.19046 25.5969 6.19046C29.2466 6.19046 33.2371 8.57141 33.2371 13.7619C33.2371 18.0952 30.0253 21.2381 25.4996 21.2381C23.115 21.2381 20.9251 20.4286 19.5625 18.7619C19.5625 19.4286 19.5138 20.0952 19.4652 20.7143H16.2534C16.3021 19.7143 16.3507 18.4286 16.3507 17.4286V0.571411H16.3993Z" fill="white" fill-opacity="0.7"/>
<path fill-rule="evenodd" clip-rule="evenodd" d="M64.9656 6.71429L54.8923 26.0476H51.2425L54.1623 20.6667L46.5708 6.71429H50.3666L55.9629 17.6191L61.5105 6.71429H64.9656Z" fill="white" fill-opacity="0.7"/>
<path fill-rule="evenodd" clip-rule="evenodd" d="M66.4255 6.66669H66.7176V7.04764H67.1069V7.23811H66.7176V8.04764C66.7176 8.1905 66.7662 8.28573 66.9122 8.28573C66.9609 8.28573 67.0583 8.28573 67.1069 8.28573V8.47621C67.0096 8.47621 66.9123 8.47621 66.8636 8.47621C66.5716 8.47621 66.4255 8.38097 66.4255 8.09526V7.28573H66.0361V7.04764H66.4255V6.66669Z" fill="white" fill-opacity="0.7"/>
<path fill-rule="evenodd" clip-rule="evenodd" d="M67.4474 7.38095C67.4474 7.28571 67.4474 7.19048 67.4474 7.04762H67.6907C67.6907 7.09524 67.6907 7.19048 67.6907 7.28571C67.8367 7.09524 68.0313 7 68.2747 7C68.518 7 68.7126 7.09524 68.7613 7.33333C68.8586 7.14286 69.1019 7 69.3452 7C69.7346 7 69.9779 7.19048 69.9779 7.61905V8.38095H69.6859V7.71428C69.6859 7.38095 69.5886 7.14286 69.2967 7.14286C69.0533 7.14286 68.81 7.28571 68.81 7.7619V8.38095H68.518V7.66666C68.518 7.28571 68.372 7.14286 68.1287 7.14286C67.8853 7.14286 67.642 7.33333 67.642 7.71428V8.38095H67.3501V7.38095H67.4474Z" fill="white" fill-opacity="0.7"/>
</svg>
