<svg width="62" height="31" viewBox="0 0 62 31" fill="none" xmlns="http://www.w3.org/2000/svg">
<path fill-rule="evenodd" clip-rule="evenodd" d="M0.632623 1.38096C0.632623 1.04762 0.729953 0.80953 1.16793 0.80953C1.6059 0.80953 5.93697 0.952387 8.85679 0.952387C14.8911 0.952387 16.351 0.476196 17.4216 0.476196C18.0056 0.476196 18.1029 0.904768 18.1029 1.19048C18.1029 1.42858 17.8109 2.00001 17.8109 2.66667C17.8109 3.38096 17.9569 4.09524 17.9569 4.71429C17.9569 5.33334 17.4216 5.52382 17.1296 5.52382C16.8377 5.52382 16.643 5.42858 16.643 4.90477C16.5943 3.90477 17.373 2.42858 10.0247 2.42858C6.27763 2.42858 6.18029 2.85715 6.18029 4.00001C6.18029 5.19048 6.22895 9.04762 6.22895 9.61905C6.22895 10.2381 6.42361 10.381 6.91024 10.381C7.39688 10.381 11.2413 10.381 12.2633 10.381C13.2852 10.381 14.3558 9.80953 14.5018 8.38096C14.5505 7.61905 14.7451 7.57143 15.1344 7.57143C15.5237 7.57143 15.8644 7.85715 15.8157 8.57143C15.7671 9.28572 15.6211 10.0476 15.6211 11.0952C15.6211 12.1429 15.8157 13.1429 15.8157 13.9048C15.8157 14.6667 14.7938 14.8095 14.5991 14.0476C14.4045 13.2381 14.1125 11.8571 11.7766 11.8571C9.44076 11.8571 7.54288 11.8571 7.00758 11.8571C6.47228 11.8571 6.22895 12.1429 6.22895 13C6.22895 13.8571 6.22895 17.9524 6.22895 18.9524C6.22895 20 6.5696 21.0952 8.71081 21.0952C10.852 21.0952 14.7451 21.3333 16.497 19.9524C17.2756 19.3333 17.4703 18.4762 17.7623 17.0952C17.9083 16.4286 19.3195 16.4762 19.2222 17.9524C19.1735 18.6191 18.4922 20.1429 18.4922 21.0476C18.4922 21.8571 18.6869 22.9048 17.9083 22.9048C17.2756 22.9048 17.5189 22.5714 14.7451 22.5714C11.9713 22.5714 2.33586 22.6191 0.729956 22.6191C0.145991 22.6191 0 22.4762 0 22.0952C0 21.7143 0.194655 21.4762 0.729956 21.4762C1.21659 21.4762 3.3578 21.5238 3.3578 18.8571C3.3578 16.1905 3.3578 6.42858 3.3578 5.00001C3.3578 3.57143 3.01715 2.14286 1.21659 1.95239C0.583965 2.00001 0.632623 1.71429 0.632623 1.38096Z" fill="white" fill-opacity="0.7"/>
<path fill-rule="evenodd" clip-rule="evenodd" d="M20.2441 9.7619C20.2441 9.33333 20.4874 9.14285 21.0227 8.95237C22.0447 8.57142 23.2613 7.42856 24.2832 4.71428C24.6239 3.85714 25.6945 4.09523 25.5485 4.95237C25.4025 5.80952 25.2078 7.42856 25.2078 8.33333C25.6945 8.33333 29.1983 8.33333 29.6362 8.33333C30.0742 8.33333 30.1715 8.85714 30.1715 9.28571C30.1715 9.71428 30.0256 10.0476 29.6849 10.0476C29.2956 10.0476 25.2565 10.0476 25.2565 10.0476C25.2565 10.0476 25.2565 14.8571 25.2565 17.5714C25.2565 20.2857 26.1811 20.9048 27.495 20.9048C28.225 20.9048 28.809 20.619 29.3929 20.2381C29.7822 19.9524 30.6095 20.619 30.1715 21.1429C29.7822 21.6667 28.3223 23.1905 26.2298 23.1905C24.1372 23.1905 22.6287 21.6667 22.6773 19.1429C22.726 16.619 22.8233 12.3809 22.8233 11.8095C22.8233 11.2381 22.0447 10.3809 21.1687 10.3809C20.3901 10.3809 20.2441 10.0476 20.2441 9.7619Z" fill="white" fill-opacity="0.7"/>
<path fill-rule="evenodd" clip-rule="evenodd" d="M38.2495 7.90475C39.7094 7.90475 40.78 8.38094 41.2667 8.38094C41.7533 8.38094 41.948 7.80951 42.4346 7.80951C42.9699 7.80951 43.0672 8.38094 42.9212 8.90475C42.7752 9.38094 42.6779 10.5714 42.7752 11.8571C42.7752 12.2857 42.4346 12.5714 42.0453 12.5714C41.656 12.5714 41.5587 12.4286 41.364 11.7143C41.218 11.0476 40.5854 9.38094 38.1035 9.38094C36.303 9.38094 35.6217 10.5714 35.6217 11.3333C35.6217 12.0952 36.0597 12.8095 37.9575 13.619C39.9528 14.4762 43.6512 15.3809 43.6512 18.8571C43.5052 22.1428 40.2447 23.1428 38.2982 23.1428C36.6436 23.1428 35.1351 22.6667 34.4538 22.6667C33.7725 22.6667 33.5292 23.2381 33.0912 23.2381C32.6532 23.2381 32.3612 22.7619 32.5072 22.2857C32.6532 21.8095 32.8965 21.4286 32.8965 20.9047C32.8965 20.4286 32.6045 19.2381 32.7505 18.2857C32.8965 17.3333 34.2104 17.1905 34.2104 18.1428C34.2104 19.0476 34.5997 21.7143 38.0549 21.7143C40.8287 21.7143 41.1207 19.8095 41.1207 19.2857C41.1207 18.619 40.9747 17.6667 37.6656 16.3809C34.3564 15.0952 33.0425 13.9047 33.0425 11.8571C33.1885 9.80951 35.0377 7.90475 38.2495 7.90475Z" fill="white" fill-opacity="0.7"/>
<path fill-rule="evenodd" clip-rule="evenodd" d="M44.6733 8.7619C44.6733 8.42856 44.6733 8.28571 45.0627 8.28571C45.452 8.28571 47.3498 8.33332 48.4204 8.33332C49.4424 8.33332 51.3403 8.28571 51.7296 8.28571C52.0216 8.28571 51.9242 8.61904 51.9242 8.85713C51.9242 9.09523 51.9729 9.47618 51.4863 9.47618C50.9996 9.47618 50.075 9.61904 50.075 10.4286C50.075 11.2381 50.2697 11.4286 50.6103 12.2857C50.951 13.2381 53.4815 18.9524 53.4815 18.9524C53.4815 18.9524 55.4767 14.9524 56.0606 13.8571C56.6446 12.7143 57.0339 11.3333 57.0339 10.7143C57.0339 10.0952 56.3526 9.66666 55.8173 9.57142C55.282 9.47618 54.99 9.47618 54.99 8.85713C54.99 8.5238 55.0387 8.33332 55.3307 8.33332C55.6227 8.33332 57.2772 8.42856 58.4938 8.42856C59.7104 8.42856 61.1217 8.33332 61.5596 8.33332C61.9489 8.33332 61.8029 8.61904 61.8029 8.90475C61.8029 9.14285 61.7543 9.42856 61.4623 9.47618C61.1217 9.5238 59.7104 9.47618 58.2505 12.5238C56.7906 15.619 53.8221 21.8095 51.6809 25.8571C50.5616 28 48.5178 30.2857 46.3279 30.2857C45.2086 30.2857 44.7707 29.3333 44.7707 28.8571C44.7707 28.3809 45.0626 27.619 46.3279 27.619C47.2038 27.619 47.3985 28 47.8365 28C48.7124 28 50.8536 25.9524 51.4863 22.3333C51.5836 21.4762 50.7076 19.4286 50.367 18.5238C49.8804 17.1429 48.3231 13.1428 47.2039 10.8095C46.8145 9.99999 45.7926 9.57142 45.16 9.5238C44.722 9.38094 44.6733 9.28571 44.6733 8.7619Z" fill="white" fill-opacity="0.7"/>
</svg>
