<svg width="80" height="27" viewBox="0 0 80 27" fill="none" xmlns="http://www.w3.org/2000/svg">
<path fill-rule="evenodd" clip-rule="evenodd" d="M10.7546 7.90475C9.87867 6.80951 8.6134 6.04761 6.71552 6.04761C2.82245 6.04761 0 9.19046 0 13.1428C0 17.1428 2.82245 20.2381 6.71552 20.2381C8.56473 20.2381 9.87868 19.5238 10.706 18.4762V19.3809C10.706 21.619 8.90541 22.619 7.0562 22.619C5.49897 22.619 4.03906 22.2381 2.72514 21.4286L0.729952 24.7619C2.48184 25.9524 4.915 26.5238 7.34817 26.5238C12.1172 26.5238 15.2316 23.7619 15.2316 19.1428V6.47618H11.6306L10.7546 7.90475ZM7.78615 16.1905C5.98561 16.1905 4.72033 14.9048 4.72033 13.1905C4.72033 11.4762 5.93694 10.1905 7.78615 10.1905C9.53804 10.1905 10.7546 11.4762 10.7546 13.1905C10.7546 14.9048 9.53804 16.1905 7.78615 16.1905Z" fill="white" fill-opacity="0.7"/>
<path fill-rule="evenodd" clip-rule="evenodd" d="M24.4776 6.04761C20.0978 6.04761 16.8374 9.23808 16.8374 13.5238C16.8374 17.8095 20.0978 21 24.4776 21C28.8573 21 32.1178 17.8095 32.1178 13.5238C32.1178 9.23808 28.906 6.04761 24.4776 6.04761ZM24.4776 16.8095C22.7257 16.8095 21.4604 15.4762 21.4604 13.5714C21.4604 11.6667 22.7743 10.3333 24.4776 10.3333C26.2295 10.3333 27.5434 11.6667 27.5434 13.5714C27.5434 15.4286 26.2295 16.8095 24.4776 16.8095Z" fill="white" fill-opacity="0.7"/>
<path fill-rule="evenodd" clip-rule="evenodd" d="M41.3639 6.04761C36.9841 6.04761 33.7236 9.23808 33.7236 13.5238C33.7236 17.8095 36.9841 21 41.3639 21C45.7436 21 49.004 17.8095 49.004 13.5238C49.004 9.23808 45.7923 6.04761 41.3639 6.04761ZM41.3639 16.8095C39.612 16.8095 38.3467 15.4762 38.3467 13.5714C38.3467 11.6667 39.612 10.3333 41.3639 10.3333C43.1158 10.3333 44.4296 11.6667 44.4296 13.5714C44.4296 15.4762 43.1644 16.8095 41.3639 16.8095Z" fill="white" fill-opacity="0.7"/>
<path fill-rule="evenodd" clip-rule="evenodd" d="M60.5375 8.19046C59.6616 7.19046 58.3963 6.47617 56.5471 6.47617C52.7027 6.47617 49.8315 9.66665 49.8315 13.7619C49.8315 17.8571 52.654 21.0476 56.5471 21.0476C58.4936 21.0476 59.8075 20.2857 60.6835 19.1905L61.5594 20.6667H65.1118V0.571411H60.5375V8.19046ZM57.6177 16.9047C55.7685 16.9047 54.5519 15.5238 54.5519 13.7619C54.5519 11.9524 55.7685 10.5714 57.6177 10.5714C59.4182 10.5714 60.6835 11.9047 60.6835 13.7619C60.6835 15.5714 59.4182 16.9047 57.6177 16.9047Z" fill="white" fill-opacity="0.7"/>
<path fill-rule="evenodd" clip-rule="evenodd" d="M75.0391 11.7143L74.0171 11.5714C72.6546 11.3333 71.7786 11.1904 71.7786 10.619C71.7786 10.0952 72.2166 9.76187 73.3845 9.76187C74.6011 9.76187 76.061 10.1428 77.3263 10.619L79.1755 7.3333C76.8883 6.42854 75.4771 6.14282 73.1899 6.14282C69.3941 6.14282 67.1556 7.85711 67.1556 10.9047C67.1556 13.4285 68.7128 14.8571 72.0706 15.3809L72.8979 15.4762C74.4551 15.7143 75.0877 15.9523 75.0877 16.4762C75.0877 17.0952 74.5038 17.3809 73.1412 17.3809C71.3893 17.3809 69.8808 16.9523 68.5668 16.2381L66.6689 19.5714C68.2748 20.619 70.708 21.0476 73.0925 21.0476C77.1316 21.0476 79.5162 19.1904 79.5162 16.0476C79.5648 13.619 78.0076 12.1904 75.0391 11.7143Z" fill="white" fill-opacity="0.7"/>
</svg>
