<svg width="69" height="25" viewBox="0 0 69 25" fill="none" xmlns="http://www.w3.org/2000/svg">
<path fill-rule="evenodd" clip-rule="evenodd" d="M65.8989 0C65.7438 0 65.7438 0 65.8989 0L65.7438 2.91411C65.7438 2.91411 65.7438 3.06748 65.8989 3.06748H68.8449C68.8449 3.06748 69 3.06748 69 2.91411V0.153374C69 0.153374 69 0 68.8449 0H65.8989ZM0.155056 0C0 0 0 0 0.155056 0L0 20.092C0 20.092 0 20.2454 0.155056 20.2454H2.94607C2.94607 20.2454 3.10112 20.2454 3.10112 20.092V12.4233L10.5438 20.092H10.6989C10.8539 20.092 14.7303 20.092 14.8854 20.092H15.0404V19.9387L6.3573 11.5031L13.9551 5.06135V4.90798C13.9551 4.90798 13.9551 4.7546 13.8 4.7546H9.9236C9.9236 4.7546 9.9236 4.7546 9.76854 4.7546L7.90787 6.74847L3.10112 11.0429V0.153374C3.10112 0 3.10112 0 2.94607 0H0.155056ZM32.4067 9.04908C32.4067 11.9632 34.7326 12.8834 37.0584 13.4969C37.2135 13.4969 37.3685 13.6503 37.9888 13.6503C39.5393 13.9571 41.5551 14.4172 41.5551 15.9509C41.5551 17.7914 38.609 18.0982 37.3685 18.0982C35.818 18.0982 34.4225 17.7914 32.5618 17.4847H32.4067C32.4067 17.4847 32.4067 17.4847 32.4067 17.638V19.9387C32.4067 19.9387 32.4067 20.092 32.5618 20.092C34.4225 20.3988 36.1281 20.7055 37.6786 20.7055C42.1753 20.7055 44.8112 18.865 44.8112 15.7975C44.8112 12.4233 41.7101 11.6564 39.0742 11.1963C37.2135 10.5828 35.6629 10.2761 35.6629 8.89571C35.6629 7.36196 37.6786 7.05521 39.3843 7.05521C40.9348 7.05521 42.4854 7.36196 43.7258 7.51534H43.8809C43.8809 7.51534 43.8809 7.51534 43.8809 7.36196V5.06135C43.8809 5.06135 43.8809 4.90798 43.7258 4.90798H43.4157C42.3303 4.7546 40.7798 4.60123 38.764 4.60123C34.7326 4.60123 32.4067 6.28834 32.4067 9.04908ZM16.7461 5.06135C16.7461 5.06135 16.7461 5.21472 16.7461 5.06135L16.591 7.36196C16.591 7.36196 16.591 7.36196 16.591 7.51534C16.591 7.51534 16.591 7.51534 16.7461 7.51534C18.2966 7.20859 20.1573 6.90184 21.7079 6.90184C25.7393 6.90184 25.8944 7.66871 25.8944 10.5828L24.809 10.7362H23.8787C20.7775 10.7362 15.6607 10.7362 15.6607 15.6442C15.6607 20.092 18.9169 20.7055 22.4831 20.7055C24.3438 20.7055 26.3595 20.7055 29.1506 20.3988C29.1506 20.3988 29.3056 20.3988 29.3056 20.2454V9.66258C29.3056 4.90798 26.0494 4.60123 22.173 4.60123C20.3124 4.60123 18.6067 4.7546 16.7461 5.06135ZM18.9169 15.4908C18.9169 13.3436 20.7775 12.8834 23.7236 12.8834H24.6539H26.0494V17.7914H24.964H23.2584C21.2427 18.2515 18.9169 17.9448 18.9169 15.4908ZM49.4629 4.7546H48.2225C48.2225 4.7546 48.0674 4.7546 48.0674 4.90798V24.8466C48.0674 24.8466 48.0674 24.8466 48.0674 25C48.0674 25 48.0674 25 48.2225 25H51.1685C51.1685 25 51.3236 25 51.3236 24.8466V20.3988C52.7191 20.5521 53.4944 20.5521 54.1146 20.5521C55.9753 20.5521 57.5258 20.092 59.0764 19.1718C61.0921 17.9448 62.3326 15.4908 62.3326 12.2699C62.3326 10.5828 61.8674 7.36196 59.0764 5.52147C57.2157 4.7546 55.2 4.60123 53.1843 4.60123L49.4629 4.7546ZM51.3236 7.20859L53.4944 7.05521C57.0607 7.05521 58.9213 8.89571 58.9213 12.4233C58.9213 17.1779 56.1303 18.0982 53.9595 18.0982L51.3236 17.9448V7.20859ZM65.8989 4.90798C65.7438 4.90798 65.7438 4.90798 65.8989 4.90798L65.7438 20.092C65.7438 20.092 65.7438 20.2454 65.8989 20.2454H68.8449C68.8449 20.2454 69 20.2454 69 20.092V5.06135C69 5.06135 69 4.90798 68.8449 4.90798H65.8989Z" fill="#C6E1F3"/>
</svg>
