<svg width="117" height="24" viewBox="0 0 117 24" fill="none" xmlns="http://www.w3.org/2000/svg">
<path d="M53.0434 20.4762H57.2286V11.9524C57.2286 7.47619 54.3087 5.09524 50.7563 5.09524C48.4204 5.09524 46.6685 6.09524 45.4033 7.4762H44.8193C43.8461 6.2381 42.1915 5.09524 39.7583 5.09524C37.5198 5.09524 35.7192 6.04762 34.7946 7.19048H34.2106V5.52381H30.3175V20.4762H34.5026V12.6667C34.5026 10 35.3299 9.09524 38.1037 9.09524C40.8775 9.09524 41.6562 10 41.6562 12.6667V20.4762H45.8413V12.6667C45.8413 10 46.6199 9.09524 49.4424 9.09524C52.2162 9.09524 52.9949 10 52.9949 12.6667L53.0434 20.4762ZM13.5772 18.3333C12.7986 17.8095 12.5067 17 12.5067 15.8095C12.5067 14.3333 12.9932 12.4762 13.7719 11.6667C14.3072 11.1429 15.0858 10.8571 16.1564 10.8571C17.665 10.8571 19.5142 11.2381 20.2929 12.0476C20.8282 12.5714 21.0228 13.2857 21.0228 14.2381C21.0228 15.6667 20.5847 17.6667 19.7088 18.5238C19.1735 19 18.4922 19.1905 17.5189 19.1905C16.1077 19.1905 14.4532 18.9048 13.5772 18.3333ZM20.1954 21.4762L20.0008 22.8571L23.8939 23.3333L25.7432 8.52382L21.8501 8.04762L21.6553 9.4762H21.2174C20.6335 8.4762 19.0762 7.09524 16.1077 7.09524C11.9713 7.09524 8.95415 10.0476 8.41885 14.1429C8.37018 14.5238 8.32154 14.9524 8.32154 15.3333C8.32154 19.2381 10.998 22.4286 15.2318 22.8571C15.4751 22.8571 15.7185 22.9048 15.9131 22.9048C17.665 22.9048 18.9789 22.1429 19.6602 21.5238H20.1954V21.4762ZM108.666 17.0952C105.552 17.0952 104.481 16.0952 104.481 13C104.481 9.95238 105.503 8.85715 108.666 8.85715C111.781 8.85715 112.851 9.90477 112.851 13C112.851 16.0952 111.781 17.0952 108.666 17.0952ZM88.5679 17.0952C85.4535 17.0952 84.3829 16.0952 84.3829 13C84.3829 9.95238 85.4048 8.85715 88.5679 8.85715C91.6824 8.85715 92.7531 9.90477 92.7531 13C92.7044 16.0952 91.6824 17.0952 88.5679 17.0952ZM68.9566 17.0952C65.8421 17.0952 64.7714 16.0952 64.7714 13C64.7714 9.95238 65.7934 8.85715 68.9566 8.85715C72.071 8.85715 73.1416 9.90477 73.1416 13C73.1416 16.0952 72.071 17.0952 68.9566 17.0952ZM2.53061 0.476196L0 20.4286L4.13642 20.9048L6.61831 0.952387L2.53061 0.476196ZM112.997 19.0476V20.4762H116.89V5.52381H112.997V6.95239H112.413C111.781 6.14286 110.223 5.09524 108.082 5.09524C103.41 5.09524 100.247 8.57143 100.247 13C100.247 17.4286 103.41 20.9048 108.082 20.9048C110.223 20.9048 111.781 19.8571 112.413 19.0476H112.997ZM68.9566 5.09524C63.7982 5.09524 60.5863 8.57143 60.5863 13C60.5863 17.4286 63.7982 20.9048 68.9566 20.9048C74.1636 20.9048 77.3753 17.4762 77.3753 13C77.3753 8.57143 74.1636 5.09524 68.9566 5.09524ZM92.9477 19.0476V20.4762H96.8408V0.666672H92.7044V7H92.1204C91.4878 6.19048 90.0765 5.14286 87.984 5.14286C83.3123 5.14286 80.1492 8.61905 80.1492 13.0476C80.1492 17.4762 83.361 20.9524 87.984 20.9524C90.1252 20.9524 91.7798 19.9048 92.3637 19.0952H92.9477V19.0476Z" fill="white" fill-opacity="0.7"/>
</svg>
