<svg width="76" height="17" viewBox="0 0 76 17" fill="none" xmlns="http://www.w3.org/2000/svg">
<path fill-rule="evenodd" clip-rule="evenodd" d="M9.08319 0.857129C5.62808 0.523795 2.31895 2.33332 0.810383 5.38094C-0.698188 8.42856 -0.0655377 12.0952 2.4163 14.5238C4.84948 16.9047 8.59651 17.5714 11.711 16.0952C14.8254 14.619 16.7233 11.4286 16.334 8.0476C15.9934 4.23808 12.9763 1.23808 9.08319 0.857129ZM8.83987 13.0476C6.99066 13.2857 5.19013 12.3333 4.36285 10.7143C3.53557 9.09522 3.87619 7.09522 5.1901 5.80951C6.50402 4.52379 8.54791 4.19046 10.2025 4.99999C11.9057 5.80951 12.8303 7.57141 12.5869 9.38094C12.3436 11.2857 10.7864 12.8095 8.83987 13.0476ZM20.7624 1.19046C20.1785 1.19046 19.6432 1.42856 19.3025 1.90475C18.9619 2.33332 18.8159 2.90475 18.9132 3.47618C19.1079 4.33332 19.9351 4.95237 20.8598 4.95237H26.164L17.8912 15.6666C17.5992 16 17.8913 16.5238 18.3293 16.5238H31.3224C32.247 16.5238 33.0743 15.9047 33.269 15.0476C33.3663 14.4762 33.2689 13.9047 32.8796 13.4762C32.539 13.0476 31.955 12.7619 31.4197 12.7619H24.9474L33.2203 2.0476C33.5122 1.71427 33.2203 1.19046 32.7823 1.19046H20.7624ZM72.6865 1.19046C71.8105 1.38094 71.1778 2.19046 71.1778 3.0476V9.2857L60.8612 1.23808C60.5205 0.952366 59.9852 1.19046 59.9852 1.66665V14.5238C59.9852 15.4286 60.5692 16.1905 61.4938 16.3809C62.0778 16.5238 62.6618 16.3809 63.0998 16C63.5377 15.6666 63.8297 15.0952 63.8297 14.5238V8.33332L74.1464 16.3809C74.487 16.6666 75.0223 16.4286 75.0223 15.9524V3.0476C75.0223 2.47618 74.779 1.95237 74.2924 1.57141C73.8544 1.23808 73.2218 1.09522 72.6865 1.19046ZM45.8242 4.57141C50.2039 4.57141 53.4643 6.80951 53.4643 8.85713C53.4643 10.8571 50.2039 13.1428 45.8242 13.1428C41.4445 13.1428 38.184 10.9047 38.184 8.85713C38.184 6.80951 41.4445 4.57141 45.8242 4.57141ZM45.8242 0.809509C39.4979 0.809509 34.3882 4.38094 34.3882 8.80951C34.3882 13.2381 39.4979 16.8095 45.8242 16.8095C52.1505 16.8095 57.2601 13.2381 57.2601 8.80951C57.2601 4.38094 52.1505 0.809509 45.8242 0.809509Z" fill="white" fill-opacity="0.7"/>
</svg>
