<svg width="70" height="16" viewBox="0 0 70 16" fill="none" xmlns="http://www.w3.org/2000/svg">
<path fill-rule="evenodd" clip-rule="evenodd" d="M0 2.47622H6.42361V15.3334H8.80809V2.47622H15.1344V0.142883H0V2.47622Z" fill="white" fill-opacity="0.7"/>
<path fill-rule="evenodd" clip-rule="evenodd" d="M63.5062 10.9524V0.190491H61.1216V11C61.1216 13.381 63.1169 15.381 65.5988 15.381H69.9298V13.0476H65.5988C64.4308 13.0476 63.5062 12.0953 63.5062 10.9524Z" fill="white" fill-opacity="0.7"/>
<path fill-rule="evenodd" clip-rule="evenodd" d="M54.7951 10.9524V0.190491H52.4106V11C52.4106 13.381 54.4058 15.381 56.8877 15.381H59.3209V13.0476H56.8877C55.7198 13.0476 54.7951 12.0953 54.7951 10.9524Z" fill="white" fill-opacity="0.7"/>
<path fill-rule="evenodd" clip-rule="evenodd" d="M31.3391 0.333346C30.7065 0.0476321 29.9278 0.0952512 29.3925 0.571442L27.1541 2.38096C25.6942 3.52382 23.6016 3.52382 22.1904 2.38096L19.9519 0.571442C19.4166 0.14287 18.6867 0.0476321 18.0054 0.333346C17.3728 0.619061 16.9834 1.23811 16.9834 1.95239V15.381H19.368V3.00001L20.7792 4.09525C21.8984 5.00001 23.3096 5.4762 24.7695 5.4762C26.2294 5.4762 27.6406 5.00001 28.7599 4.09525L30.1712 3.00001V15.3333H32.5557V1.95239C32.361 1.19049 32.0204 0.619061 31.3391 0.333346Z" fill="white" fill-opacity="0.7"/>
<path fill-rule="evenodd" clip-rule="evenodd" d="M42.3375 0.142883C41.2182 0.142883 40.3422 0.761931 39.8556 1.76193L33.8213 15.381H36.4005L38.639 10.381H46.0359L48.2745 15.381H50.8538L44.8193 1.76193C44.3327 0.714312 43.4081 0.142883 42.3375 0.142883ZM39.661 7.95241L42.0455 2.61907C42.0942 2.4286 42.2402 2.4286 42.3375 2.4286C42.4835 2.4286 42.5808 2.47622 42.6294 2.61907L45.0141 7.95241H39.661Z" fill="white" fill-opacity="0.7"/>
</svg>
