<svg width="136" height="16" viewBox="0 0 136 16" fill="none" xmlns="http://www.w3.org/2000/svg">
<path fill-rule="evenodd" clip-rule="evenodd" d="M4.13641 15.2381L0 0.285714H2.72516L5.8883 11.7619L9.29476 0.285714H11.8253L15.2317 11.8095L18.3949 0.285714H21.12L16.9836 15.2381H13.8691L10.56 4.09524L7.25088 15.2381H4.13641ZM22.9692 0.285714H25.5484V15.1905H22.9692V0.285714ZM31.0474 12.8571H37.325V15.1905H28.5169V0.285714H31.0474V12.8571ZM45.2085 0.333334C47.3011 0.333334 49.1016 1.04762 50.4642 2.47619C51.8754 3.90476 52.5567 5.66667 52.5567 7.7619C52.5567 9.85714 51.8268 11.619 50.4642 13.0476C49.1016 14.4762 47.3011 15.1905 45.2085 15.1905H39.1742V0.285714L45.2085 0.333334ZM45.2085 12.9048C46.6684 12.9048 47.8364 12.4286 48.761 11.4762C49.6856 10.5238 50.1236 9.28571 50.1236 7.80952C50.1236 6.33333 49.6856 5.09524 48.761 4.14286C47.8364 3.19048 46.6684 2.71429 45.2085 2.71429H41.7047V12.9524H45.2085V12.9048ZM66.1826 10.9524C66.1826 12.1905 65.7446 13.1905 64.82 14C63.8954 14.8095 62.8734 15.2381 61.5595 15.2381H54.9899V0.285714H61.1215C62.3868 0.285714 63.4574 0.714286 64.3333 1.47619C65.2093 2.28571 65.6473 3.2381 65.6473 4.42857C65.6473 5.71429 65.112 6.71429 64.09 7.47619C65.3553 8.14286 66.1826 9.42857 66.1826 10.9524ZM57.4718 2.61905V6.52381H61.0729C62.1921 6.52381 63.0194 5.66667 63.0194 4.57143C63.0194 3.47619 62.1921 2.61905 61.0729 2.61905H57.4718ZM61.5595 12.9048C62.7274 12.9048 63.652 12 63.652 10.8095C63.652 9.61905 62.7274 8.71428 61.5595 8.71428H57.4718V12.9524L61.5595 12.9048ZM71.0976 12.9048H77.9105V15.2381H68.5671V0.285714H77.8132V2.61905H71.0976V6.47619H77.2779V8.80952H71.0976V12.9048ZM88.9571 15.2381L85.6967 9.80952H82.7282V15.2381H80.1977V0.285714H86.378C87.7405 0.285714 88.9571 0.761905 89.8817 1.71429C90.855 2.61905 91.3417 3.7619 91.3417 5.09524C91.3417 7 90.1251 8.71428 88.2758 9.42857L91.7796 15.2381H88.9571ZM82.7282 2.61905V7.61905H86.3293C87.6919 7.61905 88.7625 6.52381 88.7625 5.14286C88.7625 3.7619 87.6919 2.66667 86.3293 2.66667H82.7282V2.61905ZM102.437 15.2381L99.1765 9.80952H96.208V15.2381H93.6775V0.285714H99.8578C101.269 0.285714 102.437 0.761905 103.362 1.71429C104.335 2.61905 104.821 3.7619 104.821 5.09524C104.821 7 103.605 8.71428 101.756 9.42857L105.259 15.2381H102.437ZM96.208 2.61905V7.61905H99.8091C101.172 7.61905 102.242 6.52381 102.242 5.14286C102.242 3.7619 101.172 2.66667 99.8091 2.66667H96.208V2.61905ZM107.109 0.285714H109.639V15.2381H107.109V0.285714ZM115.138 12.9048H121.951V15.2381H112.608V0.285714H121.854V2.61905H115.138V6.47619H121.318V8.80952H115.138V12.9048ZM123.703 11.8095L125.893 10.5714C126.525 12.2381 127.791 13.0952 129.689 13.0952C131.586 13.0952 132.56 12.2857 132.56 11.1429C132.56 10.5238 132.316 10.0952 131.781 9.7619C131.295 9.42857 130.37 9.09524 129.056 8.71428C127.596 8.28571 126.866 8 125.844 7.33333C124.871 6.66667 124.336 5.66667 124.336 4.33333C124.336 3 124.822 1.95238 125.796 1.19048C126.769 0.380952 127.937 0 129.299 0C131.781 0 133.679 1.2381 134.652 3.28571L132.511 4.47619C131.878 3.09524 130.808 2.38095 129.299 2.38095C127.839 2.38095 126.866 3.09524 126.866 4.2381C126.866 5.33333 127.596 5.85714 129.981 6.57143C130.565 6.7619 131.003 6.90476 131.246 7C131.538 7.09524 131.878 7.2381 132.365 7.42857C132.852 7.61905 133.241 7.85714 133.484 8.04762C134.312 8.66667 135.188 9.66667 135.042 11.0952C135.042 12.4286 134.555 13.5238 133.533 14.3333C132.56 15.1429 131.246 15.5238 129.591 15.5238C126.671 15.4762 124.482 14.0952 123.703 11.8095Z" fill="white" fill-opacity="0.7"/>
</svg>
