<svg width="135" height="26" viewBox="0 0 135 26" fill="none" xmlns="http://www.w3.org/2000/svg">
<path fill-rule="evenodd" clip-rule="evenodd" d="M6.32625 12.9524L2.67649 20.9524H0L3.99038 12.3809C2.0925 11.4286 0.827255 9.76189 0.827255 6.61904C0.827255 2.23808 3.64976 0.0476074 7.0562 0.0476074H10.5114V20.9524H8.22408V12.9524H6.32625ZM8.27279 1.95237H7.0562C5.20699 1.95237 3.40644 3.14285 3.40644 6.61904C3.40644 9.99999 5.061 11.0476 7.0562 11.0476H8.27279V1.95237Z" fill="white" fill-opacity="0.7"/>
<path fill-rule="evenodd" clip-rule="evenodd" d="M21.6554 6.23808V21H19.3682V14.3809H15.913V21H13.5771V6.23808H15.913V12.5238H19.3682V6.23808H21.6554ZM33.6753 23.9047H31.5827V21H25.1105V23.9047H23.018V19.1428H23.9425C25.3051 16 25.4511 11.4286 25.4511 7.5238V6.2857H32.4587V19.1428H33.6753V23.9047ZM30.1715 8.09523H27.5437V8.38094C27.5437 11.4762 27.3976 16 26.1324 19.1428H30.1228V8.09523H30.1715ZM40.0988 21.1905C36.9844 21.1905 35.0866 18.7619 35.0866 14.2381C35.0866 9.47618 36.4491 6.04761 39.6122 6.04761C42.1427 6.04761 43.7486 7.90475 43.7486 12.9047V14.1428H37.471C37.471 17.4762 38.4443 19.2381 40.2936 19.2381C41.6075 19.2381 42.678 18.6667 43.262 18.2381L43.7973 20C42.824 20.7143 41.6074 21.1905 40.0988 21.1905ZM37.5198 12.2857H41.3641C41.3641 9.76189 40.9261 7.90475 39.6122 7.90475C38.201 7.90475 37.6657 9.61904 37.5198 12.2857ZM48.5177 13.6667V21H46.1818V6.23808H48.5177V13.0476L52.1188 6.23808H54.5033L50.7562 13.1905L55.0387 21H52.5081L48.5177 13.6667ZM55.3306 13.619C55.3306 8.99999 57.1798 6.04761 60.6836 6.04761C62.0462 6.04761 62.8248 6.38094 63.4574 6.80951L63.1168 8.95237C62.4841 8.42856 61.6083 7.90475 60.635 7.90475C58.9804 7.90475 57.7638 9.76189 57.7638 13.4762C57.7638 17.1428 58.6397 19.2857 60.5376 19.2857C61.6568 19.2857 62.5329 18.8571 63.0682 18.3809L63.6034 20.0952C62.7761 20.7619 61.8515 21.1905 60.4403 21.1905C57.2771 21.1905 55.3306 18.6667 55.3306 13.619Z" fill="white" fill-opacity="0.7"/>
<path fill-rule="evenodd" clip-rule="evenodd" d="M82.5822 21H81.171H82.5822V0.0476074V21ZM72.1684 21H70.8545V0.0476074V21H72.1684Z" fill="white" fill-opacity="0.7"/>
<path fill-rule="evenodd" clip-rule="evenodd" d="M82.5822 21H81.171V6.33332C81.171 5.33332 81.2196 4.2857 81.2683 3.23808H81.171C80.879 4.42856 80.6844 5.23808 80.441 6.14285L77.2292 17.8095H76.0614L72.8983 6.23808C72.6063 5.14285 72.363 4.23808 72.1684 3.23808H72.0711C72.1197 4.23808 72.1684 5.2857 72.1684 6.33332V21H70.8545V0.0476074H72.6063L76.2074 13.4286C76.3534 14 76.548 15.0476 76.6453 15.8571H76.7426C76.8399 15.0476 77.0833 13.9524 77.2292 13.4286L80.879 0.0476074H82.5336V21H82.5822Z" fill="white" fill-opacity="0.7"/>
<path fill-rule="evenodd" clip-rule="evenodd" d="M91.9254 19C91.1955 20.381 90.1249 21.2857 88.6163 21.2857C86.5724 21.2857 85.1611 19.7143 85.1611 17C85.1611 13.8572 86.9131 12.1905 90.1736 12.1905H91.8281V10.381C91.8281 8.14287 90.9522 7.14287 89.2976 7.14287C88.0323 7.14287 86.8644 7.7143 86.1344 8.76192L85.7451 7.42858C86.3291 6.66668 87.5943 5.95239 89.2976 5.95239C91.7795 5.95239 93.1907 7.28573 93.1907 10.2381V18.2857C93.1907 19.2857 93.3367 20.4286 93.5314 21H92.2662C92.1688 20.6191 92.0228 20.0476 91.9254 19ZM91.8281 17.2857V13.2381H90.2222C87.7403 13.2381 86.5238 14.3333 86.5238 16.9048C86.5238 19 87.4483 20.1905 88.9083 20.1905C90.3195 20.1905 91.2928 18.8572 91.8281 17.2857Z" fill="white" fill-opacity="0.7"/>
<path fill-rule="evenodd" clip-rule="evenodd" d="M97.8625 19.9524V25.5238H96.4512V6.23811H97.6678L97.7651 8.66668C98.4464 7.23811 99.517 5.95239 101.22 5.95239C103.751 5.95239 105.211 8.90477 105.211 13.1905C105.211 18.6191 103.362 21.2857 100.539 21.2857C99.4197 21.2381 98.4465 20.7143 97.8625 19.9524ZM103.848 13.2857C103.848 9.42858 102.778 7.14287 101.026 7.14287C99.6631 7.14287 98.5438 8.57144 97.8625 10.1429V18.381C98.4465 19.5714 99.3224 20.1429 100.636 20.1429C102.583 20.1905 103.848 17.9524 103.848 13.2857Z" fill="white" fill-opacity="0.7"/>
<path fill-rule="evenodd" clip-rule="evenodd" d="M109.347 21H107.936V6.2381H109.347V13.1905L114.408 6.2381H115.771L110.807 13.0952L116.111 21H114.554L109.347 13.3333V21Z" fill="white" fill-opacity="0.7"/>
<path fill-rule="evenodd" clip-rule="evenodd" d="M121.465 20.0953C123.46 20.0953 124.53 18.5238 124.53 18.5238L124.968 19.6191C124.968 19.6191 123.849 21.2857 121.416 21.2857C118.204 21.2857 116.744 18.4286 116.744 13.6191C116.744 8.80953 118.593 5.95239 121.124 5.95239C123.703 5.95239 125.406 8.61906 124.92 13.8572H118.107C118.204 17.9048 119.275 20.0953 121.465 20.0953ZM118.155 12.7619H123.654C123.898 8.85715 122.681 7.09525 121.173 7.09525C119.567 7.09525 118.301 9.09525 118.155 12.7619Z" fill="white" fill-opacity="0.7"/>
<path fill-rule="evenodd" clip-rule="evenodd" d="M131.148 21H129.737H131.148ZM134.604 7.38096V6.2381V7.38096Z" fill="white" fill-opacity="0.7"/>
<path fill-rule="evenodd" clip-rule="evenodd" d="M131.148 21H129.737V7.38096H126.233V6.2381H134.604V7.38096H131.148V21Z" fill="white" fill-opacity="0.7"/>
</svg>
