<svg width="400" height="522" viewBox="0 0 400 522" fill="none" xmlns="http://www.w3.org/2000/svg">
<path d="M276.15 274.447L91.134 264.784C85.9957 264.519 82.7258 260.305 83.8616 255.387L114.765 120.829C115.402 118.418 116.871 116.311 118.913 114.881C120.955 113.451 123.438 112.79 125.921 113.016L307.273 132.067C311.688 132.525 314.454 136.564 313.465 141.089L286.106 266.534C285.108 271.113 280.657 274.685 276.15 274.447Z" fill="#D8DEE8"/>
<path d="M278.458 275.052L93.6709 265.361C88.5417 265.086 85.2719 260.937 86.3984 256.092L117.146 123.54C117.798 121.153 119.272 119.072 121.308 117.666C123.344 116.26 125.811 115.619 128.274 115.855L309.398 134.787C310.426 134.883 311.42 135.202 312.312 135.721C313.204 136.241 313.972 136.949 314.562 137.795C315.153 138.642 315.551 139.607 315.73 140.624C315.909 141.64 315.864 142.683 315.599 143.681L288.396 267.33C287.862 269.554 286.587 271.53 284.781 272.933C282.975 274.337 280.745 275.084 278.458 275.052Z" fill="url(#paint0_linear)"/>
<path d="M297.005 228.513L96.0246 214.445L95.127 218.301L296.209 232.104L297.005 228.513Z" fill="white"/>
<path d="M240.567 127.606L218.539 225.683L222.294 225.939L244.267 128L240.567 127.606Z" fill="white"/>
<path d="M188.79 243.764L116.12 239.276C116.043 239.275 115.967 239.257 115.898 239.223C115.83 239.189 115.769 239.14 115.722 239.079C115.676 239.018 115.643 238.947 115.628 238.871C115.613 238.796 115.615 238.718 115.635 238.644L117.128 232.168C117.17 232.002 117.269 231.856 117.408 231.756C117.547 231.655 117.717 231.607 117.888 231.618L190.484 236.308C190.558 236.31 190.63 236.328 190.696 236.362C190.762 236.395 190.819 236.444 190.863 236.503C190.907 236.562 190.937 236.631 190.951 236.703C190.964 236.776 190.961 236.85 190.942 236.922L189.513 243.241C189.47 243.398 189.374 243.534 189.243 243.629C189.111 243.724 188.951 243.772 188.79 243.764Z" fill="url(#paint1_linear)"/>
<path d="M204.718 259.078L112.759 253.866C112.682 253.866 112.606 253.848 112.537 253.814C112.468 253.78 112.408 253.731 112.361 253.67C112.314 253.609 112.282 253.538 112.267 253.462C112.252 253.387 112.254 253.309 112.273 253.234L113.766 246.741C113.813 246.577 113.914 246.434 114.052 246.335C114.189 246.235 114.357 246.184 114.527 246.191L206.394 251.641C206.467 251.644 206.538 251.663 206.603 251.698C206.668 251.732 206.724 251.78 206.768 251.839C206.812 251.898 206.842 251.966 206.857 252.037C206.871 252.109 206.869 252.183 206.852 252.254L205.432 258.538C205.392 258.696 205.3 258.835 205.17 258.934C205.04 259.032 204.88 259.083 204.718 259.078Z" fill="#D8DEE8"/>
<path d="M300.184 167.11L246.932 162.192L251.631 141.199L304.727 146.511L300.184 167.11Z" fill="#D8DEE8"/>
<path d="M289.193 216.89L235.575 212.925L244.926 171.14L298.242 175.894L289.193 216.89Z" fill="#D8DEE8"/>
<g style="mix-blend-mode:multiply" opacity="0.47">
<path d="M99.5595 184.101C97.0224 186.381 106.209 206.348 122.778 222.02C139.558 237.893 152.198 238.259 165.332 257.127C171.688 266.286 169.389 267.111 174.335 273.669C193.671 299.315 244.642 307.127 265.158 287.316C267.311 285.237 272.11 276.059 281.7 257.713C285.857 249.662 289.509 241.36 292.636 232.855C296.858 221.406 299.185 214.958 296.886 213.117C292.196 209.362 275.948 229.805 265.158 225.116C258.344 222.139 261.806 210.974 252.784 203.06C245.457 196.649 235.537 196.978 232.955 197.061C210.441 197.775 207.913 222.579 186.81 227.241C169.27 231.124 150.705 218.466 123.548 199.964C109.058 190.091 101.419 182.424 99.5595 184.101Z" fill="#D8DEE8"/>
</g>
<path d="M157.062 156.943C157.179 156.829 157.319 156.741 157.473 156.685C157.627 156.629 157.791 156.607 157.954 156.62C158.118 156.633 158.276 156.681 158.419 156.76C158.562 156.84 158.687 156.949 158.784 157.081L180.62 191.327L121.332 187.343L157.062 156.943ZM184.476 151.127C184.59 151.014 184.728 150.927 184.879 150.872C185.03 150.817 185.192 150.796 185.352 150.81C185.513 150.824 185.668 150.873 185.808 150.953C185.948 151.033 186.068 151.142 186.161 151.274L212.549 193.406L140.841 188.68L184.476 151.127ZM137.59 140.365C138.429 140.421 139.245 140.659 139.983 141.063C140.721 141.467 141.362 142.026 141.861 142.703C142.361 143.379 142.707 144.156 142.876 144.98C143.044 145.804 143.031 146.654 142.838 147.473C142.447 149.244 141.437 150.819 139.99 151.913C138.543 153.007 136.754 153.55 134.943 153.445C134.099 153.394 133.278 153.159 132.535 152.757C131.792 152.355 131.146 151.796 130.642 151.118C130.139 150.439 129.789 149.659 129.619 148.832C129.449 148.004 129.462 147.15 129.658 146.328C130.057 144.557 131.076 142.988 132.53 141.901C133.984 140.815 135.778 140.283 137.59 140.402V140.365Z" fill="url(#paint2_linear)"/>
<path d="M102.262 192.417L98.4151 188.57C97.547 187.251 97.0104 185.742 96.8509 184.171C96.6914 182.6 96.9138 181.014 97.4992 179.548C99.4226 174.263 102.079 175.701 102.079 175.701L101.346 179.429C101.346 179.429 100.861 181.838 103.178 184.842C104.351 186.82 105.164 188.991 105.578 191.253L102.262 192.417Z" fill="url(#paint3_linear)"/>
<path d="M297.006 210.241L301.64 206.037L303.472 199.332C303.472 199.332 308.455 201.292 305.734 207.621C304.003 209.737 299.744 212.897 297.931 215.993C296.117 219.088 297.006 210.241 297.006 210.241Z" fill="url(#paint4_linear)"/>
<path d="M243.882 278.67C243.882 278.67 262.365 270.271 275.023 257.677C286.93 245.834 298.673 218.438 300.12 215.828C301.567 213.218 296.74 209.462 296.74 209.462C296.74 209.462 267.128 245.33 230.537 234.595C236.335 247.647 243.882 278.67 243.882 278.67Z" fill="#4DA6DD"/>
<path opacity="0.3" d="M293.159 492.007C290.855 489.034 287.945 486.587 284.622 484.826C283.655 484.3 282.832 483.543 282.226 482.622C281.621 481.702 281.252 480.646 281.153 479.549C281.053 478.452 281.226 477.348 281.655 476.333C282.085 475.319 282.758 474.426 283.615 473.734L283.954 473.441C289.083 469.109 285.236 460.755 278.596 461.772L188.286 475.566C174.547 477.663 160.588 479.816 147.829 485.385C137.974 489.68 126.763 497.182 121.185 507.092C120.73 507.896 120.445 508.785 120.348 509.704C120.252 510.622 120.346 511.551 120.624 512.432C120.903 513.313 121.36 514.127 121.967 514.824C122.574 515.52 123.318 516.084 124.153 516.48C134.384 521.27 146.813 521.426 157.785 520.739C171.836 519.823 185.602 521.362 199.671 521.252C230.923 521.003 261.806 514.462 290.475 502.018C291.386 501.618 292.196 501.018 292.844 500.263C293.493 499.508 293.963 498.618 294.221 497.656C294.478 496.695 294.517 495.689 294.333 494.711C294.149 493.733 293.748 492.809 293.159 492.007Z" fill="#8DAFCD"/>
<path d="M250.376 480.512C250.376 480.512 253.444 488.251 252.638 491.677C254.459 491.659 256.275 491.497 258.07 491.191C257.412 489.474 256.882 487.711 256.485 485.915C256.256 483.866 256.149 481.805 256.165 479.742L250.376 480.512Z" fill="url(#paint5_linear)"/>
<path d="M195.943 501.504C196.28 501.905 196.482 502.402 196.52 502.924C196.528 503.238 196.469 503.551 196.346 503.84C195.824 505.223 194.999 505.406 194.111 506.872C193.57 507.788 193.671 508.035 193.195 508.438C192.571 508.869 191.816 509.07 191.061 509.006C189.408 509.023 187.756 508.931 186.115 508.731C187.223 507.302 188.395 505.864 189.641 504.399C190.191 503.767 190.74 503.135 191.281 502.567L194.523 501.468L195.943 501.504Z" fill="#26264F"/>
<path d="M193.241 485.76C193.241 485.76 191.409 495.432 193.745 498.143C195.76 500.891 192.774 498.922 192.774 498.922L189.22 502.027L187.086 505.69C187.086 505.69 189.046 496.22 188.524 492.464C188.002 488.709 187.736 486.172 187.736 486.172L193.241 485.76Z" fill="url(#paint6_linear)"/>
<path d="M207.703 234.476C194.212 232.205 174.895 239.056 152.565 227.222C130.583 215.599 114.243 200.129 106.677 189.138L100.192 192.344C105.78 201.979 113.308 229.127 130.738 243.498C152.721 261.606 175.747 271.535 187.434 286.318C192.939 280.886 214.289 235.603 207.703 234.476Z" fill="#4DA6DD"/>
<path d="M183.542 327.305C183.542 327.305 176.095 333.963 176.095 361.395C176.095 388.827 179.622 448.408 179.622 448.408L185.264 491.053C185.264 491.053 191.116 491.264 195.036 490.083C198.563 474.017 204.306 446.842 201.567 424.136C200.385 399.452 211.358 368.494 211.358 368.494C211.358 368.494 220.765 399.837 227.424 415.517C234.082 431.198 246.768 480.291 247.949 483.818C255.744 484.523 259.069 482.462 259.069 482.462C259.069 482.462 254.068 429.622 249.369 409.637C244.67 389.652 245.055 341.456 237.224 327.744C219.592 320.637 183.542 327.305 183.542 327.305Z" fill="url(#paint7_linear)"/>
<path d="M183.542 327.305C183.542 327.305 176.095 333.963 176.095 361.395C176.095 388.827 179.622 448.408 179.622 448.408L185.264 491.053C185.264 491.053 191.116 491.264 195.036 490.083C198.563 474.017 204.306 446.842 201.567 424.136C200.385 399.452 211.358 368.494 211.358 368.494C211.358 368.494 220.765 399.837 227.424 415.517C234.082 431.198 246.768 480.291 247.949 483.818C255.744 484.523 259.069 482.462 259.069 482.462C259.069 482.462 254.068 429.622 249.369 409.637C244.67 389.652 245.055 341.456 237.224 327.744C219.592 320.637 183.542 327.305 183.542 327.305Z" fill="#303030"/>
<path style="mix-blend-mode:multiply" opacity="0.25" d="M222.249 377.562C224.575 392.647 229.219 400.781 240.823 411.222C250.111 418.192 243.15 433.277 246.63 444.882C247.784 448.372 251.274 451.852 252.428 455.333C256.751 463.97 252.712 474.567 254.672 483.727C256.217 483.584 257.72 483.152 259.105 482.453C259.105 482.453 254.104 429.614 249.406 409.628C244.707 389.643 245.092 341.447 237.261 327.736C219.629 320.674 183.578 327.342 183.578 327.342C183.578 327.342 176.132 334.001 176.132 361.433C176.132 363.658 176.132 366.095 176.196 368.696C183.926 375.538 199.735 377.058 209.481 369.474C210.021 369.061 210.647 368.773 211.312 368.632L211.358 368.485V368.623C215.837 367.771 221.204 373.532 222.249 377.562Z" fill="url(#paint8_linear)"/>
<path d="M251.832 494.598C251.832 494.598 251.063 494.598 251.127 495.587C251.191 496.577 250.779 499.975 254.671 500.167C258.564 500.359 259.169 499.892 259.297 499.892C259.017 498.788 258.677 497.699 258.28 496.631L257.053 495.029L253.701 494.681L251.832 494.598Z" fill="#26264F"/>
<path d="M260.461 498.033C260.269 496.94 259.934 495.878 259.462 494.873C258.766 493.325 259.334 492.748 258.675 491.338C258.468 490.81 258.157 490.33 257.759 489.927C257.007 489.245 256.026 488.872 255.011 488.883C254.559 488.875 254.112 488.979 253.71 489.185C253.213 489.475 252.809 489.901 252.547 490.413C252.144 491.081 252.236 491.329 251.631 493.161C251.524 493.459 251.442 493.765 251.384 494.076C251.332 494.355 251.298 494.636 251.283 494.919C252.3 494.919 256.229 495.084 257.063 495.689C257.462 496.003 257.782 496.405 257.998 496.865C258.214 497.324 258.32 497.828 258.308 498.336C258.308 499.361 258.812 499.838 259.325 499.81C259.689 499.689 260.001 499.446 260.207 499.123C260.414 498.799 260.504 498.415 260.461 498.033Z" fill="#444B8C"/>
<path d="M192.746 496.787C193.662 496.787 194.266 497.493 194.752 499.178C195.237 500.863 197.564 502.347 194.853 501.99C192.141 501.632 190.154 505.489 189.183 506.908C188.212 508.328 185.611 509.601 185.675 508.209C185.739 506.817 186.884 506.166 187.214 504.747C187.543 503.327 190.74 496.751 192.746 496.787Z" fill="#444B8C"/>
<path d="M220.278 238.048C211.907 237.828 190.612 235.74 180.655 244.689C170.47 253.848 180.784 264.839 178.952 279.897C177.706 290.118 178.155 296.145 175.993 312.87C175.462 316.864 174.673 320.82 173.63 324.713C170.791 335.603 165.845 357.026 163.18 362.385C171.707 366.314 193.671 373.376 219.839 369.859C229.631 368.551 239.16 365.73 248.086 361.496C241.299 343.013 242.59 317.697 245.081 308.583C250.046 290.585 251.163 283.514 265.232 257.64C269.097 250.505 259.91 254.498 254.03 248.233C244.972 238.616 228.723 238.277 220.278 238.048Z" fill="#4DA6DD"/>
<path style="mix-blend-mode:multiply" opacity="0.25" d="M195.42 285.172C195.851 281.848 196.538 275.766 193.204 269.409C191.73 266.606 189.723 264.117 187.296 262.082C179.877 255.954 170.306 256.357 159.37 255.67C151.374 255.158 139.073 241.254 124.949 237.728C149.194 259.93 166.312 266.68 179.126 277.909C179.126 277.909 179.062 278.926 178.952 279.887C177.706 290.109 178.155 296.136 175.994 312.861C175.462 316.855 174.673 320.811 173.631 324.704C170.791 335.594 165.845 357.017 163.18 362.375C171.707 366.305 193.671 373.367 219.839 369.849C229.631 368.542 239.16 365.72 248.086 361.487C246.019 355.603 244.624 349.504 243.928 343.306C230.781 343.353 217.774 340.615 205.761 335.273C197.646 331.61 193.598 329.732 191.18 325.647C186.527 317.825 192.169 310.498 195.42 285.172Z" fill="url(#paint9_linear)"/>
<path d="M213.895 219.061C214.655 213.199 219.29 209.435 220.307 208.638C224.538 205.267 225.399 204.974 226.855 204.654L228.843 204.352H229.063C230.902 204.71 232.681 205.327 234.348 206.183C236.372 207.603 234.879 217.687 228.742 230.226C228.495 231.289 228.257 232.351 228.019 233.414C232.598 233.56 235.932 233.725 237.306 234.879C237.398 236.546 231.408 241.419 220.948 241.419C211.605 241.419 206.916 234.595 207.053 232.406C209.983 231.93 212.96 231.807 215.919 232.04C217.257 232.04 217.467 229.869 218.237 228.779C217.541 227.982 213.336 223.384 213.895 219.061Z" fill="url(#paint10_linear)"/>
<path d="M226.828 200.523C224.694 202.611 224.172 206.238 224.804 208.849C225.179 210.415 225.665 210.58 225.601 211.596C225.399 214.472 220.169 215.718 220.453 217.165C220.664 218.2 223.393 217.825 223.86 219.125C224.327 220.426 221.378 221.772 220.096 225.354C219.894 225.912 218.676 229.292 220.242 231.289C221.699 233.121 224.959 232.708 228.641 232.205C231.332 231.863 233.963 231.157 236.463 230.107C239.147 228.926 242.032 227.653 244.423 224.749C246.868 221.723 248.151 217.922 248.041 214.033C247.674 206.348 241.254 199.79 234.65 198.746C233.606 198.618 229.475 197.968 226.828 200.523Z" fill="#303030"/>
<path d="M222.312 216.854C223.851 215.938 225.06 217.916 224.3 219.647C223.54 221.379 221.131 222.478 219.647 221.479C218.163 220.481 220.233 218.1 222.312 216.854Z" fill="url(#paint11_linear)"/>
<path d="M202.336 233.917L207.053 232.461C207.053 232.461 208.289 238.872 223.448 239.651C228.462 239.656 233.336 237.997 237.306 234.934L240.97 236.601C240.97 236.601 233.459 246.108 222.248 245.888C218.155 245.887 214.14 244.772 210.632 242.663C207.125 240.555 204.257 237.531 202.336 233.917Z" fill="#0F8FDD"/>
<path d="M62.0623 170.005L0.594727 164.179L1.19924 157.823L62.3646 166.826L62.0623 170.005Z" fill="#D8DEE8"/>
<path d="M81.8003 92.8474L31.4795 57.0623L35.1798 51.8599L83.6505 90.2462L81.8003 92.8474Z" fill="#D8DEE8"/>
<path d="M151.172 61.1471L129.053 3.49891L135.015 1.21826L154.158 60.0022L151.172 61.1471Z" fill="#D8DEE8"/>
<path d="M220.306 60.9272L230.299 0L236.6 1.03499L223.457 61.4493L220.306 60.9272Z" fill="#D8DEE8"/>
<path d="M289.669 82.085L325.445 31.7642L330.648 35.4645L292.271 83.9351L289.669 82.085Z" fill="#D8DEE8"/>
<path d="M340.448 141.492L396.594 115.8L399.25 121.607L341.776 144.395L340.448 141.492Z" fill="#D8DEE8"/>
<path d="M337.516 216.222L398.709 224.465L397.857 230.794L337.086 219.382L337.516 216.222Z" fill="#D8DEE8"/>
<defs>
<linearGradient id="paint0_linear" x1="27.5596" y1="195.43" x2="320.884" y2="195.43" gradientUnits="userSpaceOnUse">
<stop stop-color="#E3E7EF"/>
<stop offset="1" stop-color="#FAFBFD"/>
</linearGradient>
<linearGradient id="paint1_linear" x1="115.616" y1="237.691" x2="190.96" y2="237.691" gradientUnits="userSpaceOnUse">
<stop stop-color="#F68C48"/>
<stop offset="1" stop-color="#F67420"/>
</linearGradient>
<linearGradient id="paint2_linear" x1="12145.5" y1="9807.1" x2="21229.8" y2="9807.1" gradientUnits="userSpaceOnUse">
<stop stop-color="#F68C48"/>
<stop offset="1" stop-color="#F67420"/>
</linearGradient>
<linearGradient id="paint3_linear" x1="107.922" y1="191.006" x2="91.0602" y2="171.506" gradientUnits="userSpaceOnUse">
<stop stop-color="#F5928F"/>
<stop offset="1" stop-color="#F8B2B1"/>
</linearGradient>
<linearGradient id="paint4_linear" x1="292.994" y1="221.717" x2="305.606" y2="201.869" gradientUnits="userSpaceOnUse">
<stop stop-color="#F5928F"/>
<stop offset="1" stop-color="#F8B2B1"/>
</linearGradient>
<linearGradient id="paint5_linear" x1="2402.39" y1="6933.65" x2="2312.2" y2="6699.53" gradientUnits="userSpaceOnUse">
<stop stop-color="#F5928F"/>
<stop offset="1" stop-color="#F8B2B1"/>
</linearGradient>
<linearGradient id="paint6_linear" x1="1709.22" y1="11496.6" x2="1798.83" y2="11060.3" gradientUnits="userSpaceOnUse">
<stop stop-color="#F5928F"/>
<stop offset="1" stop-color="#F8B2B1"/>
</linearGradient>
<linearGradient id="paint7_linear" x1="176.095" y1="407.75" x2="259.069" y2="407.75" gradientUnits="userSpaceOnUse">
<stop stop-color="#311944"/>
<stop offset="1" stop-color="#893976"/>
</linearGradient>
<linearGradient id="paint8_linear" x1="17967.3" y1="58023.2" x2="29684.8" y2="68277.6" gradientUnits="userSpaceOnUse">
<stop stop-color="#311944"/>
<stop offset="1" stop-color="#893976"/>
</linearGradient>
<linearGradient id="paint9_linear" x1="79.2355" y1="155.24" x2="224.785" y2="386.583" gradientUnits="userSpaceOnUse">
<stop stop-color="#FF9085"/>
<stop offset="1" stop-color="#FB6FBB"/>
</linearGradient>
<linearGradient id="paint10_linear" x1="7678.99" y1="10078.7" x2="7256.93" y2="8649.43" gradientUnits="userSpaceOnUse">
<stop stop-color="#F5928F"/>
<stop offset="1" stop-color="#F8B2B1"/>
</linearGradient>
<linearGradient id="paint11_linear" x1="1556.84" y1="1504.44" x2="1515.89" y2="1462.94" gradientUnits="userSpaceOnUse">
<stop stop-color="#F5928F"/>
<stop offset="1" stop-color="#F8B2B1"/>
</linearGradient>
</defs>
</svg>
