<svg width="456" height="469" viewBox="0 0 456 469" fill="none" xmlns="http://www.w3.org/2000/svg">
<g style="mix-blend-mode:multiply" opacity="0.3">
<path d="M4.79836 427.641C11.0042 438.131 47.0442 429.791 70.6829 419.987C108.802 404.137 108.412 386.974 140.29 373.685C186.384 354.474 229.429 372.756 231.867 363.571C233.472 357.523 216.014 345.247 197.024 340.453C174.949 334.877 163.694 342.658 110.849 355.811C68.1392 366.432 64.0417 364.196 49.2141 372.704C21.8608 388.372 -1.35358 417.242 4.79836 427.641Z" fill="#8DAFCD"/>
</g>
<path d="M224.464 312.518C224.921 312.109 225.485 311.829 226.093 311.709C226.702 311.589 227.333 311.633 227.916 311.837C230.09 312.607 229.808 316.809 230.063 321.263C230.34 326.343 230.857 331.756 228.524 331.601C227.521 331.547 225.789 328.357 225.596 325.493C225.422 323.229 224.97 320.995 224.251 318.837C224.066 317.903 223.957 316.956 223.925 316.005C223.865 314.219 223.838 313.205 224.464 312.518Z" fill="#26264F"/>
<path d="M227.189 316.226C227.058 318.414 223.24 319.086 220.965 318.958C218.691 318.83 218.813 317.949 218.945 315.761C219.076 313.574 219.251 311.983 221.536 312.112C223.82 312.241 227.32 314.038 227.189 316.226Z" fill="url(#paint0_linear)"/>
<path d="M55.1556 373.415L49.4953 390.805C49.746 391.333 50.108 391.804 50.5578 392.188C51.0077 392.572 51.5355 392.86 52.1073 393.034C52.7795 393.13 53.4654 393.085 54.1185 392.901C54.7716 392.718 55.3766 392.4 55.8923 391.969C57.5983 383.703 59.9963 378.571 62.2568 375.202C63.844 372.847 65.3457 371.403 65.2901 370.504C65.1817 368.989 60.0802 371.09 55.1556 373.415Z" fill="url(#paint1_linear)"/>
<path d="M49.7064 220.033L46.8931 220.289C44.2594 220.025 41.6073 219.98 38.9643 220.153C36.0463 220.501 34.3075 221.859 34.1304 224.797C33.9532 227.735 37.5777 228.339 40.7207 228.868C42.6853 229.193 45.3537 227.72 47.4403 226.353C49.0634 225.565 50.7864 225 52.5618 224.672L49.7064 220.033Z" fill="url(#paint2_linear)"/>
<path d="M92.4745 98.8151C88.3594 100.824 87.2174 107.2 88.0488 111.144C88.6518 113.951 89.7176 116.643 91.2046 119.117C91.898 120.87 92.4885 122.511 92.9594 123.98C93.3038 125.061 93.5394 125.961 93.7866 126.833C94.1593 128.529 94.3896 130.253 94.4754 131.987C94.4817 132.046 94.5108 132.1 94.5567 132.139C94.6025 132.178 94.6618 132.198 94.7225 132.195C94.7859 132.199 94.8481 132.178 94.8955 132.137C94.9429 132.096 94.9717 132.038 94.9754 131.976C94.9005 130.219 94.6714 128.472 94.2906 126.754C94.0867 125.827 93.8488 124.965 93.4652 123.872C93.2121 123.098 92.9322 122.273 92.6141 121.418C94.1383 123.902 95.1307 126.663 95.5316 129.533C97.0892 140.338 109.105 144.104 116.409 142.216C122.88 140.545 127.795 135.522 128.948 130.472C132.518 114.597 101.567 94.3978 92.4745 98.8151Z" fill="#141414"/>
<path d="M107.782 217.036C95.0387 235.882 85.7965 264.432 74.0971 296.701C63.6036 325.679 55.4694 352.537 50.34 372.971C51.9712 374.446 53.7722 375.734 55.7075 376.81C65.3253 382.567 59.9573 379.39 62.7832 380.957C63.4549 375.572 73.6786 367.032 76.2663 350.548C78.4359 336.951 94.2948 321.995 106.367 299.851C114.83 284.497 118.964 276.85 125.552 271.77C129.608 268.664 138.945 262.14 141.131 251.542C141.222 251.099 141.28 250.65 141.304 250.199C142.168 235.294 114.375 220.378 107.782 217.036Z" fill="#303030"/>
<path d="M107.693 217.065C100.715 227.394 94.7868 240.585 88.94 255.707C100.127 262.335 109.371 272.918 104.099 284.917C99.0196 297.209 80.9018 302.597 76.7353 317.032C72.5348 332.508 73.9562 340.9 69.7656 356.376C67.7206 363.625 60.1846 371.928 59.4457 379.18C60.3147 379.753 62.1853 380.702 62.6587 381.011C63.3327 375.624 75.2617 360.941 77.6341 351.48C80.9824 338.091 94.2118 322.037 106.3 299.885C114.723 284.533 118.863 276.883 125.457 271.8C129.517 268.692 138.863 262.163 141.054 251.563C141.145 251.12 141.203 250.671 141.228 250.219C142.098 235.312 114.29 220.405 107.693 217.065Z" fill="#141414"/>
<path d="M115.618 245.527C115.367 246.034 115.206 246.58 115.143 247.141C114.558 252.734 124.621 260.548 145.244 297.439C148.835 303.951 155.119 315.352 165.985 319.245C167.133 319.651 168.313 319.968 169.512 320.196C171.611 320.583 173.756 320.684 175.885 320.496C178.666 320.261 189.43 317.888 219.67 322.257C219.95 321.735 225.439 315.539 219.293 306.978C217.584 304.596 214.98 303.698 212.972 302.989C203.487 299.632 186.796 297.267 182.956 297.393C180.292 297.477 178.609 296.826 177.003 297.058C167.985 265.694 174.914 239.311 161.883 237.982C159.334 237.672 118.762 237.929 115.618 245.527Z" fill="#303030"/>
<path d="M87.5212 160.068C80.7268 161.945 89.3568 185.703 74.6084 202.722C67.1689 211.32 62.3404 216.258 47.7928 218.663C49.2894 224.531 48.1004 221.027 49.597 226.895C54.3501 227.357 76.5024 227.055 92.3011 215.343C96.3219 212.356 104.761 206.092 106.458 190.705C108.609 171.118 93.9392 158.297 87.5212 160.068Z" fill="url(#paint3_linear)"/>
<path d="M95.5344 138.396C91.9612 142.095 90.3538 145.612 88.3144 150.177C85.0669 157.424 83.221 161.59 83.1171 166.811C82.9099 176.91 89.269 184.621 92.3491 187.808C98.1246 210.56 99.452 215.861 99.4579 215.929L99.4491 216.075C98.8734 219.91 97.9424 223.685 96.6676 227.356C92.3777 239.672 87.3168 241.737 88.2986 246.316C90.0305 254.351 107.887 258.605 121.71 257.952C129.032 257.604 129.798 256.136 136.024 255.424C162.215 252.436 172.813 275.606 190.117 270.781C202.411 267.359 203.399 253.716 219.224 251.946C224.759 251.284 230.765 252.246 231.394 250.244C232.023 248.242 227.112 244.825 222.916 242.94C213.857 238.841 205.16 240.671 201.337 241.041C184.223 242.698 167.992 224.485 158.256 213.552C130.718 182.659 133.987 141.979 134.843 133.544C132.59 132.188 124.346 127.628 105.384 131.492C101.677 133.153 98.3331 135.497 95.5344 138.396Z" fill="#4DA6DD"/>
<g style="mix-blend-mode:multiply" opacity="0.24">
<path d="M230.878 250.491C231.504 248.527 226.597 245.07 222.404 243.185C213.349 239.085 204.655 240.916 200.835 241.286C183.727 242.945 167.504 224.727 157.772 213.8C143.949 198.272 137.851 180.283 135.399 165.153C132.095 181.675 124.961 198.206 131.162 213.333C135.69 227.244 156.053 227.329 162.595 243.392C165.419 249.843 174.036 249.285 181.455 250.747C186.79 251.048 188.424 259.538 195.969 258.91C199.241 258.041 201.69 252.942 203.826 253.062C206.539 253.215 209.47 253.38 212.479 253.735C214.471 252.917 216.571 252.379 218.716 252.136C224.244 251.56 230.249 252.494 230.878 250.491Z" fill="#288CCA"/>
</g>
<path d="M143.198 246.333C141.654 247.417 138.193 249.545 134.146 249.379C133.019 249.357 131.907 249.132 130.863 248.715C129.225 248.022 127.792 246.928 126.7 245.535C129.858 244.156 133.11 243.003 136.431 242.084L139.555 241.441L143.198 246.333Z" fill="url(#paint4_linear)"/>
<path d="M206.545 219.279L106.947 252.193C105.701 252.599 104.343 252.506 103.168 251.935C101.994 251.365 101.097 250.362 100.675 249.145L81.9059 193.721C81.4931 192.501 81.5892 191.17 82.1733 190.018C82.7574 188.867 83.7822 187.987 85.0243 187.571L184.623 154.658C185.867 154.255 187.222 154.349 188.395 154.919C189.567 155.49 190.462 156.491 190.885 157.705L209.654 213.129C210.067 214.348 209.973 215.678 209.391 216.829C208.808 217.981 207.786 218.862 206.545 219.279Z" fill="#E36514"/>
<path d="M208.304 219.964L108.705 252.878C107.46 253.284 106.102 253.191 104.927 252.621C103.752 252.05 102.856 251.047 102.433 249.83L83.6645 194.405C83.2516 193.186 83.3477 191.855 83.9318 190.703C84.5159 189.551 85.5407 188.672 86.7829 188.256L186.381 155.343C187.627 154.936 188.985 155.029 190.16 155.6C191.335 156.171 192.231 157.173 192.654 158.39L211.423 213.795C211.842 215.018 211.749 216.354 211.164 217.51C210.58 218.666 209.551 219.549 208.304 219.964Z" fill="url(#paint5_linear)"/>
<path d="M140.189 193.502L98.7703 207.668C98.6738 207.698 98.5692 207.69 98.4792 207.644C98.3893 207.599 98.321 207.52 98.2891 207.425L97.0365 203.529C97.0196 203.483 97.0121 203.434 97.0144 203.385C97.0167 203.336 97.0288 203.288 97.0499 203.243C97.071 203.199 97.1008 203.159 97.1375 203.126C97.1742 203.093 97.2171 203.067 97.2637 203.05L138.699 188.944C138.745 188.929 138.793 188.924 138.841 188.927C138.889 188.931 138.936 188.944 138.979 188.965C139.022 188.987 139.06 189.017 139.091 189.053C139.123 189.089 139.146 189.131 139.161 189.177L140.465 193.036C140.481 193.084 140.486 193.135 140.48 193.186C140.474 193.237 140.458 193.286 140.432 193.33C140.406 193.374 140.371 193.412 140.329 193.441C140.287 193.471 140.24 193.492 140.189 193.502Z" fill="#F6BA94"/>
<path d="M137.449 184.953L96.0496 199.119C95.9543 199.15 95.8507 199.143 95.7608 199.1C95.6709 199.056 95.6017 198.979 95.5678 198.886L94.2466 194.977C94.2302 194.931 94.2233 194.882 94.2263 194.833C94.2294 194.785 94.2424 194.737 94.2645 194.693C94.2866 194.649 94.3173 194.61 94.3549 194.579C94.3925 194.547 94.4361 194.523 94.4831 194.508L135.909 180.392C135.955 180.378 136.004 180.372 136.053 180.377C136.101 180.381 136.148 180.395 136.191 180.417C136.234 180.44 136.272 180.47 136.303 180.508C136.334 180.545 136.357 180.588 136.37 180.634L137.675 184.483C137.692 184.529 137.7 184.577 137.697 184.626C137.695 184.674 137.683 184.721 137.662 184.765C137.64 184.809 137.611 184.848 137.574 184.88C137.538 184.912 137.495 184.937 137.449 184.953Z" fill="#F6BA94"/>
<path d="M106.363 210.305L106.864 211.691L104.907 212.295L107.063 218.259L105.634 218.701L103.478 212.737L101.532 213.338L101.031 211.952L106.363 210.305ZM117.122 214.091C116.656 215.052 115.898 215.694 114.849 216.018C113.8 216.342 112.777 216.25 111.78 215.741C110.787 215.222 110.097 214.428 109.71 213.357C109.323 212.286 109.359 211.271 109.817 210.312C110.281 209.344 111.037 208.698 112.086 208.374C113.135 208.05 114.16 208.146 115.159 208.662C116.157 209.172 116.849 209.962 117.236 211.033C117.623 212.104 117.585 213.123 117.122 214.091ZM112.427 214.444C113.038 214.753 113.674 214.805 114.337 214.601C114.999 214.396 115.474 214.001 115.761 213.414C116.045 212.821 116.06 212.174 115.807 211.474C115.554 210.774 115.121 210.266 114.508 209.949C113.895 209.633 113.257 209.577 112.595 209.781C111.932 209.986 111.459 210.385 111.175 210.979C110.891 211.572 110.875 212.219 111.128 212.919C111.381 213.619 111.814 214.127 112.427 214.444ZM124.537 208.626C125.306 208.801 125.826 209.263 126.097 210.012C126.322 210.635 126.289 211.213 125.999 211.747C125.708 212.28 125.245 212.644 124.61 212.841L121.536 213.79L118.879 206.44L121.736 205.558C122.357 205.366 122.949 205.401 123.512 205.663C124.079 205.916 124.471 206.343 124.689 206.945C124.909 207.554 124.858 208.115 124.537 208.626ZM122.226 206.912L120.797 207.353L121.381 208.97L122.81 208.529C123.031 208.461 123.186 208.327 123.275 208.129C123.371 207.928 123.378 207.712 123.294 207.481C123.211 207.25 123.069 207.08 122.868 206.971C122.667 206.861 122.453 206.842 122.226 206.912ZM124.121 211.486C124.362 211.411 124.533 211.269 124.634 211.059C124.732 210.842 124.735 210.608 124.644 210.356C124.556 210.111 124.403 209.932 124.186 209.82C123.966 209.701 123.736 209.679 123.494 209.754L121.848 210.262L122.475 211.994L124.121 211.486ZM134.429 209.808L133.516 208.62L130.628 209.512L130.671 210.969L129.129 211.445L129.008 203.312L130.779 202.765L135.982 209.329L134.429 209.808ZM130.594 208.016L132.581 207.403L130.502 204.706L130.594 208.016ZM138.698 200.32C139.395 200.104 140.068 200.161 140.716 200.49C141.364 200.819 141.814 201.33 142.064 202.023C142.315 202.716 142.288 203.374 141.984 203.997C141.679 204.62 141.179 205.039 140.482 205.255L139.208 205.648L140.081 208.063L138.653 208.504L135.996 201.154L138.698 200.32ZM139.992 203.9C140.296 203.806 140.51 203.623 140.634 203.352C140.756 203.073 140.76 202.776 140.646 202.461C140.529 202.139 140.333 201.904 140.057 201.756C139.781 201.607 139.491 201.58 139.187 201.674L137.914 202.067L138.719 204.293L139.992 203.9Z" fill="white"/>
<path d="M122.705 141.543C133.264 132.691 163.649 145.095 173.841 170.368C182.614 192.108 184.628 204.339 173.186 224.599C164.305 240.33 147.323 246.517 142.445 248.299C141.719 246.876 141.952 247.502 138.174 242.22C148.29 239.163 158.673 222.319 160.359 211.706C162.617 197.61 155.723 183.559 148.826 178.141C142.388 173.09 121.598 177.293 115.433 172.53C107.252 166.155 114.606 148.343 122.705 141.543Z" fill="url(#paint6_linear)"/>
<path d="M107.896 112.471C106.535 117.263 105.749 123.148 108.938 126.374C111.769 129.21 116.061 128.419 116.276 129.833C116.707 132.632 100.194 137.906 99.1056 135.869C98.5656 134.865 103.757 132.927 103.872 129.38C103.961 127.905 103.294 126.836 99.7017 121.358L98.368 121.731L107.896 112.471Z" fill="url(#paint7_linear)"/>
<path d="M178.963 121.508C176.102 112.538 165.934 107.573 164.008 106.711C152.026 101.331 146.891 107.396 132.703 102.167C132.08 101.946 131.498 101.708 130.935 101.481C134.623 102.738 138.473 103.481 142.372 103.688L143.264 103.738L143.531 103.753C145.478 103.788 147.426 103.701 149.362 103.492C150.74 103.383 152.038 103.28 153.023 103.267C155.065 103.21 157.104 103.45 159.073 103.978L159.926 104.182C159.951 104.191 159.977 104.195 160.004 104.193C160.03 104.192 160.056 104.185 160.08 104.174C160.104 104.162 160.125 104.146 160.143 104.127C160.16 104.107 160.173 104.084 160.182 104.059C160.189 104.035 160.191 104.01 160.187 103.985C160.184 103.96 160.175 103.936 160.161 103.915C160.147 103.893 160.129 103.875 160.107 103.862C160.086 103.848 160.061 103.839 160.036 103.836L159.183 103.641C157.175 103.087 155.091 102.839 153.005 102.903C152.01 102.916 150.702 103.029 149.313 103.137C147.328 103.348 145.331 103.429 143.335 103.379L142.443 103.329C139.204 103.148 135.239 102.808 127.513 99.8694C126.548 99.3944 125.712 98.9168 124.846 98.4376L125.73 98.7808C127.974 99.7488 130.303 100.512 132.69 101.06C133.576 101.228 134.473 101.337 135.374 101.387L136.087 101.427C136.236 101.435 136.351 101.334 136.348 101.216C136.348 101.184 136.341 101.153 136.327 101.124C136.314 101.095 136.295 101.069 136.271 101.047C136.247 101.026 136.219 101.009 136.189 100.999C136.158 100.988 136.126 100.984 136.094 100.987C134.986 100.963 133.882 100.845 132.795 100.635C130.456 100.097 128.172 99.3501 125.971 98.4028C125.088 98.0498 124.165 97.6947 123.28 97.371C122.911 97.2328 122.541 97.1044 122.17 96.9858C118.534 95.0558 114.617 93.6875 110.556 92.9284C105.793 91.9665 96.8615 91.5639 94.4675 93.5245C91.8222 95.6961 102.484 98.731 105.416 114.449C106.823 123.066 111.308 130.898 118.063 136.537C120.351 138.485 139.12 153.995 159.044 148.123C172.23 144.212 182.302 131.924 178.963 121.508Z" fill="#303030"/>
<g style="mix-blend-mode:multiply" opacity="0.2">
<g style="mix-blend-mode:multiply" opacity="0.2">
<path d="M178.795 121.331C175.956 112.305 165.807 107.358 163.885 106.5C162.706 105.966 161.49 105.515 160.245 105.151C161.56 106.079 162.72 107.207 163.683 108.493C164.599 109.724 166.807 112.728 166.043 116.103C165.334 119.245 162.678 119.968 159.942 123.293C155.35 128.871 158.174 132.508 155.212 135.624C149.989 141.131 133.385 138.017 123.06 133.505C117.223 130.969 111.957 127.311 107.562 122.739C109.797 128.195 113.327 133.022 117.854 136.812C120.136 138.763 138.855 154.291 158.773 148.259C172.023 144.255 182.111 131.812 178.795 121.331Z" fill="#303030"/>
</g>
</g>
<path d="M105.632 117.368C105.632 117.368 105.565 123.128 99.7604 123.668C92.611 124.289 90.1425 106.001 91.7872 104.769C93.7016 103.378 95.7016 106.207 100.34 104.763C102.277 104.152 103.766 101.529 105.011 104.111C106.424 107.043 105.945 112.508 105.945 112.508C105.945 112.508 107.527 110.99 107.939 112.62C108.47 114.762 106.939 116.254 105.632 117.368Z" fill="url(#paint8_linear)"/>
<path d="M91.4385 95.2937C88.7297 98.0669 87.6438 103.204 90.013 105.591C93.4267 109.012 101.845 104.629 105.98 108.822C107.785 110.65 108.001 113.354 108.825 113.255C109.648 113.155 109.691 111.275 109.904 109.716C111.099 101.103 113.48 99.9795 112.455 97.6103C110.293 92.7775 96.9564 89.5676 91.4385 95.2937Z" fill="#303030"/>
<path d="M40.1219 384.876C40.755 384.099 44.5833 384.724 46.4707 385.897C49.6331 387.846 51.3478 391.066 52.1615 391.581C53.3477 392.196 54.728 392.344 56.0226 391.993C56.0226 391.993 57.1479 394.602 54.8063 395.695C52.4648 396.787 36.1573 389.657 40.1219 384.876Z" fill="#26264F"/>
<path d="M307.346 96.39C385.355 100.548 449.502 88.9946 450.624 70.5846C452.333 38.9815 389.416 33.8797 311.408 29.7217C233.399 25.5636 169.251 37.1171 168.129 55.527C166.107 92.9329 229.337 92.232 307.346 96.39Z" fill="#DDE7F0"/>
<path d="M287.612 47.502L294.174 47.7454L293.159 72.9626L286.607 72.7197L287.155 59.1046L280.453 69.0098L279.806 68.9733L273.979 58.6537L273.414 72.2192L266.792 71.9723L267.808 46.7552L274.419 47.0014L280.541 58.0687L287.612 47.502Z" fill="white"/>
<path d="M206.664 43.7774L198.604 43.4788L189.06 68.3721L196.243 68.6408L197.459 65.0262L206.047 65.3545L207.013 69.0435L214.137 69.3088L206.664 43.7774ZM199.406 59.5527L202.302 51.0635L204.576 59.7468L199.406 59.5527Z" fill="white"/>
<path d="M227.087 44.7761L216.579 44.3788L215.903 61.1139L222.702 61.3704L223.124 50.8647L226.872 51.0077C227.689 51.0049 228.498 51.1739 229.242 51.5033C229.986 51.8327 230.648 52.3146 231.183 52.9163C232.301 54.2222 232.849 55.9036 232.71 57.5999C232.717 58.4435 232.554 59.2804 232.229 60.0627C231.904 60.845 231.425 61.5573 230.817 62.1589C230.23 62.7154 229.529 63.1447 228.76 63.4187C227.991 63.6926 227.172 63.805 226.355 63.7484L225.708 63.712L222.647 63.598L215.819 63.3398L215.564 69.5691L226.101 69.9681C227.769 70.0697 229.44 69.8298 231.007 69.2638C232.575 68.6979 234.003 67.8184 235.201 66.6821C236.435 65.5411 237.42 64.1698 238.099 62.6501C238.777 61.1303 239.135 59.4931 239.151 57.8362C239.26 56.1828 239.03 54.5251 238.474 52.96C237.918 51.395 237.047 49.954 235.912 48.7216C234.803 47.5024 233.446 46.5219 231.926 45.8426C230.407 45.1633 228.759 44.8001 227.087 44.7761Z" fill="white"/>
<path d="M252.742 45.9626L242.195 45.5631L241.95 51.7933L248.749 52.0497L251.401 52.1505L252.486 52.2116C253.305 52.2088 254.115 52.3778 254.86 52.7072C255.606 53.0367 256.27 53.5188 256.807 54.1208C257.918 55.4302 258.462 57.1097 258.324 58.804C258.336 59.6484 258.175 60.4867 257.85 61.2697C257.525 62.0527 257.043 62.7645 256.431 63.3633C255.845 63.9208 255.144 64.3508 254.375 64.6248C253.606 64.8989 252.786 65.0107 251.969 64.9529L248.231 64.8104L248.655 54.2751L241.856 54.0186L241.189 70.7549L251.726 71.1539C253.392 71.254 255.062 71.0133 256.627 70.4473C258.193 69.8813 259.62 69.0024 260.817 67.8671C262.042 66.7328 263.022 65.3705 263.698 63.8609C264.374 62.3513 264.732 60.7251 264.752 59.0786C264.864 57.4244 264.636 55.7653 264.082 54.1985C263.528 52.6318 262.658 51.1889 261.524 49.9545C260.427 48.7287 259.079 47.7403 257.567 47.0528C256.054 46.3654 254.411 45.994 252.742 45.9626Z" fill="white"/>
<path d="M384.858 58.3938L391.259 58.6266L390.494 77.5878L397.135 77.834L397.839 58.8791L404.239 59.1216L404.485 52.8948L385.053 52.1739L384.858 58.3938Z" fill="white"/>
<path d="M423.547 68.4097C423.136 67.467 422.46 66.6564 421.597 66.0706C420.825 65.5242 420.007 65.0419 419.152 64.6287C418.177 64.1871 417.174 63.8056 416.149 63.4864C414.935 63.1528 413.765 62.6853 412.661 62.093C412.4 61.9504 412.183 61.7426 412.033 61.4911C411.883 61.2396 411.805 60.9535 411.806 60.6625C411.81 60.4302 411.873 60.2023 411.99 59.9997C412.107 59.797 412.274 59.6262 412.477 59.5027C413.02 59.1787 413.659 59.0398 414.292 59.1081C415.186 59.1308 416.049 59.4308 416.755 59.9643C417.46 60.4979 417.972 61.237 418.216 62.074L423.888 59.1212C423.143 57.3081 421.837 55.7653 420.152 54.7055C418.479 53.5798 416.498 52.9667 414.464 52.9451C412.123 52.781 409.802 53.4618 407.944 54.8572C407.081 55.5199 406.382 56.3624 405.898 57.3227C405.414 58.2829 405.157 59.3364 405.147 60.4054C405.055 61.3409 405.174 62.2846 405.495 63.1704C405.817 64.0562 406.334 64.8627 407.009 65.5337C408.596 66.9341 410.48 67.9773 412.529 68.5892C414.188 69.1108 415.268 69.4635 415.735 69.6845C416.865 70.1861 417.428 70.8116 417.404 71.5501C417.336 72.6757 416.303 73.2116 414.306 73.1286C413.195 73.1431 412.109 72.8055 411.212 72.1669C410.316 71.5282 409.657 70.6231 409.336 69.588L403.583 72.5557C404.193 74.4753 405.459 76.1336 407.172 77.2552C409.178 78.5218 411.517 79.1975 413.91 79.2011C416.463 79.423 419.017 78.7748 421.135 77.3676C422.05 76.7131 422.794 75.858 423.306 74.8717C423.817 73.8854 424.082 72.7957 424.08 71.6914C424.147 70.5727 423.966 69.4532 423.547 68.4097Z" fill="white"/>
<path d="M312.121 48.6638L304.051 48.3646L294.506 73.278L301.689 73.5467L302.974 69.9456L311.562 70.2642L312.518 73.9722L319.631 74.2369L312.121 48.6638ZM304.853 64.4389L307.809 55.9528L310.083 64.6364L304.853 64.4389Z" fill="white"/>
<path d="M373.383 67.0246L382.301 67.3575L382.541 61.4136L373.623 61.0905L373.765 57.5941L383.602 57.9589L383.845 51.9666L367.367 51.3961L366.341 76.5793L383.027 77.2003L383.272 71.1691L373.274 70.8051L373.383 67.0246Z" fill="white"/>
<path d="M365.541 51.0933L358.149 50.8233L350.68 61.1152L351.157 50.5466L344.533 50.3003L343.515 75.4948L350.139 75.741L350.596 64.4994L357.571 76.023L364.963 76.3028L356.914 63.0339L365.541 51.0933Z" fill="white"/>
<path d="M336.722 65.6945C338.068 65.0268 339.213 64.0311 340.046 62.8044C340.887 61.5822 341.354 60.1532 341.395 58.6834C341.473 57.5091 341.293 56.3321 340.866 55.2316C340.439 54.131 339.775 53.1323 338.919 52.3025C337.195 50.5976 334.85 49.6227 332.392 49.5886L331.973 49.565L330.977 49.5089L328.684 49.38L324.234 49.2173L322.051 49.0945L321.029 74.3544L327.665 74.6011L327.994 66.4791L330.346 66.6114L334.525 74.9286L341.63 75.192L336.722 65.6945ZM333.911 60.5605C333.642 60.8118 333.32 61.0024 332.968 61.1189C332.615 61.2354 332.24 61.2748 331.87 61.2344L328.218 61.0972L328.316 59.4668L328.479 55.4446L330.781 55.5741L331.778 55.6302L332.107 55.6487C332.477 55.6533 332.842 55.7339 333.177 55.8854C333.513 56.0368 333.812 56.2557 334.054 56.5275C334.307 56.8133 334.498 57.1461 334.616 57.5058C334.733 57.8655 334.775 58.2447 334.738 58.6206C334.733 58.9842 334.653 59.3431 334.502 59.676C334.352 60.0088 334.134 60.3087 333.861 60.5577L333.911 60.5605Z" fill="white"/>
<path d="M157.417 60.3605C156.966 67.8896 153.869 71.6875 142.481 71.0459C131.094 70.4043 124.925 67.1287 125.377 59.6093C125.828 52.09 132.808 45.1631 144.195 45.8047C155.583 46.4463 157.87 52.8217 157.417 60.3605Z" fill="#DDE7F0"/>
<path d="M113.395 71.8655C113.154 75.886 111.808 80.3413 105.719 79.9979C99.6302 79.6545 95.7951 76.359 96.0366 72.3384C96.2781 68.3179 99.322 62.5162 105.421 62.8602C111.52 63.2042 113.636 67.8547 113.395 71.8655Z" fill="#DDE7F0"/>
<defs>
<linearGradient id="paint0_linear" x1="218.966" y1="315.411" x2="227.208" y2="315.906" gradientUnits="userSpaceOnUse">
<stop stop-color="#F5928F"/>
<stop offset="1" stop-color="#F8B2B1"/>
</linearGradient>
<linearGradient id="paint1_linear" x1="959.934" y1="8657.18" x2="406.163" y2="9494.49" gradientUnits="userSpaceOnUse">
<stop stop-color="#F5928F"/>
<stop offset="1" stop-color="#F8B2B1"/>
</linearGradient>
<linearGradient id="paint2_linear" x1="1366.77" y1="2259.03" x2="976.472" y2="2460.58" gradientUnits="userSpaceOnUse">
<stop stop-color="#F5928F"/>
<stop offset="1" stop-color="#F8B2B1"/>
</linearGradient>
<linearGradient id="paint3_linear" x1="51.5288" y1="184.255" x2="88.6467" y2="203.524" gradientUnits="userSpaceOnUse">
<stop stop-color="#4DA6DD"/>
<stop offset="1" stop-color="#2288C7"/>
</linearGradient>
<linearGradient id="paint4_linear" x1="2840.22" y1="2261.54" x2="2627.48" y2="2396.82" gradientUnits="userSpaceOnUse">
<stop stop-color="#F5928F"/>
<stop offset="1" stop-color="#F8B2B1"/>
</linearGradient>
<linearGradient id="paint5_linear" x1="82.9118" y1="200.473" x2="212.116" y2="208.227" gradientUnits="userSpaceOnUse">
<stop stop-color="#F68C48"/>
<stop offset="1" stop-color="#F67420"/>
</linearGradient>
<linearGradient id="paint6_linear" x1="9487.12" y1="17332.2" x2="14994.9" y2="21988.6" gradientUnits="userSpaceOnUse">
<stop stop-color="#4DA6DD"/>
<stop offset="1" stop-color="#2288C7"/>
</linearGradient>
<linearGradient id="paint7_linear" x1="2092.15" y1="2722.47" x2="2305.94" y2="3183.08" gradientUnits="userSpaceOnUse">
<stop stop-color="#F5928F"/>
<stop offset="1" stop-color="#F8B2B1"/>
</linearGradient>
<linearGradient id="paint8_linear" x1="1939.61" y1="2439.36" x2="1853.38" y2="2097.25" gradientUnits="userSpaceOnUse">
<stop stop-color="#F5928F"/>
<stop offset="1" stop-color="#F8B2B1"/>
</linearGradient>
</defs>
</svg>
