<svg width="489" height="311" viewBox="0 0 489 311" fill="none" xmlns="http://www.w3.org/2000/svg">
<g style="mix-blend-mode:multiply" opacity="0.32">
<path d="M368.001 245.71C99.6648 177.89 84.4077 191.868 80.0501 198.954C72.1272 211.902 80.9782 235.433 97.3219 256.836C82.9249 253.814 68.9015 253.565 57.153 258.092C32.8524 267.475 1.69288 259.915 0.945867 266.887C0.15358 274.685 35.0821 287.973 54.7082 288.392C97.4577 289.32 144.508 301.713 168.469 305.607C220.172 318.929 278.552 302.619 304.924 297.684C352.11 288.776 370.933 277.096 419.851 276.949C459.08 276.824 487.953 284.011 488.508 281.476C489.583 276.541 381.594 249.151 368.001 245.71Z" fill="#8DAFCD"/>
</g>
<path d="M169.262 30.4C169.262 30.4 131.425 -35.0543 80.2543 76.296C40.4135 163.051 66.1629 259.563 158.351 286.048C250.539 312.533 394.498 259.054 349.304 221.352C253.437 141.399 180.682 70.5236 169.262 30.4Z" fill="#F68C48"/>
<g style="mix-blend-mode:multiply" opacity="0.35">
<g style="mix-blend-mode:multiply" opacity="0.35">
<path d="M125.324 89.4479C122.811 97.4386 118.477 119.826 119.665 145.825C120.672 169.016 118.533 181.138 155.465 198.003C168.108 203.786 176.857 222.133 196.211 233.089C204.983 238.036 238.089 255.941 280.771 248.709C309.067 243.921 330.074 230.056 344.233 217.142C250.879 138.887 180.479 69.8105 169.262 30.3998C169.262 30.3998 155.431 6.48409 133.202 12.1433C140.206 19.7652 144.771 29.3082 146.308 39.5451C148.753 56.8962 133.598 63.2118 125.324 89.4479Z" fill="#F68C48"/>
</g>
</g>
<g style="mix-blend-mode:multiply" opacity="0.13">
<g style="mix-blend-mode:multiply" opacity="0.13">
<path d="M305.897 259.699C262.299 283.773 189.499 298.465 135.25 258.171C85.0304 220.877 80.5597 158.4 78.8845 139.328C76.3561 110.125 80.8018 80.7394 91.8554 53.5913C88.0751 60.1786 84.2155 67.7053 80.2767 76.2281C40.436 162.984 66.1853 259.495 158.374 285.98C249.102 312.013 390.016 260.639 351.318 223.073C338.38 237.785 323.018 250.173 305.897 259.699Z" fill="#F68C48"/>
</g>
</g>
<path d="M237.195 266.977H233.29C199.595 266.219 152.284 255.025 118.261 205.971C89.5351 164.546 93.3607 117.789 101.657 85.8714C107.152 64.8233 115.596 44.658 126.739 25.9746C126.845 25.8114 127.012 25.6963 127.202 25.654C127.392 25.6117 127.591 25.6455 127.757 25.7482C127.838 25.8009 127.908 25.8691 127.963 25.9488C128.018 26.0286 128.056 26.1183 128.076 26.2129C128.096 26.3075 128.097 26.4052 128.079 26.5002C128.061 26.5953 128.025 26.6859 127.972 26.7668C116.906 45.3303 108.523 65.3663 103.072 86.2789C94.866 117.891 91.063 164.183 119.472 205.122C153.122 253.644 199.935 264.725 233.279 265.483C255.392 265.93 277.414 262.506 298.348 255.364C298.527 255.306 298.721 255.318 298.891 255.399C299.061 255.479 299.194 255.622 299.262 255.797C299.331 255.973 299.329 256.167 299.258 256.342C299.187 256.516 299.051 256.656 298.88 256.734C279.018 263.505 258.179 266.966 237.195 266.977Z" fill="#F6C3A2"/>
<path d="M417.508 258.748C415.652 256.711 412.325 247.951 418.403 246.162C424.481 244.374 427.899 242.054 436.308 235.206C444.718 228.358 446.88 234.233 435.007 245.393C423.134 256.553 420.214 261.634 417.508 258.748Z" fill="url(#paint0_linear)"/>
<path d="M409.552 245.959L414.554 250.396C415.061 250.848 415.701 251.122 416.378 251.175C417.055 251.228 417.73 251.058 418.301 250.69C418.571 250.514 418.796 250.277 418.959 249.999C419.122 249.722 419.218 249.41 419.24 249.088C419.262 248.767 419.209 248.445 419.085 248.147C418.961 247.85 418.771 247.585 418.527 247.374L411.216 241.013L409.552 245.959Z" fill="url(#paint1_linear)"/>
<path d="M214.004 190.012C202.572 200.029 226.454 232.852 264.529 222.213C310.708 209.321 369.428 215.116 409.02 247.351C411.284 245.302 416.999 242.099 414.407 239.428C378.641 203.209 345.524 182.497 318.088 176.928C276.606 168.552 246.544 161.512 214.004 190.012Z" fill="#303030"/>
<g style="mix-blend-mode:multiply" opacity="0.24">
<g style="mix-blend-mode:multiply" opacity="0.24">
<path d="M347.968 203.763C354.658 207.668 356.095 199.745 359.547 194.539C344.709 185.484 330.787 179.553 318.088 176.973C276.606 168.552 246.544 161.512 213.959 190.012C202.527 200.028 226.409 232.852 264.484 222.212C278.787 218.291 293.525 216.173 308.354 215.908C320.612 208.291 330.583 190.623 347.968 203.763Z" fill="#552D63"/>
</g>
</g>
<path d="M207.258 224.216L204.915 225.11C204.915 225.11 189.737 210.781 187.055 207.159C183.761 202.7 220.908 191.314 232.974 176.487C245.65 160.878 235.633 195.026 235.633 195.026L207.258 224.216Z" fill="#303030"/>
<path d="M193.494 83.6758C193.494 83.6758 206.963 85.5207 221.734 111.711C232.837 131.394 256.945 147.715 256.945 147.715L259.424 163.21L239.413 166.719L232.26 162.01L212.735 120.461L193.494 83.6758Z" fill="url(#paint2_linear)"/>
<path d="M167.384 82.0007C167.384 82.0007 134.175 86.0979 133.428 124.297C132.772 159.554 145.494 173.216 176.71 202.609C179.845 205.575 184.938 205.575 185.312 206.005C187.338 208.269 189.398 210.679 191.469 213.169C219.403 186.368 250.902 177.279 250.902 177.279C250.902 177.279 221.78 117.02 209.024 97.0428C195.815 76.432 175.906 79.9521 167.384 82.0007Z" fill="#4DA6DD"/>
<g style="mix-blend-mode:multiply" opacity="0.2">
<g style="mix-blend-mode:multiply" opacity="0.2">
<path d="M222.504 170.997C208.492 178.501 188.628 177.652 181.317 168.371C175.816 161.377 174.933 158.773 168.233 147.806C162.845 138.978 160.219 137.619 148.448 130.127C142.961 126.625 138.086 122.247 134.017 117.167C133.692 119.531 133.507 121.912 133.463 124.298C132.806 159.554 145.528 173.216 176.744 202.609C179.879 205.575 184.973 205.575 185.346 206.005C187.372 208.269 189.432 210.679 191.503 213.17C219.437 186.368 250.936 177.279 250.936 177.279C250.936 177.279 246.103 167.805 239.697 154.472C235.056 162.248 231.502 166.187 222.504 170.997Z" fill="#4DA6DD"/>
</g>
</g>
<path d="M172.556 92.7644C164.633 92.7644 156.608 86.9015 156.224 86.6185C156.183 86.5915 156.149 86.5565 156.123 86.5157C156.097 86.4748 156.08 86.429 156.073 86.3812C156.065 86.3333 156.068 86.2845 156.08 86.2377C156.092 86.1909 156.114 86.1471 156.144 86.1092C156.172 86.0703 156.208 86.0374 156.249 86.0123C156.29 85.9872 156.335 85.9705 156.382 85.9631C156.43 85.9558 156.478 85.9579 156.525 85.9694C156.571 85.9808 156.615 86.0014 156.654 86.03C156.756 86.1092 167.282 93.7717 175.782 91.6892C176.779 91.5196 177.725 91.1259 178.549 90.5378C179.372 89.9496 180.052 89.1823 180.535 88.2936C182.097 85.1132 180.332 81.0046 180.309 80.9593C180.29 80.9155 180.281 80.8684 180.28 80.8208C180.28 80.7731 180.289 80.7259 180.307 80.6817C180.325 80.6376 180.351 80.5974 180.384 80.5634C180.418 80.5295 180.458 80.5025 180.502 80.484C180.59 80.4451 180.691 80.4423 180.781 80.4761C180.872 80.5099 180.946 80.5776 180.988 80.665C181.067 80.8461 182.912 85.1245 181.203 88.5879C180.672 89.5761 179.923 90.4309 179.013 91.0877C178.104 91.7445 177.057 92.1862 175.952 92.3796C174.84 92.6488 173.699 92.778 172.556 92.7644Z" fill="#2489C8"/>
<path d="M186.84 204.895C186.789 204.897 186.738 204.888 186.691 204.869C186.645 204.849 186.602 204.82 186.568 204.782C186.5 204.712 186.462 204.619 186.462 204.522C186.462 204.425 186.5 204.331 186.568 204.262C186.874 203.99 216.607 177.369 243.454 170.816C243.5 170.804 243.548 170.801 243.595 170.808C243.643 170.814 243.688 170.83 243.729 170.854C243.77 170.879 243.806 170.911 243.834 170.949C243.863 170.987 243.884 171.03 243.896 171.076C243.907 171.123 243.91 171.172 243.902 171.219C243.895 171.267 243.878 171.313 243.853 171.354C243.828 171.395 243.794 171.431 243.755 171.459C243.716 171.487 243.671 171.507 243.624 171.517C216.958 178.048 187.36 204.533 187.032 204.805C186.979 204.855 186.912 204.887 186.84 204.895Z" fill="#2489C8"/>
<path d="M163.5 67.5698C163.5 67.5698 166.398 79.2844 165.764 81.6725C165.13 84.0607 168.616 86.6753 174.626 86.9356C180.637 87.1959 173.97 74.9155 173.97 74.9155L163.5 67.5698Z" fill="url(#paint3_linear)"/>
<path d="M183.919 56.1718C187.665 49.9919 182.912 41.0957 175.136 44.1856C169.839 46.2795 166.477 44.7968 162.98 46.0871C156.732 48.3508 157.411 52.8781 158.849 57.4055C160.105 66.3583 160.049 69.8557 169.635 75.1301C173.291 62.3969 179.358 63.7098 183.919 56.1718Z" fill="#303030"/>
<path d="M164.656 71.8821C165.915 73.7826 167.643 75.3253 169.674 76.3605C171.705 77.3957 173.969 77.8883 176.246 77.7903C183.977 77.3149 181.781 59.5564 179.834 58.5491C177.57 57.4172 174.424 58.8886 169.285 58.0737C167.123 57.7228 165.131 55.1988 164.203 58.0737C163.162 61.3787 163.932 66.3701 163.932 66.3701C163.932 66.3701 161.555 64.3101 160.344 66.5059C159.37 68.2829 161.023 70.5465 164.656 71.8821Z" fill="url(#paint4_linear)"/>
<path d="M164.101 54.2817C164.101 54.2817 163.727 64.8757 166.365 68.1581C167.496 70.218 166.014 70.2633 164.701 68.7466C163.388 67.23 161.984 62.3631 161.984 62.3631L164.101 54.2817Z" fill="url(#paint5_linear)"/>
<path d="M165.686 46.3475C165.658 46.3506 165.63 46.3481 165.604 46.3399C165.577 46.3318 165.553 46.3183 165.531 46.3003C165.51 46.2823 165.493 46.2601 165.481 46.2351C165.468 46.2101 165.461 46.1829 165.46 46.1551C165.458 46.1269 165.462 46.0986 165.472 46.0719C165.481 46.0452 165.496 46.0207 165.515 45.9996C165.534 45.9786 165.556 45.9615 165.582 45.9494C165.608 45.9372 165.635 45.9302 165.664 45.9287C166.014 45.9287 172.749 45.4534 174.209 42.6464C174.235 42.5978 174.28 42.5613 174.332 42.5444C174.385 42.5275 174.442 42.5316 174.492 42.5559C174.517 42.569 174.54 42.587 174.558 42.609C174.577 42.631 174.591 42.6565 174.599 42.6839C174.608 42.7113 174.61 42.7402 174.608 42.7687C174.605 42.7973 174.596 42.8249 174.582 42.8501C173.009 45.8269 166.388 46.3022 165.686 46.3475Z" fill="url(#paint6_linear)"/>
<path d="M166.07 81.1179L159.279 81.2311C158.613 81.1841 157.978 80.9344 157.458 80.5156C156.938 80.0968 156.558 79.5289 156.37 78.8882L152.092 65.0345C151.885 64.4008 151.876 63.7192 152.066 63.0803C152.256 62.4414 152.637 61.8755 153.156 61.4579L158.815 57.7001C159.137 57.4487 159.516 57.281 159.918 57.2121C160.321 57.1432 160.734 57.1753 161.121 57.3054C161.508 57.4355 161.857 57.6597 162.136 57.9577C162.415 58.2557 162.616 58.6184 162.72 59.0131L168.538 77.8242C168.678 78.2081 168.72 78.6209 168.661 79.0252C168.601 79.4295 168.441 79.8125 168.196 80.1396C167.951 80.4667 167.629 80.7275 167.257 80.8983C166.886 81.0691 166.478 81.1446 166.07 81.1179Z" fill="#D8DEE8"/>
<path d="M165.29 81.4123L158.499 81.5481C157.844 81.5077 157.216 81.2698 156.699 80.8657C156.182 80.4616 155.799 79.9103 155.601 79.2844L151.346 65.5326C151.144 64.9027 151.139 64.2265 151.331 63.5938C151.523 62.9611 151.903 62.4017 152.421 61.9899L158.08 58.2436C158.4 57.9892 158.778 57.8186 159.181 57.7475C159.583 57.6763 159.997 57.7067 160.385 57.836C160.773 57.9653 161.122 58.1893 161.402 58.4877C161.681 58.7862 161.882 59.1497 161.985 59.5452L167.814 78.13C167.954 78.518 167.995 78.9351 167.931 79.3428C167.868 79.7505 167.703 80.1357 167.451 80.4628C167.2 80.7898 166.87 81.0483 166.492 81.2143C166.114 81.3802 165.701 81.4483 165.29 81.4123Z" fill="url(#paint7_linear)"/>
<path d="M166.364 90.3081C166.397 88.6674 166.104 87.0365 165.504 85.5091C164.881 83.8793 164.304 83.336 164.236 81.2534C164.168 79.1708 162.81 73.8286 159.992 76.1828C156.845 78.8087 157.083 84.1736 158.996 86.3693C160.909 88.5651 161.192 88.2256 162.391 90.2742C163.659 90.195 165.04 90.2968 166.364 90.3081Z" fill="url(#paint8_linear)"/>
<path d="M204.032 180.097C203.882 180.119 203.741 180.182 203.625 180.28C203.509 180.378 203.423 180.507 203.376 180.651C203.376 180.651 203.489 182.202 203.478 182.247C203.466 182.417 203.511 182.585 203.605 182.726C203.7 182.868 203.838 182.974 203.998 183.028L232.294 192.196L285.049 171.54L259.979 173.453L204.032 180.097Z" fill="#D8DEE8"/>
<path d="M204.032 179.893C203.863 179.918 203.707 179.999 203.59 180.124C203.473 180.249 203.401 180.409 203.386 180.58C203.372 180.75 203.416 180.92 203.51 181.063C203.605 181.205 203.745 181.312 203.907 181.365L232.147 190.533L284.902 169.876L259.832 171.789L204.032 179.893Z" fill="#F7F7F7"/>
<path d="M230.879 190.182L235.09 135.141C235.123 134.712 235.299 134.306 235.591 133.99C235.882 133.674 236.272 133.465 236.697 133.398L299.876 123.517C300.156 123.473 300.442 123.492 300.713 123.572C300.984 123.652 301.235 123.791 301.446 123.979C301.657 124.168 301.824 124.4 301.934 124.661C302.044 124.922 302.095 125.203 302.083 125.486L299.706 176.781C299.688 177.212 299.523 177.624 299.239 177.949C298.955 178.274 298.569 178.493 298.145 178.569L232.498 190.725L230.879 190.182Z" fill="#D8DEE8"/>
<path d="M232.238 192.196L236.573 135.944C236.606 135.516 236.783 135.112 237.075 134.798C237.367 134.484 237.756 134.277 238.18 134.212L301.37 124.32C301.65 124.276 301.936 124.295 302.207 124.375C302.479 124.455 302.729 124.594 302.94 124.782C303.151 124.971 303.318 125.204 303.428 125.464C303.538 125.725 303.589 126.007 303.578 126.289L301.201 177.596C301.182 178.025 301.019 178.436 300.738 178.76C300.456 179.085 300.073 179.305 299.65 179.384L232.238 192.196Z" fill="url(#paint9_linear)"/>
<path d="M232.238 192.196L299.639 179.384C300.061 179.305 300.445 179.085 300.726 178.761C301.008 178.436 301.171 178.025 301.189 177.596L301.902 162.124C281.824 173.532 256.629 174.981 233.211 179.554L232.238 192.196Z" fill="url(#paint10_linear)"/>
<path d="M349.032 178.727C348.194 175.954 346.474 172.853 352.02 170.929C356.038 169.526 363.135 169.367 369.586 169.322C378.641 169.254 380.972 175.332 367.9 178.478C359.343 180.538 350.22 182.666 349.032 178.727Z" fill="url(#paint11_linear)"/>
<path d="M355.506 175.773C355.591 176.553 355.378 177.336 354.91 177.966C354.442 178.596 353.754 179.025 352.982 179.169C349.53 179.656 350.175 177.879 350.074 176.09C349.972 174.302 348.557 173.057 352.586 172.695C352.98 172.705 353.368 172.793 353.728 172.953C354.088 173.113 354.413 173.343 354.684 173.629C354.955 173.915 355.168 174.251 355.309 174.619C355.45 174.987 355.517 175.38 355.506 175.773Z" fill="url(#paint12_linear)"/>
<path d="M320.046 165.474L323.441 164.931C323.441 164.931 330.085 165.553 348.342 170.59C352.269 171.246 357.612 182.678 346.078 183.131C334.545 183.583 320.612 192.129 320.612 192.129L320.046 165.474Z" fill="#303030"/>
<path d="M200.818 218.693C200.818 218.693 202.481 233.543 237.036 232.184C271.591 230.826 333.243 195.004 332.824 176.204C332.405 157.404 309.497 164.885 285.739 175.785C265.683 184.953 234.705 190.261 228.355 191.246C220.195 192.514 198.848 211.562 200.818 218.693Z" fill="#303030"/>
<g style="mix-blend-mode:multiply" opacity="0.2">
<path style="mix-blend-mode:multiply" opacity="0.2" d="M245.978 200.097C261.948 198.467 265.536 187.001 285.423 183.685C298.303 181.534 302.853 185.337 309.418 180.946C314.601 177.471 317.25 171.416 318.529 164.84C309.712 165.587 297.828 170.239 285.706 175.785C266.283 184.692 236.448 189.955 228.933 191.155C228.706 191.155 223.67 189.389 223.67 189.389C223.67 189.389 219.923 191.529 217.241 193.226C227.71 198.84 240.138 200.685 245.978 200.097Z" fill="url(#paint13_linear)"/>
</g>
<path d="M211.423 38.0287C213.404 36.6705 221.486 25.6803 231.333 39.9302C232.464 40.6772 235.758 39.2171 235.486 37.9494C224.293 17.7122 206.364 33.988 207.768 36.0819C209.171 38.1758 209.126 39.6472 211.423 38.0287Z" fill="#D8DEE8"/>
<path d="M243.873 33.1619C246.329 33.1619 248.773 31.6792 248.287 29.4834C247.8 27.2877 227.246 -1.97035 198.486 26.0879C198.31 26.2564 198.169 26.4583 198.072 26.6818C197.975 26.9052 197.923 27.1459 197.92 27.3895C197.919 27.6352 197.966 27.8786 198.06 28.1058C198.153 28.333 198.29 28.5396 198.463 28.7138C199.595 29.8456 200.478 30.5587 201.791 30.5247C228.004 5.98648 241.383 33.2185 243.873 33.1619Z" fill="#D8DEE8"/>
<path d="M256.708 26.2348C258.406 26.7442 262.05 25.7934 261.416 22.8393C224.892 -25.4676 184.101 17.5536 185.244 19.557C185.762 20.3675 186.533 20.9843 187.438 21.3118C188.342 21.6392 189.33 21.659 190.246 21.3679C226.726 -17.1372 255.022 25.7255 256.708 26.2348Z" fill="#D8DEE8"/>
<path d="M225.956 46.2685C225.851 47.3349 225.432 48.346 224.752 49.1742C224.072 50.0025 223.162 50.6107 222.137 50.9221C221.111 51.2334 220.017 51.234 218.991 50.9237C217.965 50.6133 217.055 50.006 216.374 49.1785C215.693 48.3509 215.273 47.3402 215.167 46.274C215.06 45.2077 215.272 44.1338 215.775 43.1879C216.278 42.2419 217.051 41.4663 217.995 40.959C218.938 40.4517 220.011 40.2355 221.078 40.3377C221.788 40.4057 222.478 40.6132 223.108 40.9483C223.738 41.2834 224.295 41.7396 224.748 42.2905C225.201 42.8415 225.541 43.4765 225.749 44.1591C225.956 44.8418 226.027 45.5586 225.956 46.2685Z" fill="#D8DEE8"/>
<path d="M70.6114 60.0768C72.768 60.0768 74.5162 58.3285 74.5162 56.1719C74.5162 54.0153 72.768 52.2671 70.6114 52.2671C68.4548 52.2671 66.7065 54.0153 66.7065 56.1719C66.7065 58.3285 68.4548 60.0768 70.6114 60.0768Z" fill="#D8DEE8"/>
<path d="M47.0118 60.0768C49.1684 60.0768 50.9166 58.3285 50.9166 56.1719C50.9166 54.0153 49.1684 52.2671 47.0118 52.2671C44.8552 52.2671 43.1069 54.0153 43.1069 56.1719C43.1069 58.3285 44.8552 60.0768 47.0118 60.0768Z" fill="#D8DEE8"/>
<path d="M23.4024 60.0768C25.559 60.0768 27.3072 58.3285 27.3072 56.1719C27.3072 54.0153 25.559 52.2671 23.4024 52.2671C21.2458 52.2671 19.4976 54.0153 19.4976 56.1719C19.4976 58.3285 21.2458 60.0768 23.4024 60.0768Z" fill="#D8DEE8"/>
<path d="M145.278 93.2398C127.995 96.9522 115.103 146.798 147.632 169.345C164.497 181.037 189.284 116.624 168.073 88.8936C167.156 89.2784 164.146 89.3237 159.664 89.0067C172.77 104.026 158.871 143.335 153.427 138.808C147.327 133.726 165.549 88.8936 145.278 93.2398Z" fill="#2288C7"/>
<defs>
<linearGradient id="paint0_linear" x1="401.716" y1="264.575" x2="425.74" y2="237.275" gradientUnits="userSpaceOnUse">
<stop stop-color="#40447E"/>
<stop offset="1" stop-color="#3C3B6B"/>
</linearGradient>
<linearGradient id="paint1_linear" x1="407.56" y1="238.76" x2="418.335" y2="251.856" gradientUnits="userSpaceOnUse">
<stop stop-color="#F5928F"/>
<stop offset="1" stop-color="#F8B2B1"/>
</linearGradient>
<linearGradient id="paint2_linear" x1="292.375" y1="251.149" x2="230.863" y2="127.194" gradientUnits="userSpaceOnUse">
<stop stop-color="#4DA6DD"/>
<stop offset="1" stop-color="#2288C7"/>
</linearGradient>
<linearGradient id="paint3_linear" x1="169.545" y1="75.3682" x2="172.555" y2="87.1167" gradientUnits="userSpaceOnUse">
<stop stop-color="#F5928F"/>
<stop offset="1" stop-color="#F8B2B1"/>
</linearGradient>
<linearGradient id="paint4_linear" x1="4762.19" y1="1487.12" x2="4799.03" y2="1139.61" gradientUnits="userSpaceOnUse">
<stop stop-color="#F5928F"/>
<stop offset="1" stop-color="#F8B2B1"/>
</linearGradient>
<linearGradient id="paint5_linear" x1="157.665" y1="82.6612" x2="171.778" y2="44.9445" gradientUnits="userSpaceOnUse">
<stop stop-color="#311944"/>
<stop offset="1" stop-color="#6B3976"/>
</linearGradient>
<linearGradient id="paint6_linear" x1="2188.44" y1="989.933" x2="2208.94" y2="850.581" gradientUnits="userSpaceOnUse">
<stop stop-color="#311944"/>
<stop offset="1" stop-color="#6B3976"/>
</linearGradient>
<linearGradient id="paint7_linear" x1="151.176" y1="69.6072" x2="167.904" y2="69.6072" gradientUnits="userSpaceOnUse">
<stop stop-color="#E3E7EF"/>
<stop offset="1" stop-color="#FAFBFD"/>
</linearGradient>
<linearGradient id="paint8_linear" x1="1971.5" y1="1275.58" x2="1928.62" y2="1076.33" gradientUnits="userSpaceOnUse">
<stop stop-color="#F5928F"/>
<stop offset="1" stop-color="#F8B2B1"/>
</linearGradient>
<linearGradient id="paint9_linear" x1="232.238" y1="158.241" x2="303.566" y2="158.241" gradientUnits="userSpaceOnUse">
<stop stop-color="#E3E7EF"/>
<stop offset="1" stop-color="#E5E9F0"/>
</linearGradient>
<linearGradient id="paint10_linear" x1="232.238" y1="177.166" x2="301.902" y2="177.166" gradientUnits="userSpaceOnUse">
<stop stop-color="#CCCED6"/>
<stop offset="1" stop-color="#DBDDE6"/>
</linearGradient>
<linearGradient id="paint11_linear" x1="10966.3" y1="10964.8" x2="11638" y2="10690.4" gradientUnits="userSpaceOnUse">
<stop stop-color="#40447E"/>
<stop offset="1" stop-color="#3C3B6B"/>
</linearGradient>
<linearGradient id="paint12_linear" x1="2619.96" y1="1993.45" x2="4903.65" y2="3837.85" gradientUnits="userSpaceOnUse">
<stop stop-color="#F5928F"/>
<stop offset="1" stop-color="#F8B2B1"/>
</linearGradient>
<linearGradient id="paint13_linear" x1="25088.6" y1="12883.2" x2="33700.3" y2="7611.25" gradientUnits="userSpaceOnUse">
<stop stop-color="#311944"/>
<stop offset="1" stop-color="#6B3976"/>
</linearGradient>
</defs>
</svg>
