<svg width="158" height="45" viewBox="0 0 158 45" fill="none" xmlns="http://www.w3.org/2000/svg">
<path d="M154.52 39.0005C156.141 39.0005 157.546 40.2862 157.546 42.0005C157.546 43.6076 156.249 45.0005 154.52 45.0005C152.899 45.0005 151.494 43.7148 151.494 42.0005C151.602 40.3933 152.899 39.0005 154.52 39.0005Z" fill="#E97522" fill-opacity="0.5"/>
<path d="M132.797 39.0005C134.419 39.0005 135.823 40.2862 135.823 42.0005C135.823 43.6076 134.527 45.0005 132.797 45.0005C131.176 45.0005 129.771 43.7148 129.771 42.0005C129.88 40.3933 131.176 39.0005 132.797 39.0005Z" fill="#E97522" fill-opacity="0.5"/>
<path d="M111.075 39.0005C112.696 39.0005 114.101 40.2862 114.101 42.0005C114.101 43.6076 112.804 45.0005 111.075 45.0005C109.346 45.0005 108.049 43.7148 108.049 42.0005C108.049 40.3933 109.454 39.0005 111.075 39.0005Z" fill="#E97522" fill-opacity="0.5"/>
<path d="M89.3531 39.0005C90.9742 39.0005 92.3791 40.2862 92.3791 42.0005C92.3791 43.6076 91.0823 45.0005 89.3531 45.0005C87.7321 45.0005 86.3271 43.7148 86.3271 42.0005C86.3271 40.3933 87.624 39.0005 89.3531 39.0005Z" fill="#E97522" fill-opacity="0.5"/>
<path d="M67.5226 39.0005C69.1436 39.0005 70.5486 40.2862 70.5486 42.0005C70.5486 43.6076 69.2517 45.0005 67.5226 45.0005C65.9015 45.0005 64.4966 43.7148 64.4966 42.0005C64.6047 40.3933 65.9015 39.0005 67.5226 39.0005Z" fill="#E97522" fill-opacity="0.5"/>
<path d="M154.52 19.5005C156.141 19.5005 157.546 20.7862 157.546 22.5005C157.546 24.1076 156.249 25.5005 154.52 25.5005C152.899 25.5005 151.494 24.2148 151.494 22.5005C151.602 20.8933 152.899 19.5005 154.52 19.5005Z" fill="#E97522" fill-opacity="0.5"/>
<path d="M132.797 19.5005C134.419 19.5005 135.823 20.7862 135.823 22.5005C135.823 24.1076 134.527 25.5005 132.797 25.5005C131.176 25.5005 129.771 24.2148 129.771 22.5005C129.88 20.8933 131.176 19.5005 132.797 19.5005Z" fill="#E97522" fill-opacity="0.5"/>
<path d="M111.075 19.5005C112.696 19.5005 114.101 20.7862 114.101 22.5005C114.101 24.1076 112.804 25.5005 111.075 25.5005C109.346 25.5005 108.049 24.2148 108.049 22.5005C108.049 20.8933 109.454 19.5005 111.075 19.5005Z" fill="#E97522" fill-opacity="0.5"/>
<path d="M89.3531 19.5005C90.9742 19.5005 92.3791 20.7862 92.3791 22.5005C92.3791 24.1076 91.0823 25.5005 89.3531 25.5005C87.7321 25.5005 86.3271 24.2148 86.3271 22.5005C86.3271 20.8933 87.624 19.5005 89.3531 19.5005Z" fill="#E97522" fill-opacity="0.5"/>
<path d="M67.5226 19.5005C69.1436 19.5005 70.5486 20.7862 70.5486 22.5005C70.5486 24.1076 69.2517 25.5005 67.5226 25.5005C65.9015 25.5005 64.4966 24.2148 64.4966 22.5005C64.6047 20.8933 65.9015 19.5005 67.5226 19.5005Z" fill="#E97522" fill-opacity="0.5"/>
<path d="M154.52 0.000488281C156.141 0.000488281 157.546 1.2862 157.546 3.00049C157.546 4.60763 156.249 6.00049 154.52 6.00049C152.899 6.00049 151.494 4.71477 151.494 3.00049C151.602 1.2862 152.899 0.000488281 154.52 0.000488281Z" fill="#E97522" fill-opacity="0.5"/>
<path d="M132.797 0.000488281C134.419 0.000488281 135.823 1.2862 135.823 3.00049C135.823 4.60763 134.527 6.00049 132.797 6.00049C131.176 6.00049 129.771 4.71477 129.771 3.00049C129.88 1.2862 131.176 0.000488281 132.797 0.000488281Z" fill="#E97522" fill-opacity="0.5"/>
<path d="M111.075 0.000488281C112.696 0.000488281 114.101 1.2862 114.101 3.00049C114.101 4.60763 112.804 6.00049 111.075 6.00049C109.346 6.00049 108.049 4.71477 108.049 3.00049C108.049 1.2862 109.454 0.000488281 111.075 0.000488281Z" fill="#E97522" fill-opacity="0.5"/>
<path d="M89.3531 0.000488281C90.9742 0.000488281 92.3791 1.2862 92.3791 3.00049C92.3791 4.60763 91.0823 6.00049 89.3531 6.00049C87.7321 6.00049 86.3271 4.71477 86.3271 3.00049C86.3271 1.2862 87.624 0.000488281 89.3531 0.000488281Z" fill="#E97522" fill-opacity="0.5"/>
<path d="M67.5226 0.000488281C69.1436 0.000488281 70.5486 1.2862 70.5486 3.00049C70.5486 4.60763 69.2517 6.00049 67.5226 6.00049C65.9015 6.00049 64.4966 4.71477 64.4966 3.00049C64.6047 1.2862 65.9015 0.000488281 67.5226 0.000488281Z" fill="#E97522" fill-opacity="0.5"/>
<path d="M46.4703 39C48.0914 39 49.4963 40.2857 49.4963 42C49.4963 43.6071 48.1995 45 46.4703 45C44.8493 45 43.4443 43.7143 43.4443 42C43.5524 40.3929 44.8493 39 46.4703 39Z" fill="#E97522" fill-opacity="0.5"/>
<path d="M24.7482 39C26.3692 39 27.7742 40.2857 27.7742 42C27.7742 43.6071 26.4773 45 24.7482 45C23.1271 45 21.7222 43.7143 21.7222 42C21.7222 40.3929 23.1271 39 24.7482 39Z" fill="#E97522" fill-opacity="0.5"/>
<path d="M3.02599 39C4.64706 39 6.05198 40.2857 6.05198 42C6.05198 43.6071 4.75513 45 3.02599 45C1.29685 45 0 43.6071 0 42C0 40.3929 1.29685 39 3.02599 39Z" fill="#E97522" fill-opacity="0.5"/>
<path d="M46.4703 19.5C48.0914 19.5 49.4963 20.7857 49.4963 22.5C49.4963 24.1071 48.1995 25.5 46.4703 25.5C44.8493 25.5 43.4443 24.2143 43.4443 22.5C43.5524 20.8929 44.8493 19.5 46.4703 19.5Z" fill="#E97522" fill-opacity="0.5"/>
<path d="M24.7482 19.5C26.3692 19.5 27.7742 20.7857 27.7742 22.5C27.7742 24.1071 26.4773 25.5 24.7482 25.5C23.1271 25.5 21.7222 24.2143 21.7222 22.5C21.7222 20.8929 23.1271 19.5 24.7482 19.5Z" fill="#E97522" fill-opacity="0.5"/>
<path d="M3.02599 19.5C4.64706 19.5 6.05198 20.7857 6.05198 22.5C6.05198 24.1071 4.75513 25.5 3.02599 25.5C1.29685 25.3929 0 24.1071 0 22.5C0 20.8929 1.29685 19.5 3.02599 19.5Z" fill="#E97522" fill-opacity="0.5"/>
<path d="M46.4703 0C48.0914 0 49.4963 1.28571 49.4963 3C49.4963 4.60714 48.1995 6 46.4703 6C44.8493 6 43.4443 4.71429 43.4443 3C43.5524 1.28571 44.8493 0 46.4703 0Z" fill="#E97522" fill-opacity="0.5"/>
<path d="M24.7482 0C26.3692 0 27.7742 1.28571 27.7742 3C27.7742 4.60714 26.4773 6 24.7482 6C23.1271 6 21.7222 4.71429 21.7222 3C21.7222 1.28571 23.1271 0 24.7482 0Z" fill="#E97522" fill-opacity="0.5"/>
<path d="M3.02599 0C4.64706 0 6.05198 1.28571 6.05198 3C6.05198 4.60714 4.75513 6 3.02599 6C1.29685 5.89286 0 4.60714 0 3C0 1.28571 1.29685 0 3.02599 0Z" fill="#E97522" fill-opacity="0.5"/>
</svg>
