<svg width="356" height="285" viewBox="0 0 356 285" fill="none" xmlns="http://www.w3.org/2000/svg">
<path d="M144.026 251.986L198.758 298.811L172.706 329.261L91.2598 259.581C98.1809 260.823 105.496 261.127 112.982 260.514C121.584 259.793 129.673 257.995 137.355 254.998C139.548 254.109 141.728 252.997 144.026 251.986Z" fill="url(#paint0_linear)"/>
<path d="M298.567 123.275C314.762 137.13 323.747 154.387 325.168 174.742C326.708 195.197 320.38 213.601 306.304 230.054L264.811 278.554L187.029 212.008L213.816 180.699L263.227 222.972L277.934 205.782C284.972 197.556 288.149 188.578 287.346 178.747C286.544 168.917 281.775 160.371 273.028 152.887C264.28 145.404 255.1 142.015 245.264 142.744C235.532 143.35 227.154 147.878 220.011 156.227L163.917 221.794C155.513 231.616 146.058 238.839 135.434 243.359C134.778 243.648 134.016 244.06 133.241 244.248C126.662 246.912 119.676 248.378 112.19 248.991C107.055 249.489 102.104 249.294 97.2449 248.752C83.6784 247.14 71.1227 241.714 59.5776 232.475L55.0857 228.632C40.2568 215.095 31.9808 198.445 30.6123 178.986C29.0729 158.53 35.4004 140.126 49.4765 123.673L90.9695 75.174L168.751 141.719L141.965 173.029L92.6714 130.857L77.965 148.046C70.927 156.273 67.7501 165.251 68.5525 175.082C69.355 184.912 74.1234 193.457 82.8709 200.941C91.6184 208.425 100.799 211.813 110.635 211.085C120.367 210.479 128.745 205.951 135.888 197.601L191.982 132.035C206.058 115.582 223.261 106.482 243.709 104.837C264.051 103.315 282.372 109.42 298.567 123.275Z" fill="url(#paint1_linear)"/>
<defs>
<linearGradient id="paint0_linear" x1="104.285" y1="244.355" x2="185.732" y2="314.036" gradientUnits="userSpaceOnUse">
<stop stop-color="#B5DFFF"/>
<stop offset="0.322917" stop-color="#B5DFFF" stop-opacity="0.677083"/>
<stop offset="1" stop-color="#B5DFFF" stop-opacity="0"/>
</linearGradient>
<linearGradient id="paint1_linear" x1="77.4712" y1="90.9516" x2="278.309" y2="262.776" gradientUnits="userSpaceOnUse">
<stop stop-color="#B5DFFF"/>
<stop offset="0.322917" stop-color="#B5DFFF" stop-opacity="0.677083"/>
<stop offset="1" stop-color="#B5DFFF" stop-opacity="0"/>
</linearGradient>
</defs>
</svg>
