<svg width="47" height="46" viewBox="0 0 47 46" fill="none" xmlns="http://www.w3.org/2000/svg">
<path fill-rule="evenodd" clip-rule="evenodd" d="M45.0645 8.01764C44.4724 6.51019 43.692 5.23155 42.4137 3.9529C41.1355 2.67426 39.8572 1.89362 38.3502 1.3014C36.897 0.736107 35.2285 0.359244 32.7796 0.23811C30.3307 0.130434 29.5503 0.103516 23.3205 0.103516C17.0906 0.103516 16.3102 0.130434 13.8613 0.23811C11.4258 0.359244 9.75736 0.736107 8.29071 1.31486C6.7837 1.90708 5.50543 2.68772 4.22717 3.96636C2.9489 5.24501 2.16848 6.52365 1.57644 8.0311C1.01131 9.48472 0.63456 11.1537 0.513461 13.5898C0.405817 16.0394 0.378906 16.8201 0.378906 23.0518C0.378906 29.2835 0.405817 30.0641 0.513461 32.5137C0.63456 34.9634 1.01131 36.6323 1.5899 38.0859C2.18194 39.5934 2.96235 40.872 4.24062 42.1507C5.51889 43.4293 6.79716 44.21 8.30417 44.8022C9.75736 45.3675 11.4258 45.7578 13.8747 45.8655C16.3236 45.9731 17.104 46.0001 23.3339 46.0001C29.5638 46.0001 30.3442 45.9731 32.7931 45.8655C35.2285 45.7578 36.897 45.3675 38.3637 44.8022C39.8707 44.21 41.1489 43.4293 42.4272 42.1507C43.7055 40.872 44.4859 39.5934 45.0779 38.0859C45.6431 36.6323 46.0333 34.9634 46.1409 32.5137C46.2485 30.0641 46.2755 29.2835 46.2755 23.0518C46.2755 16.8201 46.2485 16.0394 46.1409 13.5898C46.0198 11.1537 45.6296 9.48472 45.0645 8.01764ZM23.3205 34.8422C16.808 34.8422 11.5335 29.5661 11.5335 23.0518C11.5335 16.5374 16.808 11.2614 23.3205 11.2614C29.8329 11.2614 35.1074 16.5374 35.1074 23.0518C35.1074 29.5661 29.8329 34.8422 23.3205 34.8422ZM35.5784 13.5629C34.0579 13.5629 32.82 12.3246 32.82 10.8037C32.82 9.28283 34.0579 8.04456 35.5784 8.04456C37.0988 8.04456 38.3367 9.28283 38.3367 10.8037C38.3233 12.3246 37.0988 13.5629 35.5784 13.5629ZM30.9766 23.0518C30.9766 27.278 27.5589 30.6967 23.3339 30.6967C19.1089 30.6967 15.6912 27.278 15.6912 23.0518C15.6912 18.8255 19.1089 15.4069 23.3339 15.4069C27.5455 15.4069 30.9766 18.8255 30.9766 23.0518Z" fill="white"/>
</svg>
