<!-- Generated by IcoMoon.io -->
<svg version="1.1" xmlns="http://www.w3.org/2000/svg" width="640" height="640" viewBox="0 0 640 640">
<title></title>
<g id="icomoon-ignore">
</g>
<path fill="#000" d="M619.744 579.264l-43.744-131.264h-48l26.656 128h-469.312l26.656-128h-48l-43.776 131.264c-11.104 33.408 8.576 60.736 43.776 60.736h512c35.2 0 54.88-27.328 43.744-60.736zM480 160c0-88.352-71.616-160-160-160s-160 71.648-160 160c0 152.8 160 320 160 320s160-167.2 160-320zM233.6 161.92c0-47.712 38.656-86.368 86.4-86.368s86.4 38.656 86.4 86.368c0 47.744-38.688 86.4-86.4 86.4s-86.4-38.688-86.4-86.4z"></path>
</svg>
