<svg width="273" height="31" viewBox="0 0 273 31" fill="none" xmlns="http://www.w3.org/2000/svg">
<path d="M113.234 0.637695L120.732 0.637695V30.1056H113.234V14.2305L106.039 26.0781H105.3L98.1721 14.2976V30.1056H90.6074V0.637695L98.1721 0.637695L105.669 13.2236L113.234 0.637695Z" fill="white" fill-opacity="0.9"/>
<path d="M18.9621 0.637695L9.75 0.637695L0 30.1056H8.20345L9.48103 25.8431H19.2983L20.5759 30.1056H28.7121L18.9621 0.637695ZM11.3974 19.3656L14.356 9.33038L17.3483 19.3656H11.3974Z" fill="white" fill-opacity="0.9"/>
<path d="M42.8668 0.637695L30.8643 0.637695V20.2046H38.6306V7.92076L42.9005 7.92076C44.9513 7.92076 46.6324 8.59201 47.9099 9.96807C49.1875 11.3441 49.8599 13.1229 49.8599 15.3716C49.8599 17.6203 49.2212 19.4327 47.9099 20.7752C46.5987 22.1513 44.9513 22.8225 42.9005 22.8225H42.1608H38.6643H30.8643V30.1056H42.9005C46.9686 30.1056 50.3979 28.6959 53.1212 25.8767C55.8781 23.0574 57.2229 19.5669 57.2229 15.3716C57.2229 11.1763 55.8444 7.68582 53.1212 4.86657C50.3643 2.04732 46.9686 0.637695 42.8668 0.637695Z" fill="white" fill-opacity="0.9"/>
<path d="M72.755 0.637695L60.7188 0.637695V7.92076H68.4851L71.511 7.92076H72.755C74.8058 7.92076 76.4869 8.59201 77.7644 9.96807C79.042 11.3441 79.7144 13.1229 79.7144 15.3716C79.7144 17.6203 79.0756 19.4327 77.7644 20.7752C76.4532 22.1513 74.8058 22.8225 72.755 22.8225H68.4851V10.5386H60.7188V30.1056H72.755C76.8231 30.1056 80.2524 28.6959 82.9756 25.8767C85.7325 23.0574 87.0774 19.5669 87.0774 15.3716C87.0774 11.1763 85.6989 7.68582 82.9756 4.86657C80.2524 2.04732 76.8231 0.637695 72.755 0.637695Z" fill="white" fill-opacity="0.9"/>
<path d="M227.209 7.92076H234.505V30.1056H242.069V7.92076H249.365V0.637695L227.209 0.637695V7.92076Z" fill="white" fill-opacity="0.9"/>
<path d="M272.227 17.721C271.722 16.647 270.949 15.7408 269.907 15.0696C268.864 14.3983 267.923 13.8613 267.049 13.4921C266.175 13.1229 265.032 12.7202 263.586 12.3174C261.602 11.7133 260.258 11.2099 259.552 10.7736C258.845 10.3372 258.509 9.76669 258.509 9.129C258.509 8.55844 258.745 8.08856 259.215 7.75294C259.686 7.38375 260.358 7.21594 261.266 7.21594C263.418 7.21594 264.931 8.3235 265.872 10.5051L272.193 6.81319C271.184 4.63162 269.705 2.9535 267.789 1.81237C265.906 0.570562 263.687 0 261.233 0C258.308 0 255.853 0.839062 253.903 2.51719C251.953 4.19531 250.978 6.41044 250.978 9.129C250.978 11.6462 251.752 13.6264 253.332 15.036C254.912 16.4456 257.03 17.5532 259.753 18.3587C261.67 18.8957 262.914 19.2649 263.452 19.4998C264.763 20.0368 265.435 20.7416 265.435 21.6142C265.435 22.9232 264.292 23.5944 261.972 23.5944C259.182 23.5944 257.232 22.2855 256.156 19.6676L249.701 23.4266C250.508 25.6753 251.953 27.4541 254.004 28.7631C256.055 30.072 258.644 30.7432 261.77 30.7432C265.133 30.7432 267.856 29.9377 269.907 28.2932C271.958 26.6486 273 24.3999 273 21.5136C273 20.0704 272.731 18.795 272.227 17.721Z" fill="white" fill-opacity="0.9"/>
<path d="M141.845 0.637695L132.633 0.637695L122.883 30.1391H131.087L132.364 25.8767H142.182L143.459 30.1391H151.595L141.845 0.637695ZM134.281 19.3656L137.239 9.33038L140.232 19.3656H134.281Z" fill="white" fill-opacity="0.9"/>
<path d="M214.096 18.6943H224.25V11.7469L214.096 11.7469V7.65226L225.292 7.65226V0.637695L206.532 0.637695V30.1056H225.527V23.0574H214.096V18.6943Z" fill="white" fill-opacity="0.9"/>
<path d="M203.943 0.637695L195.504 0.637695L187.469 13.0223V0.637695L179.904 0.637695V30.1056H187.469V16.9491L195.941 30.1056H204.38L194.597 14.9689L203.943 0.637695Z" fill="white" fill-opacity="0.9"/>
<path d="M171.163 19.1976C172.71 18.325 173.92 17.1503 174.828 15.6736C175.735 14.1968 176.173 12.5858 176.173 10.807C176.173 7.8535 175.164 5.437 173.113 3.49038C171.062 1.57732 168.541 0.604004 165.548 0.604004H165.078L163.901 0.604004L161.279 0.604004L156.202 0.604004L153.714 0.604004V30.1054H161.279V20.6073H163.968L169.112 30.139H177.215L171.163 19.1976ZM167.734 13.3242C167.129 13.9283 166.389 14.2304 165.447 14.1968H161.279V12.2838V7.585L163.901 7.585H165.078H165.447C166.389 7.585 167.129 7.88706 167.734 8.52475C168.339 9.12888 168.608 9.93438 168.608 10.9413C168.641 11.881 168.339 12.6865 167.734 13.3242Z" fill="white" fill-opacity="0.9"/>
</svg>
