<svg width="49" height="39" viewBox="0 0 49 39" fill="none" xmlns="http://www.w3.org/2000/svg">
<path fill-rule="evenodd" clip-rule="evenodd" d="M48.9776 3.30949C48.8562 4.93827 47.8543 10.6319 46.8677 16.7788L43.7559 35.0211C43.7559 35.0211 43.5131 37.698 41.388 38.1512C39.2781 38.6186 35.7868 36.5224 35.1645 36.055C34.6636 35.701 25.8293 30.4747 22.5961 27.9253C21.7309 27.2313 20.729 25.8291 22.7175 24.2145C27.1954 20.3763 32.5537 15.6174 35.7868 12.6006C37.2744 11.2126 38.7772 7.95505 32.5537 11.9066L15.0065 22.9398C15.0065 22.9398 13.018 24.1012 9.28389 23.0531C5.5498 22.0051 1.19336 20.617 1.19336 20.617C1.19336 20.617 -1.79696 18.875 3.30327 17.0196L32.3108 5.87305C35.1797 4.71166 44.8792 1.00087 44.8792 1.00087C44.8792 1.00087 49.3571 -0.627903 48.9776 3.30949Z" fill="white"/>
</svg>
