<svg width="47" height="42" viewBox="0 0 47 42" fill="none" xmlns="http://www.w3.org/2000/svg">
<path fill-rule="evenodd" clip-rule="evenodd" d="M41.0688 7.26023C42.9794 7.00759 44.7938 6.47258 46.4708 5.65521C45.2062 7.6912 43.6117 9.4894 41.7698 10.9309C41.7835 11.3619 41.7973 11.8078 41.7973 12.2536C41.7973 25.703 32.3265 41.2181 15.0071 41.2181C9.68755 41.2181 4.73913 39.5388 0.574219 36.6408C1.31648 36.73 2.05875 36.7746 2.81475 36.7746C7.22709 36.7746 11.282 35.1399 14.5123 32.4203C10.3886 32.3311 6.91094 29.3886 5.71508 25.3463C6.29239 25.4652 6.88345 25.5247 7.48826 25.5247C8.35423 25.5247 9.17897 25.4058 9.97621 25.168C5.67384 24.2317 2.41613 20.1152 2.41613 15.1813C2.41613 15.1367 2.41613 15.0921 2.41613 15.0475C3.68073 15.8054 5.13776 16.2661 6.67727 16.3256C4.14808 14.4976 2.48486 11.3768 2.48486 7.85468C2.48486 5.99703 2.95221 4.2434 3.7632 2.74242C8.40921 8.90982 15.3507 12.9521 23.172 13.383C23.007 12.64 22.9246 11.8672 22.9246 11.0647C22.9246 5.44716 27.1445 0.884766 32.3403 0.884766C35.0482 0.884766 37.4949 2.11824 39.2131 4.09478C41.3574 3.63409 43.378 2.787 45.1924 1.62783C44.5052 4.00562 43.0206 5.99703 41.0688 7.26023Z" fill="white"/>
</svg>
