<svg width="107" height="121" viewBox="0 0 107 121" fill="none" xmlns="http://www.w3.org/2000/svg">
<path d="M18.176 71.0778V104.052H0.375V54.9824C1.95412 57.7599 3.96392 60.395 6.3326 62.8164C9.06018 65.594 12.0031 67.8729 15.2331 69.6534C16.1662 70.1519 17.1711 70.5792 18.176 71.0778Z" fill="white"/>
<path d="M106.248 86.5303C106.248 96.2872 103.018 104.549 96.5579 111.101C90.0978 117.724 82.0587 121 72.4404 121H44.088V74.1383H62.3914V103.908H72.4404C77.2495 103.908 81.1973 102.341 84.2838 99.136C87.3703 95.9311 88.8776 91.7292 88.8776 86.4591C88.8776 81.1889 87.3703 76.987 84.2838 73.7822C81.2691 70.5774 77.3213 69.0106 72.4404 69.0106H34.1108C28.3685 69.0106 23.2005 67.8711 18.6067 65.5209C18.3196 65.3785 17.9607 65.236 17.6736 65.0224C14.8742 63.5268 12.362 61.5327 9.99328 59.1112C8.34238 57.4732 6.9786 55.6928 5.75837 53.8411C2.38479 48.6421 0.590335 42.6598 0.375 35.8941V33.1878C0.662113 24.0006 3.89214 16.1666 10.0651 9.89935C16.5251 3.27604 24.5643 0 34.1826 0H62.535V46.8617H44.2315V17.1636H34.1826C29.3734 17.1636 25.4256 18.7304 22.3391 21.9353C19.2527 25.1401 17.7453 29.342 17.7453 34.6121C17.7453 39.8823 19.2527 44.0842 22.3391 47.289C25.3538 50.4938 29.3016 52.0606 34.1826 52.0606H72.5122C82.1304 52.0606 90.1696 55.3367 96.6297 61.96C103.018 68.5833 106.248 76.7734 106.248 86.5303Z" fill="white"/>
</svg>
