<svg width="424" height="1355" viewBox="0 0 424 1355" fill="none" xmlns="http://www.w3.org/2000/svg">
<path opacity="0.82" d="M158.533 1093.64L0.962891 1355H423.645L273.587 1099.05L158.533 1093.64Z" fill="url(#paint0_linear)"/>
<path d="M214.452 1052.56C214.029 1052.56 213.624 1052.29 213.325 1051.81C213.026 1051.33 212.858 1050.68 212.858 1050V2.81514C212.858 2.1356 213.026 1.48389 213.325 1.00339C213.624 0.522879 214.029 0.25293 214.452 0.25293C214.874 0.25293 215.279 0.522879 215.578 1.00339C215.877 1.48389 216.045 2.1356 216.045 2.81514V1050C216.045 1050.68 215.877 1051.33 215.578 1051.81C215.279 1052.29 214.874 1052.56 214.452 1052.56Z" fill="#303030"/>
<path d="M214.183 1058.92C213.99 1058.92 213.804 1058.84 213.667 1058.71C213.53 1058.57 213.454 1058.38 213.454 1058.19V1047.38C213.454 1047.19 213.53 1047 213.667 1046.87C213.804 1046.73 213.99 1046.65 214.183 1046.65C214.377 1046.65 214.562 1046.73 214.699 1046.87C214.836 1047 214.913 1047.19 214.913 1047.38V1058.19C214.913 1058.38 214.836 1058.57 214.699 1058.71C214.562 1058.84 214.377 1058.92 214.183 1058.92Z" fill="#303030"/>
<path d="M277.059 1105.65V1086.45C277.034 1079.27 274.166 1072.38 269.081 1067.29C263.996 1062.21 257.106 1059.35 249.917 1059.33H178.447C171.258 1059.35 164.368 1062.21 159.283 1067.29C154.198 1072.38 151.33 1079.27 151.305 1086.45V1105.65H277.059Z" fill="url(#paint1_linear)"/>
<path d="M214.277 1117.45C249.048 1117.45 277.235 1111.87 277.235 1104.99C277.235 1098.11 249.048 1092.53 214.277 1092.53C179.507 1092.53 151.319 1098.11 151.319 1104.99C151.319 1111.87 179.507 1117.45 214.277 1117.45Z" fill="url(#paint2_linear)"/>
<path d="M214.278 1088.86C187.622 1088.86 164.357 1085.08 158.967 1079.86C158.925 1079.82 158.892 1079.77 158.869 1079.72C158.847 1079.67 158.835 1079.61 158.835 1079.55C158.835 1079.49 158.847 1079.44 158.869 1079.38C158.892 1079.33 158.925 1079.28 158.967 1079.24C159.006 1079.2 159.053 1079.17 159.105 1079.14C159.158 1079.12 159.214 1079.11 159.271 1079.11C159.328 1079.11 159.384 1079.12 159.436 1079.14C159.488 1079.17 159.536 1079.2 159.575 1079.24C164.817 1084.31 187.825 1087.98 214.278 1087.98C238.853 1087.98 260.888 1084.75 267.846 1080.12C267.894 1080.09 267.948 1080.06 268.004 1080.05C268.061 1080.04 268.119 1080.04 268.175 1080.05C268.232 1080.06 268.285 1080.09 268.333 1080.12C268.381 1080.15 268.422 1080.19 268.454 1080.24C268.486 1080.29 268.508 1080.34 268.519 1080.4C268.53 1080.45 268.53 1080.51 268.519 1080.57C268.508 1080.63 268.486 1080.68 268.453 1080.73C268.421 1080.77 268.38 1080.82 268.332 1080.85C261.131 1085.6 239.407 1088.86 214.278 1088.86Z" fill="white"/>
<path d="M239.001 1060.3C238.955 1057.49 237.809 1054.81 235.808 1052.84C233.807 1050.86 231.111 1049.75 228.301 1049.75H200.065C197.231 1049.77 194.52 1050.91 192.516 1052.91C190.512 1054.92 189.376 1057.63 189.351 1060.46C189.351 1063.16 200.484 1065.39 214.21 1065.39C227.936 1065.39 239.055 1063.19 239.055 1060.49C239.043 1060.42 239.025 1060.36 239.001 1060.3Z" fill="url(#paint3_linear)"/>
<defs>
<linearGradient id="paint0_linear" x1="212.304" y1="1093.64" x2="212.304" y2="1281.31" gradientUnits="userSpaceOnUse">
<stop stop-color="#FFD18B" stop-opacity="0.36"/>
<stop offset="1" stop-color="#FFC793" stop-opacity="0"/>
</linearGradient>
<linearGradient id="paint1_linear" x1="162.492" y1="1046.57" x2="253.605" y2="1122.65" gradientUnits="userSpaceOnUse">
<stop stop-color="#4DA6DD"/>
<stop offset="1" stop-color="#2288C7"/>
</linearGradient>
<linearGradient id="paint2_linear" x1="155.504" y1="1104.87" x2="277.384" y2="1102.87" gradientUnits="userSpaceOnUse">
<stop stop-color="#45A1D9"/>
<stop offset="1" stop-color="#258AC8"/>
</linearGradient>
<linearGradient id="paint3_linear" x1="7120.12" y1="4755.24" x2="8948.74" y2="4755.24" gradientUnits="userSpaceOnUse">
<stop stop-color="#4DA6DD"/>
<stop offset="1" stop-color="#2288C7"/>
</linearGradient>
</defs>
</svg>
