<svg width="773" height="482" viewBox="0 0 773 482" fill="none" xmlns="http://www.w3.org/2000/svg">
<path d="M0.070532 282.754C0.56675 308.837 0.00850631 320.824 27.3625 384.357C38.3413 409.82 72.8905 466.211 203.954 480.371C316.347 492.481 445.736 432.24 555.711 458.634C780.745 512.603 773.798 333.555 772.744 312.874C770.139 261.7 751.344 248.534 728.58 216.798C711.337 192.764 718.966 160.035 716.361 130.597C711.957 81.5965 636.842 35.3286 594.105 18.8087C560.983 6.01517 524.325 2.90994 489.093 4.02782C471.85 4.58677 298.67 -17.0257 219.337 34.5212C147.571 81.1618 162.21 105.072 128.157 113.394C95.1583 121.406 69.7271 140.72 46.2808 164.755C15.3913 196.49 -0.797849 238.473 0.070532 282.754C0.132559 284.492 -0.11555 272.258 0.070532 282.754Z" fill="#DBEDFC"/>
</svg>
