<svg width="778" height="481" viewBox="0 0 778 481" fill="none" xmlns="http://www.w3.org/2000/svg">
<path d="M0.137314 280.564C0.636174 306.742 0.0749579 318.772 27.5746 382.534C38.6119 408.089 73.3451 464.684 205.107 478.895C318.098 491.049 440.943 437.135 554.059 448.478C691.558 462.253 616.354 390.201 742.005 372.25C771.625 368.012 777.985 331.549 776.925 310.794C774.306 259.435 755.412 246.159 732.526 214.371C715.191 190.249 722.861 157.402 720.242 127.858C715.815 78.6805 640.3 32.2454 597.335 15.6658C564.036 2.82606 527.183 -0.290387 491.764 0.831535C474.429 1.3925 457.156 3.07538 440.07 6.00484C424.48 8.68499 406.085 11.3651 391.743 18.533C361.063 29.8769 334.436 48.3262 311.925 71.9489C301.012 83.4175 291.285 96.3196 279.312 106.729C265.032 119.194 250.503 118.758 232.731 115.33C198.995 108.723 166.008 101.493 131.774 109.845C98.5999 117.885 70.1648 138.018 46.5937 162.139C15.4773 193.989 -0.735692 236.061 0.137314 280.564C0.199671 282.247 -0.0497588 270.031 0.137314 280.564Z" fill="#DBEDFC"/>
</svg>
