<svg width="797" height="487" viewBox="0 0 797 487" fill="none" xmlns="http://www.w3.org/2000/svg">
<path d="M796.927 284.158C796.418 310.684 796.991 322.863 768.755 387.582C757.41 413.534 721.78 470.921 586.719 485.331C470.842 497.701 337.438 436.361 224.048 463.205C-7.9597 518.105 -0.821006 335.87 0.262545 314.828C2.93955 262.734 3.44946 237.037 26.9052 204.709C44.6881 180.224 55.6511 159.183 58.3919 129.278C62.9173 79.4149 140.423 32.3577 184.466 15.5242C218.63 2.45278 256.427 -0.671613 292.758 0.476123C310.541 1.04999 481.869 -7.81309 570.848 31.5288C701.766 89.4257 690.293 139.799 714.45 164.22C746.319 196.484 797.82 239.078 796.927 284.158C796.864 285.88 797.119 273.446 796.927 284.158Z" fill="#DBEDFC"/>
</svg>
