<svg width="750" height="457" viewBox="0 0 750 457" fill="none" xmlns="http://www.w3.org/2000/svg">
<path d="M0.0671035 190.288C0.598212 165.388 0.00809057 153.968 26.5635 93.2766C37.1857 68.9648 70.7636 15.1022 197.876 1.563C306.93 -10.0336 432.449 47.5375 539.143 22.3428C757.488 -29.1652 750.76 141.782 749.757 161.561C747.278 210.42 746.747 234.556 724.677 264.872C707.917 287.829 697.649 307.55 695.053 335.629C690.804 382.427 617.865 426.636 576.438 442.412C544.336 454.656 508.692 457.6 474.524 456.54C457.824 456.01 296.544 464.369 212.806 427.401C89.6475 373.068 100.388 325.857 77.668 302.899C47.6899 272.524 -0.759066 232.613 0.0671035 190.288C0.126116 188.699 -0.109933 200.354 0.0671035 190.288Z" fill="#DBEDFC"/>
</svg>
