<svg width="791" height="467" viewBox="0 0 791 467" fill="none" xmlns="http://www.w3.org/2000/svg">
<path d="M754.092 385.453C693.152 449.281 570.752 432.607 521.636 451.17C414.634 491.551 338.167 440.553 224.343 452.016C86.0257 465.954 161.713 393.204 35.2207 375.097C5.40034 370.864 -0.771622 334 0.0729618 313.093C1.69716 273.884 28.2041 256.429 41.7824 244.901C57.3748 231.68 81.7378 226.99 89.404 206.995C100.773 177.426 81.283 148.443 83.9467 118.678C88.4295 69.049 137.61 31.9246 180.879 15.1861C214.337 2.2251 251.499 -0.901168 287.102 0.20605C304.513 0.792225 321.925 2.48562 339.141 5.41649C354.863 8.08684 373.314 10.8223 387.737 18.0518C418.662 29.5148 445.364 37.7212 468.038 61.559C479.017 73.1522 488.827 86.1132 500.846 96.6643C515.204 109.3 529.887 108.844 547.688 105.327C581.667 98.6182 614.865 101.81 649.298 110.211C682.627 118.353 711.343 138.674 734.991 162.967C766.306 195.142 775.271 237.151 785.536 280.919C790.084 300.458 804.637 332.567 754.092 385.453Z" fill="#DBEDFC"/>
</svg>
