<svg width="774" height="478" viewBox="0 0 774 478" fill="none" xmlns="http://www.w3.org/2000/svg">
<path d="M0.472887 278.731C0.969181 304.776 0.410851 316.745 27.7691 380.184C38.7496 405.609 73.3041 461.916 204.388 476.055C316.798 488.148 446.207 427.996 556.198 454.351C781.268 508.24 774.32 329.457 773.265 308.807C770.659 257.709 751.862 244.562 729.095 212.873C711.849 188.874 719.479 156.194 716.873 126.8C712.469 77.8717 637.342 31.6723 594.599 15.1769C561.471 2.40227 524.808 -0.698364 489.571 0.417864C472.325 0.975979 430.76 1.84416 373.5 20.696C342.544 30.8661 281.81 0.231826 219.773 30.8661C143.033 68.7559 162.637 101.313 128.579 109.622C95.5752 117.622 70.1402 136.908 46.6903 160.907C15.796 192.595 -0.333591 234.454 0.472887 278.731C0.534923 280.405 0.286776 268.251 0.472887 278.731Z" fill="#DBEDFC"/>
</svg>
