<svg width="781" height="482" viewBox="0 0 781 482" fill="none" xmlns="http://www.w3.org/2000/svg">
<path d="M780.895 200.808C780.364 174.514 780.954 162.487 753.272 98.4024C742.176 72.7567 707.234 15.8647 574.905 1.65647C461.345 -10.6063 330.609 50.1179 219.528 23.5879C-7.82799 -30.828 -0.804255 149.635 0.258157 170.446C2.85517 222.032 21.8605 235.297 44.8795 267.31C62.2912 291.54 54.5592 324.555 57.2153 354.151C61.642 403.556 137.545 450.19 180.75 466.874C214.216 479.785 251.283 482.91 286.873 481.79C304.285 481.259 346.309 480.375 404.093 461.332C435.316 451.015 496.7 482.025 559.382 451.074C636.879 412.812 617.107 379.974 651.517 371.602C684.806 363.525 710.599 344.011 734.208 319.839C765.49 287.767 781.78 245.496 780.895 200.808C780.895 199.098 781.131 211.42 780.895 200.808Z" fill="#DBEDFC"/>
</svg>
