<svg width="45" height="482" viewBox="0 0 45 482" fill="none" xmlns="http://www.w3.org/2000/svg">
<path d="M6 154.52C6 156.141 4.71429 157.546 3 157.546C1.39286 157.546 -2.07852e-07 156.249 -1.32269e-07 154.52C-6.14103e-08 152.899 1.28571 151.494 3 151.494C4.60714 151.602 6 152.899 6 154.52Z" fill="#316594" fill-opacity="0.5"/>
<path d="M6 132.797C6 134.419 4.71429 135.823 3 135.823C1.39286 135.823 -2.07854e-07 134.527 -1.32271e-07 132.797C-6.14114e-08 131.176 1.28571 129.771 3 129.771C4.60714 129.88 6 131.176 6 132.797Z" fill="#316594" fill-opacity="0.5"/>
<path d="M6 111.075C6 112.696 4.71429 114.101 3 114.101C1.39286 114.101 -2.07853e-07 112.804 -1.3227e-07 111.075C-5.6687e-08 109.346 1.28571 108.049 3 108.049C4.60714 108.049 6 109.454 6 111.075Z" fill="#316594" fill-opacity="0.5"/>
<path d="M6 89.3531C6 90.9742 4.71429 92.3791 3 92.3791C1.39286 92.3791 -2.07853e-07 91.0823 -1.3227e-07 89.3531C-6.1411e-08 87.7321 1.28571 86.3271 3 86.3271C4.60714 86.3271 6 87.624 6 89.3531Z" fill="#316594" fill-opacity="0.5"/>
<path d="M6 67.5226C6 69.1436 4.71429 70.5486 3 70.5486C1.39286 70.5486 -2.07853e-07 69.2517 -1.3227e-07 67.5226C-6.14113e-08 65.9015 1.28571 64.4966 3 64.4966C4.60714 64.6047 6 65.9015 6 67.5226Z" fill="#316594" fill-opacity="0.5"/>
<path d="M25.5 154.52C25.5 156.141 24.2143 157.546 22.5 157.546C20.8929 157.546 19.5 156.249 19.5 154.52C19.5 152.899 20.7857 151.494 22.5 151.494C24.1071 151.602 25.5 152.899 25.5 154.52Z" fill="#316594" fill-opacity="0.5"/>
<path d="M25.5 132.797C25.5 134.419 24.2143 135.823 22.5 135.823C20.8929 135.823 19.5 134.527 19.5 132.797C19.5 131.176 20.7857 129.771 22.5 129.771C24.1071 129.88 25.5 131.176 25.5 132.797Z" fill="#316594" fill-opacity="0.5"/>
<path d="M25.5 111.075C25.5 112.696 24.2143 114.101 22.5 114.101C20.8929 114.101 19.5 112.804 19.5 111.075C19.5 109.346 20.7857 108.049 22.5 108.049C24.1071 108.049 25.5 109.454 25.5 111.075Z" fill="#316594" fill-opacity="0.5"/>
<path d="M25.5 89.3531C25.5 90.9742 24.2143 92.3791 22.5 92.3791C20.8929 92.3791 19.5 91.0823 19.5 89.3531C19.5 87.7321 20.7857 86.3271 22.5 86.3271C24.1071 86.3271 25.5 87.624 25.5 89.3531Z" fill="#F4BA91"/>
<path d="M25.5 67.5226C25.5 69.1436 24.2143 70.5486 22.5 70.5486C20.8929 70.5486 19.5 69.2517 19.5 67.5226C19.5 65.9015 20.7857 64.4966 22.5 64.4966C24.1071 64.6047 25.5 65.9015 25.5 67.5226Z" fill="#F4BA91"/>
<path d="M45 154.52C45 156.141 43.7143 157.546 42 157.546C40.3929 157.546 39 156.249 39 154.52C39 152.899 40.2857 151.494 42 151.494C43.7143 151.602 45 152.899 45 154.52Z" fill="#316594" fill-opacity="0.5"/>
<path d="M45 132.797C45 134.419 43.7143 135.823 42 135.823C40.3929 135.823 39 134.527 39 132.797C39 131.176 40.2857 129.771 42 129.771C43.7143 129.88 45 131.176 45 132.797Z" fill="#316594" fill-opacity="0.5"/>
<path d="M45 111.075C45 112.696 43.7143 114.101 42 114.101C40.3929 114.101 39 112.804 39 111.075C39 109.346 40.2857 108.049 42 108.049C43.7143 108.049 45 109.454 45 111.075Z" fill="#316594" fill-opacity="0.5"/>
<path d="M45 89.3531C45 90.9742 43.7143 92.3791 42 92.3791C40.3929 92.3791 39 91.0823 39 89.3531C39 87.7321 40.2857 86.3271 42 86.3271C43.7143 86.3271 45 87.624 45 89.3531Z" fill="#316594" fill-opacity="0.5"/>
<path d="M45 67.5226C45 69.1436 43.7143 70.5486 42 70.5486C40.3929 70.5486 39 69.2517 39 67.5226C39 65.9015 40.2857 64.4966 42 64.4966C43.7143 64.6047 45 65.9015 45 67.5226Z" fill="#F4BA91"/>
<path d="M6 46.4708C6 48.0919 4.71429 49.4968 3 49.4968C1.39286 49.4968 -2.07853e-07 48.2 -1.3227e-07 46.4708C-6.14112e-08 44.8497 1.28571 43.4448 3 43.4448C4.60714 43.5529 6 44.8497 6 46.4708Z" fill="#316594" fill-opacity="0.5"/>
<path d="M6 24.7482C6 26.3692 4.71429 27.7742 3 27.7742C1.39286 27.7742 -2.07853e-07 26.4773 -1.3227e-07 24.7482C-6.14112e-08 23.1271 1.28571 21.7222 3 21.7222C4.60714 21.7222 6 23.1271 6 24.7482Z" fill="#316594" fill-opacity="0.5"/>
<path d="M6 3.02599C6 4.64706 4.71429 6.05198 3 6.05198C1.39286 6.05198 -2.07853e-07 4.75513 -1.3227e-07 3.02599C-5.66873e-08 1.29685 1.39286 -2.01385e-07 3 -1.31134e-07C4.60714 -6.08837e-08 6 1.29685 6 3.02599Z" fill="#316594" fill-opacity="0.5"/>
<path d="M25.5 46.4708C25.5 48.0919 24.2143 49.4968 22.5 49.4968C20.8929 49.4968 19.5 48.2 19.5 46.4708C19.5 44.8497 20.7857 43.4448 22.5 43.4448C24.1071 43.5529 25.5 44.8497 25.5 46.4708Z" fill="#F4BA91"/>
<path d="M25.5 24.7482C25.5 26.3692 24.2143 27.7742 22.5 27.7742C20.8929 27.7742 19.5 26.4773 19.5 24.7482C19.5 23.1271 20.7857 21.7222 22.5 21.7222C24.1071 21.7222 25.5 23.1271 25.5 24.7482Z" fill="#F4BA91"/>
<path d="M25.5 3.02599C25.5 4.64706 24.2143 6.05198 22.5 6.05198C20.8929 6.05198 19.5 4.75513 19.5 3.02599C19.6071 1.29685 20.8929 -2.01385e-07 22.5 -1.31134e-07C24.1071 -6.08837e-08 25.5 1.29685 25.5 3.02599Z" fill="#316594" fill-opacity="0.5"/>
<path d="M45 46.4708C45 48.0919 43.7143 49.4968 42 49.4968C40.3929 49.4968 39 48.2 39 46.4708C39 44.8497 40.2857 43.4448 42 43.4448C43.7143 43.5529 45 44.8497 45 46.4708Z" fill="#316594" fill-opacity="0.5"/>
<path d="M45 24.7482C45 26.3692 43.7143 27.7742 42 27.7742C40.3929 27.7742 39 26.4773 39 24.7482C39 23.1271 40.2857 21.7222 42 21.7222C43.7143 21.7222 45 23.1271 45 24.7482Z" fill="#316594" fill-opacity="0.5"/>
<path d="M45 3.02599C45 4.64706 43.7143 6.05198 42 6.05198C40.3929 6.05198 39 4.75513 39 3.02599C39.1071 1.29685 40.3929 -2.01385e-07 42 -1.31134e-07C43.7143 -5.62004e-08 45 1.29685 45 3.02599Z" fill="#316594" fill-opacity="0.5"/>
<path d="M6 327.52C6 329.141 4.71429 330.546 3 330.546C1.39286 330.546 -2.07852e-07 329.249 -1.32269e-07 327.52C-6.14103e-08 325.899 1.28571 324.494 3 324.494C4.60714 324.602 6 325.899 6 327.52Z" fill="#316594" fill-opacity="0.5"/>
<path d="M6 305.797C6 307.419 4.71429 308.823 3 308.823C1.39286 308.823 -2.07854e-07 307.527 -1.32271e-07 305.797C-6.14114e-08 304.176 1.28571 302.771 3 302.771C4.60714 302.88 6 304.176 6 305.797Z" fill="#316594" fill-opacity="0.5"/>
<path d="M6 284.075C6 285.696 4.71429 287.101 3 287.101C1.39286 287.101 -2.07853e-07 285.804 -1.3227e-07 284.075C-5.6687e-08 282.346 1.28571 281.049 3 281.049C4.60714 281.049 6 282.454 6 284.075Z" fill="#316594" fill-opacity="0.5"/>
<path d="M6 262.353C6 263.974 4.71429 265.379 3 265.379C1.39286 265.379 -2.07853e-07 264.082 -1.3227e-07 262.353C-6.1411e-08 260.732 1.28571 259.327 3 259.327C4.60714 259.327 6 260.624 6 262.353Z" fill="#316594" fill-opacity="0.5"/>
<path d="M6 240.523C6 242.144 4.71429 243.549 3 243.549C1.39286 243.549 -2.07853e-07 242.252 -1.3227e-07 240.523C-6.14113e-08 238.902 1.28571 237.497 3 237.497C4.60714 237.605 6 238.902 6 240.523Z" fill="#F4BA91"/>
<path d="M25.5 327.52C25.5 329.141 24.2143 330.546 22.5 330.546C20.8929 330.546 19.5 329.249 19.5 327.52C19.5 325.899 20.7857 324.494 22.5 324.494C24.1071 324.602 25.5 325.899 25.5 327.52Z" fill="#316594" fill-opacity="0.5"/>
<path d="M25.5 305.797C25.5 307.419 24.2143 308.823 22.5 308.823C20.8929 308.823 19.5 307.527 19.5 305.797C19.5 304.176 20.7857 302.771 22.5 302.771C24.1071 302.88 25.5 304.176 25.5 305.797Z" fill="#316594" fill-opacity="0.5"/>
<path d="M25.5 284.075C25.5 285.696 24.2143 287.101 22.5 287.101C20.8929 287.101 19.5 285.804 19.5 284.075C19.5 282.346 20.7857 281.049 22.5 281.049C24.1071 281.049 25.5 282.454 25.5 284.075Z" fill="#F4BA91"/>
<path d="M25.5 262.353C25.5 263.974 24.2143 265.379 22.5 265.379C20.8929 265.379 19.5 264.082 19.5 262.353C19.5 260.732 20.7857 259.327 22.5 259.327C24.1071 259.327 25.5 260.624 25.5 262.353Z" fill="#F4BA91"/>
<path d="M25.5 240.523C25.5 242.144 24.2143 243.549 22.5 243.549C20.8929 243.549 19.5 242.252 19.5 240.523C19.5 238.902 20.7857 237.497 22.5 237.497C24.1071 237.605 25.5 238.902 25.5 240.523Z" fill="#F4BA91"/>
<path d="M45 327.52C45 329.141 43.7143 330.546 42 330.546C40.3929 330.546 39 329.249 39 327.52C39 325.899 40.2857 324.494 42 324.494C43.7143 324.602 45 325.899 45 327.52Z" fill="#316594" fill-opacity="0.5"/>
<path d="M45 305.797C45 307.419 43.7143 308.823 42 308.823C40.3929 308.823 39 307.527 39 305.797C39 304.176 40.2857 302.771 42 302.771C43.7143 302.88 45 304.176 45 305.797Z" fill="#316594" fill-opacity="0.5"/>
<path d="M45 284.075C45 285.696 43.7143 287.101 42 287.101C40.3929 287.101 39 285.804 39 284.075C39 282.346 40.2857 281.049 42 281.049C43.7143 281.049 45 282.454 45 284.075Z" fill="#316594" fill-opacity="0.5"/>
<path d="M45 262.353C45 263.974 43.7143 265.379 42 265.379C40.3929 265.379 39 264.082 39 262.353C39 260.732 40.2857 259.327 42 259.327C43.7143 259.327 45 260.624 45 262.353Z" fill="#316594" fill-opacity="0.5"/>
<path d="M45 240.523C45 242.144 43.7143 243.549 42 243.549C40.3929 243.549 39 242.252 39 240.523C39 238.902 40.2857 237.497 42 237.497C43.7143 237.605 45 238.902 45 240.523Z" fill="#316594" fill-opacity="0.5"/>
<path d="M6 219.471C6 221.092 4.71429 222.497 3 222.497C1.39286 222.497 -2.07853e-07 221.2 -1.3227e-07 219.471C-6.14112e-08 217.85 1.28571 216.445 3 216.445C4.60714 216.553 6 217.85 6 219.471Z" fill="#F4BA91"/>
<path d="M6 197.748C6 199.369 4.71429 200.774 3 200.774C1.39286 200.774 -2.07853e-07 199.477 -1.3227e-07 197.748C-6.14112e-08 196.127 1.28571 194.722 3 194.722C4.60714 194.722 6 196.127 6 197.748Z" fill="#316594" fill-opacity="0.5"/>
<path d="M6 176.026C6 177.647 4.71429 179.052 3 179.052C1.39286 179.052 -2.07853e-07 177.755 -1.3227e-07 176.026C-5.66873e-08 174.297 1.39286 173 3 173C4.60714 173 6 174.297 6 176.026Z" fill="#316594" fill-opacity="0.5"/>
<path d="M25.5 219.471C25.5 221.092 24.2143 222.497 22.5 222.497C20.8929 222.497 19.5 221.2 19.5 219.471C19.5 217.85 20.7857 216.445 22.5 216.445C24.1071 216.553 25.5 217.85 25.5 219.471Z" fill="#F4BA91"/>
<path d="M25.5 197.748C25.5 199.369 24.2143 200.774 22.5 200.774C20.8929 200.774 19.5 199.477 19.5 197.748C19.5 196.127 20.7857 194.722 22.5 194.722C24.1071 194.722 25.5 196.127 25.5 197.748Z" fill="#316594" fill-opacity="0.5"/>
<path d="M25.5 176.026C25.5 177.647 24.2143 179.052 22.5 179.052C20.8929 179.052 19.5 177.755 19.5 176.026C19.6071 174.297 20.8929 173 22.5 173C24.1071 173 25.5 174.297 25.5 176.026Z" fill="#316594" fill-opacity="0.5"/>
<path d="M45 219.471C45 221.092 43.7143 222.497 42 222.497C40.3929 222.497 39 221.2 39 219.471C39 217.85 40.2857 216.445 42 216.445C43.7143 216.553 45 217.85 45 219.471Z" fill="#316594" fill-opacity="0.5"/>
<path d="M45 197.748C45 199.369 43.7143 200.774 42 200.774C40.3929 200.774 39 199.477 39 197.748C39 196.127 40.2857 194.722 42 194.722C43.7143 194.722 45 196.127 45 197.748Z" fill="#316594" fill-opacity="0.5"/>
<path d="M45 176.026C45 177.647 43.7143 179.052 42 179.052C40.3929 179.052 39 177.755 39 176.026C39.1071 174.297 40.3929 173 42 173C43.7143 173 45 174.297 45 176.026Z" fill="#316594" fill-opacity="0.5"/>
<path d="M6 457.075C6 458.696 4.71429 460.101 3 460.101C1.39286 460.101 -2.07853e-07 458.804 -1.3227e-07 457.075C-5.6687e-08 455.346 1.28571 454.049 3 454.049C4.60714 454.049 6 455.454 6 457.075Z" fill="#316594" fill-opacity="0.5"/>
<path d="M6 478.748C6 480.369 4.71429 481.774 3 481.774C1.39286 481.774 -2.07853e-07 480.477 -1.3227e-07 478.748C-5.6687e-08 477.019 1.28571 475.722 3 475.722C4.60714 475.722 6 477.127 6 478.748Z" fill="#316594" fill-opacity="0.5"/>
<path d="M6 435.353C6 436.974 4.71429 438.379 3 438.379C1.39286 438.379 -2.07853e-07 437.082 -1.3227e-07 435.353C-6.1411e-08 433.732 1.28571 432.327 3 432.327C4.60714 432.327 6 433.624 6 435.353Z" fill="#316594" fill-opacity="0.5"/>
<path d="M6 413.523C6 415.144 4.71429 416.549 3 416.549C1.39286 416.549 -2.07853e-07 415.252 -1.3227e-07 413.523C-6.14113e-08 411.902 1.28571 410.497 3 410.497C4.60714 410.605 6 411.902 6 413.523Z" fill="#316594" fill-opacity="0.5"/>
<path d="M25.5 457.075C25.5 458.696 24.2143 460.101 22.5 460.101C20.8929 460.101 19.5 458.804 19.5 457.075C19.5 455.346 20.7857 454.049 22.5 454.049C24.1071 454.049 25.5 455.454 25.5 457.075Z" fill="#F4BA91"/>
<path d="M25.5 478.748C25.5 480.369 24.2143 481.774 22.5 481.774C20.8929 481.774 19.5 480.477 19.5 478.748C19.5 477.019 20.7857 475.722 22.5 475.722C24.1071 475.722 25.5 477.127 25.5 478.748Z" fill="#316594" fill-opacity="0.5"/>
<path d="M25.5 435.353C25.5 436.974 24.2143 438.379 22.5 438.379C20.8929 438.379 19.5 437.082 19.5 435.353C19.5 433.732 20.7857 432.327 22.5 432.327C24.1071 432.327 25.5 433.624 25.5 435.353Z" fill="#F4BA91"/>
<path d="M25.5 413.523C25.5 415.144 24.2143 416.549 22.5 416.549C20.8929 416.549 19.5 415.252 19.5 413.523C19.5 411.902 20.7857 410.497 22.5 410.497C24.1071 410.605 25.5 411.902 25.5 413.523Z" fill="#316594" fill-opacity="0.5"/>
<path d="M45 457.075C45 458.696 43.7143 460.101 42 460.101C40.3929 460.101 39 458.804 39 457.075C39 455.346 40.2857 454.049 42 454.049C43.7143 454.049 45 455.454 45 457.075Z" fill="#F4BA91"/>
<path d="M45 478.748C45 480.369 43.7143 481.774 42 481.774C40.3929 481.774 39 480.477 39 478.748C39 477.019 40.2857 475.722 42 475.722C43.7143 475.722 45 477.127 45 478.748Z" fill="#F4BA91"/>
<path d="M45 435.353C45 436.974 43.7143 438.379 42 438.379C40.3929 438.379 39 437.082 39 435.353C39 433.732 40.2857 432.327 42 432.327C43.7143 432.327 45 433.624 45 435.353Z" fill="#F4BA91"/>
<path d="M45 413.523C45 415.144 43.7143 416.549 42 416.549C40.3929 416.549 39 415.252 39 413.523C39 411.902 40.2857 410.497 42 410.497C43.7143 410.605 45 411.902 45 413.523Z" fill="#316594" fill-opacity="0.5"/>
<path d="M6 392.471C6 394.092 4.71429 395.497 3 395.497C1.39286 395.497 -2.07853e-07 394.2 -1.3227e-07 392.471C-6.14112e-08 390.85 1.28571 389.445 3 389.445C4.60714 389.553 6 390.85 6 392.471Z" fill="#316594" fill-opacity="0.5"/>
<path d="M6 370.748C6 372.369 4.71429 373.774 3 373.774C1.39286 373.774 -2.07853e-07 372.477 -1.3227e-07 370.748C-6.14112e-08 369.127 1.28571 367.722 3 367.722C4.60714 367.722 6 369.127 6 370.748Z" fill="#316594" fill-opacity="0.5"/>
<path d="M6 349.026C6 350.647 4.71429 352.052 3 352.052C1.39286 352.052 -2.07853e-07 350.755 -1.3227e-07 349.026C-5.66873e-08 347.297 1.39286 346 3 346C4.60714 346 6 347.297 6 349.026Z" fill="#316594" fill-opacity="0.5"/>
<path d="M25.5 392.471C25.5 394.092 24.2143 395.497 22.5 395.497C20.8929 395.497 19.5 394.2 19.5 392.471C19.5 390.85 20.7857 389.445 22.5 389.445C24.1071 389.553 25.5 390.85 25.5 392.471Z" fill="#316594" fill-opacity="0.5"/>
<path d="M25.5 370.748C25.5 372.369 24.2143 373.774 22.5 373.774C20.8929 373.774 19.5 372.477 19.5 370.748C19.5 369.127 20.7857 367.722 22.5 367.722C24.1071 367.722 25.5 369.127 25.5 370.748Z" fill="#316594" fill-opacity="0.5"/>
<path d="M25.5 349.026C25.5 350.647 24.2143 352.052 22.5 352.052C20.8929 352.052 19.5 350.755 19.5 349.026C19.6071 347.297 20.8929 346 22.5 346C24.1071 346 25.5 347.297 25.5 349.026Z" fill="#316594" fill-opacity="0.5"/>
<path d="M45 392.471C45 394.092 43.7143 395.497 42 395.497C40.3929 395.497 39 394.2 39 392.471C39 390.85 40.2857 389.445 42 389.445C43.7143 389.553 45 390.85 45 392.471Z" fill="#316594" fill-opacity="0.5"/>
<path d="M45 370.748C45 372.369 43.7143 373.774 42 373.774C40.3929 373.774 39 372.477 39 370.748C39 369.127 40.2857 367.722 42 367.722C43.7143 367.722 45 369.127 45 370.748Z" fill="#316594" fill-opacity="0.5"/>
<path d="M45 349.026C45 350.647 43.7143 352.052 42 352.052C40.3929 352.052 39 350.755 39 349.026C39.1071 347.297 40.3929 346 42 346C43.7143 346 45 347.297 45 349.026Z" fill="#316594" fill-opacity="0.5"/>
</svg>
