<svg width="1920" height="3279" viewBox="0 0 1920 3279" fill="none" xmlns="http://www.w3.org/2000/svg">
<path d="M-180 2109.5H1428.43C1564.98 2109.5 1674.72 2221.99 1671.35 2358.5V2358.5C1668.1 2490.33 1560.29 2595.5 1428.43 2595.5H474C326.816 2595.5 207.5 2714.82 207.5 2862V2862C207.5 3009.18 326.816 3128.5 474 3128.5H2104M1924.5 1160H1214.25C1077.97 1160 967.5 1270.47 967.5 1406.75V1406.75C967.5 1543.03 857.026 1653.5 720.75 1653.5H-180" stroke="#F5FAFF" stroke-width="300"/>
<path d="M-30.5 150.5L1457.25 150.5C1597.94 150.5 1712 264.555 1712 405.25V405.25C1712 545.945 1597.94 660 1457.25 660H-30.5" stroke="#F5FAFF" stroke-width="300"/>
</svg>
