<svg width="132" height="35" viewBox="0 0 132 35" fill="none" xmlns="http://www.w3.org/2000/svg">
<path d="M5.06663 20.3464V29.7763H0V15.7435C0.449459 16.5378 1.0215 17.2914 1.69569 17.9839C2.47202 18.7782 3.30965 19.4299 4.229 19.9391C4.49459 20.0817 4.78061 20.2242 5.06663 20.3464Z" fill="#303030"/>
<path d="M30.1546 24.7872C30.1546 27.5774 29.2353 29.94 27.3966 31.8137C25.5579 33.7078 23.2697 34.6447 20.5321 34.6447H12.4623V21.2433H17.6719V29.7567H20.5321C21.9009 29.7567 23.0246 29.3086 23.903 28.3921C24.7815 27.4756 25.2106 26.2739 25.2106 24.7668C25.2106 23.2597 24.7815 22.058 23.903 21.1415C23.045 20.225 21.9213 19.7769 20.5321 19.7769H9.60208C7.96768 19.7769 6.49672 19.4511 5.18921 18.779C5.10749 18.7382 5.00534 18.6975 4.92362 18.6364C4.12685 18.2087 3.4118 17.6384 2.73761 16.9459C2.26772 16.4775 1.87956 15.9683 1.53225 15.4388C0.572039 13.952 0.0612899 12.2412 0 10.3064V9.53243C0.0817198 6.90511 1.00107 4.68513 2.75804 2.89286C4.59674 0.998743 6.88489 0.0415039 9.60208 0.0415039H17.6719V13.4429H12.4623V4.92953H9.60208C8.23327 4.92953 7.10962 5.3776 6.23114 6.29411C5.35265 7.21062 4.92362 8.41226 4.92362 9.9194C4.92362 11.4265 5.35265 12.6282 6.23114 13.5447C7.08919 14.4612 8.21284 14.9093 9.60208 14.9093H20.5117C23.2493 14.9093 25.5374 15.8461 27.3761 17.7402C29.2353 19.6344 30.1546 21.9765 30.1546 24.7872Z" fill="#303030"/>
<path d="M50.6869 19.6947H54.4869V34.5828H50.6869V26.5583L47.0708 32.5461H46.6827L43.087 26.5787V34.5828H39.2666V19.6947H43.087L46.8665 26.0491L50.6869 19.6947Z" fill="#303030"/>
<path d="M49.2369 0H44.5789L39.6553 14.8881H43.8026L44.4359 12.7496H49.4004L50.0337 14.8881H54.1401L49.2369 0ZM45.4165 9.47056L46.9079 4.4196L48.4197 9.47056H45.4165Z" fill="#47A7E3"/>
<path d="M61.3312 0H55.2431V9.8779H59.1656V3.68639H61.3108C62.3527 3.68639 63.1903 4.03263 63.8441 4.7251C64.4979 5.41757 64.8247 6.31371 64.8247 7.45425C64.8247 8.59479 64.4979 9.49093 63.8441 10.1834C63.1903 10.8759 62.3527 11.2221 61.3108 11.2221H60.9226H59.1452H55.2227V14.9085H61.3108C63.3742 14.9085 65.0903 14.1957 66.4796 12.77C67.8688 11.3443 68.5634 9.5724 68.5634 7.47462C68.5634 5.35647 67.8688 3.58456 66.4796 2.17925C65.1108 0.712838 63.3946 0 61.3312 0Z" fill="#47A7E3"/>
<path d="M76.429 0H70.3408V3.68639H74.2634H75.7956H76.429C77.4709 3.68639 78.3085 4.03263 78.9623 4.7251C79.616 5.41757 79.9429 6.31371 79.9429 7.45425C79.9429 8.59479 79.616 9.49093 78.9623 10.1834C78.3085 10.8759 77.4709 11.2221 76.429 11.2221H74.2838V5.01023H70.3613V14.8881H76.4494C78.5128 14.8881 80.2289 14.1753 81.6182 12.7496C83.0074 11.3239 83.702 9.55203 83.702 7.45425C83.702 5.3361 83.0074 3.56419 81.6182 2.15888C80.2085 0.712838 78.4924 0 76.429 0Z" fill="#47A7E3"/>
<path d="M108.3 23.3811H111.998V34.5828H115.818V23.3811H119.495V19.6947H108.3V23.3811Z" fill="#303030"/>
<path d="M131.058 28.3302C130.792 27.7803 130.404 27.3323 129.894 26.986C129.362 26.6398 128.892 26.375 128.443 26.1917C127.994 26.0084 127.422 25.8047 126.686 25.6011C125.685 25.2956 124.99 25.0512 124.643 24.8068C124.296 24.5827 124.112 24.2976 124.112 23.9717C124.112 23.6866 124.234 23.4626 124.459 23.2793C124.684 23.096 125.031 22.9941 125.501 22.9941C126.584 22.9941 127.36 23.544 127.83 24.6438L131.038 22.7701C130.527 21.6703 129.791 20.8149 128.811 20.2446C127.851 19.654 126.727 19.3688 125.481 19.3688C124.01 19.3688 122.763 19.7965 121.783 20.6519C120.802 21.5074 120.291 22.6072 120.291 23.9921C120.291 25.2752 120.68 26.2732 121.476 26.986C122.273 27.6989 123.356 28.2488 124.725 28.6561C125.685 28.9209 126.318 29.1245 126.604 29.2264C127.279 29.4911 127.605 29.8577 127.605 30.2854C127.605 30.9575 127.013 31.2834 125.848 31.2834C124.439 31.2834 123.458 30.6317 122.906 29.3078L119.638 31.2019C120.046 32.3425 120.782 33.2386 121.803 33.9107C122.845 34.5828 124.153 34.9087 125.726 34.9087C127.442 34.9087 128.811 34.5014 129.853 33.6663C130.895 32.8517 131.405 31.7111 131.405 30.2447C131.446 29.5115 131.324 28.8598 131.058 28.3302Z" fill="#303030"/>
<path d="M65.151 19.6947H60.493L55.5693 34.5828H59.7166L60.3499 32.4443H65.3144L65.9478 34.5828H70.0746L65.151 19.6947ZM61.3306 29.1652L62.822 24.1143L64.3338 29.1652H61.3306Z" fill="#303030"/>
<path d="M101.659 28.819H106.808V25.3159H101.659V23.2589H107.339V19.6947H97.8594V34.5828H107.441V31.0186H101.659V28.819Z" fill="#303030"/>
<path d="M96.5523 19.6947H92.2825L88.2169 25.9473V19.6947H84.3965V34.5828H88.2169V27.9229L92.5072 34.5828H96.7566L91.8126 26.9249L96.5523 19.6947Z" fill="#303030"/>
<path d="M79.983 29.0838C80.7593 28.6357 81.3926 28.0451 81.8421 27.3119C82.2916 26.5583 82.5163 25.7436 82.5163 24.8475C82.5163 23.3607 82.0055 22.1387 80.9636 21.1611C79.9421 20.1835 78.655 19.6947 77.1432 19.6947H76.898H76.3056H74.9776H72.4035H71.1572V34.5828H74.9776V29.7762H76.3464L78.941 34.5828H83.027L79.983 29.0838ZM78.2464 26.0898C77.94 26.3954 77.5722 26.5583 77.1023 26.5379H74.9776V25.5603V23.1978H76.3056H76.898H77.0819C77.5518 23.1978 77.94 23.3607 78.226 23.6662C78.5324 23.9717 78.6755 24.379 78.6755 24.8882C78.6959 25.377 78.5529 25.7843 78.2464 26.0898Z" fill="#303030"/>
</svg>
