<svg width="158" height="45" viewBox="0 0 158 45" fill="none" xmlns="http://www.w3.org/2000/svg">
<path d="M154.974 39C156.595 39 158 40.2857 158 42C158 43.6072 156.703 45 154.974 45C153.353 45 151.948 43.7143 151.948 42C152.056 40.3929 153.353 39 154.974 39Z" fill="#E97522" fill-opacity="0.5"/>
<path d="M133.253 39C134.874 39 136.279 40.2857 136.279 42C136.279 43.6072 134.982 45 133.253 45C131.631 45 130.227 43.7143 130.227 42C130.335 40.3929 131.631 39 133.253 39Z" fill="#E97522" fill-opacity="0.5"/>
<path d="M111.53 39C113.151 39 114.556 40.2857 114.556 42C114.556 43.6072 113.259 45 111.53 45C109.801 45 108.504 43.7143 108.504 42C108.504 40.3929 109.909 39 111.53 39Z" fill="#E97522" fill-opacity="0.5"/>
<path d="M89.8072 39C91.4283 39 92.8332 40.2857 92.8332 42C92.8332 43.6072 91.5364 45 89.8072 45C88.1862 45 86.7812 43.7143 86.7812 42C86.7812 40.3929 88.0781 39 89.8072 39Z" fill="#E97522" fill-opacity="0.5"/>
<path d="M67.9772 39C69.5982 39 71.0032 40.2857 71.0032 42C71.0032 43.6072 69.7063 45 67.9772 45C66.3561 45 64.9512 43.7143 64.9512 42C65.0592 40.3929 66.3561 39 67.9772 39Z" fill="#E97522" fill-opacity="0.5"/>
<path d="M154.974 19.5C156.595 19.5 158 20.7857 158 22.5C158 24.1072 156.703 25.5 154.974 25.5C153.353 25.5 151.948 24.2143 151.948 22.5C152.056 20.8929 153.353 19.5 154.974 19.5Z" fill="#E97522" fill-opacity="0.5"/>
<path d="M133.253 19.5C134.874 19.5 136.279 20.7857 136.279 22.5C136.279 24.1072 134.982 25.5 133.253 25.5C131.631 25.5 130.227 24.2143 130.227 22.5C130.335 20.8929 131.631 19.5 133.253 19.5Z" fill="#E97522" fill-opacity="0.5"/>
<path d="M111.53 19.5C113.151 19.5 114.556 20.7857 114.556 22.5C114.556 24.1072 113.259 25.5 111.53 25.5C109.801 25.5 108.504 24.2143 108.504 22.5C108.504 20.8929 109.909 19.5 111.53 19.5Z" fill="#E97522" fill-opacity="0.5"/>
<path d="M89.8072 19.5C91.4283 19.5 92.8332 20.7857 92.8332 22.5C92.8332 24.1072 91.5364 25.5 89.8072 25.5C88.1862 25.5 86.7812 24.2143 86.7812 22.5C86.7812 20.8929 88.0781 19.5 89.8072 19.5Z" fill="#E97522" fill-opacity="0.5"/>
<path d="M67.9772 19.5C69.5982 19.5 71.0032 20.7857 71.0032 22.5C71.0032 24.1072 69.7063 25.5 67.9772 25.5C66.3561 25.5 64.9512 24.2143 64.9512 22.5C65.0592 20.8929 66.3561 19.5 67.9772 19.5Z" fill="#E97522" fill-opacity="0.5"/>
<path d="M154.974 3.05176e-05C156.595 3.05176e-05 158 1.28574 158 3.00003C158 4.60717 156.703 6.00003 154.974 6.00003C153.353 6.00003 151.948 4.71432 151.948 3.00003C152.056 1.28574 153.353 3.05176e-05 154.974 3.05176e-05Z" fill="#E97522" fill-opacity="0.5"/>
<path d="M133.253 3.05176e-05C134.874 3.05176e-05 136.279 1.28574 136.279 3.00003C136.279 4.60717 134.982 6.00003 133.253 6.00003C131.631 6.00003 130.227 4.71432 130.227 3.00003C130.335 1.28574 131.631 3.05176e-05 133.253 3.05176e-05Z" fill="#E97522" fill-opacity="0.5"/>
<path d="M111.53 3.05176e-05C113.151 3.05176e-05 114.556 1.28574 114.556 3.00003C114.556 4.60717 113.259 6.00003 111.53 6.00003C109.801 6.00003 108.504 4.71432 108.504 3.00003C108.504 1.28574 109.909 3.05176e-05 111.53 3.05176e-05Z" fill="#E97522" fill-opacity="0.5"/>
<path d="M89.8072 3.05176e-05C91.4283 3.05176e-05 92.8332 1.28574 92.8332 3.00003C92.8332 4.60717 91.5364 6.00003 89.8072 6.00003C88.1862 6.00003 86.7812 4.71432 86.7812 3.00003C86.7812 1.28574 88.0781 3.05176e-05 89.8072 3.05176e-05Z" fill="#E97522" fill-opacity="0.5"/>
<path d="M67.9772 3.05176e-05C69.5982 3.05176e-05 71.0032 1.28574 71.0032 3.00003C71.0032 4.60717 69.7063 6.00003 67.9772 6.00003C66.3561 6.00003 64.9512 4.71432 64.9512 3.00003C65.0592 1.28574 66.3561 3.05176e-05 67.9772 3.05176e-05Z" fill="#E97522" fill-opacity="0.5"/>
<path d="M46.4703 39C48.0914 39 49.4963 40.2857 49.4963 42C49.4963 43.6072 48.1995 45 46.4703 45C44.8493 45 43.4443 43.7143 43.4443 42C43.5524 40.3929 44.8493 39 46.4703 39Z" fill="#E97522" fill-opacity="0.5"/>
<path d="M24.7486 39C26.3697 39 27.7746 40.2857 27.7746 42C27.7746 43.6072 26.4778 45 24.7486 45C23.1276 45 21.7227 43.7143 21.7227 42C21.7227 40.3929 23.1276 39 24.7486 39Z" fill="#E97522" fill-opacity="0.5"/>
<path d="M3.02599 39C4.64706 39 6.05198 40.2857 6.05198 42C6.05198 43.6072 4.75513 45 3.02599 45C1.29685 45 0 43.6072 0 42C0 40.3929 1.29685 39 3.02599 39Z" fill="#E97522" fill-opacity="0.5"/>
<path d="M46.4703 19.5C48.0914 19.5 49.4963 20.7857 49.4963 22.5C49.4963 24.1072 48.1995 25.5 46.4703 25.5C44.8493 25.5 43.4443 24.2143 43.4443 22.5C43.5524 20.8929 44.8493 19.5 46.4703 19.5Z" fill="#E97522" fill-opacity="0.5"/>
<path d="M24.7486 19.5C26.3697 19.5 27.7746 20.7857 27.7746 22.5C27.7746 24.1072 26.4778 25.5 24.7486 25.5C23.1276 25.5 21.7227 24.2143 21.7227 22.5C21.7227 20.8929 23.1276 19.5 24.7486 19.5Z" fill="#E97522" fill-opacity="0.5"/>
<path d="M3.02599 19.5C4.64706 19.5 6.05198 20.7857 6.05198 22.5C6.05198 24.1072 4.75513 25.5 3.02599 25.5C1.29685 25.3929 0 24.1072 0 22.5C0 20.8929 1.29685 19.5 3.02599 19.5Z" fill="#E97522" fill-opacity="0.5"/>
<path d="M46.4703 3.05176e-05C48.0914 3.05176e-05 49.4963 1.28574 49.4963 3.00003C49.4963 4.60717 48.1995 6.00003 46.4703 6.00003C44.8493 6.00003 43.4443 4.71432 43.4443 3.00003C43.5524 1.28574 44.8493 3.05176e-05 46.4703 3.05176e-05Z" fill="#E97522" fill-opacity="0.5"/>
<path d="M24.7486 3.05176e-05C26.3697 3.05176e-05 27.7746 1.28574 27.7746 3.00003C27.7746 4.60717 26.4778 6.00003 24.7486 6.00003C23.1276 6.00003 21.7227 4.71432 21.7227 3.00003C21.7227 1.28574 23.1276 3.05176e-05 24.7486 3.05176e-05Z" fill="#E97522" fill-opacity="0.5"/>
<path d="M3.02599 3.05176e-05C4.64706 3.05176e-05 6.05198 1.28574 6.05198 3.00003C6.05198 4.60717 4.75513 6.00003 3.02599 6.00003C1.29685 5.89289 0 4.60717 0 3.00003C0 1.28574 1.29685 3.05176e-05 3.02599 3.05176e-05Z" fill="#E97522" fill-opacity="0.5"/>
</svg>
