<svg width="101" height="39" viewBox="0 0 101 39" fill="none" xmlns="http://www.w3.org/2000/svg">
<path d="M97.5262 32.5C99.2823 32.5 100.804 33.8929 100.804 35.75C100.804 37.4911 99.3994 39 97.5262 39C95.77 39 94.248 37.6071 94.248 35.75C94.3651 33.8929 95.77 32.5 97.5262 32.5Z" fill="#E97522"/>
<path d="M73.993 32.5C75.7492 32.5 77.2712 33.8929 77.2712 35.75C77.2712 37.4911 75.8662 39 73.993 39C72.2369 39 70.7148 37.6071 70.7148 35.75C70.8319 33.8929 72.2369 32.5 73.993 32.5Z" fill="#E97522"/>
<path d="M50.4598 32.5C52.2159 32.5 53.7379 33.8929 53.7379 35.75C53.7379 37.4911 52.333 39 50.4598 39C48.5866 39 47.1816 37.6071 47.1816 35.75C47.1816 33.8929 48.7036 32.5 50.4598 32.5Z" fill="#E97522"/>
<path d="M97.5281 16.25C99.2843 16.25 100.806 17.6429 100.806 19.5C100.806 21.2411 99.4014 22.75 97.5281 22.75C95.6549 22.75 94.25 21.3571 94.25 19.5C94.25 17.6429 95.772 16.25 97.5281 16.25Z" fill="#E97522"/>
<path d="M26.9266 32.5C28.6827 32.5 30.2048 33.8929 30.2048 35.75C30.2048 37.4911 28.7998 39 26.9266 39C25.1704 39 23.6484 37.6071 23.6484 35.75C23.6484 33.8929 25.0534 32.5 26.9266 32.5Z" fill="#E97522"/>
<path d="M49.8621 16.25C51.6183 16.25 53.1403 17.6429 53.1403 19.5C53.1403 21.2411 51.7354 22.75 49.8621 22.75C48.106 22.75 46.584 21.3571 46.584 19.5C46.584 17.6429 47.9889 16.25 49.8621 16.25Z" fill="#E97522"/>
<path d="M49.8621 0C51.6183 0 53.1403 1.39286 53.1403 3.25C53.1403 4.99107 51.7354 6.5 49.8621 6.5C48.106 6.5 46.584 5.10714 46.584 3.25C46.584 1.39286 47.9889 0 49.8621 0Z" fill="#E97522"/>
<path d="M3.27816 32.5C5.03431 32.5 6.55631 33.8929 6.55631 35.75C6.55631 37.4911 5.15139 39 3.27816 39C1.522 39 0 37.6071 0 35.75C0.117077 33.8929 1.522 32.5 3.27816 32.5Z" fill="#E97522"/>
<path d="M27.1121 16.25C28.8683 16.25 30.3903 17.6429 30.3903 19.5C30.3903 21.2411 28.9854 22.75 27.1121 22.75C25.356 22.75 23.834 21.3571 23.834 19.5C23.9511 17.6429 25.356 16.25 27.1121 16.25Z" fill="#E97522"/>
</svg>
